<svg width="48" height="48" viewBox="0 0 48 48" fill="none" xmlns="http://www.w3.org/2000/svg">
<circle cx="24" cy="24" r="24" fill="#EDF0F4"/>
<path d="M16.7732 23.8781C16.705 25.0641 17.618 26.0796 18.8041 26.1478C18.8468 26.1478 18.8894 26.1478 18.9321 26.1478C20.1267 26.1478 21.0909 25.1836 21.0824 23.989C21.0824 22.7944 20.1182 21.8301 18.9235 21.8387C17.7801 21.8387 16.833 22.7346 16.7732 23.8781Z" fill="#0033AD"/>
<path d="M8.73482 23.3236C8.35084 23.298 8.01806 23.5966 8.00099 23.9806C7.98392 24.3646 8.27404 24.6974 8.65803 24.7144C9.04201 24.74 9.36626 24.4414 9.39186 24.0574C9.41746 23.6734 9.11881 23.3492 8.73482 23.3236V23.3236Z" fill="#0033AD"/>
<path d="M16.6361 11.3688C16.9774 11.1982 17.114 10.7715 16.9433 10.4302C16.7726 10.0889 16.346 9.95237 16.0047 10.123C15.6634 10.2937 15.5268 10.7118 15.6975 11.0531C15.8682 11.403 16.2863 11.548 16.6361 11.3688C16.6276 11.3688 16.6361 11.3688 16.6361 11.3688Z" fill="#0033AD"/>
<path d="M18.8202 15.1831C19.3493 14.9186 19.5626 14.2701 19.2981 13.741C19.0336 13.212 18.3851 12.9987 17.856 13.2632C17.327 13.5277 17.1137 14.1762 17.3782 14.7053C17.6427 15.2343 18.2912 15.4476 18.8202 15.1831Z" fill="#0033AD"/>
<path d="M11.4652 17.8029C11.8748 18.0674 12.4209 17.9565 12.694 17.5469C12.9585 17.1373 12.8476 16.5912 12.438 16.3181C12.0284 16.0536 11.4823 16.1645 11.2092 16.5741V16.5741C10.9362 16.9837 11.0557 17.5383 11.4652 17.8029Z" fill="#0033AD"/>
<path d="M12.7707 22.9393C12.1734 22.9052 11.67 23.3574 11.6358 23.9547C11.6017 24.552 12.0539 25.0555 12.6513 25.0896C13.2486 25.1237 13.752 24.6715 13.7861 24.0742V24.0742C13.8203 23.4854 13.368 22.9734 12.7707 22.9393Z" fill="#0033AD"/>
<path d="M11.5847 30.1669C11.1495 30.3888 10.9703 30.9178 11.1922 31.3615C11.4141 31.7967 11.9431 31.9759 12.3868 31.754C12.822 31.5322 13.0012 31.0031 12.7793 30.5594V30.5594C12.5575 30.1242 12.0199 29.945 11.5847 30.1669V30.1669Z" fill="#0033AD"/>
<path d="M15.7658 20.7124C16.3546 21.0963 17.1396 20.9342 17.5151 20.3454C17.8991 19.7567 17.7369 18.9716 17.1482 18.5962C16.5594 18.2122 15.7744 18.3743 15.3989 18.9631C15.0149 19.5433 15.1771 20.3284 15.7658 20.7124V20.7124Z" fill="#0033AD"/>
<path d="M29.0346 15.0977C29.5295 15.4219 30.2036 15.2854 30.5279 14.7905C30.8521 14.2956 30.7156 13.6215 30.2207 13.2972C29.7258 12.973 29.0517 13.1095 28.7274 13.6044V13.6044C28.3946 14.1078 28.5312 14.7734 29.0346 15.0977V15.0977Z" fill="#0033AD"/>
<path d="M31.2365 11.3006C31.5608 11.5139 31.9874 11.42 32.2007 11.0958C32.4141 10.7715 32.3202 10.3449 31.996 10.1316C31.6717 9.91824 31.2451 10.0121 31.0317 10.3278C30.8269 10.6521 30.9208 11.0873 31.2365 11.3006V11.3006Z" fill="#0033AD"/>
<path d="M29.1971 21.8217C28.011 21.7534 26.987 22.6665 26.9273 23.8525C26.859 25.0386 27.7721 26.0626 28.9581 26.1223C29.0008 26.1223 29.0435 26.1223 29.0776 26.1223C30.2637 26.1223 31.2279 25.1581 31.2279 23.9635C31.2364 22.8286 30.3405 21.8814 29.1971 21.8217V21.8217Z" fill="#0033AD"/>
<path d="M19.5295 20.5588C19.8964 21.2841 20.6388 21.7449 21.4579 21.7449C22.644 21.7449 23.6083 20.7807 23.6083 19.5861C23.6083 19.2533 23.5315 18.9205 23.3779 18.6133C22.8403 17.5467 21.5433 17.1201 20.4852 17.6576C19.4186 18.2038 18.9919 19.5008 19.5295 20.5588V20.5588Z" fill="#0033AD"/>
<path d="M36.416 17.8027C36.8512 17.5808 37.0218 17.0433 36.8 16.6081C36.5781 16.1729 36.0405 16.0023 35.6054 16.2241C35.1702 16.446 34.9995 16.975 35.2128 17.4102C35.4432 17.8454 35.9723 18.0246 36.416 17.8027V17.8027Z" fill="#0033AD"/>
<path d="M30.9551 18.4854C30.3322 18.8012 30.0762 19.5606 30.392 20.1835C30.7077 20.8064 31.4671 21.0624 32.09 20.7467C32.7129 20.431 32.9689 19.6715 32.6532 19.0486C32.3375 18.4257 31.578 18.1783 30.9551 18.4854Z" fill="#0033AD"/>
<path d="M23.9146 10.9763C24.401 11.0019 24.8191 10.6265 24.8532 10.1401C24.8874 9.6537 24.5034 9.23559 24.017 9.20146C23.5306 9.17586 23.1125 9.54278 23.0784 10.0292C23.0528 10.5241 23.4282 10.9422 23.9146 10.9763V10.9763Z" fill="#0033AD"/>
<path d="M23.9068 16.5481C24.6065 16.5908 25.2038 16.0532 25.2379 15.3535C25.2806 14.6538 24.743 14.0565 24.0433 14.0224C23.3436 13.9797 22.7463 14.5173 22.7121 15.217C22.678 15.9167 23.2071 16.514 23.9068 16.5481V16.5481Z" fill="#0033AD"/>
<path d="M17.046 29.4843C17.6689 29.1686 17.9248 28.4092 17.6091 27.7863C17.2934 27.1633 16.534 26.9074 15.9111 27.2231C15.2882 27.5388 15.0322 28.2982 15.3479 28.9211C15.6636 29.544 16.423 29.8 17.046 29.4843Z" fill="#0033AD"/>
<path d="M24.725 18.4C24.0765 19.3984 24.3496 20.7295 25.348 21.378C26.3463 22.0265 27.6774 21.7535 28.326 20.7551C28.9745 19.7567 28.7014 18.4256 27.703 17.7771C27.3532 17.5467 26.9436 17.4272 26.5255 17.4272C25.8002 17.4272 25.1261 17.7942 24.725 18.4Z" fill="#0033AD"/>
<path d="M28.4713 27.4109C27.9337 26.3443 26.6367 25.9177 25.5786 26.4553C24.512 26.9928 24.0854 28.2898 24.6229 29.3479C25.1605 30.4145 26.4575 30.8412 27.5156 30.3036V30.3036C28.5737 29.7746 29.0089 28.4946 28.4798 27.428C28.4798 27.4195 28.4798 27.4195 28.4713 27.4109Z" fill="#0033AD"/>
<path d="M32.2344 27.2573C31.6456 26.8733 30.8606 27.0355 30.4852 27.6242C30.1012 28.213 30.2633 28.998 30.8521 29.3735C31.4408 29.7575 32.2259 29.5954 32.6013 29.0066C32.9853 28.4263 32.8232 27.6413 32.2344 27.2573V27.2573Z" fill="#0033AD"/>
<path d="M36.3649 24.0232C36.399 23.4259 35.9468 22.9224 35.3495 22.8883C34.7522 22.8542 34.2487 23.3064 34.2146 23.9037C34.1805 24.501 34.6327 25.0045 35.23 25.0386V25.0386C35.8188 25.0727 36.3308 24.6119 36.3649 24.0232Z" fill="#0033AD"/>
<path d="M39.3423 23.2554C38.9583 23.2298 38.6256 23.5285 38.6085 23.9125C38.5914 24.2965 38.8815 24.6292 39.2655 24.6463C39.6495 24.6719 39.9738 24.3733 39.9994 23.9893C40.0164 23.6053 39.7263 23.281 39.3423 23.2554Z" fill="#0033AD"/>
<path d="M36.5355 30.167C36.1259 29.9025 35.5798 30.0134 35.3067 30.423C35.0422 30.8326 35.1531 31.3787 35.5627 31.6517C35.9723 31.9163 36.5184 31.8053 36.7915 31.3958C37.0645 30.9862 36.9451 30.4315 36.5355 30.167V30.167Z" fill="#0033AD"/>
<path d="M16.7557 36.6692C16.4315 36.4558 16.0048 36.5497 15.7915 36.8654C15.5782 37.1897 15.672 37.6163 15.9878 37.8296C16.312 38.043 16.7387 37.9491 16.952 37.6334V37.6334C17.1738 37.3177 17.08 36.8825 16.7557 36.6692Z" fill="#0033AD"/>
<path d="M31.3637 36.6007C31.0224 36.7713 30.8859 37.198 31.0566 37.5393C31.2272 37.8806 31.6539 38.0172 31.9952 37.8465C32.3365 37.6758 32.473 37.2577 32.3024 36.9164C32.1317 36.5666 31.7136 36.4215 31.3637 36.6007C31.3723 36.6007 31.3637 36.6007 31.3637 36.6007Z" fill="#0033AD"/>
<path d="M23.2748 29.5696C23.9233 28.5712 23.6503 27.2401 22.6519 26.583C21.6536 25.9345 20.3224 26.2076 19.6654 27.2059C19.0083 28.2043 19.2899 29.5354 20.2883 30.1925C20.6381 30.4229 21.0477 30.5423 21.4658 30.5423C22.1997 30.5508 22.8738 30.1839 23.2748 29.5696Z" fill="#0033AD"/>
<path d="M18.9657 32.8719C18.4708 32.5477 17.7967 32.6842 17.4724 33.1791C17.1481 33.674 17.2847 34.3481 17.7796 34.6724C18.2745 34.9966 18.9486 34.8601 19.2729 34.3652V34.3652C19.6056 33.8703 19.4691 33.1962 18.9657 32.8719Z" fill="#0033AD"/>
<path d="M23.9916 36.9934C23.5053 36.9678 23.0871 37.3433 23.053 37.8297C23.0189 38.316 23.4029 38.7341 23.8892 38.7683C24.3756 38.7939 24.7937 38.427 24.8279 37.9406C24.8535 37.4457 24.478 37.0276 23.9916 36.9934V36.9934Z" fill="#0033AD"/>
<path d="M24 31.4213C23.3003 31.3787 22.703 31.9162 22.6689 32.6159C22.6262 33.3156 23.1638 33.9129 23.8635 33.9471C24.5632 33.9812 25.1605 33.4522 25.1947 32.7525C25.2373 32.0613 24.6997 31.4555 24 31.4213V31.4213Z" fill="#0033AD"/>
<path d="M29.1799 32.7867C28.6508 33.0598 28.4375 33.7083 28.7106 34.2373C28.9836 34.7664 29.6321 34.9797 30.1612 34.7066C30.6902 34.4421 30.9035 33.7936 30.639 33.2646C30.366 32.7355 29.7175 32.5137 29.1799 32.7867V32.7867Z" fill="#0033AD"/>
</svg>
