<svg width="48" height="48" viewBox="0 0 48 48" fill="none" xmlns="http://www.w3.org/2000/svg">
<path d="M48 24C48 10.7328 37.2414 0 24 0C10.7328 0 0 10.7328 0 24C0 37.2414 10.7328 48 24 48C37.2414 48 48 37.2414 48 24Z" fill="url(#paint0_radial_1183_46218)"/>
<path d="M40.3189 16.5C40.2154 17.0948 40.112 17.3793 39.9568 17.6896C39.8016 18.0517 39.6465 18.4396 39.4913 19.2672C39.4396 19.5776 39.3878 19.8362 39.362 20.0431V20.069C39.3103 20.4052 39.2844 20.6379 39.1551 21.0259C39.0516 21.3621 38.8706 21.9052 38.431 22.4741C38.0689 22.9396 37.4741 23.7414 36.6723 23.8448C36.5947 23.8448 36.4654 23.8448 36.3878 23.819C34.112 22.6552 32.1723 21.8017 31.4999 21.6207C30.7241 21.3879 30.8275 19.681 30.9051 18.181C30.9568 17.5086 30.9827 16.8621 30.9568 16.319C30.8534 14.4052 30.5172 12.3362 28.862 11.3276C27.8792 10.7328 26.5861 10.5517 25.3706 10.5517C25.6034 10.4483 25.8361 10.2931 26.1206 10.1379C26.8447 9.72413 27.7241 9.20689 28.6292 9.10344C28.9137 9.07758 29.1982 9.05172 29.4827 8.99999C31.2672 8.79309 32.8189 8.61206 34.4482 9.18103C35.1982 9.43965 36.6982 10.2672 37.0861 11.069C37.3706 11.6121 37.8361 12.0517 38.7413 12.9052C39.2327 13.3448 39.543 13.6034 39.7758 13.8103C40.112 14.069 40.1637 14.1465 40.2672 14.3276C40.5775 14.9483 40.4741 15.5948 40.3189 16.5Z" fill="white"/>
<path d="M32.0691 24.3363C32.1725 24.3621 32.2243 24.4914 32.1467 24.5949C31.9139 24.957 31.6294 25.4742 31.2932 26.069C31.138 26.3535 30.9829 26.638 30.8536 26.8449C30.4139 27.5949 30.388 28.2414 30.3622 28.7328C30.3363 29.2759 30.3105 29.5087 29.9743 29.7156C29.7156 29.8966 29.4311 29.9483 27.5691 30.2328C27.2329 30.2845 27.1036 30.3363 26.9743 30.4138C26.9484 30.4397 26.8967 30.4397 26.8708 30.4656C26.7674 30.5173 26.6639 30.4138 26.6639 30.3104C26.6898 30.0518 26.6898 29.7156 26.6898 29.2759V29.1983C26.6898 28.8363 26.6898 28.5259 26.6639 28.2932C26.638 27.8276 26.638 27.6207 26.7674 27.4138C26.9225 27.1552 27.0518 27.0776 27.2329 26.9483C27.5174 26.7673 27.9053 26.5345 28.4484 25.7587C28.7587 25.3449 28.8105 25.1121 28.8622 24.9311C28.888 24.8535 28.888 24.8276 29.1208 24.6466C29.3536 24.4656 30.1036 23.8966 31.0605 24.0518C31.3708 24.1035 31.707 24.207 32.0691 24.3363Z" fill="white"/>
<path d="M24.6467 32.9224C24.595 32.9741 24.5692 33 24.4916 33C24.2847 33 24.1554 32.9483 24.0778 32.8448C23.8967 32.612 23.9226 32.1465 23.9485 31.862L24.7502 31.6552C24.8019 32.0948 24.8278 32.6896 24.6467 32.9224Z" fill="white"/>
<path d="M24.6982 30.0776C24.6724 30.1811 24.6724 30.3104 24.6724 30.4655C24.6724 30.5173 24.6724 30.569 24.6724 30.6207C24.6724 30.75 24.6724 30.9569 24.6724 31.0604C24.4138 31.138 24.2069 31.138 23.9482 31.138C23.9482 31.0604 23.9482 30.9311 23.9482 30.8535C23.9482 30.8017 23.9482 30.7242 23.9482 30.6724C23.9482 30.5949 23.9482 30.5431 23.9482 30.4655C23.9482 30.3104 23.9482 30.0776 23.9741 30C24.0517 30 24.1293 29.9742 24.2069 29.9483C24.362 29.9224 24.5948 29.8707 24.7241 29.8966C24.7241 29.9483 24.7241 30.0259 24.6982 30.0776Z" fill="white"/>
<path d="M23.2499 32.6897C23.224 33.1035 23.0947 33.5949 22.7067 33.6725C22.5257 33.6983 22.4481 33.6466 22.3964 33.5949C22.1378 33.3621 22.1119 32.638 22.1378 32.1207C22.3188 32.1207 22.5257 32.0949 22.7843 32.0431C22.9395 32.0173 23.0947 31.9656 23.224 31.9397C23.2499 32.1466 23.2757 32.4052 23.2499 32.6897Z" fill="white"/>
<path d="M23.0688 31.2414L22.2153 31.5518C22.2671 31.2156 22.3188 30.75 22.3446 30.4397C22.3705 30.2328 22.4222 30.1552 22.4481 30.1294C22.4481 30.1294 22.474 30.1035 22.4998 30.1035C22.4998 30.1035 22.4998 30.1035 22.5257 30.1035H22.5515L23.0946 30.0776C23.0688 30.3363 23.0688 30.9052 23.0688 31.2414Z" fill="white"/>
<path d="M21.6726 30.9828C21.6208 31.1121 21.5691 31.4742 21.5433 31.7328L20.4829 31.707C20.5346 31.3708 20.6381 31.0345 20.7157 30.7759C20.8191 30.5173 20.8967 30.3104 21.0002 30.2587C21.1036 30.207 21.3364 30.1811 21.4915 30.3104C21.7243 30.4656 21.776 30.6983 21.6726 30.9828Z" fill="white"/>
<path d="M21.2843 34.2672C21.2067 34.3706 21.1032 34.4482 20.9998 34.4482C20.8705 34.4741 20.7929 34.4224 20.7153 34.3706C20.3791 34.0603 20.405 33.0517 20.4308 32.5603C20.8705 32.4568 21.3619 32.3793 21.5946 32.3534C21.5946 32.7413 21.6205 33.8017 21.2843 34.2672Z" fill="white"/>
<path d="M19.888 31.6552C19.8363 31.7845 19.7846 31.9138 19.7587 32.0431C19.6294 32.0948 19.2414 32.0431 18.8535 31.9655L19.1121 30.2845C19.5518 30.1552 20.069 30.1293 20.1725 30.2586C20.3535 30.4396 20.0173 31.2931 19.888 31.6552Z" fill="white"/>
<path d="M19.3963 34.5C19.1894 34.7586 18.879 34.8879 18.4394 34.8621C18.129 34.8621 18.0256 34.7327 17.9739 34.6552C17.7411 34.2672 17.9739 33.3621 18.2066 32.7931L19.6549 32.8707C19.6807 32.9741 19.6807 33.1034 19.6807 33.2327C19.7066 33.6724 19.6549 34.1896 19.3963 34.5Z" fill="white"/>
<path d="M31.3968 22.2673C30.0778 21.9052 30.2071 19.9914 30.3106 18.1293C30.3365 17.4828 30.3882 16.8621 30.3623 16.3449C30.2589 14.6121 29.9744 12.7242 28.5778 11.8707C27.0778 10.9656 24.6209 11.1725 23.1209 11.3535C22.5778 11.5087 22.0606 11.638 21.6468 11.6121C20.7675 11.5604 20.0692 11.1983 19.4485 10.8621C18.983 10.6035 18.5692 10.3707 18.1554 10.3707C18.1296 10.3707 18.1037 10.3707 18.1037 10.3707C16.9399 10.4483 16.3968 10.7328 15.9054 11.1725C15.7761 11.2759 15.6209 11.5862 15.1296 13.0087C14.8709 13.7328 14.8451 14.1207 14.7934 14.4828C14.7416 14.819 14.7158 15.1811 14.5347 15.7242C14.4054 16.0862 14.302 16.3966 14.2244 16.7069C13.9916 17.5087 13.7847 18.1552 13.2158 18.9311C13.1382 19.0087 13.0606 19.1638 12.9571 19.2931C12.8278 19.5 12.6727 19.7587 12.4399 20.0431C12.2847 20.25 11.9485 21.0259 11.9744 21.2587C12.0003 21.6466 12.1296 21.8793 12.2589 22.138C12.3882 22.3966 12.5692 22.7069 12.5951 23.1466V23.2242C12.6468 23.8966 12.5434 24.2328 11.2761 25.3707C10.4744 26.0949 9.87956 26.7931 9.49163 27.3104C9.46577 27.3621 9.49163 27.4138 9.56922 27.4138C9.59508 27.4138 9.59508 27.4138 9.59508 27.4138C9.62094 27.4138 9.6468 27.4138 9.67267 27.4138C9.69853 27.4138 9.72439 27.4138 9.75025 27.4138C9.77611 27.4138 9.80198 27.4138 9.82784 27.4138C10.1382 27.4397 10.4485 27.569 10.6554 27.8018C10.6813 27.8535 10.7589 27.8535 10.8106 27.8276C11.0175 27.75 11.2503 27.75 11.4571 27.7759C11.7158 27.8018 12.0003 27.8793 12.1813 28.0604C12.233 28.1121 12.3106 28.138 12.3882 28.1121C12.5951 28.0604 12.8278 28.0604 13.0347 28.138C13.1899 28.1897 13.3451 28.2931 13.4485 28.4225C13.5261 28.5 13.6554 28.5259 13.7589 28.4742C13.8106 28.4483 13.8882 28.3966 13.9658 28.3707C14.2503 28.2673 14.5606 28.319 14.8192 28.4225C14.9485 28.4742 15.0778 28.5 15.2071 28.6035C15.414 28.7587 15.5692 28.9656 15.6468 29.1983C15.6985 29.3276 15.8796 29.3793 15.983 29.2759C16.1899 29.1207 16.3451 29.0949 16.5003 29.1466C16.5778 29.1725 16.6296 29.2242 16.6813 29.3018C16.7589 29.4052 16.8882 29.5087 16.9916 29.4569C17.4313 29.3276 17.9485 29.4052 18.3365 29.6121C18.4658 29.6897 18.6209 29.7931 18.6985 29.9483V29.8707C18.6985 29.8449 18.7244 29.819 18.7503 29.7931L18.8278 29.7673C19.0347 29.6897 20.1209 29.3793 20.5347 29.819C20.5606 29.8449 20.5865 29.8449 20.6123 29.819C20.664 29.7673 20.7158 29.7156 20.7416 29.7156C21.0261 29.5604 21.4916 29.5345 21.802 29.819C21.8537 29.8707 21.9571 29.8449 22.0089 29.7931C22.0347 29.7414 22.0606 29.7156 22.1123 29.6897C22.2158 29.5862 22.3709 29.5604 22.5261 29.5604L23.1209 29.5345C23.2761 29.5345 23.7416 29.4828 23.8709 29.4569H23.8968C23.9485 29.4569 24.0261 29.4311 24.1037 29.4052C24.3882 29.3535 24.7244 29.2759 24.983 29.4052C25.2416 29.5345 25.2158 29.819 25.1899 30.0776C25.1899 30.1811 25.164 30.2845 25.164 30.388C25.164 30.4397 25.164 30.4914 25.164 30.5431C25.164 30.7759 25.164 30.9828 25.1382 31.138L25.164 31.2673C25.164 31.2673 25.164 31.2673 25.164 31.2931C25.1899 31.3966 25.3192 31.4742 25.3968 31.3966C25.6037 31.2673 25.8106 31.1121 25.8882 31.0087V30.9828C25.8882 30.9569 25.914 30.9052 25.9399 30.8018C25.9658 30.569 26.0175 30.1293 26.0175 29.2242C26.0175 29.1725 26.0175 29.1466 26.0175 29.1207C26.0175 28.7845 26.0175 28.5 25.9916 28.2673C25.9658 27.7759 25.9399 27.388 26.1985 27C26.4313 26.6121 26.664 26.4828 26.8968 26.3276C27.1554 26.1725 27.4399 25.9914 27.9313 25.319C28.164 24.9828 28.1899 24.8535 28.2158 24.75C28.2675 24.4914 28.3451 24.3362 28.733 24.0776C29.0434 23.8449 29.9485 23.1466 31.1899 23.3535C31.6037 23.4311 32.2503 23.638 32.9227 23.8966C32.9485 23.8966 32.9744 23.9225 33.0003 23.9225H33.0261C33.6209 24.1552 34.164 24.4138 34.552 24.6207C34.6296 24.6725 34.733 24.6466 34.8106 24.569C34.9399 24.4138 35.0692 24.3362 35.1985 24.2328C35.2503 24.2069 35.302 24.1811 35.3278 24.1552C35.3537 24.1552 35.3537 24.1293 35.3537 24.1293C35.4571 24.0518 35.4572 23.8449 35.3278 23.7931C33.5951 22.9397 31.9399 22.4225 31.3968 22.2673ZM18.9313 22.6552C18.5175 24.4138 15.7761 26.3793 14.5347 26.3793H14.5089C14.483 26.3793 14.4571 26.3793 14.4571 26.3793C14.4313 26.3793 14.4054 26.3793 14.3796 26.3535C14.3537 26.3535 14.3537 26.3535 14.3278 26.3535C14.0951 26.2759 13.7847 26.1207 13.552 25.888C13.3968 25.7328 13.2675 25.5259 13.2158 25.3449C13.2158 25.319 13.1899 25.2673 13.1899 25.2414C13.1123 24.9311 13.0347 24.569 13.2934 23.9483C13.3192 23.8707 13.3709 23.7931 13.3968 23.7156C13.3968 23.6897 13.4227 23.6638 13.4227 23.638C13.4485 23.5604 13.4744 23.5087 13.5003 23.4569C13.5261 23.3535 13.5778 23.2759 13.6037 23.2242C13.6037 23.1983 13.6296 23.1725 13.6296 23.1466C13.7071 22.9397 13.7071 22.8621 13.733 22.7845C13.733 22.7328 13.7589 22.6293 13.7847 22.5259C13.8623 22.1897 13.914 21.9052 13.9399 21.6725C13.9916 21.2328 14.0692 20.8449 14.302 20.4828C14.3537 20.4311 14.3796 20.3793 14.4313 20.3276C14.4571 20.3018 14.4571 20.3018 14.483 20.2759C14.5089 20.25 14.5089 20.25 14.5347 20.2242C14.5865 20.1725 14.664 20.1466 14.7158 20.1207C14.7416 20.1207 14.7675 20.0949 14.7934 20.0949C14.8451 20.069 14.8968 20.069 14.9485 20.0431C15.1813 19.9914 15.4399 19.9914 15.7503 20.0173C16.0865 20.0431 16.3968 20.0949 16.6554 20.1725C16.8882 20.2242 17.0951 20.3018 17.2503 20.3793C17.2761 20.3793 17.2761 20.4052 17.302 20.4052C17.3278 20.4311 17.3537 20.4311 17.4054 20.4569C17.4571 20.4828 17.483 20.4828 17.5347 20.5087C17.5865 20.5345 17.6382 20.5604 17.6899 20.5862L17.7416 20.6121C17.9227 20.6897 18.1037 20.7931 18.233 20.8966C18.3106 20.9483 18.3623 21 18.414 21.0518C18.4399 21.0776 18.4658 21.0776 18.4658 21.1035C18.4916 21.1293 18.4916 21.1293 18.5175 21.1552C19.0606 21.6207 19.0347 22.2673 18.9313 22.6552ZM20.2244 15.9569L20.1727 16.2673C20.0434 16.9914 19.7589 17.9742 18.7244 18.2328C17.7158 18.4656 17.483 18.5173 16.7847 18.569C16.7589 18.569 16.7589 18.569 16.733 18.569C16.2158 18.569 15.2071 18.2328 15.0261 17.4311C14.9227 16.9138 15.1554 16.5259 15.5175 15.9052C15.5692 15.8018 15.6468 15.6983 15.7244 15.569C16.2416 14.7156 16.4227 14.0949 16.5778 13.6035C16.733 13.1121 16.8623 12.7242 17.1985 12.388C17.2761 12.3104 17.3537 12.2328 17.4571 12.1811C17.5089 12.1293 17.5865 12.1035 17.664 12.0518C17.7675 12 17.8709 11.9742 17.9744 11.9225C18.2071 11.8449 18.4658 11.819 18.6985 11.819C19.1899 11.819 19.6813 11.9483 20.0175 12.2328C20.1727 12.3621 20.4054 12.5949 20.5347 13.3449C20.5865 13.7328 20.483 14.4311 20.2244 15.9569ZM27.6468 18.0259C27.2847 18.6466 27.1037 18.9828 26.7934 19.2414C26.1727 19.7587 25.4744 19.8621 24.8796 19.8621C24.4658 19.8621 24.1037 19.7845 23.8709 19.7587C23.2503 19.6552 22.1382 19.4483 21.7503 18.5431C21.6727 18.3621 21.6727 18.2587 21.6727 18.1035C21.6727 17.9742 21.6727 17.7156 21.5951 17.1725V17.1466C21.5692 16.888 21.5434 16.6035 21.5951 16.2414V16.1897C21.802 15.1035 21.8796 14.9483 21.9054 14.8449C22.0089 14.638 22.2675 14.5345 22.5003 14.6638C22.7071 14.7673 22.7847 15.0259 22.7071 15.2328C22.6813 15.2845 22.6296 15.5173 22.4485 16.3707V16.4225C22.3968 16.6552 22.4227 16.8362 22.4485 17.069V17.0949C22.5261 17.7156 22.5261 17.9742 22.5261 18.1293C22.5261 18.1552 22.5261 18.1811 22.5261 18.2069V18.2328C22.6037 18.4138 22.7589 18.5173 22.9399 18.6207C23.0692 18.6725 23.1985 18.569 23.1727 18.4397C22.9916 17.4828 22.9916 16.3707 23.3537 15.6725C23.483 15.4397 23.6899 15.0776 23.8968 14.7156C23.9227 14.6897 23.9485 14.638 23.9485 14.6121C23.9744 14.5862 23.9744 14.5604 24.0003 14.5345C24.1037 14.3793 24.1813 14.25 24.2589 14.1207C24.2589 14.0949 24.2847 14.0949 24.2847 14.069L24.3106 14.0431C24.3365 14.0173 24.3365 13.9914 24.3623 13.9656C24.3623 13.9656 24.3623 13.9397 24.3882 13.9397L24.414 13.9138C24.414 13.888 24.4399 13.888 24.4399 13.8621C24.5175 13.7587 24.5951 13.6552 24.6468 13.5518C24.7503 13.4225 24.6209 13.2673 24.4916 13.319C24.1296 13.4742 23.8968 13.6552 23.8451 13.6811C23.664 13.8362 23.3796 13.8104 23.2244 13.6035C23.0692 13.4225 23.0951 13.138 23.302 12.9828C23.5347 12.8018 24.7244 11.9483 26.1468 12.3362C27.1813 12.6207 27.6985 13.4225 27.9054 13.7069C28.0606 13.9397 28.5778 14.6638 28.552 15.6983C28.552 16.4483 28.2416 17.0173 27.6468 18.0259Z" fill="white"/>
<path d="M18.3879 12.7241C18.3103 12.9052 18.2327 13.1121 18.1293 13.3448C17.9224 13.8879 17.6637 14.5086 17.5344 14.7414C17.3275 15.1293 17.1724 15.3879 17.0431 15.5689C16.8879 15.8017 16.7844 15.9827 16.681 16.2414C16.5258 16.681 16.4999 17.1724 16.6034 17.7155C16.3189 17.6896 15.8793 17.5086 15.8275 17.25C15.8017 17.0689 15.9051 16.8879 16.2155 16.3448C16.2672 16.2414 16.3448 16.1121 16.4224 16.0086C16.9655 15.0776 17.1982 14.3793 17.3534 13.8621C17.5344 13.3189 17.612 13.0862 17.8965 12.8793C18.0775 12.8017 18.2327 12.75 18.3879 12.7241Z" fill="white"/>
<path d="M17.8446 32.2758C17.5343 32.8965 17.1722 33.4655 16.9394 33.75C16.7325 33.2327 16.3963 32.0172 16.4998 31.0603C16.4998 31.0344 16.4998 31.0086 16.4998 30.9827C16.5256 30.6724 16.6032 30.4138 16.7584 30.181C16.8618 30.0258 17.1205 29.9482 17.4049 29.9482C17.6118 29.9482 17.8446 30 18.0515 30.1034C18.1549 30.1551 18.3101 30.2844 18.3101 30.6207C18.3618 31.0862 18.1291 31.7069 17.8446 32.2758Z" fill="white"/>
<path d="M34.3965 25.3706C34.4224 25.3965 34.4224 25.4224 34.4224 25.4482C34.3448 25.6293 34.2155 25.7586 34.0862 25.9137C33.931 26.0948 33.75 26.3017 33.5948 26.6379C33.3621 27.1034 33.2845 27.5172 33.2586 28.6034C33.2069 29.8706 33.2586 30.5689 33.3103 31.0862C33.3362 31.5775 33.3621 31.8879 33.2845 32.3793C33.1034 33.362 32.6896 34.0086 32.1465 34.8362C31.4741 35.8706 30.8017 36.931 29.6638 37.2672C29.5603 37.2931 29.5603 37.2931 29.25 37.2931C28.9914 37.2931 28.5517 37.2931 27.75 37.3189C26.25 37.3706 25.5 37.3965 24.8793 37.5258C24.2069 37.6551 23.8707 37.8103 23.5086 37.9396C23.1983 38.0689 22.9138 38.1724 22.3707 38.3017C22.0345 38.3793 21.5431 38.431 19.8621 38.4568C18.1034 38.4568 17.0431 38.4568 15.6724 38.3017C13.7586 38.0948 12.8017 37.9655 12.1552 37.6293C10.6552 36.8275 10.0086 35.3793 8.97412 32.9999C8.97412 32.9741 8.99998 32.9482 9.02585 32.9482C9.07757 32.9741 9.12929 32.9999 9.18102 33.0258C9.23274 33.0517 9.28447 33.0517 9.31033 33.0517C9.41378 33.0775 9.51722 33.0775 9.62067 33.0517C9.64653 33.0517 9.64654 33.0517 9.6724 33.0258C9.69826 33.0258 9.72412 33.0258 9.72412 33.0517C9.80171 33.2327 9.90516 33.3879 10.0862 33.4913C10.2672 33.5948 10.4741 33.5948 10.6552 33.5948C10.8621 33.5948 11.0689 33.5689 11.2758 33.5431C11.3793 33.5431 11.4827 33.5948 11.5345 33.6724C11.7155 34.1379 11.9483 34.4482 12.3103 34.4999C12.3362 34.4999 12.3621 34.4999 12.3879 34.4999C12.4655 34.4999 12.5948 34.4741 12.75 34.3706C12.8793 34.2672 13.0862 34.3448 13.1896 34.4741C13.2672 34.6034 13.3707 34.681 13.4741 34.7586C13.8362 35.1206 14.7155 35.3017 15.4396 35.3017C15.8276 35.3017 16.1896 35.2499 16.3965 35.1465C16.7069 34.9913 16.7069 34.7844 16.681 34.681C16.6552 34.5258 16.6293 34.3448 16.6034 34.1896C16.6034 34.1637 16.6293 34.1637 16.6293 34.1896C16.681 34.2931 16.7327 34.3965 16.8621 34.4224C16.8879 34.4224 16.8879 34.4224 16.9138 34.4224C17.1207 34.4224 17.431 34.5 17.4827 34.681C17.5086 34.7844 17.5603 34.862 17.6121 34.9655C17.7414 35.1465 17.9741 35.3793 18.4655 35.4051H18.4914C19.0603 35.4051 19.5 35.2241 19.7845 34.862C19.8103 34.8362 19.8103 34.8103 19.8362 34.7844C19.9396 34.6293 20.25 34.6293 20.3793 34.7586C20.5345 34.8879 20.7155 34.9655 20.9224 34.9655C20.9483 34.9655 21 34.9655 21.0258 34.9655C21.2845 34.9396 21.4914 34.8103 21.6724 34.5775C21.7758 34.4224 21.8534 34.2413 21.9052 34.0344C21.931 33.9827 22.0086 33.9568 22.0603 34.0086C22.1638 34.112 22.3448 34.2155 22.6034 34.2155C22.6552 34.2155 22.7327 34.2155 22.8103 34.1896C23.3017 34.0862 23.5603 33.6724 23.6638 33.2327C23.6638 33.2068 23.6896 33.2068 23.6896 33.2327C23.8189 33.3879 24.0517 33.5689 24.4396 33.5689C24.4655 33.5689 24.4914 33.5689 24.4914 33.5689C24.6983 33.5689 24.8793 33.4655 25.0086 33.3103C25.1638 33.1034 25.2155 32.7931 25.2414 32.5086C25.2414 32.431 25.2931 32.3534 25.3965 32.3017C25.8103 32.1206 26.3276 31.7327 26.4827 31.4741C26.4827 31.4741 26.4827 31.4482 26.5086 31.4482C26.5345 31.3706 26.612 31.3189 26.6638 31.3189C27 31.2672 27.1293 31.1896 27.2586 31.1379C27.3621 31.0862 27.4396 31.0603 27.6983 31.0086C29.5862 30.7241 29.9483 30.6465 30.3621 30.3879C30.9827 29.9741 31.0086 29.4051 31.0345 28.862C31.0603 28.3965 31.0862 27.8793 31.4483 27.2586C31.5776 27.0258 31.7327 26.7672 31.8879 26.4568C32.1724 25.9396 32.5603 25.2155 32.8448 24.8275C32.8965 24.7499 33 24.7241 33.0776 24.7758C33.7241 25.0086 34.2931 25.2672 34.3965 25.3706Z" fill="white"/>
<path d="M16.0344 31.0086C15.9569 31.6552 15.9051 32.5345 16.0086 33.6724C16.0344 33.9828 16.0862 34.319 16.1379 34.6552C16.0603 34.7069 15.7758 34.7845 15.3103 34.7586C14.6379 34.7328 13.9655 34.5776 13.7586 34.3449L13.7327 34.319C13.5776 34.1897 13.4482 34.0862 13.4482 33.8535C13.4482 33.7759 13.4741 33.6983 13.5517 33.569C13.6034 33.5173 13.6551 33.4397 13.7069 33.3362C13.8103 33.1811 13.9655 33 14.1207 32.7414C14.5603 32.0173 14.7155 31.7845 14.9224 31.5C14.9482 31.4742 14.9482 31.4483 14.9741 31.4224C15.1034 31.2673 15.2327 31.0604 15.4655 30.7242C15.6207 30.4914 15.75 30.2845 15.8793 30.1293C16.0603 29.8707 16.1896 29.7414 16.2672 29.6638C16.2672 29.7673 16.2413 29.9224 16.2155 30.0776C16.112 30.388 16.0603 30.6724 16.0344 31.0086Z" fill="white"/>
<path d="M15.6985 20.8189C15.6985 20.8448 15.6985 20.8448 15.6985 20.8189C15.5951 20.9482 15.4916 21.1034 15.3623 21.362C15.0261 22.0862 15.0261 22.5 15.0261 22.8362C15.0261 23.0172 15.0261 23.1465 14.9744 23.3017C14.9485 23.4051 14.8968 23.5345 14.8192 23.6638C14.6382 24.1034 14.3795 24.6724 14.483 25.4482C14.3278 25.3707 14.0951 25.1896 14.0433 25.112C14.0433 25.0603 14.0175 25.0345 14.0175 24.9827C13.9658 24.75 13.9399 24.5948 14.0692 24.2327C14.483 23.3017 14.5347 23.0689 14.5606 22.8103C14.5606 22.7586 14.5864 22.7069 14.5864 22.6293C14.664 22.2672 14.7158 21.9569 14.7416 21.6982C14.7933 21.3103 14.8451 21.0517 14.9744 20.8707C15.0261 20.7931 15.1554 20.7672 15.3364 20.7672C15.414 20.7672 15.4916 20.7672 15.5951 20.7931H15.6209C15.6985 20.8189 15.6985 20.8189 15.6985 20.8189Z" fill="white"/>
<path d="M15.1811 30.0517C15.1552 29.8189 15.1294 29.612 15.0259 29.3793C15.0259 29.3793 15.0001 29.3275 15.0001 29.3017C14.9742 29.2758 14.9742 29.25 14.9483 29.2241L14.9225 29.1982C14.8966 29.1724 14.8966 29.1724 14.8707 29.1724L14.8449 29.1465C14.819 29.1465 14.819 29.1206 14.7932 29.1206H14.7673C14.638 29.0689 14.5087 29.0172 14.3535 28.9913C14.3276 28.9913 14.3018 28.9913 14.3018 28.9913C14.2759 28.9913 14.2759 28.9913 14.2501 28.9913H14.2242C14.1983 28.9913 14.1725 29.0172 14.1207 29.0172C14.0949 29.0172 14.0949 29.0431 14.069 29.0431L14.0432 29.0689C14.0173 29.0948 14.0173 29.0948 13.9914 29.1206L13.9656 29.1465V29.1724C13.9138 29.25 13.8621 29.3275 13.8104 29.4051C13.6811 29.5862 13.5518 29.7931 13.4225 29.9741C13.2932 30.1551 13.1897 30.3103 13.0604 30.4913C12.9828 30.5948 12.9311 30.6724 12.8535 30.7758C12.8535 30.8017 12.8276 30.8017 12.8276 30.8275C12.9052 30.8534 12.9828 30.8534 13.0604 30.8793C13.2414 30.9051 13.4225 30.931 13.5776 30.9568C13.9397 31.0086 14.3276 31.0344 14.6897 31.0086C14.7156 31.0086 14.7156 31.0086 14.7414 31.0086C14.819 30.8793 14.9483 30.7241 15.0776 30.5172C15.1552 30.4137 15.2328 30.3103 15.2845 30.2069C15.2069 30.181 15.1811 30.1034 15.1811 30.0517Z" fill="white"/>
<path d="M13.8623 31.5775C13.8364 31.862 13.5261 32.5862 13.0347 33.2844C12.6209 33.8534 12.3623 34.0086 12.3106 34.0086C12.1037 33.9827 11.9226 33.4913 11.7675 33C11.7157 32.7931 11.6382 32.612 11.6123 32.431C11.5088 32.0689 11.483 31.5517 11.5088 31.2413C11.9226 31.4741 12.6468 31.5258 13.6813 31.5258C13.733 31.5517 13.8106 31.5517 13.8623 31.5775Z" fill="white"/>
<path d="M13.1379 29.25C12.9568 29.5345 12.7758 29.7931 12.5948 30.0517C12.4913 30.181 12.4137 30.3104 12.3103 30.4397C12.2586 30.5173 12.181 30.5948 12.1293 30.6724C11.9741 30.6466 11.8448 30.5948 11.6896 30.569C11.5603 30.5431 11.4568 30.4914 11.3275 30.4397C11.3017 30.4397 11.2758 30.4138 11.2499 30.4138C11.2241 30.3879 11.1982 30.3362 11.1724 30.3104C11.2241 30.2328 11.2499 30.1293 11.3017 30.0517C11.3793 29.8966 11.4568 29.7414 11.5603 29.5862C11.7155 29.3276 11.8965 29.0431 12.181 28.8621C12.2068 28.8621 12.2068 28.8362 12.2327 28.8362C12.3362 28.7845 12.4396 28.7328 12.5689 28.7069C12.5948 28.7069 12.6724 28.7069 12.7241 28.7069H12.7499C12.7499 28.7069 12.7499 28.7069 12.7758 28.7069C12.8017 28.7069 12.8275 28.7328 12.8793 28.7328C12.8793 28.7328 12.9051 28.7328 12.9051 28.7586C12.931 28.7845 12.9568 28.7845 12.9827 28.8104C12.931 28.7845 13.0344 28.8879 13.0344 28.8621C13.0862 29.0173 13.112 29.0948 13.1379 29.25Z" fill="white"/>
<path d="M11.7415 28.5C11.4053 28.7586 11.1725 29.1207 10.9915 29.5086C10.888 29.7155 10.7846 29.9224 10.6812 30.1293C10.6812 30.1551 10.6553 30.181 10.6553 30.181C10.5518 30.1551 10.4484 30.1293 10.3708 30.1034C10.2674 30.0776 10.1639 30.0258 10.0605 30C10.0087 29.9741 9.98288 29.9482 9.93115 29.9224C10.0346 29.7413 10.138 29.5603 10.2674 29.3793C10.4225 29.1465 10.6036 28.8879 10.7846 28.681C10.8622 28.6034 10.9398 28.5 11.0174 28.4482C11.1208 28.3965 11.2243 28.3965 11.3536 28.4224C11.4829 28.4224 11.6122 28.4224 11.7156 28.4741C11.6898 28.4741 11.7156 28.5 11.7415 28.5Z" fill="white"/>
<path d="M11.2242 32.8966C11.1983 32.9225 11.1983 32.9225 11.1724 32.9483H11.1466C11.069 32.9483 10.9914 32.9742 10.9138 32.9742C10.7586 32.9742 10.6035 33.0001 10.4483 32.9742C10.3707 32.9742 10.2931 32.9483 10.2414 32.8966C10.1897 32.819 10.1638 32.6639 10.1379 32.5604C10.0345 31.9914 10.0345 31.4225 10.0862 30.8535C10.3707 30.957 10.681 31.0345 10.9914 31.0863C10.9138 31.6035 11.0431 32.3535 11.0948 32.5604C11.1724 32.6639 11.1983 32.7932 11.2242 32.8966Z" fill="white"/>
<path d="M10.2929 28.3189C10.0343 28.6293 9.80154 28.9655 9.59464 29.3276C9.51706 29.4569 9.41361 29.612 9.33602 29.7672C9.23257 29.7414 9.12912 29.6896 9.05154 29.6379C8.97395 29.5862 8.89637 29.5345 8.84464 29.4827C8.81878 29.4569 8.76706 29.431 8.74119 29.4051C8.74119 29.4051 8.71533 29.4051 8.71533 29.3793C8.74119 29.3017 8.79292 29.25 8.79292 29.1983C8.84464 29.0689 8.89637 28.9655 8.97395 28.862C9.10326 28.6551 9.23257 28.4483 9.38775 28.2414C9.43947 28.1638 9.49119 28.0862 9.59464 28.0603C9.67223 28.0345 9.77568 28.0603 9.85326 28.0603C10.0084 28.0862 10.1636 28.1896 10.2929 28.3189Z" fill="white"/>
<path d="M8.30156 29.6897C8.30156 29.6638 8.32742 29.6638 8.30156 29.6897C8.40501 29.7931 8.4826 29.8707 8.58604 29.9483C8.63777 29.9742 8.66363 30.0259 8.71536 30.0518C8.71536 30.0518 8.71536 30.0518 8.71536 30.0776C8.61191 30.5173 8.53432 30.9828 8.53432 31.4483C8.53432 31.4742 8.50846 31.4742 8.50846 31.4483C8.37915 30.9052 8.22398 30.0259 8.30156 29.6897Z" fill="white"/>
<path d="M9.56884 30.6466C9.51712 31.0345 9.49125 31.4225 9.51712 31.8104C9.51712 32.0173 9.54298 32.2242 9.56884 32.4569C9.51712 32.4569 9.46539 32.4569 9.41367 32.4569H9.38781H9.36194C9.31022 32.4311 9.31022 32.4311 9.2585 32.4052C9.20677 32.3794 9.15505 32.3018 9.10332 32.2242C8.99987 32.0431 8.97401 31.8363 8.97401 31.6294C8.94815 31.2414 8.99987 30.8276 9.07746 30.4397C9.12918 30.4656 9.20677 30.4914 9.28436 30.5173C9.38781 30.569 9.46539 30.6207 9.56884 30.6466Z" fill="white"/>
<defs>
<radialGradient id="paint0_radial_1183_46218" cx="0" cy="0" r="1" gradientUnits="userSpaceOnUse" gradientTransform="translate(24.0009 26.5074) rotate(90) scale(26.96)">
<stop offset="0.1667" stop-color="#073183"/>
<stop offset="1" stop-color="#0054F9"/>
</radialGradient>
</defs>
</svg>
