<svg width="48" height="48" viewBox="0 0 48 48" fill="none" xmlns="http://www.w3.org/2000/svg">
<circle cx="24" cy="24" r="24" fill="#2E3148"/>
<circle cx="24" cy="23.9999" r="13.926" fill="#1B1E36"/>
<path fill-rule="evenodd" clip-rule="evenodd" d="M19.358 24.0495C19.358 12.4582 21.4587 3.06177 24.0494 3.06177C26.64 3.06177 28.7407 12.4582 28.7407 24.0495C28.7407 35.6407 26.64 45.0372 24.0494 45.0372C21.4587 45.0372 19.358 35.6407 19.358 24.0495ZM23.7808 43.9514C23.7808 43.9514 24.077 44.2479 24.3733 43.8527C24.3733 43.8527 25.7649 42.6666 26.7585 37.0371C26.7585 37.0371 28.0493 29.6298 27.8517 23.0125C27.8517 23.0125 28.0493 15.4076 25.8676 7.30881C25.8676 7.30881 25.1288 4.69838 24.2479 4.07418C24.1012 3.96989 23.9009 3.98609 23.7729 4.11258C23.1658 4.71297 21.3817 7.41729 20.401 18.8651C20.401 18.8651 19.9043 33.2849 21.9911 40.0008C21.9911 40.0008 22.5877 42.569 23.7808 43.9514Z" fill="#6F7390"/>
<path fill-rule="evenodd" clip-rule="evenodd" d="M21.7099 19.9793C31.769 14.2113 40.964 11.357 42.2539 13.6049C43.5428 15.8519 36.4472 22.3505 26.3882 28.1186C16.3291 33.8867 7.13305 36.74 5.84415 34.493C4.55526 32.246 11.6508 25.7474 21.7099 19.9793ZM6.6519 33.7166C6.6519 33.7166 6.54035 34.1224 7.03417 34.1847H7.03436C7.03436 34.1847 8.75487 34.8019 14.1326 32.8641C14.1326 32.8641 21.2001 30.2992 26.8417 26.8336C26.8417 26.8336 33.5369 23.2197 39.472 17.2948C39.472 17.2948 41.3734 15.3556 41.4721 14.2804C41.4908 14.1008 41.3772 13.9338 41.2033 13.8853C40.3825 13.6593 37.1469 13.4548 26.7301 18.3013C26.7301 18.3013 13.9744 25.046 9.18534 30.1985C9.18534 30.1985 7.25766 31.9941 6.6519 33.7166Z" fill="#6F7390"/>
<path fill-rule="evenodd" clip-rule="evenodd" d="M26.4067 19.9861C36.4305 25.7975 43.5081 32.3259 42.2083 34.5679C40.9096 36.8139 31.7272 33.9241 21.6977 28.1127C11.6682 22.3012 4.59167 15.7767 5.89035 13.5308C7.18904 11.285 16.383 14.1746 26.4067 19.9861ZM6.96498 13.8323C6.96498 13.8323 6.55967 13.9419 6.75167 14.3972L6.75301 14.4021C6.75301 14.4021 7.08172 16.1987 11.457 19.8826C11.457 19.8826 17.2151 24.7152 23.0383 27.856C23.0383 27.856 29.5192 31.8371 37.623 34.01C37.623 34.01 40.2522 34.6796 41.2339 34.2302C41.3981 34.1557 41.4848 33.9739 41.4393 33.7995C41.223 32.9758 39.7791 30.0741 30.3648 23.4864C30.3648 23.4864 18.1373 15.8272 11.28 14.2656C11.28 14.2656 8.75941 13.4934 6.96498 13.8323Z" fill="#6F7390"/>
<circle cx="24" cy="23.9999" r="2.46912" fill="#B7B9C8"/>
<ellipse cx="34.1234" cy="14.5186" rx="1.43213" ry="1.48147" fill="#B7B9C8"/>
<ellipse cx="10.6172" cy="19.5557" rx="1.43213" ry="1.48147" fill="#B7B9C8"/>
<ellipse cx="21.0864" cy="37.7283" rx="1.43213" ry="1.48147" fill="#B7B9C8"/>
</svg>
