<svg width="48" height="48" viewBox="0 0 48 48" fill="none" xmlns="http://www.w3.org/2000/svg">
<circle cx="24" cy="24" r="24" fill="#E84142"/>
<path fill-rule="evenodd" clip-rule="evenodd" d="M25.4362 7.12477C24.6047 5.68855 23.2819 5.68855 22.4504 7.12477L7.35115 33.7137C6.51966 35.1689 7.19997 36.3216 8.86296 36.3216H16.4409C17.9716 36.2271 19.3512 35.4145 20.1827 34.1295L29.3102 18.3122C29.9716 16.9515 29.9716 15.3452 29.3102 13.9846L26.5889 9.20351L25.4362 7.12477ZM35.4708 24.624C34.6393 23.1878 33.2976 23.1878 32.4661 24.624L27.1937 33.7138C26.3811 35.15 27.0614 36.3216 28.7055 36.3216H39.137C40.8 36.3216 41.4803 35.15 40.6488 33.7138L35.4708 24.624Z" fill="white"/>
</svg>
