<svg width="48" height="48" viewBox="0 0 48 48" fill="none" xmlns="http://www.w3.org/2000/svg">
<path fill-rule="evenodd" clip-rule="evenodd" d="M24 0C37.2528 0 48 10.7472 48 24C48 37.2528 37.2528 48 24 48C10.7472 48 0 37.2528 0 24C0 10.7472 10.7472 0 24 0V0Z" fill="#0055D5"/>
<path fill-rule="evenodd" clip-rule="evenodd" d="M13.056 15.8783C13.056 15.8783 10.4736 13.8143 10.296 18.9119C10.1184 22.8623 10.1232 30.5327 11.952 34.1567C12.7248 35.5199 13.7568 35.1023 15.6768 33.7439C17.3472 32.5103 23.3904 26.9423 25.9488 24.4991C28.5072 22.0559 33.696 15.0479 34.776 19.8095C35.2032 21.8111 35.7312 23.5103 35.328 27.9503C35.2032 29.3183 34.6176 30.3551 31.9488 28.5023C29.9328 27.2063 28.0176 25.8143 28.0176 25.8143C28.0176 25.8143 27.648 25.1519 26.7744 26.2271C26.088 27.0863 25.7424 27.2975 26.8416 27.9503C27.9456 28.6031 33.528 32.4527 35.6688 33.0527C37.4352 33.5663 38.4432 33.5567 38.496 30.0863C38.4864 27.3311 38.328 19.4447 37.3248 16.0847C36.5664 13.9919 35.4528 13.0415 33.048 15.3935C30.6432 17.7455 23.0592 25.0991 18.912 28.4303C16.1616 30.4943 14.9856 32.3567 13.9488 28.9151C13.2192 26.3087 12.2736 18.1967 15.2592 19.7423C17.1264 20.6351 18.0576 20.6303 17.328 21.1919C16.5984 21.7487 14.5008 23.6735 14.5008 23.6735C14.5008 23.6735 13.8528 24.1967 14.1552 25.3295C14.4576 26.1215 14.4576 26.5151 16.0848 24.9839C17.712 23.4527 18.912 22.2959 18.912 22.2959C18.912 22.2959 19.1712 21.8879 19.944 22.6415C20.7168 23.3951 20.8416 23.6063 20.8416 23.6063C20.8416 23.6063 21.048 24.1679 21.8736 23.1935C22.704 22.2191 23.2368 21.6239 21.6672 20.7119C20.1024 19.7903 13.056 15.8783 13.056 15.8783V15.8783Z" fill="white"/>
</svg>
