<svg width="48" height="48" viewBox="0 0 48 48" fill="none" xmlns="http://www.w3.org/2000/svg">
<circle cx="24" cy="24" r="24" fill="#8DC351"/>
<path fill-rule="evenodd" clip-rule="evenodd" d="M31.8207 15.9164C30.6195 12.9313 27.7665 12.782 24.3129 13.3791L23.1116 9.19995L20.5589 9.94622L21.7602 13.9761C21.5169 14.0365 21.2489 14.1215 20.9663 14.2111C20.5513 14.3427 20.1046 14.4843 19.658 14.5731L18.4567 10.394L15.9041 11.1402L17.1053 15.3194C16.805 15.394 16.5422 15.4686 16.2795 15.5432C16.0167 15.6179 15.7539 15.6925 15.4536 15.7671L12 16.9611L12.7508 19.6477C12.7508 19.6477 14.7028 19.0507 14.5527 19.0507C15.6038 18.7522 16.0542 19.2 16.3546 19.797L17.706 24.5731H18.0063L17.706 24.7223L19.658 31.4388C19.658 31.7373 19.658 32.3343 18.9072 32.6328L17.1053 33.2298L17.4057 36.3641L20.7091 35.4686L22.511 35.0208L23.7122 39.2L26.2649 38.4537L25.0637 34.2746C25.8144 34.1253 26.4151 33.9761 27.1659 33.6776L28.3671 37.8567L30.9198 37.1104L29.7185 32.9313C33.9229 31.4388 36.6257 29.4985 35.875 25.3194C35.2743 22.0358 33.3223 20.991 30.6195 21.1403C32.121 19.6477 32.7217 18.1552 31.8207 15.9164ZM30.9198 26.0656C31.714 28.8286 27.4908 30.0838 25.2446 30.7514L25.2444 30.7515C24.9426 30.8412 24.6765 30.9203 24.463 30.991L22.8113 25.3194C23.0481 25.2605 23.3446 25.1733 23.6833 25.0737L23.6833 25.0737C25.922 24.4151 30.0068 23.2136 30.9198 26.0656ZM22.4792 22.6619C24.2745 22.1548 28.1445 21.0616 27.316 18.4537C26.6368 15.7533 22.8856 16.9615 21.0646 17.548C20.8727 17.6098 20.7021 17.6647 20.5589 17.7074L22.0605 22.782C22.1812 22.7461 22.3223 22.7062 22.4792 22.6619Z" fill="white"/>
</svg>
