<svg width="48" height="48" viewBox="0 0 48 48" fill="none" xmlns="http://www.w3.org/2000/svg">
<path d="M47.282 29.8057C44.0766 42.663 31.0543 50.4877 18.1955 47.2815C5.34208 44.0761 -2.4826 31.053 0.724182 18.1967C3.92815 5.33806 16.9505 -2.48721 29.8053 0.718162C42.6631 3.92354 50.4874 16.9481 47.2816 29.806L47.2819 29.8057H47.282Z" fill="#F7931A"/>
<path fill-rule="evenodd" clip-rule="evenodd" d="M34.5857 20.5807C35.0633 17.3868 32.6317 15.67 29.3067 14.5247L30.3854 10.1983L27.7518 9.54205L26.7017 13.7545C26.0094 13.5818 25.2984 13.4191 24.5917 13.2578L25.6493 9.01756L23.0174 8.36133L21.9381 12.6863C21.3652 12.5559 20.8025 12.4269 20.2565 12.2911L20.2595 12.2775L16.6277 11.3706L15.9272 14.1834C15.9272 14.1834 17.8811 14.6313 17.8399 14.6589C18.9064 14.925 19.0992 15.631 19.0672 16.1906L17.8385 21.1194C17.9119 21.138 18.0072 21.165 18.1123 21.2072L18.0358 21.1881L18.0357 21.1881C17.9708 21.1718 17.9032 21.155 17.8339 21.1384L16.1117 28.0429C15.9814 28.3669 15.6506 28.8531 14.9049 28.6685C14.9313 28.7067 12.9908 28.1908 12.9908 28.1908L11.6833 31.2054L15.1105 32.0598C15.4857 32.1539 15.8566 32.2506 16.2237 32.3463L16.2237 32.3463C16.4803 32.4132 16.735 32.4796 16.9881 32.5443L15.8983 36.9203L18.5289 37.5765L19.6081 33.247C20.3268 33.442 21.0242 33.622 21.7069 33.7916L20.6313 38.1008L23.265 38.757L24.3547 34.3892C28.8456 35.2391 32.2223 34.8965 33.6437 30.8345C34.789 27.5641 33.5866 25.6778 31.224 24.4477C32.9448 24.0508 34.241 22.919 34.5866 20.581L34.5858 20.5804L34.5857 20.5807ZM28.5685 29.0183C27.8218 32.0188 23.1252 30.7783 20.9764 30.2107C20.7831 30.1597 20.6104 30.1141 20.4631 30.0775L21.9093 24.28C22.0888 24.3249 22.3082 24.3741 22.5567 24.4299L22.5569 24.4299C24.7796 24.9287 29.3335 25.9507 28.5686 29.0183H28.5685ZM23.0027 21.7392C24.7942 22.2173 28.7023 23.2603 29.383 20.5333H29.3832C30.0782 17.7442 26.2801 16.9033 24.4252 16.4926C24.2165 16.4464 24.0324 16.4057 23.8821 16.3682L22.5709 21.6261C22.6947 21.657 22.84 21.6958 23.0027 21.7392Z" fill="white"/>
</svg>
