<svg width="48" height="48" viewBox="0 0 48 48" fill="none" xmlns="http://www.w3.org/2000/svg">
<circle cx="24" cy="24" r="24" fill="white"/>
<path d="M28.6189 25.153C28.6189 24.8338 28.6189 24.6742 28.3011 24.5147C27.1888 23.7168 25.9176 22.9189 24.8053 22.121C24.5648 21.9597 24.2513 21.9597 24.0108 22.121L20.515 24.6742C20.2172 24.8268 20.0322 25.1365 20.0383 25.4721C20.0308 25.8162 19.9201 26.1499 19.7205 26.4296C19.5598 26.6711 19.5598 26.986 19.7205 27.2275C20.9917 29.7807 22.104 32.334 23.3752 34.8872C23.8519 35.6851 24.1697 36.6425 24.6464 37.6C24.8053 37.4404 24.8053 37.2808 24.9642 37.1213C26.3943 33.9297 27.6655 30.7382 29.0956 27.5466C29.2545 27.2275 29.2545 27.0679 28.9367 26.9083C28.575 26.4003 28.4584 25.7564 28.6189 25.153Z" fill="#CD0124"/>
<path d="M23.2 20.9559C20 18.7173 16.8 16.4786 13.76 14.3999L13.6 14.5598C13.76 14.8796 13.76 15.0395 13.92 15.3593L17.28 22.555C17.6 23.1946 17.76 23.8342 18.72 23.9941C18.9965 24.019 19.2743 23.9635 19.52 23.8342C20.48 23.0347 21.6 22.3951 22.56 21.5956L23.2 20.9559Z" fill="#CD0124"/>
<path fill-rule="evenodd" clip-rule="evenodd" d="M0 24C0 10.7452 10.7452 0 24 0C30.3652 0 36.4697 2.52856 40.9706 7.02944C45.4714 11.5303 48 17.6348 48 24C48 37.2548 37.2548 48 24 48C10.7452 48 0 37.2548 0 24ZM36.32 14.4C36.48 14.08 36.64 13.92 36.96 13.92C37.9823 13.7609 38.7323 12.8746 38.72 11.84C38.6523 10.9752 38.0913 10.2272 37.28 9.92C36.4382 9.60335 35.4908 9.9417 35.04 10.72C34.88 11.2 34.56 11.2 34.24 11.2H13.92C13.44 11.2 13.28 11.2 13.12 10.88C12.6158 10.0717 11.6083 9.73589 10.72 10.08C9.89354 10.4552 9.34027 11.2544 9.28 12.16C9.33171 13.1387 10.0695 13.9435 11.04 14.08C11.52 14.08 11.68 14.24 11.68 14.4C13.28 17.6 14.72 20.64 16.16 23.84C16.3218 24.0821 16.3218 24.3979 16.16 24.64C15.826 25.2218 15.798 25.9302 16.0852 26.5365C16.3724 27.1427 16.9383 27.5699 17.6 27.68C17.9543 27.7517 18.2522 27.9901 18.4 28.32C19.2 29.92 19.96 31.52 20.72 33.12C21.48 34.72 22.24 36.32 23.04 37.92C23.1993 38.2202 23.1993 38.5798 23.04 38.88C22.7637 39.283 22.6591 39.7793 22.7491 40.2595C22.8391 40.7398 23.1165 41.1645 23.52 41.44C24.2935 42.0335 25.3864 41.9652 26.08 41.28C26.8807 40.596 27.0201 39.4111 26.4 38.56C26.2382 38.3179 26.2382 38.0021 26.4 37.76C27.68 34.56 29.12 31.2 30.56 28C30.72 27.68 30.88 27.52 31.04 27.52C31.6196 27.3452 32.0942 26.9266 32.3401 26.3734C32.586 25.8202 32.5786 25.1873 32.32 24.64V24C32.96 22.4 33.64 20.8 34.32 19.1999C35 17.6 35.68 16 36.32 14.4Z" fill="#CD0124"/>
<path d="M24 19.8781C24.2402 20.0407 24.5534 20.0407 24.7937 19.8781C27.8095 17.626 30.8254 15.5347 33.6825 13.2826C33.8413 13.1218 34 13.1218 34 12.9609V12.8H14C14.1816 12.8676 14.3448 12.9779 14.4762 13.1218L24 19.8781Z" fill="#CD0124"/>
<path d="M25.6 20.99C26.8571 21.9423 28.1143 22.7359 29.3714 23.5295C29.6857 23.6882 30.1571 23.5295 30.6285 23.5295C30.7857 23.5295 30.9428 23.2121 30.9428 23.0534C32.0428 20.5139 33.1428 17.8157 34.2428 15.2762C34.2428 15.1175 34.4 14.9588 34.4 14.8H34.2428C31.5714 16.7047 28.5857 18.768 25.6 20.99Z" fill="#CD0124"/>
</svg>
