<svg width="0" height="0" class="hidden"><symbol xmlns="http://www.w3.org/2000/svg" fill="none" viewBox="0 0 48 48" id="BTC"><path fill="#F7931A" d="M47.282 29.806c-3.205 12.857-16.228 20.682-29.086 17.476C5.341 44.075-2.483 31.053.723 18.197 3.928 5.338 16.951-2.487 29.805.718c12.858 3.206 20.682 16.23 17.477 29.088Z"></path><path fill="#fff" fill-rule="evenodd" d="M34.586 20.58c.477-3.193-1.954-4.91-5.28-6.055l1.08-4.327-2.634-.656-1.05 4.213c-.693-.173-1.404-.336-2.11-.497l1.057-4.24-2.632-.657-1.079 4.325c-.573-.13-1.136-.26-1.681-.395l.002-.014-3.631-.906-.7 2.812s1.953.448 1.912.476c1.066.266 1.26.972 1.227 1.532l-1.229 4.928c.074.019.17.046.274.088l-.076-.019a18.917 18.917 0 0 0-.202-.05l-1.722 6.905c-.13.324-.461.81-1.207.626.026.038-1.914-.478-1.914-.478l-1.308 3.014 3.428.855c.375.094.746.19 1.113.286.256.067.511.134.764.198l-1.09 4.376 2.63.657 1.08-4.33c.719.195 1.416.375 2.099.545L20.63 38.1l2.634.656 1.09-4.368c4.49.85 7.867.508 9.289-3.555 1.145-3.27-.057-5.156-2.42-6.386 1.72-.397 3.017-1.529 3.363-3.867h-.001Zm-6.017 8.438c-.747 3-5.444 1.76-7.593 1.193-.193-.051-.366-.097-.513-.133l1.446-5.798c.18.045.4.094.648.15 2.223.499 6.777 1.52 6.012 4.588Zm-5.566-7.279c1.791.478 5.7 1.521 6.38-1.206.695-2.789-3.103-3.63-4.958-4.04-.209-.047-.393-.087-.543-.125l-1.311 5.258c.124.031.269.07.432.113Z" clip-rule="evenodd"></path></symbol><symbol xmlns="http://www.w3.org/2000/svg" fill="none" viewBox="0 0 48 48" id="CHZ"><circle cx="24" cy="24" r="24" fill="#fff"></circle><path fill="#CD0124" d="M28.619 25.153c0-.32 0-.479-.318-.638-1.112-.798-2.383-1.596-3.496-2.394a.713.713 0 0 0-.794 0l-3.496 2.553a.878.878 0 0 0-.477.798 1.713 1.713 0 0 1-.317.958.72.72 0 0 0 0 .797c1.27 2.554 2.383 5.107 3.654 7.66.477.798.795 1.755 1.271 2.713.16-.16.16-.32.318-.479 1.43-3.191 2.702-6.383 4.132-9.574.159-.32.159-.48-.16-.639a2.098 2.098 0 0 1-.317-1.755ZM23.2 20.956c-3.2-2.239-6.4-4.477-9.44-6.556l-.16.16c.16.32.16.48.32.8l3.36 7.195c.32.64.48 1.28 1.44 1.44.277.024.554-.032.8-.16.96-.8 2.08-1.44 3.04-2.24l.64-.64Z"></path><path fill="#CD0124" fill-rule="evenodd" d="M0 24C0 10.745 10.745 0 24 0a24 24 0 0 1 24 24c0 13.255-10.745 24-24 24S0 37.255 0 24Zm36.32-9.6c.16-.32.32-.48.64-.48a2.08 2.08 0 0 0 1.76-2.08 2.24 2.24 0 0 0-1.44-1.92 1.84 1.84 0 0 0-2.24.8c-.16.48-.48.48-.8.48H13.92c-.48 0-.64 0-.8-.32a1.984 1.984 0 0 0-2.4-.8 2.464 2.464 0 0 0-1.44 2.08c.052.979.79 1.784 1.76 1.92.48 0 .64.16.64.32 1.6 3.2 3.04 6.24 4.48 9.44a.72.72 0 0 1 0 .8 2.048 2.048 0 0 0 1.44 3.04c.354.072.652.31.8.64.8 1.6 1.56 3.2 2.32 4.8.76 1.6 1.52 3.2 2.32 4.8.16.3.16.66 0 .96a1.84 1.84 0 0 0 .48 2.56 1.952 1.952 0 0 0 2.56-.16c.8-.684.94-1.869.32-2.72a.72.72 0 0 1 0-.8c1.28-3.2 2.72-6.56 4.16-9.76.16-.32.32-.48.48-.48a2.08 2.08 0 0 0 1.28-2.88V24c.64-1.6 1.32-3.2 2-4.8.68-1.6 1.36-3.2 2-4.8Z" clip-rule="evenodd"></path><path fill="#CD0124" d="M24 19.878c.24.163.553.163.794 0 3.015-2.252 6.031-4.343 8.888-6.595.16-.161.318-.161.318-.322V12.8H14c.182.068.345.178.476.322L24 19.878ZM25.6 20.99c1.257.952 2.514 1.746 3.771 2.54.315.158.786 0 1.258 0 .157 0 .314-.318.314-.477 1.1-2.54 2.2-5.237 3.3-7.777 0-.159.157-.317.157-.476h-.157c-2.672 1.905-5.657 3.968-8.643 6.19Z"></path></symbol><symbol xmlns="http://www.w3.org/2000/svg" fill="none" viewBox="0 0 48 48" id="COMP"><path fill="#070A0E" d="M24 48c13.255 0 24-10.745 24-24S37.255 0 24 0 0 10.745 0 24s10.745 24 24 24Z"></path><path fill="#00D395" fill-rule="evenodd" d="M13.865 32.047a2.416 2.416 0 0 1-1.157-2.059v-4.69a1.006 1.006 0 0 1 1.517-.868l10.581 6.17c.62.36 1.001 1.022 1.001 1.74v4.858a1.205 1.205 0 0 1-1.838 1.032l-10.104-6.183Zm15.773-8.901a2.02 2.02 0 0 1 1 1.74v9.859c0 .29-.156.559-.41.7l-2.316 1.304a.404.404 0 0 1-.094.038v-5.474c0-.708-.372-1.366-.981-1.73l-9.293-5.559v-6.18a1.006 1.006 0 0 1 1.517-.869l10.577 6.17Zm4.632-7.282a2.013 2.013 0 0 1 1.003 1.742v14.4a.816.816 0 0 1-.425.708L32.652 33.9V23.875a2.02 2.02 0 0 0-.977-1.728l-9.499-5.697v-5.861c0-.178.048-.353.134-.507a1.01 1.01 0 0 1 1.378-.364l10.582 6.146Z" clip-rule="evenodd"></path></symbol><symbol xmlns="http://www.w3.org/2000/svg" viewBox="0 0 32 32" id="CRV"><g fill="none" fill-rule="evenodd"><circle cx="16" cy="16" r="16" fill="#40649F" fill-rule="nonzero"></circle><path fill="#FFF" d="M12.997 7.25c1.751 0 6.08.835 10.19 3.806 4.11 2.971 2.264 7.147 1.345 7.962-.92.815-8.108 1.891-8.556 2.635-.448.743-.97 3.597-3.21 3.597s-3.282-2.27-3.81-3.587c-.53-1.317-1.206-3.548-1.206-6.676S9.1 7.25 12.997 7.25zm-1.394 8.279-.136.005c-1.353.101-1.99 2.085-1.847 4.247.143 2.162 1.773 4.004 2.756 4.004.983 0 2.44-1.306 2.15-4.13-.291-2.825-1.706-4.223-3.059-4.121zm7.456-3.515c-1.895-.737-4.694-1.407-3.81.53.298.651.538 1.783.721 3.395 3.524-.26 5.64-.68 6.345-1.26 1.057-.868-1.362-1.927-3.256-2.665z"></path></g></symbol><symbol xmlns="http://www.w3.org/2000/svg" fill="none" viewBox="0 0 48 48" id="DAI"><path fill="#F5AC37" d="M24 0c13.256 0 24 10.746 24 24 0 13.256-10.744 24-24 24C10.746 48 0 37.255 0 24 0 10.746 10.746 0 24 0Z"></path><path fill="#FEFEFD" fill-rule="evenodd" d="M12.57 37.23v.09l-.004.003v.015h10.41a18.461 18.461 0 0 0 3.51-.285 16.225 16.225 0 0 0 3.54-1.124c.491-.228.963-.503 1.438-.78l.363-.21a18.06 18.06 0 0 0 1.604-1.29 11.995 11.995 0 0 0 3.15-4.59.375.375 0 0 1 .436-.285h2.835c.226 0 .3-.076.3-.33v-1.816c.015-.174.015-.35 0-.524 0-.046.012-.09.024-.136.023-.09.046-.18-.024-.27h-2.368c-.286 0-.286-.03-.286-.285a15.32 15.32 0 0 0 0-2.745c-.015-.27.045-.27.255-.27h2.07c.24 0 .33-.06.33-.3v-2.46c-.007-.163-.01-.246-.054-.288-.044-.043-.13-.043-.305-.043h-2.685a.39.39 0 0 1-.448-.315c-.308-.805-.7-1.575-1.172-2.295a14.458 14.458 0 0 0-1.605-1.995 13.23 13.23 0 0 0-2.64-2.04 14.66 14.66 0 0 0-4.694-1.74 17.133 17.133 0 0 0-2.43-.27H12.87c-.3 0-.3.06-.3.3v8.085c0 .285-.06.285-.285.285H9.06c-.24 0-.24.045-.24.21v2.64c0 .24.075.24.255.24h3.255c.24 0 .24.044.24.224v2.82c0 .255-.076.255-.27.255H8.82v2.85c0 .24.075.24.255.24h3.255c.24 0 .24.029.24.224v8.205Zm20.716-18.164a.292.292 0 0 1 0 .209h.072c-.03.09-.18.12-.18.12h-17.31c-.285 0-.285-.06-.285-.285v-5.325c0-.195.03-.285.255-.285h8.055c.857-.007 1.713.082 2.55.27a10.783 10.783 0 0 1 4.5 2.28c.26.193.49.421.69.675.424.42.795.888 1.11 1.395.21.297.39.614.543.945Zm.718 6.628h-18.06c-.182 0-.272 0-.317-.044-.043-.044-.043-.13-.043-.3v-2.67c0-.21.06-.285.286-.285h18.15c.194 0 .284.075.284.255.075.929.075 1.862 0 2.79-.014.254-.106.254-.3.254Zm-.718 3.12a3.51 3.51 0 0 0-.767 0H15.885c-.225 0-.3 0-.3.301v5.206c0 .24 0 .3.3.3h7.68c.367.028.734.002 1.094-.075 1.114-.08 2.21-.322 3.256-.72.38-.132.747-.303 1.094-.51h.105a9.744 9.744 0 0 0 4.185-4.213s.104-.227-.013-.286v-.002Z" clip-rule="evenodd"></path></symbol><symbol xmlns="http://www.w3.org/2000/svg" viewBox="0 0 32 32" id="DOGE"><g fill="none" fill-rule="evenodd"><circle cx="16" cy="16" r="16" fill="#C3A634"></circle><path fill="#FFF" d="M13.248 14.61h4.314v2.286h-4.314v4.818h2.721c1.077 0 1.958-.145 2.644-.437.686-.291 1.224-.694 1.615-1.21a4.4 4.4 0 0 0 .796-1.815 11.4 11.4 0 0 0 .21-2.252 11.4 11.4 0 0 0-.21-2.252 4.396 4.396 0 0 0-.796-1.815c-.391-.516-.93-.919-1.615-1.21-.686-.292-1.567-.437-2.644-.437h-2.721v4.325zm-2.766 2.286H9v-2.285h1.482V8h6.549c1.21 0 2.257.21 3.142.627.885.419 1.607.99 2.168 1.715.56.724.977 1.572 1.25 2.543.273.971.409 2.01.409 3.115a11.47 11.47 0 0 1-.41 3.115c-.272.97-.689 1.819-1.25 2.543-.56.725-1.282 1.296-2.167 1.715-.885.418-1.933.627-3.142.627h-6.549v-7.104z"></path></g></symbol><symbol xmlns="http://www.w3.org/2000/svg" fill="none" viewBox="0 0 48 48" id="DOT"><circle cx="24" cy="24" r="24" fill="#EDF0F4"></circle><path fill="#1E1E1E" d="M24.103 8C17.43 8.027 12.027 13.43 12 20.103c0 1.337.216 2.664.638 3.932a1.73 1.73 0 0 0 2.13 1.06 1.723 1.723 0 0 0 1.028-2.121 7.988 7.988 0 0 1-.47-3.085 8.731 8.731 0 1 1 9.256 8.977s-1.699.103-2.544.207a8.81 8.81 0 0 0-.925.184.111.111 0 0 1-.159 0h-.001a.11.11 0 0 1 0-.136l.263-1.434 1.595-7.177a1.659 1.659 0 1 0-3.244-.694s-3.795 17.565-3.795 17.725a1.595 1.595 0 0 0 1.18 1.945h.089a1.594 1.594 0 0 0 1.953-1.188.42.42 0 0 1 0-.08c.047-.206.526-2.543.526-2.543a4.305 4.305 0 0 1 3.563-3.39c.367-.055 1.906-.159 1.906-.159 6.648-.662 11.5-6.589 10.836-13.237A12.095 12.095 0 0 0 24.103 8Z"></path><path fill="#E6007A" d="M24.837 35.907a2.017 2.017 0 0 0-2.385 1.564l-.007.03a2.009 2.009 0 0 0 1.54 2.392h.056a1.976 1.976 0 0 0 2.386-1.457c.002-.008.003-.017.006-.025v-.11a2.091 2.091 0 0 0-1.596-2.394Z"></path></symbol><symbol xmlns="http://www.w3.org/2000/svg" fill="none" viewBox="0 0 48 48" id="DYDX"><rect width="48" height="48" fill="#1A1A27" rx="24"></rect><path fill="#fff" fill-rule="evenodd" d="M29.387 11.649h5.35L17.51 35.776h-5.262l17.139-24.127Zm-6.286 7.11-5.043-7.11h-5.37l7.782 10.987 2.63-3.878Zm-1.32.013-1.33 1.962-5.668-8.001h2.715l4.284 6.039Zm-7.433 15.92h2.604l15.68-21.96h-2.686l-15.598 21.96Z" clip-rule="evenodd"></path><path fill="url(#a)" fill-rule="evenodd" d="M30.562 34.752h2.602l-6.105-8.67-1.351 1.93 4.854 6.74Zm-6.184-6.731 5.629 7.814h5.246l-8.197-11.64-2.678 3.826Z" clip-rule="evenodd"></path><defs><linearGradient id="a" x1="31.189" x2="22.519" y1="34.003" y2="22.09" gradientUnits="userSpaceOnUse"><stop stop-color="#6966FF"></stop><stop offset="1" stop-color="#6966FF" stop-opacity=".36"></stop></linearGradient></defs></symbol><symbol xmlns="http://www.w3.org/2000/svg" fill="none" viewBox="0 0 48 48" id="EGLD"><g clip-path="url(#a)"><circle cx="24" cy="24" r="24" fill="#EDF0F4"></circle><path fill="#0D022B" fill-rule="evenodd" d="M32.353 15.55c-.11-.11-.175-.218-.175-.371s.066-.263.175-.372c.218-.197.568-.197.808 0 .11.11.175.219.175.372s-.066.262-.175.371a.68.68 0 0 1-.393.153.44.44 0 0 1-.415-.153ZM30.954 17.058c-.087-.11-.153-.219-.153-.372s.066-.262.153-.371a.542.542 0 0 1 .743 0c.088.109.153.218.153.371s-.065.262-.153.372c-.109.087-.218.153-.371.153s-.262-.066-.372-.153ZM29.425 18.5a.527.527 0 0 1-.153-.372c0-.153.065-.262.153-.371a.541.541 0 0 1 .743 0 .527.527 0 0 1 .153.371c0 .153-.066.262-.153.372a.48.48 0 0 1-.372.153.527.527 0 0 1-.371-.153ZM27.96 19.964a.467.467 0 0 1-.174-.372c0-.153.066-.262.175-.371.218-.197.568-.197.808 0 .11.087.175.218.175.371a.467.467 0 0 1-.175.372.56.56 0 0 1-.393.153c-.153 0-.284-.022-.415-.153ZM26.563 21.428c-.11-.088-.153-.219-.153-.372s.065-.262.152-.371a.542.542 0 0 1 .743 0c.11.087.153.218.153.371a.527.527 0 0 1-.153.372c-.087.109-.218.153-.371.153a.37.37 0 0 1-.372-.153ZM24.88 22.52c0-.153.066-.262.153-.371a.542.542 0 0 1 .743 0 .48.48 0 0 1 .153.371c0 .153-.066.262-.153.372a.527.527 0 0 1-.372.153c-.152 0-.262-.066-.371-.153-.11-.088-.153-.219-.153-.372ZM22.149 25.754a.527.527 0 0 1-.153-.372c0-.152.065-.262.153-.371a.542.542 0 0 1 .743 0 .48.48 0 0 1 .152.372c0 .152-.065.262-.152.37-.088.11-.219.154-.372.154-.131.022-.262-.022-.371-.153ZM20.641 27.218a.467.467 0 0 1-.175-.371c0-.153.066-.263.175-.372.219-.197.568-.197.808 0 .11.11.175.219.175.372 0 .152-.065.262-.175.371a.56.56 0 0 1-.393.153.475.475 0 0 1-.415-.153ZM19.22 28.704a.527.527 0 0 1 0-.743.541.541 0 0 1 .744 0 .527.527 0 0 1 .153.371c0 .153-.066.263-.153.372a.48.48 0 0 1-.372.153c-.153 0-.24-.066-.371-.153ZM17.757 30.168c-.11-.088-.153-.219-.153-.372s.065-.262.153-.371a.542.542 0 0 1 .743 0c.087.11.153.218.153.371a.527.527 0 0 1-.153.372.479.479 0 0 1-.372.153c-.13 0-.284-.044-.371-.153ZM16.25 31.632a.467.467 0 0 1-.176-.372c0-.153.066-.262.175-.371.219-.197.568-.197.765 0 .11.11.175.218.175.371a.467.467 0 0 1-.175.372.68.68 0 0 1-.393.153c-.153 0-.284-.044-.372-.153ZM14.807 33.096a.479.479 0 0 1-.153-.372c0-.153.066-.262.153-.371a.542.542 0 0 1 .743 0 .48.48 0 0 1 .153.371c0 .153-.066.263-.153.372a.527.527 0 0 1-.372.153c-.109.021-.24-.044-.37-.153ZM15.55 15.55c.087-.11.153-.218.153-.371s-.066-.263-.153-.372a.541.541 0 0 0-.743 0 .479.479 0 0 0-.153.372c0 .153.066.262.153.371a.527.527 0 0 0 .371.153c.153.022.285-.022.372-.153ZM17.014 17.058c.11-.11.175-.219.175-.372s-.066-.262-.175-.371c-.219-.197-.568-.197-.809 0-.109.109-.174.218-.174.371s.065.262.174.372a.68.68 0 0 0 .394.153.866.866 0 0 0 .415-.153ZM18.5 18.5a.527.527 0 0 0 .153-.372c0-.153-.066-.262-.153-.371a.541.541 0 0 0-.743 0 .527.527 0 0 0-.153.371c0 .153.065.262.153.372a.48.48 0 0 0 .371.153.62.62 0 0 0 .372-.153ZM19.964 19.964a.527.527 0 0 0 .153-.372c0-.153-.066-.262-.153-.371a.542.542 0 0 0-.743 0 .527.527 0 0 0 0 .743.48.48 0 0 0 .371.153c.131 0 .262-.022.372-.153ZM21.406 21.428a.467.467 0 0 0 .175-.372c0-.153-.066-.262-.175-.371a.57.57 0 0 0-.765 0 .467.467 0 0 0-.175.371c0 .153.066.284.175.372.11.109.262.153.393.153a.37.37 0 0 0 .372-.153ZM23.044 22.52c0-.153-.065-.262-.152-.371a.542.542 0 0 0-.743 0 .48.48 0 0 0-.153.371c0 .153.065.262.153.372a.527.527 0 0 0 .371.153c.153 0 .262-.066.372-.153.109-.088.152-.219.152-.372ZM24.356 24.378a.48.48 0 0 0 .153-.372c0-.153-.066-.262-.153-.372a.542.542 0 0 0-.743 0 .48.48 0 0 0-.153.372c0 .153.065.262.153.372a.527.527 0 0 0 .743 0ZM25.82 25.754a.467.467 0 0 0 .174-.372c0-.152-.065-.262-.174-.371-.219-.197-.569-.197-.765 0-.11.11-.175.219-.175.372 0 .152.066.262.175.37a.56.56 0 0 0 .393.154.403.403 0 0 0 .372-.153ZM27.305 27.218a.527.527 0 0 0 .153-.371c0-.153-.065-.263-.153-.372a.542.542 0 0 0-.742 0c-.088.11-.153.219-.153.372 0 .152.065.262.152.371a.48.48 0 0 0 .372.153c.11.022.262-.044.371-.153ZM28.77 28.704a.527.527 0 0 0 0-.743.541.541 0 0 0-.744 0 .527.527 0 0 0-.153.371c0 .153.066.263.153.372a.48.48 0 0 0 .372.153c.153 0 .262-.066.371-.153ZM30.146 30.168c.11-.088.153-.219.153-.372s-.066-.262-.153-.371a.542.542 0 0 0-.743 0c-.087.11-.153.218-.153.371s.066.284.153.372c.11.109.219.153.371.153.131 0 .284-.044.372-.153ZM31.697 31.632c.11-.088.153-.219.153-.372s-.065-.262-.153-.371a.542.542 0 0 0-.743 0 .48.48 0 0 0-.153.371c0 .153.066.284.153.372a.527.527 0 0 0 .372.153c.153 0 .284-.044.371-.153ZM33.161 33.096c.11-.11.175-.219.175-.372s-.066-.262-.175-.371c-.218-.197-.568-.197-.764 0-.11.11-.175.218-.175.371s.065.263.175.372a.68.68 0 0 0 .393.153c.109.021.24-.044.371-.153ZM19.024 15.965c1.486-.983 3.125-1.442 4.938-1.464 1.77 0 3.409.48 4.939 1.464l3.146-3.146C29.577 10.939 26.912 10 23.962 10c-2.95 0-5.659.94-8.062 2.819l3.124 3.146ZM15.878 28.879c-1.005-1.53-1.486-3.147-1.486-4.895 0-1.77.48-3.409 1.486-4.894l-3.125-3.125C10.918 18.37 10 21.035 10 24.006c0 2.928.918 5.616 2.775 8.063l3.103-3.19ZM28.879 32.003c-1.486 1.005-3.125 1.53-4.895 1.551-1.813 0-3.474-.48-4.96-1.529l-3.146 3.125c2.425 1.9 5.135 2.84 8.106 2.818 2.95-.022 5.616-.983 8.02-2.818l-3.125-3.147ZM31.96 19.046c1.005 1.53 1.53 3.19 1.485 4.982-.021 1.748-.524 3.343-1.485 4.807l3.146 3.125c1.857-2.404 2.819-5.07 2.819-7.998.022-2.971-.918-5.68-2.819-8.106l-3.146 3.19ZM35.237 32.987c1.202 0 2.207.983 2.207 2.206a2.215 2.215 0 0 1-2.207 2.207 2.215 2.215 0 0 1-2.207-2.207 2.2 2.2 0 0 1 2.207-2.206ZM12.731 32.987c1.202 0 2.185.983 2.185 2.206 0 1.202-.983 2.207-2.185 2.207a2.196 2.196 0 0 1-2.185-2.207c0-1.223.984-2.206 2.185-2.206ZM35.28 10.48c1.203 0 2.186.984 2.186 2.208a2.196 2.196 0 0 1-2.185 2.207 2.196 2.196 0 0 1-2.185-2.207c0-1.224.983-2.207 2.185-2.207ZM12.688 10.48c1.201 0 2.206.984 2.206 2.186a2.196 2.196 0 0 1-2.207 2.185c-1.201 0-2.206-.984-2.206-2.185 0-1.202.983-2.185 2.207-2.185Z" clip-rule="evenodd"></path></g><defs><clipPath id="a"><path fill="#fff" d="M0 0h48v48H0z"></path></clipPath></defs></symbol><symbol xmlns="http://www.w3.org/2000/svg" fill="none" viewBox="0 0 48 48" id="ETC"><g clip-path="url(#a)"><circle cx="24" cy="24" r="24" fill="#EDF0F4"></circle><path fill="#3AB83A" fill-rule="evenodd" d="m15.2 22.507 8.854-4.661 8.781 4.69L24.015 9.6 15.2 22.507Zm.338 1.346 8.525-4.55 8.415 4.517-8.41 4.554-8.53-4.521Zm-.338 1.303c3.107 1.65 6.35 3.377 8.854 4.714l8.78-4.714c-3.179 4.723-5.828 8.656-8.78 13.008l-1.707-2.506c-2.465-3.619-5.016-7.362-7.147-10.502Z" clip-rule="evenodd"></path><path fill="#0B8311" fill-rule="evenodd" d="m24.015 9.6.039 8.246 8.781 4.69L24.015 9.6Zm.048 9.703 8.415 4.517-8.41 4.554-.005-9.07Zm-.01 10.567 8.782-4.714c-3.18 4.723-8.781 13.008-8.781 13.008V29.87Z" clip-rule="evenodd"></path><path fill="#0B8311" d="m15.537 23.853 8.527.7 8.414-.729-8.41 4.555-8.53-4.526Z"></path><path fill="#146714" d="m24.063 24.553 8.415-.729-8.41 4.555-.005-3.826Z"></path></g><defs><clipPath id="a"><path fill="#fff" d="M0 0h48v48H0z"></path></clipPath></defs></symbol><symbol xmlns="http://www.w3.org/2000/svg" fill="none" viewBox="0 0 48 48" id="ETH"><circle cx="24" cy="24" r="24" fill="#EDF0F4"></circle><path fill="#343434" d="m23.934 9.6-.19.649v18.816l.19.19 8.735-5.162L23.935 9.6Z"></path><path fill="#8C8C8C" d="M23.934 9.6 15.2 24.093l8.735 5.163V9.6Z"></path><path fill="#3C3C3B" d="m23.934 30.91-.107.13v6.703l.107.315 8.74-12.309-8.74 5.16Z"></path><path fill="#8C8C8C" d="M23.934 38.058V30.91L15.2 25.75l8.735 12.308Z"></path><path fill="#141414" d="m23.934 29.256 8.735-5.163-8.734-3.97v9.133Z"></path><path fill="#393939" d="m15.2 24.093 8.735 5.163v-9.133l-8.735 3.97Z"></path></symbol><symbol xmlns="http://www.w3.org/2000/svg" fill="none" viewBox="0 0 48 48" id="FIL"><path fill="#0090FF" fill-rule="evenodd" d="M24 48C10.8 48 0 37.2 0 23.88.12 10.68 10.8-.118 24.12.002 37.32.121 48 10.801 48 24.241 47.88 37.32 37.2 48 24 48" clip-rule="evenodd"></path><path fill="#fff" fill-rule="evenodd" d="m26.082 21.186-.714 3.845 6.782.961-.476 1.802-6.663-.96c-.476 1.561-.713 3.244-1.308 4.685-.595 1.683-1.19 3.365-1.904 4.927-.952 2.042-2.617 3.484-4.878 3.845-1.309.24-2.736.12-3.807-.721-.357-.24-.714-.721-.714-1.082 0-.48.238-1.081.595-1.321.238-.12.833 0 1.19.12.357.36.713.841.951 1.322.714.96 1.666 1.081 2.618.36 1.07-.961 1.665-2.283 2.022-3.605.714-2.883 1.428-5.647 2.023-8.53v-.481l-6.306-.962.238-1.802 6.544.961.833-3.724-6.782-1.082.238-1.922 7.02.96c.238-.72.357-1.32.595-1.922.594-2.162 1.19-4.325 2.617-6.248 1.428-1.922 3.093-3.124 5.592-3.004 1.07 0 2.141.36 2.855 1.202.12.12.357.36.357.6 0 .481 0 1.082-.357 1.443-.476.36-1.07.24-1.547-.24-.356-.361-.594-.722-.951-1.082-.714-.961-1.785-1.082-2.618-.24a7.7 7.7 0 0 0-1.546 2.282c-.833 2.524-1.428 5.167-2.261 7.81l6.544.962-.476 1.802-6.306-.961" clip-rule="evenodd"></path></symbol><symbol xmlns="http://www.w3.org/2000/svg" fill="none" viewBox="0 0 48 48" id="FLOW"><circle cx="24" cy="24" r="24" fill="#00EF8B"></circle><path fill="#fff" d="M27.744 20.256h6.768v6.768h-6.768zM20.976 29.568a2.56 2.56 0 0 1-2.544 2.544 2.56 2.56 0 0 1-2.544-2.544 2.56 2.56 0 0 1 2.544-2.544h2.544v-6.768h-2.544c-5.136 0-9.312 4.176-9.312 9.312 0 5.136 4.176 9.312 9.312 9.312 5.136 0 9.312-4.176 9.312-9.312v-2.544h-6.768v2.544ZM30.288 16.848h7.632V10.08h-7.632c-5.136 0-9.312 4.176-9.312 9.312v.864h6.768v-.864a2.56 2.56 0 0 1 2.544-2.544Z"></path><path fill="#16FF99" d="M27.744 20.256h-6.768v6.768h6.768v-6.768Z"></path></symbol><symbol xmlns="http://www.w3.org/2000/svg" fill="none" viewBox="0 0 48 48" id="FTT"><path fill="#02A6C2" d="M47.994 24.001c0 13.252-10.745 23.997-24.003 23.999C10.743 48-.002 37.253 0 23.999-.004 10.745 10.74 0 23.995 0c13.254 0 24 10.747 24 24.001Z"></path><path fill="#fff" d="M18.668 13.201c5.977-.002 11.954-.002 17.932 0 .002 1.932.002 3.864 0 5.795-5.977.002-11.955.002-17.932 0-.002-1.932-.002-3.863 0-5.795ZM11.607 21.176c1.929-.01 3.857-.01 5.787 0 .01 1.929.01 3.858 0 5.787-1.93.01-3.858.01-5.786 0-.01-1.929-.01-3.858 0-5.787ZM18.672 21.177c4.314-.01 8.628-.01 12.942 0 .009 1.928.009 3.857 0 5.786-4.314.009-8.628.009-12.942 0a619.963 619.963 0 0 1 0-5.786ZM18.678 29.154c1.925-.021 3.85-.021 5.774 0 .02 1.924.02 3.848 0 5.774-1.924.019-3.849.019-5.773-.001-.02-1.924-.02-3.848-.001-5.773Z"></path></symbol><symbol xmlns="http://www.w3.org/2000/svg" id="IRT" viewBox="0 0 512 512"><circle  cx="256" cy="255.9" r="255.9" fill="#2560ff"/><path fill="#fff" d="M316.7,365c10.4-5.1,18.2-11.1,23.3-18a39,39,0,0,0,7.6-24,104.32,104.32,0,0,0-3.3-26.1,61.85,61.85,0,0,0-10-22c-4.5-5.9-9.6-9.1-15.6-9.6-4.2-.3-8.1,1.8-11.9,6.3a35.6,35.6,0,0,0-7.6,15.6c-1.4,5.9-.9,10.6,1.4,14.3,2.9,4.5,9.5,7.3,20,8.3,13.8,1.1,27.7,1.6,41.6,1.4h9.2l1.1,10.2-1.1,10.2c-5.8,0-10.3.1-13.2.2-13.5.1-24.4,0-33-.6a82.72,82.72,0,0,1-23.6-4.9c-7.2-2.7-12.3-7.2-15.3-13.4-3.9-7.8-4.7-17-2.5-27.7a61.3,61.3,0,0,1,13.4-27.7c6.6-7.8,14-11.6,22.1-11.6,8.8,0,16.7,3.9,23.4,11.6s11.9,17.6,15.5,29.2a116.44,116.44,0,0,1,5.4,34.7,62,62,0,0,1-9.6,33.7c-6.4,10-15.5,18.5-27.6,25.5s-26.5,12.1-43.3,15.4l-5.8-17.9C293,374.3,306.2,370,316.7,365Z"/><path fill="#fff" d="M348.1,311.1h9c16,0,27.3-1.5,33.9-4.6s9.9-8.1,9.9-15.2c-.1-4.7-1.7-11.8-4.6-21.2s-5.4-16.3-7.5-20.5L405,241a165.08,165.08,0,0,1,9,24.3c3,10.2,4.5,18.7,4.2,25.9-.1,13.1-5.1,23.2-14.8,29.9s-24.3,10.2-43.8,10.2H348.2Z"/><path fill="#fff" d="M268.3,266.7q-10.65-16.95-29.1-15.9a27.06,27.06,0,0,0-14.7,5.5,56.17,56.17,0,0,0-13,13.2A150,150,0,0,0,200,288.7l-2.5,4.7c-3.4,6.8-7.8,12.1-12.9,15.6a30.45,30.45,0,0,1-15.8,5.3c-6.3-.2-11-1.3-13.9-3.2a14.71,14.71,0,0,1-6.4-10.2c-.9-4.6-1.1-11.6-.9-21.2.3-13.1,0-31.3-.8-54.2s-1.8-38.7-3.1-47.3L125.8,182c1.4,8.7,2.4,23.6,3.2,45,.8,21.2,1,39.5.9,54.8-.3,12.4.8,22.5,3.2,30.1s6.6,13.4,12.7,17.1c4.5,2.7,10.3,4.5,17.5,5.3v.5h9.1v-.3a43,43,0,0,0,30.8-17.6c26.4,16.8,44.9,22.4,55.3,16.8s16.6-15.3,18.2-29.1A58.28,58.28,0,0,0,268.3,266.7Zm-7.7,33.9c-.6,7.8-3.2,12.8-8,15.2-3,1.7-8.7.8-17.1-2.6a144.38,144.38,0,0,1-23.3-12.4c5.4-10,10.3-17.7,15-23.1s9.2-8.3,13.5-8.3c6.3,0,11.3,3.3,15.1,9.9A36.65,36.65,0,0,1,260.6,300.6Z"/><path fill="#fff" d="M94.9,157.1a164,164,0,0,0-8.3,22.5,77.42,77.42,0,0,0-3.4,20.9c-.1,9.7,1.6,17.9,5.4,24.5a37,37,0,0,0,16.6,15.2c7.3,3.4,16.2,5.1,26.8,5.1,12.1,0,22.3-2.2,30.5-6.6s14.2-10,18-16.9a42.53,42.53,0,0,0,5.8-21.5,98.12,98.12,0,0,0-2.7-21.5c-1.8-8.3-4-16.9-6.7-25.7l-3-9,16.7-7.6c4.3,13.8,7.5,25.7,9.7,35.6a133.23,133.23,0,0,1,3.2,28.2A64.16,64.16,0,0,1,170.4,256c-10.7,6.3-23.6,9.5-38.4,9.5-14.5,0-26.8-3-37.1-9a56.89,56.89,0,0,1-22.6-24,66.38,66.38,0,0,1-6.6-32.2,104.23,104.23,0,0,1,4.8-27.1,171.65,171.65,0,0,1,10-25.2l15.3,7.2Zm34.1-25,7.9-7.9,8.1,8.1,7.9,7.9-8.1,8.1-7.9,7.9-8.1-8.1-7.9-7.9Z"/><rect fill="#fff" x="355.8" y="209.4" width="54.7" height="19.5"/></symbol><symbol xmlns="http://www.w3.org/2000/svg" fill="none" viewBox="0 0 48 48" id="LINK"><circle cx="24" cy="24" r="24" fill="#2A5ADA"></circle><path fill="#fff" fill-rule="evenodd" d="M20.936 9.688 23.872 8l2.935 1.688 8 4.624L37.743 16v16l-2.936 1.688-7.926 4.624L23.945 40l-2.936-1.688-8.073-4.624L10 32V16l2.936-1.688 8-4.624Zm-5.064 9.688v9.248l8 4.624 8-4.624v-9.248l-8-4.624-8 4.624Z" clip-rule="evenodd"></path></symbol><symbol xmlns="http://www.w3.org/2000/svg" fill="none" viewBox="0 0 48 48" id="LTC"><circle cx="24.2" cy="23.8" r="21.4" fill="#fff"></circle><path fill="#345D9D" fill-rule="evenodd" d="M0 24C0 10.745 10.745 0 24 0h.14A23.93 23.93 0 0 1 48 24c0 13.255-10.745 24-24 24S0 37.255 0 24Zm21.908 9.24 2.499-8.427L28.3 23.71l.814-2.789-3.836 1.162 4.068-13.83V8.03a.674.674 0 0 0-.697-.65h-5.172a.878.878 0 0 0-.872.638l-4.823 16.388-3.835 1.162-.872 2.673 3.835-1.162-3.428 11.68h20.455a.866.866 0 0 0 .872-.639l1.162-4.01v-.22a.674.674 0 0 0-.697-.651H21.907Z" clip-rule="evenodd"></path></symbol><symbol xmlns="http://www.w3.org/2000/svg" fill="none" viewBox="0 0 48 48" id="MANA"><circle cx="24" cy="24" r="24" fill="url(#a)"></circle><path fill="url(#b)" d="M17.004 15.6v18h15l-15-18Z"></path><path fill="#fff" d="M2.004 33.6h15v-18l-15 18Z"></path><path fill="#FC9965" d="M4.8 38.4a24.58 24.58 0 0 0 4.8 4.8h28.8a24.58 24.58 0 0 0 4.8-4.8H4.8Z"></path><path fill="#FF2D55" d="M9.6 43.2A23.9 23.9 0 0 0 24 48a23.9 23.9 0 0 0 14.4-4.8H9.6Z"></path><path fill="url(#c)" d="M32.196 25.2v13.2H43.2L32.196 25.2Z"></path><path fill="#FFBC5B" d="M32.196 33.6H2.004A23.898 23.898 0 0 0 4.8 38.4h27.408v-4.8h-.012Z"></path><path fill="#fff" d="M21.204 38.4h10.992V25.2L21.204 38.4Z"></path><circle cx="32.196" cy="15.6" r="6" fill="#FFC95B"></circle><circle cx="17.004" cy="9" r="3" fill="#FFC95B"></circle><defs><linearGradient id="a" x1="24" x2="-9.941" y1="-9.941" y2="24" gradientUnits="userSpaceOnUse"><stop stop-color="#FF2D55"></stop><stop offset="1" stop-color="#FFBC5B"></stop></linearGradient><linearGradient id="b" x1="16.999" x2="16.999" y1="15.6" y2="33.6" gradientUnits="userSpaceOnUse"><stop stop-color="#A524B3"></stop><stop offset="1" stop-color="#FF2D55"></stop></linearGradient><linearGradient id="c" x1="32.192" x2="32.192" y1="25.2" y2="38.4" gradientUnits="userSpaceOnUse"><stop stop-color="#A524B3"></stop><stop offset="1" stop-color="#FF2D55"></stop></linearGradient></defs></symbol><symbol xmlns="http://www.w3.org/2000/svg" fill="none" viewBox="0 0 48 48" id="MATIC"><circle cx="24" cy="24" r="24" fill="#EDF0F4"></circle><path fill="#8247E5" d="M31.201 19.18c-.512-.294-1.17-.294-1.755 0l-4.094 2.428-2.778 1.546-4.02 2.428c-.512.295-1.17.295-1.755 0l-3.144-1.913a1.796 1.796 0 0 1-.877-1.546v-3.679c0-.589.292-1.177.877-1.545l3.144-1.84c.512-.294 1.17-.294 1.755 0l3.143 1.913c.512.295.877.883.877 1.546v2.428l2.778-1.619v-2.502c0-.589-.292-1.177-.877-1.545l-5.848-3.46c-.512-.293-1.17-.293-1.755 0l-5.995 3.533c-.585.295-.877.883-.877 1.472v6.918c0 .588.292 1.177.877 1.545l5.922 3.459c.512.294 1.17.294 1.755 0l4.02-2.355 2.778-1.62 4.021-2.354c.512-.294 1.17-.294 1.755 0l3.144 1.84c.511.294.877.883.877 1.545v3.68c0 .588-.293 1.177-.877 1.545l-3.071 1.84c-.512.294-1.17.294-1.755 0l-3.143-1.84a1.796 1.796 0 0 1-.877-1.545v-2.355l-2.778 1.619v2.428c0 .589.292 1.178.877 1.546l5.922 3.458c.511.295 1.17.295 1.754 0l5.922-3.458c.512-.295.877-.883.877-1.546v-6.99c0-.59-.292-1.178-.877-1.546l-5.922-3.46Z"></path></symbol><symbol xmlns="http://www.w3.org/2000/svg" fill="none" viewBox="0 0 48 48" id="NEAR"><circle cx="24" cy="24" r="24" fill="#000"></circle><path fill="#fff" d="m31.257 13.227-5.014 7.441c-.347.507.32 1.12.8.694l4.934-4.294c.133-.107.32-.027.32.16v13.415c0 .187-.24.267-.347.134l-14.936-17.87A2.468 2.468 0 0 0 15.067 12h-.533C13.147 12 12 13.147 12 14.56v18.884a2.561 2.561 0 0 0 4.747 1.334l5.015-7.442c.346-.507-.32-1.12-.8-.693l-4.935 4.267c-.133.107-.32.027-.32-.16V17.361c0-.187.24-.267.347-.133l14.936 17.87c.48.586 1.2.906 1.947.906h.534a2.561 2.561 0 0 0 2.56-2.56V14.56a2.561 2.561 0 0 0-2.56-2.56c-.907 0-1.734.453-2.214 1.227Z"></path></symbol><symbol xmlns="http://www.w3.org/2000/svg" fill="none" viewBox="0 0 48 48" id="SAND"><circle cx="24" cy="24" r="24" fill="#0084FF"/><path d="M15.8 11.2962L13.2 13.8962V24.2L15.8 26.8H26.1037V32H21V29.4H13.2V34.6L15.8 37.2H31.3037L33.9037 34.6V24.2L31.3037 21.6H21V16.4H26.2V19H34V13.8L31.4 11.2H15.8V11.2962Z" fill="white"/></symbol><symbol xmlns="http://www.w3.org/2000/svg" fill="none" viewBox="0 0 48 48" id="SHIB"><path fill="#E42D04" fill-rule="evenodd" d="M24 48C10.8 48 0 37.2 0 23.88.12 10.68 10.8-.118 24.12.002 37.32.121 48 10.801 48 24.241 47.88 37.32 37.2 48 24 48" clip-rule="evenodd"></path><path fill="#fff" fill-rule="evenodd" d="M24.468 41.6c1.741 0 6.21-.785 10.148-3.926 4.53-3.612 4.956-5.627 5.231-6.926.024-.113.047-.22.071-.323.046-.195.073-.46.082-.773a14.016 14.016 0 0 0-3.84-.058c-2.545.302-4.545 2.039-5.226 2.87-.38-1.888-2.227-5.664-6.59-5.664-4.362 0-6.715 3.776-7.346 5.664-.404-.705-1.909-2.266-4.696-2.87A8.772 8.772 0 0 0 8 29.72c.085 1.404.546 2.901 1.774 4.481 2.113 2.719 5.392 4.397 6.855 5.146.162.083.303.155.416.216 1.136.604 4.241 2.038 7.422 2.038Z" clip-rule="evenodd"></path><path fill="#FFAA35" fill-rule="evenodd" d="M39.996 29.596a14.037 14.037 0 0 0-3.838-.057c-2.543.301-4.542 2.033-5.223 2.861-.378-1.882-2.225-5.647-6.585-5.647-4.36 0-6.712 3.765-7.342 5.647-.404-.703-1.908-2.259-4.693-2.861a8.785 8.785 0 0 0-4.3.125c-.077-1.277.158-2.475.41-3.589.425-1.867 1.49-4.342 1.969-5.345-.43-1.03-1.423-3.946-1.968-7.38-.545-3.433.378-5.747.908-6.475.858.226 2.907.934 4.239 1.958 1.332 1.024 3.381 3.288 4.239 4.292 1.11-.301 3.966-.904 6.51-.904 2.543 0 4.995.603 5.904.904.757-.904 2.619-3.027 4.011-4.292 1.393-1.265 3.659-1.882 4.618-2.033.252.326.787 1.28.908 2.485.151 1.506-.303 4.668-.908 6.776a158.746 158.746 0 0 1-1.363 4.443c.126.276.56 1.174 1.287 2.56.77 1.469 1.269 4.78 1.217 6.532Z" clip-rule="evenodd"></path><path fill="#000" d="M27.575 36.297c-.18.24-.375.703-.45.903v-.075l-.225-1.806c-.425.05-1.53.15-2.55.15-1.02 0-2.225-.1-2.7-.15l-.075 1.806a5.522 5.522 0 0 1-.3-.527c-.15-.301-.675-.753-.675-.978 0-.181-.25-.577-.375-.753L20 34.566h1.35l.3.226c.25-.026.885-.046 1.425.075.54.12.875-.351.975-.602V33.06c-.225-.15-.78-.496-1.2-.677-.525-.226-1.05-1.129-.9-2.032.15-.903.6-1.204.9-1.13.3.076 2.25-.074 2.55 0 .3.076.825.227 1.05.603.225.376.075 1.882-.375 2.409-.36.421-1.05.727-1.35.828v1.204c0 .15.525.527.6.602.075.075 1.2 0 1.425 0 .18 0 .325-.15.375-.226H28.4v.301c0 .15-.225.828-.3.903-.075.076-.3.15-.525.452Z"></path><path fill="#000" d="m25.162 35.8-.762.6-.61-.6-.533.267-.457-.467H26l-.457.534-.381-.334ZM16.962 23.493c-.892-.37-1.86-.616-2.231-.693-.1.052-.298.216-.298.462 0 .308-.074.615 0 1.23.074.616.67 1 1.71 1.462 1.042.462 2.828.846 4.092.846 1.265 0 .075-1.307-.372-1.615-.446-.308-1.785-1.23-2.9-1.692Z"></path><path fill="#fff" d="M18.184 21.451c-.667.12-1.592.15-1.971.15-.38-.05-1.183-.284-1.365-.82-.227-.672.38-1.417 1.137-1.79.759-.373 1.744-.224 2.35.67.607.895.683 1.641-.151 1.79Z"></path><path fill="#000" d="M31.838 23.093c.892-.37 1.86-.616 2.231-.693.1.051.298.216.298.462 0 .307.074.615 0 1.23-.074.616-.67 1-1.71 1.462-1.042.462-2.827.846-4.092.846-1.265 0-.075-1.307.372-1.615.446-.308 1.785-1.231 2.9-1.692Z"></path><path fill="#fff" d="M29.416 21.451c.667.12 1.592.15 1.971.15.38-.05 1.183-.284 1.365-.82.227-.672-.38-1.417-1.138-1.79-.758-.373-1.743-.224-2.35.67-.606.895-.682 1.641.152 1.79Z"></path><path fill="#FF8C30" d="M12.972 15.87c-.545.595-1.59 1.935-2.044 2.53-.303-.645-.97-2.366-1.212-4.093-.242-1.726-.05-4.39.076-5.507.328.025 1.287.298 2.498 1.191 1.212.893 2.978 2.555 3.71 3.274-.782.62-2.483 2.01-3.028 2.605Z"></path><path fill="#FF9A32" fill-rule="evenodd" d="M9.6 10.218c1.19.497 2.758 1.256 3.415 1.943.666.696 1.252 1.618 1.6 2.24.522-.434 1.041-.85 1.385-1.12-.74-.722-2.526-2.39-3.751-3.286-1.225-.896-2.194-1.17-2.526-1.195-.04.348-.086.845-.123 1.418Z" clip-rule="evenodd"></path><path fill="#FF8C30" d="M34.628 15.87c.545.595 1.59 1.935 2.044 2.53.303-.645.97-2.366 1.212-4.093.242-1.726.05-4.39-.076-5.507-.328.025-1.287.298-2.498 1.191-1.212.893-2.978 2.555-3.71 3.274.782.62 2.483 2.01 3.028 2.605Z"></path><path fill="#FF9A32" fill-rule="evenodd" d="M38 10.218c-1.19.497-2.758 1.256-3.415 1.943-.666.696-1.252 1.618-1.6 2.24a73.353 73.353 0 0 0-1.385-1.12c.74-.722 2.526-2.39 3.75-3.286 1.226-.896 2.195-1.17 2.527-1.195.04.348.086.845.123 1.418Z" clip-rule="evenodd"></path></symbol><symbol xmlns="http://www.w3.org/2000/svg" fill="none" viewBox="0 0 48 48" id="SOL"><circle cx="24" cy="24" r="24" fill="#000"></circle><path fill="url(#a)" d="M14.878 29.686a.902.902 0 0 1 .638-.264H37.51a.45.45 0 0 1 .319.77l-4.346 4.344a.902.902 0 0 1-.637.264H10.852a.45.45 0 0 1-.319-.77l4.345-4.344Z"></path><path fill="url(#b)" d="M14.878 13.463a.927.927 0 0 1 .638-.263H37.51a.45.45 0 0 1 .319.769l-4.345 4.345a.902.902 0 0 1-.638.263H10.852a.45.45 0 0 1-.319-.769l4.345-4.345Z"></path><path fill="url(#c)" d="M33.484 21.523a.902.902 0 0 0-.637-.264H10.852a.45.45 0 0 0-.319.77l4.345 4.344a.902.902 0 0 0 .638.264H37.51a.45.45 0 0 0 .319-.77l-4.346-4.344Z"></path><defs><linearGradient id="a" x1="-39.312" x2="-39.898" y1="9.119" y2="38.567" gradientUnits="userSpaceOnUse"><stop stop-color="#00FFA3"></stop><stop offset="1" stop-color="#DC1FFF"></stop></linearGradient><linearGradient id="b" x1="-45.968" x2="-46.553" y1="5.644" y2="35.092" gradientUnits="userSpaceOnUse"><stop stop-color="#00FFA3"></stop><stop offset="1" stop-color="#DC1FFF"></stop></linearGradient><linearGradient id="c" x1="-42.662" x2="-43.247" y1="7.371" y2="36.819" gradientUnits="userSpaceOnUse"><stop stop-color="#00FFA3"></stop><stop offset="1" stop-color="#DC1FFF"></stop></linearGradient></defs></symbol><symbol xmlns="http://www.w3.org/2000/svg" fill="none" viewBox="0 0 48 48" id="SUSHI"><circle cx="24" cy="24" r="24" fill="#EDF0F4"></circle><path fill="url(#a)" d="M14.507 11.6 39.2 28.273 33.093 37.2 8.4 20.396l6.107-8.796Z"></path><path fill="url(#b)" d="M39.468 28.307c-2.11 3.08-9.234 1.875-15.962-2.947-6.86-4.69-10.553-10.985-8.574-14.066 2.11-3.082 9.234-1.876 15.962 2.947 6.86 4.554 10.553 10.985 8.574 14.066Z"></path><path fill="url(#c)" d="M33.066 37.118c-2.118 3.06-9.264 1.863-16.013-2.928-6.75-4.791-10.587-10.913-8.47-14.107 2.117-3.061 9.264-1.864 16.013 2.927 6.75 4.792 10.455 11.047 8.47 14.108Z"></path><path fill="#0E0F23" d="m39.102 28.168-6.11 8.994c-2.126 3.042-9.298 1.72-16.073-2.91a40.01 40.01 0 0 1-3.719-2.91c.93-.132 2.125-.661 3.32-1.984 2.126-2.248 3.189-2.777 4.119-2.645.93 0 1.992.926 3.719 3.174 1.726 2.249 4.117 2.91 5.579 1.72.132-.133.265-.133.398-.265 1.196-.926 1.594-1.322 3.852-5.555.532-1.058 2.391-2.778 4.915-1.984.664 1.72.664 3.174 0 4.365Z"></path><path fill="#fff" fill-rule="evenodd" d="M37.98 27.835c-1.848 2.656-8.316 1.328-14.52-3.054-6.336-4.383-10.032-9.96-8.184-12.616 1.848-2.656 8.316-1.328 14.52 3.054 6.204 4.383 9.9 9.96 8.184 12.616Zm-5.808-3.984c-.924 1.328-4.092.664-7.26-1.46-3.036-2.125-4.884-4.914-3.96-6.242.924-1.328 4.092-.664 7.26 1.46 3.036 2.125 4.884 4.914 3.96 6.242Z" clip-rule="evenodd"></path><path fill="#fff" d="M13.955 14.157c0-.111-.12-.222-.24-.111-.12.11-.24.11-.24.222.12.332.24.554.24.775 0 .111.12.222.24.111.12 0 .24-.11.12-.222 0-.221 0-.443-.12-.775ZM14.791 16.189c0-.134-.13-.267-.26-.134-.131.134-.131.134-.131.268 1.435 3.34 4.436 6.946 8.35 9.618.131.133.262 0 .392 0 .13-.134 0-.267 0-.401-4.045-2.672-6.915-6.145-8.35-9.351ZM30.646 29.44c-.123 0-.246 0-.246.12s0 .24.123.24c.37.12.862.24 1.23.36.124 0 .247 0 .247-.12s0-.24-.123-.24c-.37-.12-.862-.24-1.23-.36ZM33.057 29.875c-.128 0-.257.12-.257.24s.129.24.257.24c1.029.12 2.186.24 3.086.12.128 0 .257-.12.257-.24s-.129-.24-.257-.24c-1.029.12-2.057 0-3.086-.12Z"></path><defs><linearGradient id="a" x1="9.342" x2="12.785" y1="11.265" y2="28.189" gradientUnits="userSpaceOnUse"><stop stop-color="#03B8FF"></stop><stop offset="1" stop-color="#FA52A0"></stop></linearGradient><linearGradient id="b" x1="13.1" x2="16.247" y1="9.628" y2="26.909" gradientUnits="userSpaceOnUse"><stop stop-color="#03B8FF"></stop><stop offset="1" stop-color="#FA52A0"></stop></linearGradient><linearGradient id="c" x1="4.776" x2="7.934" y1="12.014" y2="29.188" gradientUnits="userSpaceOnUse"><stop stop-color="#03B8FF"></stop><stop offset="1" stop-color="#FA52A0"></stop></linearGradient></defs></symbol><symbol xmlns="http://www.w3.org/2000/svg" fill="none" viewBox="0 0 48 48" id="TRX"><path fill="#FC070C" fill-rule="evenodd" d="M24 48C10.8 48 0 37.2 0 23.88.12 10.68 10.8-.118 24.12.002 37.32.121 48 10.801 48 24.241 47.88 37.32 37.2 48 24 48" clip-rule="evenodd"></path><path fill="#fff" fill-rule="evenodd" d="M41.1 18.922a129.58 129.58 0 0 1-2.205-2.11c-1.112-1.08-2.286-2.22-3.323-3.14l-.105-.073a2.007 2.007 0 0 0-.582-.326l-.8-.149c-5.52-1.03-23.413-4.369-23.78-4.324a.735.735 0 0 0-.305.116l-.1.079a1.17 1.17 0 0 0-.273.44l-.026.069v.43c1.214 3.383 4.37 10.936 7.284 17.911 2.463 5.898 4.753 11.38 5.552 13.579.105.326.305.945.677.976h.084c.2 0 1.05-1.123 1.05-1.123S39.452 22.839 40.99 20.875c.2-.242.375-.502.525-.777a1.265 1.265 0 0 0-.414-1.176ZM28.15 21.07l6.489-5.38 3.806 3.506-10.295 1.874Zm-13.692-9.507 11.172 9.156 6.904-5.822-18.076-3.334Zm12.18 11.555 11.434-1.843L25 37.024l1.638-13.907Zm-1.942-.667L12.94 12.475l10.054 24.56 1.7-14.585Z" clip-rule="evenodd"></path></symbol><symbol xmlns="http://www.w3.org/2000/svg" viewBox="0 0 24 24" id="unknown"><path fill="none" d="M0 0h24v24H0z"></path><path d="M11 18h2v-2h-2v2zm1-16C6.48 2 2 6.48 2 12s4.48 10 10 10 10-4.48 10-10S17.52 2 12 2zm0 18c-4.41 0-8-3.59-8-8s3.59-8 8-8 8 3.59 8 8-3.59 8-8 8zm0-14c-2.21 0-4 1.79-4 4h2c0-1.1.9-2 2-2s2 .9 2 2c0 2-3 1.75-3 5h2c0-2.25 3-2.5 3-5 0-2.21-1.79-4-4-4z"></path></symbol><symbol xmlns="http://www.w3.org/2000/svg" fill="none" viewBox="0 0 48 48" id="USDT"><path fill="#50AF95" d="M47.277 29.806C44.07 42.663 31.049 50.488 18.19 47.282 5.337 44.075-2.488 31.053.72 18.197 3.923 5.338 16.945-2.487 29.799.718c12.859 3.206 20.683 16.23 17.477 29.088Z"></path><path fill="#fff" fill-rule="evenodd" d="M27.037 26.721c-.17.013-1.046.065-3.002.065-1.556 0-2.66-.047-3.048-.065-6.012-.265-10.499-1.311-10.499-2.564 0-1.253 4.487-2.298 10.5-2.567v4.089c.392.028 1.518.095 3.073.095 1.867 0 2.802-.078 2.97-.094v-4.087c6 .267 10.477 1.314 10.477 2.564s-4.476 2.297-10.477 2.563l.006.001Zm0-5.55v-3.66h8.372v-5.578H12.615v5.579h8.37v3.657c-6.803.312-11.92 1.66-11.92 3.275s5.117 2.961 11.92 3.275v11.724h6.05V27.715c6.789-.312 11.897-1.659 11.897-3.272 0-1.614-5.104-2.96-11.897-3.274l.002.001Z" clip-rule="evenodd"></path></symbol><symbol xmlns="http://www.w3.org/2000/svg" fill="none" viewBox="0 0 48 48" id="XLM"><circle cx="24" cy="24" r="24" fill="#000"></circle><path fill="#fff" d="m36.244 13.345-4.072 2.074L12.51 25.434a11.713 11.713 0 0 1 17.325-11.74l2.33-1.188.348-.177a14.307 14.307 0 0 0-22.67 12.669 2.603 2.603 0 0 1-1.414 2.515L7.2 28.14v2.923l3.618-1.844 1.172-.598 1.155-.588L33.873 17.47l2.33-1.186 4.814-2.454V10.91l-4.773 2.435ZM41.017 16.755 14.322 30.347l-2.329 1.19L7.2 33.978v2.92l4.76-2.425 4.072-2.075 19.683-10.03a11.713 11.713 0 0 1-17.342 11.75l-.143.076-2.527 1.287A14.307 14.307 0 0 0 38.374 22.81a2.604 2.604 0 0 1 1.412-2.515l1.23-.627v-2.913Z"></path></symbol><symbol xmlns="http://www.w3.org/2000/svg" fill="none" viewBox="0 0 48 48" id="VET"><circle cx="24" cy="24" r="24" fill="#51CBFF"></circle><path fill="#fff" d="M21.951 36.74 9.265 10.9a.627.627 0 0 1 .56-.9h4.396c.236 0 .457.133.561.34l9.265 18.746c.826 1.681 3.215 1.681 4.041 0l9.235-18.731a.631.631 0 0 1 .56-.34h.547c.324 0 .53.34.384.62L25.994 36.74c-.826 1.68-3.217 1.68-4.043 0Z"></path><path fill="#fff" d="m21.951 36.74-7.169-26.386a.61.61 0 0 0-.53-.34H9.84a.628.628 0 0 0-.575.901L21.951 36.74Z" opacity=".1"></path><path fill="#fff" d="M24.047 29.099 9.265 10.9c-.176-.427.09-.856.501-.9h4.47c.251.015.442.177.531.34l9.28 18.759Z" opacity=".1"></path></symbol><symbol xmlns="http://www.w3.org/2000/svg" fill="none" viewBox="0 0 48 48" id="UNI"><path fill="url(#a)" stroke="#FFD9EC" stroke-width="1.6" d="m46.5 29.612-.028.113c-3.146 12.361-15.696 19.87-28.088 16.78C5.959 43.407-1.605 30.818 1.495 18.39 4.592 5.96 17.18-1.604 29.606 1.494 42.036 4.593 49.6 17.184 46.5 29.612Z"></path><path fill="#FF007A" d="M20.212 14.823c-.325-.046-.34-.062-.186-.077.294-.047.975.015 1.455.124 1.114.263 2.12.943 3.187 2.135l.278.325.403-.062c1.717-.279 3.48-.062 4.95.619.403.185 1.037.557 1.115.65.03.03.077.232.108.433.108.727.062 1.268-.17 1.686-.124.232-.124.294-.047.495.062.155.248.263.418.263.371 0 .758-.588.944-1.408l.077-.325.14.155c.789.882 1.407 2.104 1.5 2.97l.031.233-.139-.201c-.232-.356-.449-.588-.743-.79-.526-.355-1.083-.464-2.553-.541-1.33-.077-2.088-.186-2.83-.433-1.27-.418-1.92-.96-3.42-2.955-.666-.882-1.083-1.362-1.501-1.764-.913-.882-1.826-1.346-3.017-1.532Z"></path><path fill="#FF007A" d="M31.739 16.788c.03-.588.108-.975.278-1.33.062-.14.124-.264.14-.264.015 0-.016.109-.062.232-.124.34-.14.82-.062 1.362.108.696.154.789.897 1.547.34.356.743.805.898.99l.263.34-.264-.247c-.324-.31-1.067-.897-1.237-.975-.109-.062-.124-.062-.201.016-.062.062-.078.155-.078.603-.015.697-.108 1.13-.34 1.578-.124.232-.14.186-.031-.077.077-.201.093-.294.093-.96 0-1.345-.155-1.67-1.099-2.212-.232-.139-.634-.34-.866-.448a3.425 3.425 0 0 1-.418-.202c.031-.03.944.233 1.3.387.541.217.634.232.696.217.046-.046.077-.17.093-.557ZM20.847 19.093c-.65-.897-1.068-2.29-.975-3.326l.03-.325.155.03c.279.047.759.233.99.372.62.371.898.882 1.161 2.15.078.372.186.805.232.945.077.232.371.773.62 1.113.17.248.061.372-.326.34-.588-.061-1.377-.602-1.887-1.299ZM30.95 25.824c-3.064-1.238-4.147-2.306-4.147-4.116 0-.263.016-.48.016-.48.015 0 .123.093.263.202.619.495 1.315.711 3.249.99 1.13.17 1.779.294 2.367.495 1.872.619 3.032 1.887 3.31 3.605.078.495.032 1.439-.092 1.934-.108.387-.418 1.098-.495 1.114-.015 0-.046-.078-.046-.201-.031-.65-.356-1.269-.898-1.749-.65-.557-1.485-.974-3.527-1.794ZM28.784 26.334a3.66 3.66 0 0 0-.155-.65l-.078-.232.14.17c.2.233.356.511.495.898.108.294.108.387.108.866 0 .465-.015.573-.108.836a2.8 2.8 0 0 1-.65 1.037c-.557.572-1.284.881-2.32 1.02-.186.016-.712.063-1.177.093-1.16.062-1.934.186-2.63.434-.093.03-.185.062-.2.046-.032-.03.448-.31.835-.495.541-.263 1.098-.402 2.32-.619.604-.093 1.223-.216 1.377-.278 1.532-.48 2.29-1.671 2.043-3.126Z"></path><path fill="#FF007A" d="M30.191 28.825c-.402-.882-.495-1.717-.278-2.506.03-.078.062-.155.093-.155.03 0 .123.046.216.108.186.124.573.34 1.563.882 1.253.681 1.965 1.207 2.46 1.81.433.527.696 1.13.82 1.873.077.417.031 1.423-.077 1.84-.34 1.316-1.114 2.368-2.244 2.971-.17.093-.31.155-.325.155-.015 0 .047-.155.14-.34.371-.79.417-1.547.139-2.398-.17-.526-.526-1.16-1.238-2.228-.85-1.238-1.052-1.563-1.269-2.012ZM18.665 33.56c1.145-.96 2.553-1.64 3.852-1.857.557-.093 1.486-.062 1.996.077.82.217 1.563.681 1.95 1.253.37.557.541 1.037.711 2.105.062.418.14.85.155.944.124.556.371.99.68 1.222.48.356 1.316.371 2.136.062.14-.047.263-.093.263-.078.03.031-.387.31-.665.449a2.19 2.19 0 0 1-1.114.263c-.743 0-1.377-.387-1.888-1.16-.108-.155-.325-.604-.51-1.022-.542-1.253-.82-1.624-1.455-2.042-.557-.356-1.268-.433-1.81-.17-.712.34-.897 1.253-.402 1.81.2.232.572.418.882.464a.944.944 0 0 0 1.067-.943c0-.372-.14-.588-.51-.758-.495-.217-1.037.03-1.022.51 0 .201.093.325.294.418.124.062.124.062.031.046-.448-.093-.557-.65-.2-1.005.432-.434 1.345-.248 1.655.355.123.248.139.743.03 1.053-.262.68-1.005 1.036-1.763.835-.51-.14-.727-.279-1.346-.913-1.083-1.114-1.501-1.33-3.048-1.563l-.294-.046.325-.31Z"></path><path fill="#FF007A" fill-rule="evenodd" d="M10.527 8.665c3.605 4.379 9.16 11.187 9.438 11.558.232.31.139.603-.248.82-.217.124-.665.247-.882.247-.247 0-.541-.123-.742-.325-.14-.139-.743-1.02-2.105-3.14a199.532 199.532 0 0 0-1.934-2.986c-.062-.031-.062-.031 1.826 3.341 1.191 2.12 1.578 2.878 1.578 2.971 0 .201-.062.31-.31.588-.417.464-.603.99-.742 2.089-.155 1.222-.572 2.088-1.764 3.558-.696.867-.804 1.021-.974 1.377-.217.433-.279.681-.31 1.238-.03.588.031.96.201 1.516.155.495.325.82.743 1.455.356.557.572.974.572 1.13 0 .123.031.123.588 0 1.33-.31 2.43-.836 3.033-1.486.371-.402.464-.62.464-1.176 0-.356-.016-.433-.108-.65-.155-.34-.45-.619-1.083-1.052-.836-.572-1.192-1.037-1.285-1.655-.077-.526.016-.882.48-1.857.48-1.006.603-1.424.68-2.445.047-.65.125-.912.31-1.114.201-.216.372-.294.851-.356.79-.108 1.3-.309 1.702-.696.356-.325.51-.65.526-1.13l.016-.355-.201-.217C20.118 19.078 10.046 8 10 8c-.016 0 .232.294.526.665Zm4.75 22.001a.639.639 0 0 0-.202-.85c-.263-.17-.665-.093-.665.139 0 .062.031.123.124.154.14.078.155.155.046.325-.108.17-.108.325.031.433.217.17.51.078.666-.2ZM21.543 22.528c-.371.108-.727.51-.836.913-.062.247-.03.696.078.835.17.217.325.279.758.279.85 0 1.578-.372 1.655-.82.078-.372-.247-.882-.696-1.114-.232-.124-.712-.17-.96-.093Zm.99.774c.124-.186.077-.387-.155-.526-.418-.263-1.052-.047-1.052.356 0 .2.325.417.634.417.202 0 .48-.123.573-.247Z" clip-rule="evenodd"></path><defs><linearGradient id="a" x1="0" x2="0" y1="0" y2="48" gradientUnits="userSpaceOnUse"><stop stop-color="#FEF3F9"></stop><stop offset="1" stop-color="#FDE5F2"></stop></linearGradient></defs></symbol><symbol xmlns="http://www.w3.org/2000/svg" fill="none" viewBox="0 0 48 48" id="XRP"><path fill="#23292F" d="M47.277 29.806C44.07 42.663 31.049 50.488 18.19 47.282 5.337 44.075-2.488 31.053.72 18.197 3.923 5.338 16.945-2.487 29.799.718c12.859 3.206 20.683 16.23 17.477 29.088Z"></path><path fill="#fff" d="M35.8 10h4.844l-10.079 9.98c-3.65 3.612-9.568 3.612-13.22 0L7.261 10h4.847l7.657 7.58a5.963 5.963 0 0 0 8.372 0L35.8 10ZM12.046 37.75H7.2l10.145-10.04c3.65-3.613 9.567-3.613 13.22 0l10.144 10.04h-4.843l-7.723-7.642a5.963 5.963 0 0 0-8.371 0l-7.726 7.642Z"></path></symbol><symbol xmlns="http://www.w3.org/2000/svg" fill="none" viewBox="0 0 48 48" id="AAVE"><circle cx="24" cy="24" r="24" fill="#2EBAC6"></circle><path fill="#fff" d="m34.503 33.563-8.115-19.62c-.458-1.015-1.139-1.51-2.035-1.51h-.718c-.897 0-1.577.495-2.035 1.51l-3.532 8.548h-2.672a1.464 1.464 0 0 0-1.454 1.453v.019a1.468 1.468 0 0 0 1.454 1.454h1.435l-3.371 8.146c-.062.18-.1.365-.1.557 0 .457.143.816.397 1.095.253.278.618.414 1.076.414a1.44 1.44 0 0 0 .835-.278c.26-.18.44-.44.582-.736l3.71-9.205h2.574a1.464 1.464 0 0 0 1.454-1.453v-.037a1.468 1.468 0 0 0-1.454-1.454h-1.373l2.833-7.058 7.72 19.2c.142.297.321.557.58.736.242.18.539.273.836.279.458 0 .816-.136 1.076-.415.26-.278.396-.637.396-1.094a1.298 1.298 0 0 0-.099-.551Z"></path></symbol><symbol xmlns="http://www.w3.org/2000/svg" fill="none" viewBox="0 0 48 48" id="XTZ"><path fill="#2C7DF7" d="M47.277 29.806C44.07 42.663 31.049 50.488 18.19 47.282 5.337 44.075-2.488 31.053.72 18.197 3.923 5.338 16.945-2.487 29.799.718c12.859 3.206 20.683 16.23 17.477 29.088Z"></path><path fill="#fff" d="M27.58 40c-2.283 0-3.95-.55-5-1.65a5.094 5.094 0 0 1-1.57-3.556 2.358 2.358 0 0 1 .275-1.175c.18-.312.438-.57.75-.75a2.616 2.616 0 0 1 2.335 0 2 2 0 0 1 .746.75c.197.36.296.765.285 1.175.02.49-.12.973-.4 1.375a1.864 1.864 0 0 1-.95.696c.374.477.905.808 1.5.935a7.43 7.43 0 0 0 2.044.295 4.558 4.558 0 0 0 2.575-.77 4.5 4.5 0 0 0 1.68-2.275 9.884 9.884 0 0 0 .55-3.405 9.343 9.343 0 0 0-.6-3.54 4.37 4.37 0 0 0-1.735-2.2 4.614 4.614 0 0 0-2.5-.715 4.756 4.756 0 0 0-2.165.735l-1.605.805v-.805l7.215-9.679h-10V26.29a3.594 3.594 0 0 0 .55 2.055c.38.544 1.018.85 1.68.805a2.81 2.81 0 0 0 1.66-.585 5.993 5.993 0 0 0 1.39-1.43.5.5 0 0 1 .18-.24.37.37 0 0 1 .242-.09.835.835 0 0 1 .47.2c.167.187.258.43.255.68a3.98 3.98 0 0 1-.09.5 4.84 4.84 0 0 1-1.715 2.13c-.71.48-1.549.734-2.406.73-2.165 0-3.665-.427-4.5-1.28a4.794 4.794 0 0 1-1.24-3.5V16.246H12.4V14.38h5.11v-4.255l-1.17-1.17V8h3.395l1.275.66v5.72l13.21-.04 1.315 1.32-8.1 8.14a5.444 5.444 0 0 1 1.53-.37 6.63 6.63 0 0 1 2.96.844 6.08 6.08 0 0 1 2.55 2.276 8.033 8.033 0 0 1 1.15 2.745c.172.772.264 1.56.276 2.35a9.83 9.83 0 0 1-1 4.355 6.386 6.386 0 0 1-3 3 9.71 9.71 0 0 1-4.321 1Z"></path></symbol><symbol xmlns="http://www.w3.org/2000/svg" fill="none" viewBox="0 0 48 48" id="YFI"><path fill="#006AE3" fill-rule="evenodd" d="M24 0c13.253 0 24 10.747 24 24S37.253 48 24 48 0 37.253 0 24 10.747 0 24 0Z" clip-rule="evenodd"></path><path fill="#fff" d="M23.011 34.118V14.15h2.175v19.968H23.01Z"></path><path fill="#fff" d="m34.08 20.803-6.715 1.78-1.498-6.969 1.997-.45.787 3.301s1.815-2.976-.605-6.057c-1.425-1.584-2.102-1.651-3.7-1.9-1.407-.202-4.676.273-5.65 4.089-.413 2.457.053 4.277 3.22 6.657l-.177 2.65s-3.537-2.491-4.45-4.238c-.705-1.383-1.915-4.114.27-7.916 1.175-1.9 3.494-3.724 7.579-3.532 2.054.086 7.07 2.596 6.292 8.462-.134 1.1-.705 2.563-.705 2.563l2.755-.614.6 2.174ZM30.245 36.427c-1.229 1.867-3.595 3.629-7.67 3.331-2.055-.139-6.999-2.784-6.068-8.625.163-1.095.773-2.54.773-2.54l-2.77.538-.542-2.184 6.763-1.603 1.315 7.008-2.01.398-.702-3.326s-1.89 2.923.442 6.072c1.382 1.622 2.054 1.704 3.653 1.997 1.397.24 4.68-.154 5.755-3.941.475-2.443.058-4.277-3.043-6.744l.25-2.645s3.47 2.582 4.334 4.354c.662 1.406 1.8 4.17-.48 7.91Z"></path></symbol><symbol xmlns="http://www.w3.org/2000/svg" fill="none" viewBox="0 0 48 48" id="ADA"><circle cx="24" cy="24" r="24" fill="#EDF0F4"></circle><path fill="#0033AD" d="M16.773 23.878a2.155 2.155 0 0 0 2.031 2.27h.128a2.143 2.143 0 0 0 2.15-2.159 2.143 2.143 0 0 0-2.159-2.15c-1.143 0-2.09.896-2.15 2.04ZM8.735 23.324a.697.697 0 1 0-.076 1.39.697.697 0 0 0 .076-1.39ZM16.636 11.369a.704.704 0 0 0 .307-.939.704.704 0 0 0-.938-.307.694.694 0 0 0-.307.93.69.69 0 0 0 .938.316c-.008 0 0 0 0 0ZM18.82 15.183c.53-.264.743-.913.478-1.442a1.077 1.077 0 0 0-1.442-.478 1.077 1.077 0 0 0-.478 1.442c.265.53.913.743 1.442.478ZM11.465 17.803a.893.893 0 0 0 1.229-.256.893.893 0 0 0-.256-1.229.893.893 0 0 0-1.229.256.883.883 0 0 0 .256 1.229ZM12.77 22.94a1.072 1.072 0 0 0-1.134 1.015c-.034.597.418 1.1 1.015 1.135a1.077 1.077 0 0 0 .12-2.15ZM11.585 30.167a.89.89 0 1 0 1.194.392.892.892 0 0 0-1.194-.392ZM15.766 20.712a1.256 1.256 0 0 0 1.75-.367 1.256 1.256 0 0 0-.368-1.749 1.256 1.256 0 0 0-1.75.367 1.26 1.26 0 0 0 .368 1.75ZM29.035 15.098a1.083 1.083 0 0 0 1.493-.308 1.083 1.083 0 0 0-.307-1.493 1.083 1.083 0 0 0-1.494.307 1.066 1.066 0 0 0 .308 1.494ZM31.236 11.3c.325.214.751.12.965-.204a.693.693 0 0 0-.205-.964.699.699 0 0 0-.964.196.719.719 0 0 0 .204.973ZM29.197 21.822a2.15 2.15 0 0 0-2.27 2.03 2.15 2.15 0 0 0 2.031 2.27h.12c1.186 0 2.15-.964 2.15-2.159a2.138 2.138 0 0 0-2.03-2.141ZM19.53 20.559a2.154 2.154 0 0 0 4.079-.973c0-.333-.077-.666-.231-.973a2.15 2.15 0 0 0-2.893-.955 2.163 2.163 0 0 0-.956 2.9ZM36.416 17.803a.89.89 0 0 0 .384-1.195.89.89 0 0 0-1.587.802c.23.435.76.615 1.203.393ZM30.955 18.485a1.265 1.265 0 1 0 1.698.564 1.273 1.273 0 0 0-1.698-.564ZM23.915 10.976a.9.9 0 0 0 .938-.836c.034-.486-.35-.904-.836-.939a.892.892 0 0 0-.939.828.902.902 0 0 0 .837.947ZM23.907 16.548c.7.043 1.297-.495 1.33-1.194a1.256 1.256 0 0 0-1.194-1.332 1.257 1.257 0 0 0-1.33 1.195c-.035.7.494 1.297 1.194 1.331ZM17.046 29.484a1.265 1.265 0 1 0-1.136-2.261 1.265 1.265 0 0 0 1.136 2.261ZM24.725 18.4a2.148 2.148 0 0 0 .623 2.978c.998.648 2.33.375 2.978-.623a2.148 2.148 0 0 0-1.8-3.328c-.726 0-1.4.367-1.801.973ZM28.471 27.41a2.15 2.15 0 0 0-2.892-.955 2.15 2.15 0 0 0-.956 2.893 2.15 2.15 0 0 0 2.893.956 2.144 2.144 0 0 0 .964-2.876c0-.009 0-.009-.009-.017ZM32.234 27.257a1.256 1.256 0 0 0-1.749.367 1.256 1.256 0 0 0 .367 1.75 1.256 1.256 0 0 0 1.75-.367 1.26 1.26 0 0 0-.368-1.75ZM36.365 24.023a1.072 1.072 0 0 0-1.016-1.135 1.072 1.072 0 0 0-1.134 1.016c-.035.597.418 1.1 1.015 1.135.589.034 1.1-.427 1.135-1.016ZM39.342 23.255a.697.697 0 1 0 .657.734.702.702 0 0 0-.657-.734ZM36.535 30.167a.893.893 0 0 0-1.228.256.892.892 0 0 0 .256 1.229.893.893 0 0 0 1.228-.256.883.883 0 0 0-.255-1.229ZM16.756 36.67a.698.698 0 0 0-.965.195.698.698 0 0 0 .197.965c.324.213.75.12.964-.197a.685.685 0 0 0-.196-.964ZM31.364 36.6a.704.704 0 0 0-.307.94c.17.34.597.477.938.306a.694.694 0 0 0 .307-.93.69.69 0 0 0-.938-.315c.008 0 0 0 0 0ZM23.275 29.57a2.16 2.16 0 0 0-.623-2.987 2.16 2.16 0 0 0-2.987.623 2.152 2.152 0 0 0 1.8 3.336 2.124 2.124 0 0 0 1.81-.972ZM18.966 32.872a1.083 1.083 0 0 0-1.494.307 1.083 1.083 0 0 0 .308 1.493 1.083 1.083 0 0 0 1.493-.307 1.068 1.068 0 0 0-.307-1.493ZM23.992 36.993a.9.9 0 0 0-.939.837c-.034.486.35.904.836.938a.892.892 0 0 0 .939-.827.902.902 0 0 0-.836-.948ZM24 31.421a1.256 1.256 0 0 0-1.331 1.195c-.043.7.495 1.297 1.194 1.331.7.034 1.297-.495 1.332-1.195A1.262 1.262 0 0 0 24 31.422ZM29.18 32.787a1.078 1.078 0 0 0 .981 1.92c.53-.265.742-.913.478-1.442a1.089 1.089 0 0 0-1.46-.478Z"></path></symbol><symbol xmlns="http://www.w3.org/2000/svg" fill="none" viewBox="0 0 48 48" id="APE"><path fill="#0054F9" d="M48 24C48 10.733 37.241 0 24 0 10.733 0 0 10.733 0 24c0 13.241 10.733 24 24 24 13.241 0 24-10.759 24-24Z"></path><path fill="#fff" d="M40.319 16.5c-.104.595-.207.88-.362 1.19-.155.362-.31.75-.466 1.577-.051.31-.103.57-.129.776v.026c-.052.336-.078.569-.207.957-.103.336-.284.88-.724 1.448-.362.466-.957 1.267-1.759 1.37-.077 0-.207 0-.284-.025-2.276-1.164-4.216-2.017-4.888-2.198-.776-.233-.672-1.94-.595-3.44.052-.672.078-1.319.052-1.862-.104-1.914-.44-3.983-2.095-4.991-.983-.595-2.276-.776-3.491-.776.232-.104.465-.259.75-.414.724-.414 1.603-.931 2.508-1.035.285-.025.57-.051.854-.103 1.784-.207 3.336-.388 4.965.181.75.259 2.25 1.086 2.638 1.888.285.543.75.983 1.655 1.836.492.44.802.698 1.035.905.336.259.388.336.491.518.31.62.207 1.267.052 2.172ZM32.07 24.336c.102.026.154.155.077.259-.233.362-.518.88-.854 1.474-.155.285-.31.569-.44.776-.44.75-.465 1.396-.49 1.888-.027.543-.052.776-.389.983-.258.18-.543.232-2.405.517-.336.052-.465.103-.595.18-.026.027-.077.027-.103.053-.104.051-.207-.052-.207-.156.026-.258.026-.594.026-1.034v-.078c0-.362 0-.672-.026-.905-.026-.465-.026-.672.103-.88.155-.258.285-.335.466-.465.284-.18.672-.413 1.215-1.19.31-.413.363-.646.414-.827.026-.078.026-.103.259-.284s.983-.75 1.94-.595c.31.052.646.155 1.008.284ZM24.647 32.922c-.052.052-.078.078-.155.078-.207 0-.337-.052-.414-.155-.181-.233-.155-.698-.13-.983l.802-.207c.052.44.078 1.035-.103 1.267ZM24.698 30.078c-.026.103-.026.232-.026.387v.596c-.258.077-.465.077-.724.077V30.466c0-.156 0-.388.026-.466a.754.754 0 0 0 .233-.052c.155-.026.388-.077.517-.051 0 .051 0 .129-.026.18ZM23.25 32.69c-.026.413-.155.905-.543.983-.181.025-.259-.026-.31-.078-.26-.233-.285-.957-.26-1.474.182 0 .389-.026.647-.078.155-.026.31-.077.44-.103.026.207.052.465.026.75ZM23.069 31.241l-.854.31c.052-.335.104-.801.13-1.111.026-.207.077-.285.103-.31 0 0 .026-.026.052-.026h.052l.543-.026c-.026.258-.026.827-.026 1.163ZM21.673 30.983c-.052.13-.104.491-.13.75l-1.06-.026c.052-.336.155-.672.233-.931.103-.259.18-.466.284-.517.104-.052.336-.078.491.051.233.156.285.388.182.673ZM21.284 34.267c-.077.104-.18.181-.284.181-.13.026-.207-.026-.285-.077-.336-.31-.31-1.32-.284-1.81.44-.104.93-.182 1.164-.208 0 .388.026 1.449-.31 1.914ZM19.888 31.655c-.052.13-.103.259-.13.388-.129.052-.517 0-.904-.078l.258-1.68c.44-.13.957-.156 1.06-.026.181.18-.155 1.034-.284 1.396ZM19.396 34.5c-.207.259-.517.388-.957.362-.31 0-.413-.13-.465-.207-.233-.388 0-1.293.233-1.862l1.448.078c.026.103.026.232.026.362.026.44-.026.957-.285 1.267Z"></path><path fill="#fff" d="M31.397 22.267c-1.32-.362-1.19-2.276-1.086-4.138.026-.646.077-1.267.051-1.784-.103-1.733-.388-3.62-1.784-4.474-1.5-.905-3.957-.699-5.457-.518-.543.156-1.06.285-1.474.26-.88-.053-1.578-.415-2.198-.75-.466-.26-.88-.492-1.294-.492h-.051c-1.164.077-1.707.362-2.199.801-.129.104-.284.414-.775 1.837-.26.724-.285 1.112-.337 1.474-.051.336-.077.698-.258 1.241-.13.362-.233.673-.31.983-.233.802-.44 1.448-1.01 2.224-.077.078-.154.233-.258.362-.13.207-.284.466-.517.75-.155.207-.492.983-.466 1.216.026.388.156.62.285.879.13.259.31.569.336 1.009v.077c.052.673-.052 1.009-1.319 2.147a13.901 13.901 0 0 0-1.784 1.94c-.026.051 0 .103.077.103h.259c.31.026.62.155.827.388.026.052.104.052.156.026.207-.078.44-.078.646-.052.259.026.543.103.724.284.052.052.13.078.207.052.207-.052.44-.052.647.026.155.052.31.155.413.284a.275.275 0 0 0 .31.052c.053-.026.13-.077.208-.103.284-.104.595-.052.853.052.13.051.259.077.388.18.207.156.362.363.44.595.051.13.233.181.336.078.207-.155.362-.181.517-.13.078.026.13.078.181.156.078.103.207.207.31.155.44-.13.957-.052 1.346.155.129.078.284.181.361.336v-.077c0-.026.026-.052.052-.078l.078-.026c.207-.077 1.293-.388 1.707.052.026.026.052.026.077 0 .052-.052.104-.103.13-.103.284-.156.75-.181 1.06.103.052.052.155.026.207-.026a.202.202 0 0 1 .103-.103c.104-.104.259-.13.414-.13l.595-.025c.155 0 .62-.052.75-.078h.026c.052 0 .13-.026.207-.052.284-.052.62-.13.879 0s.233.414.207.673c0 .103-.026.207-.026.31v.155c0 .233 0 .44-.026.595l.026.13v.025c.026.104.155.181.233.104.207-.13.414-.285.491-.388v-.026c0-.026.026-.078.052-.181.026-.233.077-.673.077-1.578v-.103c0-.336 0-.621-.025-.854-.026-.491-.052-.879.206-1.267.233-.388.466-.517.699-.672.258-.155.543-.337 1.034-1.009.233-.336.259-.465.285-.569.051-.259.13-.414.517-.672.31-.233 1.215-.931 2.457-.724.414.077 1.06.284 1.733.543.026 0 .051.026.077.026h.026c.595.232 1.138.49 1.526.698.078.052.181.026.259-.052.129-.155.258-.233.388-.336.051-.026.103-.052.129-.078.026 0 .026-.026.026-.026.103-.077.103-.284-.026-.336a25.356 25.356 0 0 0-3.931-1.526Zm-12.466.388c-.414 1.759-3.155 3.724-4.396 3.724h-.078c-.026 0-.052 0-.077-.026h-.052a2.068 2.068 0 0 1-.776-.465 1.356 1.356 0 0 1-.336-.543c0-.026-.026-.078-.026-.104-.078-.31-.155-.672.103-1.293.026-.077.078-.155.104-.232 0-.026.026-.052.026-.078.025-.078.051-.13.077-.181.026-.104.078-.181.104-.233 0-.026.026-.052.026-.077.077-.207.077-.285.103-.362 0-.052.026-.156.052-.26.077-.335.129-.62.155-.852.052-.44.13-.828.362-1.19.052-.052.078-.104.13-.155l.051-.052.052-.052c.051-.052.129-.077.18-.103.027 0 .053-.026.078-.026.052-.026.104-.026.155-.052.233-.052.492-.052.802-.026.337.026.647.078.905.155.233.052.44.13.595.207.026 0 .026.026.052.026.026.026.052.026.103.052.052.026.078.026.13.052l.155.077.052.026c.18.078.362.181.491.285.078.051.13.103.181.155.026.026.052.026.052.052l.051.051c.544.466.518 1.112.414 1.5Zm1.293-6.698-.051.31c-.13.724-.414 1.707-1.449 1.966-1.008.233-1.241.284-1.94.336h-.051c-.517 0-1.526-.336-1.707-1.138-.103-.517.13-.905.492-1.526.051-.103.129-.207.206-.336.518-.853.699-1.474.854-1.966.155-.49.284-.879.62-1.215.078-.078.156-.155.26-.207.05-.052.129-.077.206-.13.103-.051.207-.077.31-.129.233-.077.492-.103.724-.103.492 0 .983.13 1.32.414.155.13.387.362.517 1.112.052.388-.052 1.086-.31 2.612Zm7.423 2.069c-.362.62-.543.957-.854 1.215-.62.518-1.319.621-1.913.621-.414 0-.776-.077-1.01-.103-.62-.104-1.732-.31-2.12-1.216-.077-.18-.077-.284-.077-.44 0-.129 0-.387-.078-.93v-.026a3.509 3.509 0 0 1 0-.906v-.051c.207-1.087.285-1.242.31-1.345a.426.426 0 0 1 .595-.181c.207.103.285.362.207.569-.026.051-.077.284-.259 1.138v.052c-.051.232-.025.413 0 .646v.026c.078.62.078.88.078 1.034v.104c.078.18.233.284.414.388.13.052.258-.052.233-.181-.181-.957-.181-2.07.18-2.768.13-.232.337-.594.544-.956a.196.196 0 0 0 .052-.104c.025-.026.025-.052.051-.078.104-.155.181-.284.259-.413 0-.026.026-.026.026-.052l.026-.026c.026-.026.026-.052.051-.077 0 0 0-.026.026-.026l.026-.026c0-.026.026-.026.026-.052.077-.103.155-.207.207-.31.103-.13-.026-.285-.155-.233-.362.155-.595.336-.647.362a.428.428 0 0 1-.62-.077.428.428 0 0 1 .077-.621c.233-.181 1.422-1.035 2.845-.647 1.034.285 1.552 1.086 1.758 1.37.156.234.673.958.647 1.992 0 .75-.31 1.32-.905 2.328Z"></path><path fill="#fff" d="M18.388 12.724c-.078.181-.155.388-.259.62-.207.544-.465 1.165-.595 1.397a7.716 7.716 0 0 1-.49.828 3.37 3.37 0 0 0-.363.672c-.155.44-.181.931-.078 1.474-.284-.025-.724-.206-.776-.465-.025-.181.078-.362.388-.905.052-.104.13-.233.207-.336.543-.931.776-1.63.931-2.147.181-.543.259-.776.543-.983.181-.077.337-.129.492-.155ZM17.845 32.276c-.31.62-.673 1.19-.906 1.474-.206-.517-.543-1.733-.44-2.69v-.077c.027-.31.104-.57.26-.802.103-.155.361-.233.646-.233.207 0 .44.052.646.155.104.052.26.181.26.518.05.465-.182 1.086-.466 1.655Z"></path><path fill="#fff" d="M34.397 25.37c.025.026.025.052.025.078-.077.181-.206.31-.336.466-.155.18-.336.388-.491.724-.233.465-.31.88-.336 1.965-.052 1.268 0 1.966.051 2.483.026.492.052.802-.026 1.293-.18.983-.594 1.63-1.137 2.457-.673 1.035-1.345 2.095-2.483 2.431-.104.026-.104.026-.414.026-.259 0-.698 0-1.5.026-1.5.052-2.25.078-2.87.207-.673.13-1.01.284-1.371.414-.31.129-.595.232-1.138.362-.336.077-.828.129-2.509.155-1.759 0-2.819 0-4.19-.155-1.913-.207-2.87-.337-3.517-.673-1.5-.801-2.146-2.25-3.18-4.63 0-.025.025-.05.05-.05.053.025.104.05.156.077a.28.28 0 0 0 .13.026.632.632 0 0 0 .31 0c.026 0 .026 0 .051-.026.026 0 .052 0 .052.026.078.18.181.336.362.44.181.103.388.103.57.103.206 0 .413-.026.62-.052.103 0 .207.052.258.13.181.465.414.775.776.827h.078a.674.674 0 0 0 .362-.13c.13-.103.336-.025.44.104.077.13.18.207.284.285.362.362 1.242.543 1.966.543.388 0 .75-.052.957-.155.31-.156.31-.363.284-.466-.026-.155-.052-.336-.078-.491 0-.026.026-.026.026 0 .052.103.104.207.233.232h.052c.207 0 .517.078.569.259.026.103.077.181.13.285.128.18.361.413.852.44h.026c.57 0 1.009-.182 1.294-.544.025-.026.025-.052.051-.078.104-.155.414-.155.543-.025.155.129.336.206.543.206h.104c.259-.025.465-.155.646-.388.104-.155.181-.336.233-.543.026-.051.104-.077.155-.025a.757.757 0 0 0 .543.206c.052 0 .13 0 .207-.025.492-.104.75-.518.854-.957 0-.026.026-.026.026 0 .129.155.362.336.75.336h.051a.675.675 0 0 0 .518-.259c.155-.207.206-.517.232-.801 0-.078.052-.156.155-.207.414-.181.932-.57 1.087-.828 0 0 0-.026.026-.026.026-.077.103-.13.155-.13.336-.05.465-.128.595-.18.103-.052.18-.078.44-.13 1.887-.284 2.25-.361 2.663-.62.62-.414.647-.983.673-1.526.025-.465.051-.983.413-1.603.13-.233.285-.492.44-.802.284-.517.672-1.242.957-1.63a.168.168 0 0 1 .233-.051c.646.233 1.215.491 1.319.595Z"></path><path fill="#fff" d="M16.034 31.009a12.53 12.53 0 0 0-.025 2.663c.025.31.077.647.129.983-.078.052-.362.13-.828.104-.672-.026-1.345-.181-1.551-.414l-.026-.026c-.155-.13-.285-.233-.285-.466 0-.077.026-.155.104-.284a.904.904 0 0 0 .155-.233c.103-.155.258-.336.414-.595.44-.724.595-.956.801-1.241.026-.026.026-.052.052-.078.13-.155.259-.362.492-.698.155-.233.284-.44.413-.595a3.15 3.15 0 0 1 .388-.465c0 .103-.026.258-.052.414-.103.31-.155.594-.18.93ZM15.698 20.819c0 .026 0 .026 0 0-.103.13-.206.284-.336.543-.336.724-.336 1.138-.336 1.474 0 .181 0 .31-.052.466a1.384 1.384 0 0 1-.155.362c-.18.44-.44 1.008-.336 1.784-.155-.077-.388-.258-.44-.336 0-.052-.025-.077-.025-.13-.052-.232-.078-.387.051-.75.414-.93.466-1.163.492-1.422 0-.051.025-.103.025-.18a8.65 8.65 0 0 0 .156-.932c.051-.388.103-.646.232-.827.052-.078.181-.104.362-.104a.97.97 0 0 1 .26.026h.025l.077.026ZM15.181 30.052c-.026-.233-.052-.44-.155-.673 0 0-.026-.052-.026-.077-.026-.026-.026-.052-.052-.078l-.026-.026c-.025-.026-.025-.026-.051-.026l-.026-.026c-.026 0-.026-.025-.052-.025h-.026a1.941 1.941 0 0 0-.413-.13h-.13c-.026 0-.052.026-.103.026-.026 0-.026.026-.052.026l-.026.026-.052.052-.025.026v.025l-.156.233c-.129.181-.258.388-.388.57-.129.18-.232.335-.362.516-.077.104-.129.181-.207.285 0 .026-.025.026-.025.052.077.025.155.025.232.051.181.026.362.052.518.078.362.052.75.077 1.112.052h.051c.078-.13.207-.285.337-.492.077-.103.155-.207.207-.31-.078-.026-.104-.104-.104-.155ZM13.862 31.578c-.026.284-.336 1.008-.827 1.706-.414.57-.673.725-.724.725-.207-.026-.388-.518-.543-1.009-.052-.207-.13-.388-.156-.569-.103-.362-.129-.88-.103-1.19.414.233 1.138.285 2.172.285.052.026.13.026.181.052ZM13.138 29.25c-.181.285-.362.543-.543.802-.104.129-.181.258-.285.388-.051.077-.129.155-.18.232-.156-.025-.285-.077-.44-.103-.13-.026-.233-.078-.362-.13-.026 0-.052-.025-.078-.025-.026-.026-.052-.078-.078-.104.052-.077.078-.18.13-.258.077-.155.155-.31.258-.466.155-.258.336-.543.621-.724.026 0 .026-.026.052-.026.103-.051.207-.103.336-.13h.207c.026 0 .052.027.103.027 0 0 .026 0 .026.026.026.026.052.026.078.051-.052-.025.051.078.051.052.052.155.078.233.104.388ZM11.742 28.5c-.337.259-.57.62-.75 1.009l-.31.62c0 .026-.027.052-.027.052-.103-.026-.207-.052-.284-.078-.104-.025-.207-.077-.31-.103-.052-.026-.078-.052-.13-.078.104-.18.207-.362.336-.543.155-.233.337-.491.518-.698.077-.078.155-.181.232-.233a.492.492 0 0 1 .337-.026c.129 0 .258 0 .362.052-.026 0 0 .026.026.026ZM11.224 32.897l-.052.051h-.025c-.078 0-.156.026-.233.026-.155 0-.31.026-.466 0a.294.294 0 0 1-.207-.077c-.051-.078-.077-.233-.103-.337a6.3 6.3 0 0 1-.052-1.707c.285.104.595.181.905.233-.077.518.052 1.267.104 1.474.077.104.103.233.13.337ZM10.293 28.319c-.259.31-.491.646-.698 1.009-.078.129-.181.284-.259.44a.955.955 0 0 1-.284-.13 1.427 1.427 0 0 1-.207-.155c-.026-.026-.078-.052-.104-.078 0 0-.026 0-.026-.026.026-.077.078-.129.078-.18.052-.13.103-.234.181-.337.13-.207.259-.414.414-.62.051-.078.103-.156.207-.182.077-.025.18 0 .258 0 .155.026.31.13.44.259ZM8.302 29.69c0-.026.025-.026 0 0 .103.103.18.18.284.258.052.026.078.078.13.104v.026c-.104.44-.182.905-.182 1.37 0 .026-.026.026-.026 0-.129-.543-.284-1.422-.206-1.758ZM9.569 30.647c-.052.388-.078.776-.052 1.163 0 .207.026.414.052.647h-.207l-.104-.052c-.051-.026-.103-.103-.155-.18-.103-.182-.129-.389-.129-.596-.026-.388.026-.801.103-1.19.052.027.13.052.207.078.104.052.181.104.285.13Z"></path></symbol><symbol xmlns="http://www.w3.org/2000/svg" fill="none" viewBox="0 0 48 48" id="ATOM"><circle cx="24" cy="24" r="24" fill="#2E3148"></circle><circle cx="24" cy="24" r="13.926" fill="#1B1E36"></circle><path fill="#6F7390" fill-rule="evenodd" d="M19.358 24.05c0-11.592 2.1-20.988 4.691-20.988 2.591 0 4.692 9.396 4.692 20.987 0 11.592-2.101 20.988-4.692 20.988-2.59 0-4.691-9.396-4.691-20.988Zm4.423 19.901s.296.297.592-.098c0 0 1.392-1.186 2.386-6.816 0 0 1.29-7.407 1.093-14.024 0 0 .197-7.605-1.984-15.704 0 0-.74-2.61-1.62-3.235a.37.37 0 0 0-.475.039c-.607.6-2.391 3.304-3.372 14.752 0 0-.497 14.42 1.59 21.136 0 0 .597 2.568 1.79 3.95Z" clip-rule="evenodd"></path><path fill="#6F7390" fill-rule="evenodd" d="M21.71 19.98c10.059-5.769 19.254-8.623 20.544-6.375 1.289 2.247-5.807 8.745-15.866 14.514C16.33 33.887 7.133 36.74 5.844 34.493c-1.289-2.247 5.807-8.746 15.866-14.514ZM6.652 33.716s-.112.405.382.468c0 0 1.72.617 7.099-1.32 0 0 7.067-2.566 12.709-6.031 0 0 6.695-3.614 12.63-9.54 0 0 1.901-1.938 2-3.014a.37.37 0 0 0-.269-.395c-.82-.226-4.056-.43-14.473 4.416 0 0-12.756 6.745-17.545 11.898 0 0-1.927 1.795-2.533 3.518Z" clip-rule="evenodd"></path><path fill="#6F7390" fill-rule="evenodd" d="M26.407 19.986c10.024 5.811 17.101 12.34 15.801 14.582-1.298 2.246-10.48-.644-20.51-6.455C11.668 22.3 4.592 15.777 5.89 13.53c1.299-2.246 10.493.644 20.517 6.455ZM6.965 13.832s-.405.11-.213.565l.001.005s.329 1.797 4.704 5.48c0 0 5.758 4.833 11.581 7.974 0 0 6.481 3.981 14.585 6.154 0 0 2.63.67 3.61.22a.37.37 0 0 0 .206-.43c-.216-.824-1.66-3.726-11.074-10.314 0 0-12.228-7.659-19.085-9.22 0 0-2.52-.773-4.315-.434Z" clip-rule="evenodd"></path><circle cx="24" cy="24" r="2.469" fill="#B7B9C8"></circle><ellipse cx="34.123" cy="14.519" fill="#B7B9C8" rx="1.432" ry="1.481"></ellipse><ellipse cx="10.617" cy="19.556" fill="#B7B9C8" rx="1.432" ry="1.481"></ellipse><ellipse cx="21.086" cy="37.728" fill="#B7B9C8" rx="1.432" ry="1.481"></ellipse></symbol><symbol xmlns="http://www.w3.org/2000/svg" fill="none" viewBox="0 0 48 48" id="AVAX"><circle cx="24" cy="24" r="24" fill="#E84142"></circle><path fill="#fff" fill-rule="evenodd" d="M25.436 7.125c-.831-1.436-2.154-1.436-2.986 0L7.351 33.714c-.831 1.455-.151 2.608 1.512 2.608h7.578a4.8 4.8 0 0 0 3.742-2.193l9.127-15.817a4.967 4.967 0 0 0 0-4.327L26.59 9.204l-1.153-2.08Zm10.035 17.499c-.832-1.436-2.173-1.436-3.005 0l-5.272 9.09c-.813 1.436-.133 2.608 1.512 2.608h10.431c1.663 0 2.343-1.172 1.512-2.608l-5.178-9.09Z" clip-rule="evenodd"></path></symbol><symbol xmlns="http://www.w3.org/2000/svg" fill="none" viewBox="0 0 48 48" id="AXS"><path fill="#0055D5" fill-rule="evenodd" d="M24 0c13.253 0 24 10.747 24 24S37.253 48 24 48 0 37.253 0 24 10.747 0 24 0Z" clip-rule="evenodd"></path><path fill="#fff" fill-rule="evenodd" d="M13.056 15.878s-2.582-2.064-2.76 3.034c-.178 3.95-.173 11.62 1.656 15.245.773 1.363 1.805.945 3.725-.413 1.67-1.234 7.713-6.802 10.272-9.245 2.558-2.443 7.747-9.451 8.827-4.69.427 2.002.955 3.701.552 8.141-.125 1.368-.71 2.405-3.38.552-2.015-1.296-3.93-2.688-3.93-2.688s-.37-.662-1.244.413c-.686.86-1.032 1.07.068 1.723 1.104.653 6.686 4.503 8.827 5.103 1.766.513 2.774.504 2.827-2.967-.01-2.755-.168-10.641-1.171-14.001-.759-2.093-1.872-3.044-4.277-.692-2.405 2.352-9.989 9.706-14.136 13.037-2.75 2.064-3.926 3.927-4.963.485-.73-2.606-1.675-10.718 1.31-9.173 1.867.893 2.799.888 2.069 1.45-.73.557-2.827 2.482-2.827 2.482s-.648.523-.346 1.655c.303.793.303 1.186 1.93-.345a359.38 359.38 0 0 0 2.827-2.688s.26-.408 1.032.346c.773.753.898.964.898.964s.206.562 1.032-.413c.83-.974 1.363-1.57-.207-2.481-1.565-.922-8.611-4.834-8.611-4.834Z" clip-rule="evenodd"></path></symbol><symbol xmlns="http://www.w3.org/2000/svg" fill="none" viewBox="0 0 48 48" id="BCH"><circle cx="24" cy="24" r="24" fill="#8DC351"></circle><path fill="#fff" fill-rule="evenodd" d="M31.82 15.916c-1.2-2.985-4.053-3.134-7.507-2.537L23.112 9.2l-2.553.747 1.201 4.03c-.243.06-.511.145-.794.235-.415.132-.861.273-1.308.362l-1.201-4.179-2.553.746 1.201 4.18c-.3.074-.563.149-.826.223-.262.075-.525.15-.825.224L12 16.961l.75 2.687s1.953-.597 1.803-.597c1.05-.299 1.501.149 1.802.746l1.351 4.776h.3l-.3.15 1.952 6.716c0 .298 0 .895-.75 1.194l-1.803.597.3 3.134 3.304-.895 1.802-.448 1.201 4.179 2.553-.746-1.201-4.18c.75-.149 1.351-.298 2.102-.596l1.201 4.179 2.553-.747-1.202-4.179c4.205-1.492 6.908-3.432 6.157-7.612-.6-3.283-2.553-4.328-5.256-4.179 1.502-1.492 2.103-2.985 1.202-5.224Zm-.9 10.15c.794 2.763-3.43 4.018-5.675 4.685-.302.09-.569.17-.782.24l-1.652-5.672c.237-.058.534-.146.872-.245 2.239-.659 6.324-1.86 7.237.992Zm-8.44-3.404c1.794-.507 5.665-1.6 4.836-4.208-.68-2.7-4.43-1.492-6.251-.906-.192.062-.363.117-.506.16l1.502 5.074c.12-.036.261-.076.418-.12Z" clip-rule="evenodd"></path></symbol><symbol xmlns="http://www.w3.org/2000/svg" fill="none" viewBox="0 0 48 48" id="BNB"><path fill="#F3BA2F" d="M47.277 29.806C44.07 42.663 31.049 50.488 18.19 47.282 5.337 44.075-2.488 31.053.72 18.197 3.923 5.338 16.945-2.487 29.799.718c12.859 3.206 20.683 16.23 17.477 29.088Z"></path><path fill="#fff" fill-rule="evenodd" d="m24 15.232-6.215 6.215-3.615-3.617L24 8l9.834 9.833-3.616 3.616L24 15.232Zm-12.384 5.151L8 24l3.616 3.615L15.232 24l-3.616-3.616Zm6.17 6.17L24 32.769l6.218-6.217 3.617 3.614-.001.002L24 40l-9.83-9.83-.005-.006 3.62-3.61Zm18.598-6.168-3.616 3.616 3.616 3.616L40 24.001l-3.616-3.616Z" clip-rule="evenodd"></path><path fill="#fff" d="M27.668 23.998h.001L24 20.328l-2.712 2.712-.311.312-.643.642-.005.005.005.006L24 27.67l3.67-3.67.001-.001-.003-.002"></path></symbol></svg>
