<svg width="48" height="48" viewBox="0 0 48 48" fill="none" xmlns="http://www.w3.org/2000/svg">
<path d="M24 0C37.2561 0 48 10.7461 48 24C48 37.2561 37.2561 48 24 48C10.7461 48 0 37.255 0 24C0 10.7461 10.7461 0 24 0Z" fill="#F5AC37"/>
<path fill-rule="evenodd" clip-rule="evenodd" d="M12.57 37.2301V37.3197L12.5656 37.323V37.3381H22.9759C24.1542 37.3543 25.3281 37.2603 26.4859 37.053C27.7052 36.8143 28.8932 36.4384 30.0262 35.9287C30.5174 35.7011 30.9887 35.4262 31.4642 35.1487C31.5846 35.0785 31.7052 35.0081 31.8266 34.9383C32.386 34.5398 32.9217 34.1078 33.4314 33.6488C34.8268 32.3873 35.9068 30.8137 36.5818 29.0587C36.6272 28.8622 36.8194 28.7358 37.0171 28.7736H39.8521C40.0778 28.7736 40.1524 28.698 40.1524 28.4431V26.6276C40.1675 26.4537 40.1675 26.2777 40.1524 26.1038C40.1524 26.0584 40.164 26.0131 40.1757 25.9678C40.199 25.8776 40.2221 25.7877 40.1524 25.6977H37.7839C37.4977 25.6977 37.4977 25.6675 37.4977 25.4126C37.5798 24.4989 37.5798 23.582 37.4977 22.6683C37.4826 22.3983 37.543 22.3983 37.7526 22.3983H39.823C40.0638 22.3983 40.1534 22.3378 40.1534 22.0981V19.6378C40.146 19.4748 40.1422 19.3922 40.099 19.3503C40.0545 19.3073 39.9684 19.3073 39.7938 19.3073H37.1089C36.8994 19.3429 36.6985 19.2015 36.6607 18.9919C36.3529 18.1873 35.9608 17.4173 35.4889 16.6969C35.0137 15.9863 34.478 15.3188 33.884 14.7021C33.0945 13.9137 32.2078 13.229 31.2444 12.662C29.7918 11.8185 28.2031 11.2277 26.5496 10.9221C25.7472 10.7741 24.9361 10.6845 24.1196 10.6521H12.8702C12.57 10.6521 12.57 10.7126 12.57 10.9523V19.0373C12.57 19.3224 12.5095 19.3224 12.2848 19.3224H9.05992C8.82016 19.3224 8.82016 19.3667 8.82016 19.5319V22.1715C8.82016 22.4113 8.89468 22.4113 9.07504 22.4113H12.3302C12.57 22.4113 12.57 22.4555 12.57 22.6359V25.4558C12.57 25.7107 12.4944 25.7107 12.3 25.7107H8.82016V28.5608C8.82016 28.8006 8.89468 28.8006 9.07504 28.8006H12.3302C12.57 28.8006 12.57 28.8298 12.57 29.0252V32.5504V33.7352V37.2301ZM33.2859 19.0655C33.3118 19.1325 33.3118 19.207 33.2859 19.275H33.3582C33.328 19.3647 33.1779 19.3949 33.1779 19.3949H15.8685C15.5834 19.3949 15.5834 19.3344 15.5834 19.1098V13.7853C15.5834 13.5898 15.6136 13.5002 15.8383 13.5002H23.893C24.7505 13.4926 25.6059 13.5823 26.4429 13.7702C28.1018 14.1633 29.6451 14.9453 30.9433 16.0501C31.2025 16.2434 31.4336 16.4713 31.6334 16.7251C32.0568 17.1452 32.4283 17.6129 32.7437 18.1205C32.9532 18.4175 33.1336 18.7339 33.2859 19.0655ZM34.0039 25.6944H24.8843H15.944C15.7616 25.6944 15.6717 25.6944 15.6274 25.6495C15.5844 25.6058 15.5844 25.5197 15.5844 25.3499V22.6801C15.5844 22.4695 15.6448 22.395 15.8695 22.395H34.0191C34.2145 22.395 34.3042 22.4695 34.3042 22.6499C34.3787 23.5787 34.3787 24.5118 34.3042 25.4396C34.2901 25.6944 34.1983 25.6944 34.0039 25.6944ZM33.2857 28.8147C33.0308 28.7867 32.7738 28.7867 32.5189 28.8147H15.8846C15.66 28.8147 15.5844 28.8147 15.5844 29.115V34.3206C15.5844 34.5604 15.5844 34.6209 15.8846 34.6209H23.5645C23.9318 34.649 24.299 34.623 24.6586 34.5464C25.7732 34.4664 26.8694 34.2245 27.9148 33.826C28.295 33.6942 28.6622 33.5225 29.0089 33.3162H29.1136C30.914 32.3799 32.3764 30.9089 33.2987 29.1031C33.2987 29.1031 33.4034 28.8763 33.2857 28.8169V28.8147Z" fill="#FEFEFD"/>
</svg>
