<svg width="48" height="48" viewBox="0 0 48 48" fill="none" xmlns="http://www.w3.org/2000/svg">
<circle cx="24" cy="24" r="24" fill="#988430"/>
<circle cx="24.0004" cy="23.9998" r="23.2312" fill="#7A6A2A"/>
<circle cx="23.9997" cy="24.0001" r="22.7418" fill="#BA9F33"/>
<path fill-rule="evenodd" clip-rule="evenodd" d="M10.4937 21.437C10.3577 21.3128 10.2141 21.1884 10.082 21.0642C9.94992 20.9401 9.81424 20.8157 9.67831 20.6915L9.27434 20.3075C9.20829 20.2415 9.1384 20.1833 9.07236 20.117C9.00631 20.0589 8.92874 19.9929 8.86269 19.9345C8.32663 19.4258 7.78749 18.9172 7.25885 18.4082C7.80644 18.9092 8.3425 19.4066 8.89008 19.9151L9.08029 20.1055C9.14634 20.1713 9.21623 20.2297 9.28228 20.2957L9.68599 20.6685C9.82192 20.7926 9.95402 20.917 10.09 21.0525C10.2259 21.1879 10.358 21.3126 10.4939 21.4365L10.4937 21.437ZM3.37971 21.3599C3.37971 21.3599 5.32915 21.5617 6.2807 21.6976C7.16211 21.822 9.91948 22.2452 9.91948 22.2452L3.37971 21.3599ZM3.37901 21.36C3.92659 21.4066 4.47417 21.4647 5.02176 21.5231C5.30131 21.5502 5.56934 21.5812 5.83737 21.6083L6.24877 21.6552C6.3847 21.6744 6.5168 21.6938 6.65273 21.7133L8.28397 21.9734L9.09933 22.1093C9.36736 22.1559 9.63539 22.2066 9.91494 22.2532C9.64691 22.226 9.36736 22.1871 9.09933 22.1482L8.28397 22.0317L6.65273 21.7911C6.5168 21.7716 6.3847 21.7442 6.24877 21.725L5.83712 21.6777C5.56909 21.6505 5.28953 21.6116 5.0215 21.5804C4.47392 21.5146 3.92633 21.4445 3.37875 21.3592L3.37901 21.36ZM9.72456 22.753C9.72456 22.753 7.64302 23.2814 6.94005 23.4834C6.24885 23.6736 4.15554 24.3105 4.15554 24.3105L9.7243 22.7533L9.72456 22.753Z" fill="#CFB66C"/>
<path fill-rule="evenodd" clip-rule="evenodd" d="M9.72503 22.7532C9.26295 22.8891 8.80343 23.0212 8.33469 23.1456L6.94436 23.5184C6.48228 23.6543 6.02275 23.7864 5.56195 23.9223L4.87076 24.1125C4.64164 24.1786 4.40868 24.2367 4.17188 24.303C4.40074 24.2262 4.63396 24.1476 4.86308 24.0816L5.55428 23.8604C6.01636 23.7165 6.47588 23.5806 6.93668 23.4369C7.40644 23.3205 7.86877 23.1961 8.33853 23.0834C8.785 22.9708 9.25501 22.8584 9.72503 22.7534V22.7534V22.7532ZM4.44739 25.5923C4.67625 25.5068 7.31715 24.276 7.93078 23.9885C8.23798 23.8446 9.13091 23.5277 9.13091 23.5277L4.44739 25.5923Z" fill="#CFB66C"/>
<path fill-rule="evenodd" clip-rule="evenodd" d="M4.44573 25.5924C4.64746 25.5156 4.83792 25.4217 5.03197 25.3323L5.60669 25.0643L6.76022 24.509C7.14422 24.3265 7.51747 24.125 7.91351 23.9535C8.11549 23.8683 8.31747 23.7984 8.5192 23.7323L8.8264 23.6353C8.93111 23.6082 9.02839 23.5769 9.1336 23.5498C8.7496 23.7323 8.34538 23.8877 7.96086 24.0662C7.57686 24.2566 7.18416 24.412 6.78787 24.5828L5.61514 25.0991C5.22141 25.2586 4.83741 25.4294 4.44547 25.5924V25.5924H4.44573ZM4.70297 26.6678C4.70297 26.6678 7.09503 25.2659 7.91833 24.8154C8.34943 24.5747 9.74361 23.8833 9.74361 23.8833L4.70297 26.6678Z" fill="#CFB66C"/>
<path fill-rule="evenodd" clip-rule="evenodd" d="M4.70155 26.6679C5.10527 26.4193 5.51691 26.1669 5.92856 25.9107L6.54296 25.5377C6.75263 25.4135 6.95461 25.297 7.16837 25.1729C7.37803 25.0485 7.58002 24.9243 7.79352 24.8078C7.89516 24.7451 8.00165 24.6905 8.11199 24.6448L8.43813 24.4817C8.86923 24.272 9.30034 24.0583 9.75474 23.8757C9.34309 24.1361 8.91967 24.3575 8.4965 24.5864C8.28683 24.7029 8.07307 24.8078 7.86341 24.9243C7.65375 25.0408 7.45176 25.1652 7.238 25.2778C7.02834 25.402 6.82635 25.5185 6.61285 25.6311L5.97976 25.9767L4.70207 26.6679V26.6679H4.70155ZM9.7222 24.19C9.7222 24.19 8.23484 25.3317 7.7533 25.6968C7.27177 26.0619 5.8543 27.0871 5.8543 27.0871L9.7222 24.19V24.19Z" fill="#CFB66C"/>
<path fill-rule="evenodd" clip-rule="evenodd" d="M18.2608 33.3978L17.4997 31.957L17.9423 30.155L21.0996 28.9357L19.7558 26.1786L20.4199 23.3941L21.6666 20.9007L25.5191 20.295L28.35 17.5959L34.4628 18.058L35.6626 24.594L33.352 32.8231L32.0356 37.0834L26.6996 37.2854L24.222 35.5689L21.321 34.357L18.2608 33.3978V33.3978Z" fill="#E2CC85"/>
<path fill-rule="evenodd" clip-rule="evenodd" d="M27.6194 33.3515C27.6194 33.3515 26.8813 33.6894 25.6226 33.6116C25.2583 33.1224 22.707 32.8932 22.707 32.8932C22.707 32.8932 22.3885 32.7962 21.8253 33.0292C21.2585 33.2596 20.7225 33.2312 20.2215 33.3553C19.7205 33.4795 19.2231 32.8272 18.8391 32.6912C18.4551 32.5476 17.9459 32.202 17.9459 32.202L16.8707 32.0971L14.7116 31.1844L11.2814 27.7671L10.3493 29.2263L10.0619 31.0321L11.0989 33.172L13.8911 35.7156L19.3357 37.098L22.5629 36.1472L26.6056 34.4384L27.6194 33.3512V33.3515Z" fill="#F1D789"/>
<path fill-rule="evenodd" clip-rule="evenodd" d="M8.27525 21.2736L8.96645 19.1805L9.79 17.8289L12.4422 17.6074L11.646 19.9299L9.42879 23.8756L10.3491 27.3979L8.71813 28.2132L8.21688 27.4445L7.81317 25.6814L7.78603 23.7007L8.27525 21.2736V21.2736Z" fill="#F4ECB4"/>
<path fill-rule="evenodd" clip-rule="evenodd" d="M11.2504 33.2077L10.7417 32.4971C10.7417 32.4971 10.6058 32.1592 10.6836 31.864C10.7604 31.565 10.7494 31.5455 10.7108 31.4329C10.6721 31.3203 10.3457 30.9319 10.3652 30.5978C10.3844 30.2599 10.338 30.1473 10.5864 29.8795C10.8464 29.6194 10.7689 29.1688 10.7689 29.1688L11.1068 29.3785L11.1836 29.262C11.1836 29.262 11.3078 29.359 11.3078 29.5106C11.3349 29.3009 11.2223 28.3299 11.4785 28.1087C11.7348 27.8875 12.1892 29.1455 12.1892 29.1455L11.9096 27.3203L11.191 25.4486L9.91333 23.7398L9.83653 21.8562V21.6931C9.83653 21.6931 9.25003 22.5942 9.08696 23.3059C8.97048 23.7951 9.25003 24.3893 9.19192 25.0923C9.14507 25.7914 9.08696 25.7369 9.25771 26.0139C9.42846 26.2909 9.84421 26.8605 9.68113 27.2721C9.53752 27.6257 9.04805 27.3771 9.04805 27.3771C9.04805 27.3771 8.95102 27.6643 8.81893 27.7693C8.77233 27.5985 8.7219 27.4897 8.62872 27.3853C8.62078 27.4513 8.60158 27.5407 8.60158 27.5407C8.60158 27.5407 8.51608 27.2726 8.43057 26.9347C8.31435 26.4844 8.18993 25.8902 8.07729 25.5718C8.0307 25.7543 7.91422 26.3096 7.91422 26.3096L7.98027 27.1641L8.29873 28.3368L8.60593 29.1048L8.90494 30.0446L9.16478 30.6759L9.37445 31.1574L9.55697 32.2411L10.4384 33.1729L10.9084 33.3828L11.2499 33.208V33.208L11.2504 33.2077Z" fill="#F3E19D"/>
<path fill-rule="evenodd" clip-rule="evenodd" d="M8.73822 19.5648C8.73822 19.5648 8.10513 20.64 7.92286 21.7239C7.74059 22.8078 7.57726 23.9532 7.69246 25.4288C7.80894 26.9164 8.03038 27.8288 8.20907 28.4813C8.51627 29.565 9.31192 31.0718 9.31192 31.0718L9.33905 31.0134C9.20531 30.7599 9.09857 30.493 9.02059 30.2172C8.91563 29.8056 8.87672 29.3164 8.77969 29.0949C8.69419 28.8738 8.55057 28.6833 8.48068 28.4114C8.41464 28.1513 8.40388 27.7397 8.20113 27.433C8.11563 27.3086 8.01067 26.9824 7.97969 26.6563C7.94078 26.1668 7.99915 25.6192 7.95256 25.1689C7.86705 24.4194 7.80894 23.9107 7.88651 23.5182C7.96408 23.1258 8.3683 22.0117 8.61688 21.1262C8.77995 20.5591 8.68267 20.0814 8.98168 19.5881C9.28068 19.0989 9.46347 18.6678 9.52926 18.3688C9.60606 18.0969 8.7372 19.5648 8.7372 19.5648V19.5648H8.73822Z" fill="#F2E8B0"/>
<path fill-rule="evenodd" clip-rule="evenodd" d="M11.7392 19.1343C11.7392 19.1343 11.4131 19.2316 11.2577 19.4023C11.1023 19.5654 11.0363 19.7013 10.8266 19.977C10.6169 20.2527 10.6052 20.478 10.4341 20.8236C10.2634 21.1615 9.88656 21.6702 9.83997 21.8527C9.79338 22.0353 9.71581 22.8895 9.61879 23.2935C9.53328 23.6975 9.71581 24.1946 9.71581 24.1946L9.93699 24.1478C9.93699 24.1478 9.93699 24.4353 10.1584 24.6296C10.3796 24.8198 10.4185 23.9847 10.4185 23.9847L11.2457 21.1925L12.4921 20.3459L12.6281 19.6624L11.7387 19.1343V19.1343H11.7392Z" fill="#F5EEC0"/>
<path fill-rule="evenodd" clip-rule="evenodd" d="M12.3465 20.4003C12.3465 20.4003 11.76 20.4389 11.4727 20.6488C11.3563 20.7341 11.3097 20.804 11.1855 20.9089C10.9564 21.0991 10.7232 21.274 10.6108 21.5233C10.4864 21.7717 10.3504 22.1485 10.2573 22.8591C10.2183 23.1582 10.2183 23.4339 10.1912 23.6748C10.1523 24.0009 10.0942 24.261 10.1252 24.4428C10.1641 24.8155 10.5486 25.0098 10.586 25.433L11.3821 25.0293L12.1317 22.0737L13.724 21.0753L12.8229 20.0657L12.3454 20.3985V20.3985L12.3465 20.4003Z" fill="#E6DB9D"/>
<path fill-rule="evenodd" clip-rule="evenodd" d="M8.14694 40.3015C8.15027 40.2723 8.15359 40.2432 8.15692 40.2132C8.27315 39.2148 8.29286 38.4581 8.37811 37.9842C8.50227 37.3125 8.58777 37.0626 8.56831 36.8112C8.54118 36.4075 8.5102 36.1123 8.54911 35.8016C8.60723 35.3899 9.01119 34.9007 8.99967 34.5628C8.99174 34.2947 8.8558 34.1202 8.73932 33.9571C8.62284 33.794 8.52966 33.6581 8.52966 33.6581C8.52966 33.6581 9.32582 33.1105 9.31814 30.9045C9.3344 30.9091 9.35004 30.9157 9.36473 30.924L9.75692 32.0384L10.025 32.3645L11.0541 34.283L12.3784 35.5686L14.3355 36.885L15.5627 38.2205L15.6869 41.7817L14.0831 43.8633L13.8204 44.3389C11.7337 43.2913 9.82015 41.9296 8.14668 40.3013L8.14694 40.3015Z" fill="#E5CB7A"/>
<path fill-rule="evenodd" clip-rule="evenodd" d="M13.0456 43.7088C13.0456 43.7088 13.0727 43.2662 13.4378 42.9787C13.4962 43.0757 13.5348 43.1692 13.5233 43.2388C13.5893 43.1226 14.0514 42.3769 15.0962 42.1826C16.1409 41.9924 16.3933 41.2313 16.3933 41.2313L18.6105 39.2158L21.1465 36.8818L24.23 35.7982L25.671 35.4446C25.671 35.4446 25.6981 35.5496 25.6439 35.7826C25.9116 35.7634 26.5058 35.6274 27.1233 35.4098C27.3719 35.3128 27.6051 35.2739 27.7292 35.4021C27.9118 35.5729 27.9389 35.9769 27.9504 36.2175C28.2494 36.1515 28.595 35.8642 28.872 35.8914C29.3149 35.938 29.7071 36.4584 30.1577 36.4584C30.7518 36.4584 31.0196 36.0933 31.4354 35.8059C31.6839 35.6351 32.0411 35.4219 32.243 35.2777C32.7246 34.9242 37.8197 33.3669 37.8197 33.3669L39.6061 33.4834L39.8936 35.4019L39.74 40.4169C39.7211 40.4351 39.7021 40.454 39.6829 40.4722L31.5605 44.7144L20.3017 46.4404C17.7796 46.0283 15.3458 45.1911 13.104 43.9646L13.0464 43.7086V43.7086L13.0456 43.7088Z" fill="#D8C173"/>
<path fill-rule="evenodd" clip-rule="evenodd" d="M8.82877 40.9396C8.98877 40.605 9.13264 40.3252 9.15798 40.2251C9.17795 40.4268 9.21456 40.8694 9.28829 41.34C9.13349 41.2084 8.98032 41.0748 8.82877 40.9393V40.9396Z" fill="#F1D789"/>
<path fill-rule="evenodd" clip-rule="evenodd" d="M17.0538 45.6591L18.5099 45.2541L18.6341 45.293C18.6341 45.293 18.7001 45.3319 18.7001 45.4638C18.8826 45.3591 19.038 45.3783 19.1507 45.3086C19.2088 45.4328 19.2669 45.8444 19.5234 45.8949C19.7912 45.9532 20.0787 45.7784 20.37 45.5572C20.6572 45.3281 20.9844 45.0406 21.2319 44.9241C21.3228 45.0911 21.4032 45.2636 21.4728 45.4405C21.799 45.1804 22.366 44.1241 23.1737 44.1433C23.4072 43.5916 23.7972 43.1205 24.2955 42.7881C25.0451 42.2794 25.5148 42.2405 26.1013 42.2871C26.3343 41.9845 26.6213 41.7277 26.9479 41.5298C27.0449 41.5687 27.313 41.7318 27.6471 41.5764C27.985 41.4213 28.3654 40.8192 28.8664 40.7416C29.1363 40.7044 29.4108 40.7621 29.6431 40.9047C29.6431 40.9047 31.1023 39.456 32.1091 38.9744C32.0702 38.8579 31.9926 38.4192 33.1731 37.4481C33.2391 37.5065 33.1925 37.6696 33.2391 37.6785C33.2583 37.6785 33.5463 37.5544 33.9109 37.2746C34.3614 36.9369 34.9011 36.5834 35.2272 36.4864C35.8416 36.3038 36.4934 36.6766 36.4934 36.6766C36.5488 36.6377 36.6106 36.6088 36.6759 36.5911C36.8311 36.5639 36.9437 36.5445 37.0292 36.5143C37.0215 36.7162 37.1342 37.0618 37.0292 37.3609C37.1508 37.4292 37.2796 37.4839 37.4132 37.5239C37.3474 37.6675 37.2035 38.0326 36.9629 38.2074C37.1646 38.3045 37.1918 38.4171 37.4792 38.5146C37.3628 38.6777 37.172 38.9575 37.0871 39.129C37.0015 39.3116 36.6946 40.0688 36.5587 40.3561C36.415 40.6435 36.221 41.1717 36.1276 41.2777C36.0341 41.3836 35.6965 41.8329 35.4364 42.0541C35.6668 41.9686 36.6094 41.6814 37.0092 41.5726C36.8902 41.7472 36.2868 42.6424 35.7067 43.5033C30.0879 46.8711 23.2916 47.6579 17.052 45.6629L17.0538 45.6591Z" fill="#E0CD81"/>
<path fill-rule="evenodd" clip-rule="evenodd" d="M12.4406 20.2951C12.4406 20.2951 12.1029 20.2951 12.0369 20.3416C11.9709 20.3882 12.3748 20.4855 12.499 20.5321C12.6231 20.5787 12.8912 20.7922 12.9611 20.9632C13.0271 21.1263 15.3882 22.0776 15.3882 22.0776L17.0581 21.9921L17.6338 21.1967L16.5387 20.2375L17.3067 17.9734L16.2893 18.1365L13.8427 19.5957L12.6155 20.0657L12.4406 20.2951V20.2951Z" fill="#DFC57C"/>
<path fill-rule="evenodd" clip-rule="evenodd" d="M16.1081 21.0446C16.1572 21.1242 16.2451 21.1715 16.3385 21.1688C16.6841 21.1688 17.0023 21.2543 17.1344 21.4289C17.3559 21.7087 17.9695 22.6019 17.9695 22.6019L19.4374 23.13L19.5321 21.4015L17.9283 20.2871L16.103 20.9589V21.0444H16.1071L16.1081 21.0446Z" fill="#E5CC7C"/>
<path fill-rule="evenodd" clip-rule="evenodd" d="M15.8206 21.6854C15.8206 21.6854 16.0883 21.7048 16.4263 21.5804C16.7642 21.456 17.3195 21.1882 17.5603 21.2932C17.898 21.4368 17.8281 21.8873 18.1934 22.2916C18.4146 22.5401 18.8186 22.5325 19.0477 22.8005C19.2768 23.0685 20.0651 22.9441 20.0651 22.9441L20.3641 24.5569L19.1642 26.095L18.7717 28.0055H17.1492L15.667 27.4174L14.9369 25.651L15.3019 23.8647L15.8206 21.6854V21.6854Z" fill="#D2C281"/>
<path fill-rule="evenodd" clip-rule="evenodd" d="M18.959 21.7631C18.9992 21.7755 19.041 21.782 19.0831 21.7825C19.0365 21.8215 18.9392 21.9067 18.9782 22.1281C19.0171 22.3496 19.1412 22.6291 19.0365 22.7999C19.1201 22.8913 19.1824 23 19.2191 23.1184C19.2851 23.3088 19.3046 23.4834 19.7354 23.5108C19.6732 23.5491 19.6159 23.5947 19.5647 23.6467C19.5647 23.6467 19.8637 23.9068 20.0152 24.1475C20.1703 24.1408 20.582 24.0128 20.582 24.0128L20.6675 24.0712L20.85 23.9944C20.85 23.9944 20.6793 23.9283 20.8034 23.5129C20.9199 23.1478 21.0249 23.1673 21.0338 23.1401C21.0428 23.113 21.1193 22.7285 21.1193 22.5731C21.1775 22.3713 21.224 21.7577 21.224 21.7577L21.0999 20.4025L20.401 19.979L19.8327 19.4304L19.2966 20.4401L18.9436 20.7921L18.9165 21.6658L18.959 21.7631V21.7631Z" fill="#E2C270"/>
<path fill-rule="evenodd" clip-rule="evenodd" d="M20.6413 20.6293C20.6413 20.6293 20.7654 20.9826 20.8123 21.2545C20.8288 21.2016 20.8379 21.1467 20.8394 21.0914C20.8394 21.0914 20.9364 21.6275 20.9556 21.8489C20.9945 21.841 21.0324 21.8294 21.0411 21.8681C21.0498 21.9068 21.1384 22.3381 21.1179 22.5788C21.2797 22.312 21.5034 22.0882 21.7702 21.9265C21.9256 21.8292 22.1081 21.7245 22.2986 21.7166C22.5976 21.7089 22.815 21.907 23.1723 21.907C24.0343 21.907 24.8151 21.2739 25.3898 21.0799C25.813 20.936 26.178 20.8313 26.4343 20.5981C26.5587 20.4934 26.7801 20.2604 26.9819 19.9146C27.2499 19.4538 27.5295 19.0526 27.8093 19.0022C27.6827 19.0254 27.5539 19.0345 27.4253 19.0293C27.4253 19.0293 27.5108 18.9438 27.6557 18.8273C27.8006 18.7109 27.9741 18.5672 28.2224 18.5672C28.6653 18.5672 28.8865 18.633 29.1351 18.633C29.3837 18.6254 29.5273 18.5672 29.5273 18.5672C29.5273 18.5672 29.7876 18.7498 30.3739 18.7498C30.9604 18.7574 31.3526 18.8079 31.6595 18.8353C31.9664 18.8627 32.9953 18.7498 33.2905 18.7585C33.4829 18.7659 33.6719 18.8121 33.846 18.8944L32.8944 16.1296L29.4763 13.1421L27.4414 14.5829L24.311 17.713L21.282 18.8353L20.6489 19.5459V20.6293H20.6413Z" fill="#CCB360"/>
<path fill-rule="evenodd" clip-rule="evenodd" d="M27.4365 19.0444C27.4365 19.0444 27.522 18.9591 27.6653 18.8426C27.8087 18.7262 27.9841 18.5823 28.2324 18.5823C28.675 18.5823 28.8965 18.6483 29.145 18.6483C29.3936 18.6407 29.5372 18.5823 29.5372 18.5823C29.5372 18.5823 29.7978 18.7646 30.3838 18.7646C30.9703 18.7722 31.3625 18.8227 31.6694 18.8498C31.9764 18.8769 33.0053 18.7646 33.3004 18.773C33.4928 18.7803 33.6817 18.8265 33.8557 18.9089L33.4246 17.6622L32.9238 16.7109L31.4946 15.1457C31.4946 15.1457 29.7794 14.1361 29.7663 14.1284C29.7587 14.1207 29.1722 13.9653 29.1722 13.9653L27.6188 14.9051L26.2092 18.5518L26.1821 19.3198L27.0945 19.7509C27.3236 19.3669 27.5763 19.0597 27.8131 19.0208C27.5993 19.0441 27.4362 19.0441 27.4362 19.0441V19.0441L27.4365 19.0444Z" fill="#D5B457"/>
<path fill-rule="evenodd" clip-rule="evenodd" d="M27.4186 19.305C27.2826 19.3127 27.1703 19.2856 27.139 19.1886C27.0225 18.8624 26.9294 18.8158 26.8318 18.8158C26.7343 18.8158 26.6027 19.0255 26.5246 19.0447C26.4465 19.0639 26.3539 18.804 26.3539 18.804L26.2684 18.7651C26.2684 18.7651 25.7674 19.0913 25.4141 19.4758C25.0608 19.8603 24.482 20.5128 24.2219 20.6291C23.9618 20.7453 23.0684 20.7845 22.7627 20.8505C22.457 20.9166 22.1181 21.138 22.0715 21.1884C22.0249 21.2389 22.2077 21.2931 22.2348 21.3436C22.262 21.3902 21.9356 21.3707 21.9084 21.4204C21.8892 21.4593 21.9852 21.6805 22.0328 21.7931C22.1162 21.7517 22.2076 21.7291 22.3006 21.7271C22.5996 21.7194 22.8172 21.9175 23.1744 21.9175C24.0366 21.9175 24.8171 21.2844 25.3918 21.0901C25.8152 20.9465 26.1803 20.8416 26.4366 20.6086C26.5607 20.5039 26.7822 20.2707 26.9841 19.9251C27.1316 19.6883 27.2755 19.4668 27.4193 19.3038V19.3038L27.4186 19.305Z" fill="#D2B257"/>
<path fill-rule="evenodd" clip-rule="evenodd" d="M15.0519 38.5242C15.0519 38.5242 14.9751 38.2368 14.2634 37.4951C14.0614 37.2855 13.9373 37.1111 13.8013 36.9865C13.4634 36.6677 13.2653 36.5825 13.0246 36.4C12.4965 36.0078 11.9218 36.0078 11.4792 35.5262C11.0365 35.0447 10.5207 34.1246 10.1623 33.1843C9.80901 32.2446 9.71173 31.9456 9.71173 31.9184C9.71173 31.8913 9.80901 31.7088 9.93317 31.7359C10.0573 31.763 10.0573 32.0037 10.0886 32.062C10.1504 32.1573 10.2206 32.2469 10.2982 32.3298C10.4808 32.5397 10.7409 32.7906 10.8729 33.1649C10.8458 32.8464 10.737 32.4931 10.737 32.4931C10.737 32.4931 11.4205 32.9242 12.0029 33.3746C12.5894 33.8251 12.8301 33.9805 13.0013 34.2677C13.1726 34.555 13.5761 35.3125 13.7693 35.5339C13.9626 35.7554 16.6109 36.5902 16.6109 36.5902L17.8707 37.5294L18.4961 38.9003L18.0066 39.6683L17.0669 39.8703L15.5406 39.1868L15.0519 38.524V38.524V38.5242Z" fill="#D2B159"/>
<path fill-rule="evenodd" clip-rule="evenodd" d="M11.6633 33.8018C11.6633 33.8018 11.9817 34.3105 12.7584 34.792C13.4576 35.2154 14.5643 35.6 15.5509 35.8291C16.1177 35.965 16.6847 36.0697 17.1934 36.0776C18.5643 36.0968 19.5079 35.7049 20.677 35.5767C21.3101 35.5106 22.0868 35.4602 22.8945 35.2695C23.9313 35.0209 24.5449 34.7411 25.38 34.3479C25.9857 34.0683 26.5412 33.8586 26.9915 33.5906C27.6246 33.2179 28.0867 32.8024 28.6228 32.6782C28.5567 32.8608 28.4868 33.1869 27.9587 33.5248C28.2382 33.5169 28.6228 33.4977 28.6228 33.4977C28.6228 33.4977 28.25 33.7189 27.5936 34.216C27.1897 34.5232 26.6539 35.0432 26.1063 35.3888C25.7527 35.6102 25.3682 35.7728 25.1158 35.9054C24.5014 36.2433 24.2536 36.414 23.8499 36.827C23.9935 36.8193 24.0053 36.827 24.0053 36.827C24.0053 36.827 23.4964 36.893 23.1316 37.0871C23.0548 37.0871 22.9216 37.0599 22.6887 37.126C22.5061 37.1841 22.2653 37.3164 22.0169 37.3861C21.6634 37.491 21.5472 37.4444 21.5472 37.4444L21.6053 37.5609C21.6053 37.5609 21.1445 37.553 20.9909 37.5686C21.018 37.5763 21.0103 37.588 21.0103 37.588C20.9834 37.5926 20.9574 37.6017 20.9335 37.6152C20.8596 37.6631 20.7783 37.6984 20.6929 37.7199C20.6463 37.7276 20.6074 37.7276 20.549 37.7393C20.5685 37.7859 20.72 38.0465 20.7899 38.2001C20.7318 38.2391 19.8578 38.8993 19.8578 38.8993C19.8849 38.9419 19.9071 38.9875 19.9239 39.0352C19.951 39.1205 19.9628 39.2449 19.9899 39.303C20.0557 39.4195 20.0946 39.4389 20.0946 39.4389C20.0946 39.4389 19.9899 39.4584 19.8071 39.505C19.652 39.5439 19.4615 39.6097 19.1927 39.6486C19.1103 39.6593 19.0273 39.6658 18.9442 39.668C18.9831 39.7536 19.1538 40.0797 18.8392 40.4563C18.5246 40.8328 18.4276 40.8876 18.3305 41.1283C18.2817 41.0913 18.2297 41.0588 18.1751 41.031C18.0704 40.9844 17.9266 40.9148 17.8761 40.8213C17.8467 40.9458 17.8078 41.0679 17.7597 41.1864C17.6626 41.4465 17.519 41.703 17.4919 41.897C17.3869 41.7806 17.1929 41.5514 16.9248 41.598C16.6568 41.6446 16.4433 42.0097 16.3967 42.1146C16.3967 42.0486 16.3501 41.9982 16.3386 42.0757C16.3307 42.1612 16.1832 43.0542 15.3599 43.7766C15.3522 43.5941 15.3522 43.1901 15.3328 43.0583C15.256 43.1351 15.162 43.2485 14.6027 43.4894C14.0551 43.73 14.1419 43.9709 14.1419 43.9709C14.1419 43.9709 14.0953 43.5869 14.3904 43.1824C14.6894 42.7787 14.872 42.5882 14.872 42.5573C14.8671 42.5257 14.8537 42.4961 14.8331 42.4718C14.7941 42.4328 14.7166 42.3863 14.7166 42.3553C14.7632 42.3361 15.2253 42.1146 15.1981 41.6561C15.171 41.2447 14.9964 41.031 14.872 40.8797C14.8528 40.8602 15.0548 40.7166 15.0274 40.67C15.0079 40.6429 14.7596 40.4601 14.7284 40.3628C14.7357 40.3048 14.7487 40.2476 14.7673 40.1921C14.7944 40.1066 14.8139 40.0482 14.8062 39.9901C14.7867 39.8931 14.6818 39.625 14.6508 39.5979C14.6779 39.6056 14.872 39.5979 14.872 39.5979C14.872 39.5979 14.7168 39.3493 14.6894 39.2328C14.6621 39.1164 14.6039 38.8094 14.573 38.7513C14.639 38.759 14.8021 38.7705 14.8021 38.7513C14.81 38.6929 14.6585 38.5959 14.7253 38.5209C14.7719 38.5286 14.8612 38.5675 14.9465 38.6763C14.8999 38.5519 14.8223 38.3112 14.659 38.2142C14.7358 38.1871 14.9969 38.1169 15.226 38.2529C15.4551 38.3888 15.5332 38.579 15.5332 38.579C15.5332 38.579 15.6692 38.684 15.8791 38.8394C16.1197 39.0296 16.4264 39.3002 16.9159 39.4917C17.0208 39.55 17.2886 39.55 17.4829 39.5111C17.5675 39.491 17.6486 39.4583 17.7236 39.4141C17.7506 39.3982 17.7793 39.3851 17.8091 39.3752C17.7673 39.2914 17.7193 39.2109 17.6654 39.1343C17.7315 39.1343 17.8091 39.1422 17.8091 39.1422C17.8091 39.1422 17.8557 39.0373 17.646 38.835C17.6926 38.7884 17.7509 38.7582 17.7509 38.6796C17.6849 38.672 17.5684 38.5749 17.5413 38.536C17.5799 38.5089 17.6383 38.4195 17.7044 38.3924C17.646 38.3458 17.5024 38.1515 17.4363 38.1323C17.4994 38.1089 17.5605 38.0803 17.6189 38.0468C17.6189 38.0468 17.2927 37.9613 17.1877 37.8914C17.0828 37.8146 16.9277 37.6817 16.8345 37.6428C16.7372 37.6039 16.5664 37.5847 16.4965 37.5069C16.5623 37.5264 16.6673 37.5069 16.7451 37.5069C16.8032 37.5069 16.8306 37.5146 16.8498 37.5146C16.8421 37.4874 16.8421 37.4291 16.9937 37.4099C17.0666 37.3989 17.1373 37.3766 17.2034 37.3438C17.2034 37.3438 17.0595 37.3361 16.8962 37.1808C16.7328 37.0254 16.5972 36.9012 16.504 36.8817C16.4069 36.8623 16.2244 36.9478 16.1118 36.9399C15.9564 36.9207 15.8903 36.8428 15.8903 36.8428C15.8903 36.8428 15.374 36.8894 14.2284 36.1905C13.2379 35.5846 12.8068 35.0488 12.8068 35.0488C12.7141 35.0151 12.6245 34.9735 12.539 34.9244C12.1663 34.7303 11.6497 34.3264 11.6653 33.798V33.798L11.6633 33.8018Z" fill="#C2A44D"/>
<path fill-rule="evenodd" clip-rule="evenodd" d="M25.9507 10.4929C26.0405 10.5221 26.1203 10.576 26.1811 10.6483C26.3636 10.858 26.4801 11.254 26.0646 11.6775C26.2276 11.7356 26.295 11.7543 26.4373 11.7356C26.2937 11.9066 25.9675 12.2716 25.9481 12.5901C25.9286 12.8502 26.0917 12.928 26.0917 12.928C26.0917 12.928 25.8431 13.2153 25.8316 13.696C25.949 13.5636 26.0775 13.4415 26.2156 13.331C26.5031 13.1018 26.8991 12.8417 27.1672 12.6787C27.1635 12.747 27.1727 12.8154 27.1943 12.8804C27.1943 12.8804 27.695 12.4688 28.1159 12.6515C28.3061 12.737 28.2206 13.0048 28.2206 13.0048C28.2206 13.0048 28.481 12.9078 28.6635 13.0903C28.846 13.2729 29.1041 13.7436 29.2364 13.9262C29.2945 14.0117 29.4461 14.1747 29.6012 14.4272C29.8132 14.7805 29.9901 15.1538 30.1296 15.5415C30.1373 15.3395 30.1877 15.0252 30.7627 15.2231C31.3374 15.425 31.9897 15.8485 32.5373 16.6823C33.0849 17.5161 33.2205 18.4574 33.4963 18.8158C33.7758 19.1614 34.0633 19.7361 34.0827 19.977C34.1022 20.2179 33.9972 20.9943 34.572 23.0953C34.735 22.443 34.9836 20.9943 34.9836 20.9943L35.1195 19.7166L35.2749 15.7632L31.1467 12.3336L27.9195 9.9917L25.8186 10.1937L25.9504 10.4927V10.4927L25.9507 10.4929Z" fill="#CAA13E"/>
<path fill-rule="evenodd" clip-rule="evenodd" d="M33.6186 16.3768C33.6186 16.3768 33.5602 15.9928 32.5894 15.34C31.6184 14.6954 30.8612 14.6954 30.1623 14.1478C29.6262 13.7167 29.0671 12.7263 28.7031 12.4001C28.3496 12.0778 28.2915 11.1457 28.2915 11.1457L29.4837 10.1473L31.2567 7.58451L32.7556 5.93408L33.4739 6.93248L34.4723 8.10522L35.0276 10.4586L35.2296 13.9034L33.6168 16.3771L33.6186 16.3768Z" fill="#B59544"/>
<path fill-rule="evenodd" clip-rule="evenodd" d="M34.8203 20.5054C34.8497 19.983 34.7851 19.4596 34.6298 18.9599C34.3738 18.1638 33.8144 16.7502 33.5546 16.2207C33.4496 15.6342 33.5275 15.5877 33.6401 15.5216C33.7528 15.4556 34.1762 15.2144 34.4081 14.3683C34.64 13.5222 35.3597 13.4946 35.3597 13.4946L35.8023 13.1685L36.4743 14.8499L37.0605 16.3685L37.2431 17.5297L37.379 18.5199L37.0605 20.6132L35.4879 22.0345L34.82 20.5054V20.5054H34.8203Z" fill="#C89D3A"/>
<path fill-rule="evenodd" clip-rule="evenodd" d="M12.8734 43.8375V43.7945C12.9061 43.7741 12.9349 43.7481 12.9587 43.7177C12.9858 43.6788 13.0055 43.6322 13.0247 43.6207C13.0636 43.6012 13.2461 43.5439 13.3432 43.5623C13.4402 43.5807 13.6967 43.6865 13.8326 43.6788C14.1122 43.6711 14.4383 43.4573 14.9549 43.5546C15.7316 43.6982 15.9142 44.2264 16.3647 44.5254C16.6719 44.7353 16.9899 44.6419 17.0365 44.6419H17.1412C17.1606 44.6419 17.3043 44.4788 17.3821 44.4867C17.5375 44.4944 17.5528 44.6227 17.6499 44.6303C17.879 44.6575 18.3219 44.5139 18.5433 44.5722C18.6766 44.614 18.781 44.7183 18.8228 44.8515C18.8694 44.9951 18.8305 45.1777 18.7179 45.2826C18.4772 45.5038 18.2481 45.7137 18.2015 45.897C18.2608 45.9422 18.3177 45.9904 18.372 46.0414C16.4505 45.5518 14.6018 44.8116 12.8734 43.8398V43.8375Z" fill="#CEB052"/>
<path fill-rule="evenodd" clip-rule="evenodd" d="M33.5548 36.0777C33.5548 36.0777 34.1605 35.27 34.3705 34.8699C34.5801 34.4575 33.7064 29.2351 33.7064 29.2351L35.4618 23.4838L35.4149 21.6119C35.4149 21.6119 35.5004 19.8837 35.7024 19.1341C35.9433 19.5652 36.6929 20.0857 36.856 20.3614C36.9328 19.833 37.1936 18.7186 37.155 17.5303C37.2986 17.7515 37.6442 19.9769 37.6442 19.9769L37.9898 21.4757L38.4403 23.0681L38.9413 24.7497L39.2403 25.9109L39.4111 26.1905L39.555 26.6797L39.6909 27.2081L40.0831 28.4469L40.3135 29.4642L40.496 31.309C40.5357 31.4502 40.5643 31.5944 40.5815 31.7401C40.5892 31.942 40.5544 32.0585 40.5544 32.0936C40.5544 32.1287 40.6204 32.5362 40.5933 32.8432C40.5544 33.1504 40.5544 33.3908 40.3135 33.6112C40.0726 33.8316 39.9213 35.149 39.9213 35.149L39.4902 34.8617C39.4902 34.8617 39.5757 34.4693 39.3737 34.1122C39.1717 33.755 38.7795 33.6811 38.5581 33.7394C38.3369 33.786 37.8943 33.8556 37.7504 33.9801C37.6145 34.1042 37.2807 34.4887 36.9737 34.6636C36.5897 34.894 35.9641 34.9122 35.6302 34.9897C35.2923 35.0665 34.9196 35.2969 34.5271 35.5644C34.2194 35.7637 33.8946 35.935 33.5564 36.0764V36.0764L33.5548 36.0777Z" fill="#CCA847"/>
<path fill-rule="evenodd" clip-rule="evenodd" d="M33.5548 44.5631C33.5548 44.5631 33.5804 44.5798 33.6298 44.6069C36.3889 43.3143 38.861 41.4819 40.9002 39.2181C40.878 38.4322 40.849 37.6266 40.8173 37.3281C40.7515 36.695 40.7981 36.0504 40.7786 35.6776C40.7592 35.3049 40.5495 33.7863 40.4525 33.3941C40.3475 33.0019 40.1453 32.8076 40.1146 32.8076C40.0874 32.8156 39.9241 33.5457 39.9241 33.7292C39.9241 33.9128 39.8852 34.3546 39.8852 34.4673C39.8581 34.4593 39.8466 34.3905 39.8466 34.3623C39.8076 34.4593 39.761 34.6303 39.7416 34.6498C39.7221 34.6692 39.7687 34.4867 39.7416 34.4478C39.7145 34.4089 39.6648 34.4284 39.6755 34.3313C39.6801 34.2738 39.6892 34.2167 39.7027 34.1606C39.7027 34.1606 39.5862 34.3313 39.501 34.7663C39.4154 35.1974 39.4154 35.2092 39.3845 35.2478C39.3573 35.2947 39.2019 35.4498 39.194 35.5082C39.1863 35.6129 39.3379 35.7178 39.3494 35.7759C39.3571 35.8732 39.2135 36.3235 39.1669 36.5439C39.1203 36.7644 39.1397 37.1962 39.0901 37.4177C39.0512 37.6196 39.0133 37.7361 38.8804 37.8214C38.9774 37.8408 39.0706 37.868 39.0706 37.868C39.0706 37.868 39.2066 38.4427 38.861 38.9322C38.7368 39.1029 38.7058 39.1807 38.5737 39.3361C38.3134 39.6234 38.1114 39.9505 38.0919 40.1633C38.0785 40.1005 38.0694 40.0368 38.0648 39.9728C38.0648 39.9728 37.6611 40.4428 37.4901 40.7108C37.2689 41.0564 36.9619 41.037 36.8757 41.1225C36.7894 41.208 36.7707 41.3631 36.7989 41.4876C36.7221 41.5068 36.5777 41.5341 36.4804 41.8332C36.4338 41.9883 36.3173 42.1404 36.1348 42.2448C35.9523 42.3492 35.7308 42.3807 35.6182 42.4079C35.7152 42.435 35.7541 42.435 35.8007 42.466C35.7426 42.563 35.4746 42.7146 35.1756 42.9089C34.8766 43.0914 34.7327 43.3592 34.659 43.534C34.5822 43.6971 34.4688 43.802 34.2862 43.8215C34.363 43.8681 34.4767 43.9766 34.5348 44.0117C34.4493 44.0312 34.3044 44.0312 34.0456 44.2526C33.7737 44.4779 33.6805 44.5439 33.5561 44.5634V44.5634L33.5548 44.5631Z" fill="#C39D3C"/>
<path fill-rule="evenodd" clip-rule="evenodd" d="M28.1502 46.3628C28.2989 46.2586 28.46 46.1732 28.6297 46.1086C29.2354 45.868 29.8761 45.8214 30.1286 45.7438C30.3695 45.667 30.5597 45.561 30.8587 45.5029C30.8507 45.571 30.8441 45.635 30.8369 45.6954C29.9554 45.9726 29.0577 46.1955 28.1489 46.3628H28.1502Z" fill="#D2BA6B"/>
<path fill-rule="evenodd" clip-rule="evenodd" d="M39.3223 30.4314C39.3223 30.4314 39.1982 31.1031 38.9767 31.5265C38.7553 31.95 38.5159 32.5362 38.5159 32.5362C38.5174 32.4041 38.533 32.2725 38.5625 32.1437C38.283 32.3068 37.6033 32.6993 37.4105 32.8739C37.228 33.0369 36.921 33.3244 36.8435 33.4604C37.026 32.9245 37.2162 32.443 37.2474 32.2216C36.9679 32.4236 35.6628 33.4993 34.9834 34.2099L32.8668 35.9226C32.6225 36.0543 32.371 36.1721 32.1134 36.2753C31.7486 36.4305 31.3175 36.5626 30.999 36.687C31.0845 36.4579 31.2202 36.2556 31.4106 36.0616C31.6126 35.8714 32.2183 35.215 32.3115 34.9096C32.397 34.5911 32.4165 34.4009 32.3038 34.1329C32.1989 34.16 31.9582 34.1718 31.7951 34.2184C31.6321 34.265 31.4572 34.4396 31.4572 34.4396C31.4572 34.4396 31.5814 33.7289 31.8494 33.0572C31.6474 33.0648 31.3018 33.1229 31.3018 33.1229C31.3018 33.1229 31.7834 32.3153 32.6074 31.7523C32.3551 31.806 32.1081 31.8826 31.8696 31.9812C31.3881 32.1832 30.86 32.4822 30.4678 32.6452C30.689 32.338 32.2424 30.1211 33.1668 28.0549C34.0884 25.9928 34.4327 25.4647 34.6347 24.358C34.7394 23.8104 34.7115 23.0012 34.7394 22.2765C34.7665 21.5579 34.8559 20.9133 34.7978 20.4822C35.0384 20.7812 35.9395 21.6239 35.9705 23.5076C35.9976 25.391 35.1086 27.9348 34.1647 29.3055C34.3951 29.3715 34.9921 29.4493 35.6055 28.3839C36.2188 27.3184 36.2114 27.0209 36.4328 26.578C36.46 26.7995 36.452 26.8771 36.452 26.8771C36.452 26.8771 37.3455 25.7937 37.7687 24.4305C37.8542 25.017 38.1066 25.5336 37.7103 26.6093C37.357 27.58 36.8949 27.8171 36.8949 27.8171C36.8949 27.8171 37.124 27.7782 37.4617 27.5762C37.5201 27.7198 37.5086 27.8834 37.6056 27.9412C37.7026 27.9991 37.8347 28.0966 37.8542 28.1898C37.9589 28.0344 38.1219 27.8363 38.1726 27.6888C38.1337 27.996 38.1066 29.3393 38.2494 30.0228C38.5487 29.9956 38.8554 29.9762 39.065 29.4363C38.9214 29.9647 38.9214 30.2829 39.0184 30.7334C39.1777 30.6249 39.3213 30.4306 39.3213 30.4306V30.4306L39.3223 30.4314Z" fill="#C0993A"/>
<path fill-rule="evenodd" clip-rule="evenodd" d="M29.2308 9.02511C29.2308 9.02511 28.9317 9.14927 28.4231 9.14927C27.9804 9.14927 28.1046 8.97852 27.4134 8.97852C26.3495 8.97852 22.6329 9.59292 21.9803 9.58421C21.5569 9.57653 23.4093 9.76674 23.4093 9.76674L28.1435 9.83279L29.0948 9.75599L29.4484 9.03663L29.2308 9.02511Z" fill="#A88F33"/>
<path fill-rule="evenodd" clip-rule="evenodd" d="M16.9552 18.2796C16.9552 18.2796 16.3492 18.7417 16.093 19.0952C15.8367 19.4488 15.7008 19.6815 15.4094 19.9689C15.4778 19.9716 15.5462 19.9624 15.6114 19.9418C15.6114 19.9418 15.6114 20.0186 15.5648 20.0388C15.6464 20.0297 15.7277 20.0579 15.786 20.1156C15.7005 20.1622 15.4676 20.3954 15.6501 20.6712C15.786 20.8808 16.0735 20.9 16.0735 20.9C16.0735 20.9 16.0075 21.0905 16.2832 21.071C16.8773 21.0439 17.5414 20.7835 17.8481 20.8496C18.1553 20.9264 18.3299 20.9545 18.5472 21.3314C18.7776 21.7041 18.9783 21.7625 18.9783 21.7625C18.9783 21.7625 19.1143 21.4166 19.0833 20.9003C19.1948 20.6219 19.2565 20.3262 19.2658 20.0265L19.0638 18.5392L18.1824 17.4246L17.0407 18.0576L16.9552 18.2788V18.2796Z" fill="#E3C571"/>
<path fill-rule="evenodd" clip-rule="evenodd" d="M18.0392 18.0581C18.0392 18.0581 18.1247 18.2601 18.4821 18.2793C18.4432 18.3648 18.4432 18.3766 18.455 18.4423C18.4626 18.5084 18.4742 18.6054 18.4742 18.6054C18.5135 18.5864 18.5491 18.5604 18.5791 18.5286C18.5986 18.6141 18.5597 18.7498 18.5791 18.8471C18.5911 18.9062 18.6107 18.9636 18.6372 19.0178C18.6429 19.0046 18.6494 18.9916 18.6567 18.9792C18.6644 18.9597 18.7335 19.1888 18.9247 19.3632C18.9246 19.3364 18.9312 19.31 18.9439 19.2864C18.9469 19.3351 18.963 19.3821 18.9905 19.4223C18.9762 19.4155 18.9631 19.4063 18.9519 19.3952C18.9519 19.3952 18.9711 20.0096 19.076 20.3273C19.0936 20.3067 19.1092 20.2846 19.1226 20.2612C19.1226 20.242 19.1149 20.4322 19.0955 20.5684C19.0683 20.7044 19.0878 20.8946 19.0878 20.8946C19.1578 20.8394 19.2348 20.7937 19.3167 20.7586C19.4331 20.7118 19.6239 20.5682 19.7401 20.2497C19.8075 20.0694 19.8595 19.8836 19.8955 19.6944C19.933 19.7667 19.9589 19.8445 19.9723 19.9248C19.9802 20.0219 20.1627 19.9714 20.1627 19.9714L20.2017 19.548L20.4321 18.5888L20.6417 17.9946L21.6514 16.422L23.4756 15.0171L25.068 15.3821L26.4114 13.5568L24.097 12.1665L21.9066 12.3956L19.9188 15.1489L18.3267 17.6462L18.0392 18.0578V18.0578L18.0392 18.0581Z" fill="#D8B65B"/>
<path fill-rule="evenodd" clip-rule="evenodd" d="M29.5101 14.074C29.5101 14.074 29.3742 14.1012 28.982 14.3044C28.5898 14.5077 28.3179 14.5722 28.1664 14.8712C28.0148 15.1702 28.0033 15.4073 28.0033 15.4073C28.0033 15.4073 28.2713 15.2908 28.4267 15.2519C28.5898 15.2132 28.7723 15.2247 28.7528 15.2908C28.7342 15.3361 28.7082 15.378 28.676 15.4149C28.676 15.4149 28.9832 15.4073 28.9751 15.5588C28.9669 15.7104 28.9169 15.8773 28.8588 15.951C28.8005 16.0278 28.5598 16.1415 28.5327 16.2308C28.4666 16.4133 28.5598 16.421 28.5248 16.5685C28.4976 16.7124 28.3696 16.9919 27.95 17.4811C27.5189 17.9706 27.3356 18.3162 27.3356 18.3162C27.3356 18.3162 27.126 17.924 27.0172 17.5861C26.9404 17.6247 26.528 17.8539 26.528 17.8539L25.5726 14.5259L25.5918 14.3044C25.5918 14.3044 25.6773 14.1997 25.6967 14.0054C25.5531 13.9588 25.5336 13.9199 25.3432 13.7376C25.1527 13.5554 24.9976 13.3337 24.6794 13.1821C24.6328 13.0966 24.5744 12.9804 24.3415 12.9335C24.1085 12.8867 23.9687 12.8483 23.9687 12.8483C23.9687 12.8483 24.0929 12.8014 24.1512 12.7044C24.0074 12.7239 23.8912 12.7705 23.5765 12.7628C23.2581 12.7549 23.223 12.7433 23.0484 12.7705C22.8738 12.7976 22.6644 12.8754 22.5863 12.6074C22.5008 12.5413 22.3183 12.5997 22.1629 12.8286C22.0075 13.0574 21.9532 13.2402 21.6542 13.3296C21.6332 13.4614 21.5871 13.5879 21.5183 13.7023C21.4328 13.8462 21.2968 13.9898 21.1143 14.2033C20.8268 14.5412 20.8734 15.0965 20.4152 15.5199C19.9531 15.9431 20.492 14.3469 20.492 14.3469L21.2298 12.5805L23.3308 10.5261L26.593 10.3049L26.9114 11.9945L28.5038 12.5421L29.5096 14.0761V14.0761L29.5101 14.074Z" fill="#D3AE4D"/>
<path fill-rule="evenodd" clip-rule="evenodd" d="M30.0267 14.4465L28.6558 12.4699L27.6966 11.7318C27.6966 11.7318 27.0131 10.4739 26.9665 10.435C26.9276 10.4078 26.283 10.3379 25.8713 10.3108L25.9481 10.501C26.038 10.5302 26.1178 10.584 26.1785 10.6564C26.3611 10.8661 26.4775 11.2621 26.062 11.6855C26.2251 11.7436 26.2924 11.7623 26.4348 11.7436C26.2912 11.9146 25.965 12.2797 25.9456 12.5982C25.9261 12.8582 26.0892 12.9358 26.0892 12.9358C26.0892 12.9358 25.8406 13.2233 25.8291 13.7038C25.9465 13.5714 26.0749 13.4493 26.2131 13.3388C26.5006 13.1084 26.8966 12.8493 27.1646 12.6862C27.161 12.7546 27.1702 12.8232 27.1918 12.8882C27.1918 12.8882 27.6925 12.4766 28.1134 12.6591C28.3036 12.7446 28.2181 13.0126 28.2181 13.0126C28.2181 13.0126 28.4784 12.9156 28.661 13.0981C28.8435 13.2806 29.1036 13.7504 29.2357 13.9332C29.2938 14.0187 29.4453 14.1818 29.6005 14.4339C29.8125 14.7874 29.9894 15.1607 30.1289 15.5486C30.1365 15.3932 30.1678 15.1758 30.4361 15.1758L30.0283 14.4457L30.0267 14.4465Z" fill="#CAA13E"/>
<path fill-rule="evenodd" clip-rule="evenodd" d="M9.47456 20.0624C9.47456 20.0624 9.37754 19.8215 9.47456 19.3517C9.57159 18.882 9.72314 18.6605 9.77357 17.9693C9.824 17.2781 10.2746 16.4159 10.2746 16.4159L11.521 15.8491L12.4027 16.0898L12.6628 17.2704L11.5482 17.8848C11.5482 17.8848 11.4901 18.1449 11.1754 18.3546C10.8608 18.5643 10.4259 18.7273 10.3212 18.9411C10.2586 19.072 10.2129 19.2103 10.1852 19.3527C10.1852 19.3527 9.86676 19.2867 9.67655 19.4964C9.47456 19.7101 9.48224 19.9003 9.47456 20.0634V20.0624Z" fill="#F4EFC8"/>
<path fill-rule="evenodd" clip-rule="evenodd" d="M11.9922 19.7475C11.9922 19.7475 11.8872 19.8135 11.8096 19.9779C11.7328 19.8537 11.5493 19.1157 11.5416 18.4516C11.5339 17.7875 11.4942 17.6229 11.6478 17.3941C11.8014 17.1652 12.4038 16.9241 12.3183 16.5119C12.2328 16.1197 11.8754 15.9566 11.4366 16.0693C11.1294 16.1461 10.9008 16.7994 10.5824 17.1255C10.3415 17.3741 10.0542 17.3352 9.97667 17.4711C9.87171 17.6537 9.96873 17.8362 9.93776 17.9527C9.92982 17.9916 9.8328 18.2012 9.65795 18.4537C9.30467 18.9623 8.70665 19.6809 8.62883 20.3255C8.65597 19.9605 8.63677 19.9528 8.73379 19.5488L8.67542 19.4518L9.05942 18.1936L9.308 17.1568L9.86352 15.4206L10.842 13.646L11.7935 12.5818L12.7837 12.6478L12.9002 14.1352L13.4672 16.9276L14.6594 18.3955L12.7486 19.6814L11.9914 19.7475V19.7475H11.9922Z" fill="#EBCC73"/>
<path fill-rule="evenodd" clip-rule="evenodd" d="M12.5863 20.2751C12.5863 20.2751 12.4233 20.314 12.3649 20.2831C12.3065 20.2521 12.2487 20.217 12.2679 20.1781C12.2871 20.1392 12.392 20.0734 12.392 20.0422C12.3965 19.9835 12.3535 19.9319 12.295 19.9257C12.2057 19.9142 12.1785 19.9723 12.1785 19.9723C12.1785 19.9723 12.093 19.9065 12.0234 19.8955C12.0646 19.8904 12.106 19.8878 12.1476 19.8875C12.0402 19.8389 11.9264 19.8062 11.8096 19.7905C11.9067 19.7324 12.0971 19.5614 12.2213 19.5614C12.3454 19.5614 12.4233 19.5422 12.4038 19.4762C12.3844 19.4101 12.2873 19.3131 12.1826 19.2742C12.2213 19.2276 12.2487 19.1577 12.1555 18.967C12.0582 18.7768 12.0971 18.6485 12.1284 18.6022C12.1555 18.5438 12.2525 18.4391 12.2991 18.373C12.3457 18.307 12.3846 18.2177 12.4622 18.1711C12.5011 18.1439 12.6252 18.0943 12.7497 18.0469C12.8856 18.0003 12.9982 17.9419 13.0758 18.0003C13.1613 18.0584 13.1224 18.1362 13.1224 18.1362C13.1224 18.1362 13.3904 18.039 13.6311 18.1634C13.872 18.2796 14.4585 18.3536 14.4585 18.3536L14.6686 18.777L13.2783 19.9692L12.7036 20.2567L12.5871 20.2759V20.2759L12.5863 20.2751Z" fill="#E5C66B"/>
<path fill-rule="evenodd" clip-rule="evenodd" d="M14.5173 18.3265C14.5173 18.3265 14.0862 18.614 13.9892 18.7187C14.0473 18.7266 14.1443 18.7655 14.1054 18.8236C14.0588 18.8817 13.7793 19.0837 13.6239 19.2742C13.4608 19.4644 13.3054 19.7053 13.2511 19.8218C13.193 19.9265 12.7502 20.2334 12.5989 20.2721C12.9173 20.2721 13.5581 19.8799 13.7987 19.8799C13.791 19.9964 13.8648 20.1284 14.0007 20.14C14.1366 20.1515 14.5288 20.2255 15.057 19.8993C15.5851 19.5809 15.4105 19.3438 15.6317 19.1887C16.0551 18.9089 16.2259 18.6603 16.4588 18.5052C16.6918 18.35 16.8124 18.3147 16.8124 18.3147C16.8124 18.3147 16.82 18.1982 16.8892 18.21C16.9277 18.2144 16.9606 18.2398 16.9747 18.276C16.9747 18.276 17.3786 17.9885 17.8963 17.911C17.8842 17.9056 17.8745 17.8959 17.8691 17.8838C17.8691 17.8838 17.9078 17.8644 17.9157 17.8449C17.9157 17.8449 17.9429 17.806 17.9623 17.8255C17.9818 17.8449 18.0089 17.9885 18.0478 18.0469C18.1333 18.008 18.2964 17.6429 18.2964 17.6429L18.6888 16.5206V15.4954L18.3816 15.5537L16.0776 16.5322L14.6794 17.9809L14.5163 18.3265H14.5173Z" fill="#E6BD62"/>
<path fill-rule="evenodd" clip-rule="evenodd" d="M21.1491 13.297C21.2738 13.2667 21.3932 13.2183 21.5037 13.1531C21.4571 13.2775 21.4571 13.4135 21.2551 13.7086C21.0531 14.0038 21.0455 14.0465 20.8824 14.3532C20.7193 14.6717 20.6999 15.1299 20.5445 15.3317C20.6141 15.2978 20.6888 15.2756 20.7657 15.2659C20.7657 15.2659 20.6105 15.4018 20.5445 15.5454C20.4784 15.689 20.3619 15.9881 20.0747 16.1708C19.7875 16.3536 19.4222 16.4698 19.03 16.9009C18.6375 17.3241 18.2338 17.8602 18.0316 18.0529C18.1365 17.8704 18.2801 17.5054 18.3191 17.2647C18.358 17.0241 18.3111 16.7363 18.3772 16.4181C18.4432 16.0999 18.4432 15.8705 18.7612 15.315C19.0791 14.7595 19.6234 12.8295 19.6234 12.8295L20.7961 12.4568L21.1497 13.2957V13.2957L21.1491 13.297Z" fill="#B6933F"/>
<path fill-rule="evenodd" clip-rule="evenodd" d="M20.3026 12.5867C20.3026 12.5867 19.9493 13.0953 19.8523 13.5459C19.7553 13.9964 19.8444 13.9575 19.7863 14.179C19.7515 14.314 19.7515 14.4556 19.7863 14.5906C19.9086 14.3935 20.0761 14.2284 20.275 14.1088C20.6091 13.9071 20.8809 13.7632 21.043 13.5925C21.2061 13.41 21.342 13.1109 21.6953 12.8818C21.5517 12.8624 21.3497 12.7963 21.3113 12.805C21.4551 12.642 21.886 12.3934 22.3209 12.0944C22.752 11.7872 22.7249 11.6633 23.424 11.3566C23.1949 11.3955 23.0861 11.3371 22.8957 11.3566C22.9725 11.1935 23.2413 11.1157 23.5101 10.8479C23.7789 10.5801 23.3393 10.1838 23.3393 10.1838L21.2913 11.4226L20.3011 12.5877L20.3026 12.5867Z" fill="#C49937"/>
<path fill-rule="evenodd" clip-rule="evenodd" d="M14.7455 11.6622L14.7921 11.2895L15.3786 10.3497L15.9923 8.6993V6.44292L15.9457 5.13809L16.0427 4.28356L16.1164 4.01194L16.1942 3.90698L16.695 4.16708L17.3864 5.10685L17.4525 6.92061L16.7805 9.78269L14.862 11.876L14.7455 11.6622V11.6622Z" fill="#DFC068"/>
<path fill-rule="evenodd" clip-rule="evenodd" d="M16.2721 3.80162C16.2721 3.80162 15.9649 3.80955 15.8994 5.08725C15.8338 6.36495 15.8021 7.03669 15.7555 7.66978C15.7089 8.30287 15.6003 8.68712 15.5458 9.06011C15.4913 9.43311 15.4603 9.94152 15.2857 10.2523C15.2089 10.3959 15.0448 10.8465 14.6603 11.1844C14.2292 11.5571 13.5851 11.8175 13.4876 11.8369C13.3166 11.8756 12.4505 11.9611 12.0972 12.1554C11.9731 12.2215 11.7593 12.299 11.5225 12.5205C11.0525 12.9436 10.4274 13.7009 9.97679 14.6135C9.28559 15.9767 8.59439 19.8252 8.59439 19.8252L8.74978 19.5651C8.74978 19.5651 8.76924 19.2195 9.11484 18.6135C9.45276 18.0078 9.35573 17.3281 9.82549 16.1669C10.008 15.7243 10.2371 15.1496 10.5167 14.6601C10.9596 13.864 11.4954 13.1804 12.0353 12.8077C12.9167 12.202 13.8877 12.0699 13.8877 12.0699L14.9324 11.3787C14.9324 11.3787 15.115 11.0254 15.3559 10.6215C15.6935 10.0547 16.1239 9.42159 16.2178 8.50127C16.3617 7.13807 16.0158 6.24488 16.0353 5.4372C16.0547 4.62952 16.0624 4.03535 16.2258 3.89147C16.3891 3.7476 16.2723 3.80213 16.2723 3.80213V3.80213L16.2721 3.80162Z" fill="#A88F33"/>
<path fill-rule="evenodd" clip-rule="evenodd" d="M16.2721 9.89916C16.2721 9.89916 16.7329 8.76508 16.9439 7.75925C16.9828 7.55727 17.0603 7.35554 17.0798 7.19247C17.1768 6.24091 17.204 5.84872 17.0798 5.32827C16.9828 4.94427 16.61 4.59816 16.4157 4.32987C16.2255 4.05007 16.1362 3.94587 16.1751 3.88699C16.214 3.82811 16.3653 3.73186 16.5128 3.74338C16.8295 3.7526 17.1286 3.89141 17.3401 4.12738C17.6392 4.47298 17.876 5.64597 17.876 5.64597L18.125 7.19375L18.7581 9.14319L16.2726 9.90069V9.90069L16.2721 9.89916Z" fill="#C99E3D"/>
<path fill-rule="evenodd" clip-rule="evenodd" d="M20.6024 8.71871C20.6024 8.71871 20.5169 8.75737 20.3617 8.71871C20.3752 8.84797 20.3152 8.9739 20.2064 9.04486C20.0433 8.97881 18.5168 9.1109 18.5168 9.1109C18.5168 9.1109 17.8061 8.98649 17.5847 8.04671C17.4295 7.4213 17.7011 6.55935 17.6118 5.99231C17.4759 5.15724 17.2856 4.99391 17.2662 4.73407C17.2467 4.47423 17.2273 4.40793 17.2273 4.24486C17.1418 4.2254 17.0913 4.19827 17.0061 4.19827C16.9866 4.12147 17.0253 4.05439 16.94 3.91846C16.9866 3.93791 17.3051 3.97683 17.6778 4.3301C17.985 4.61759 17.985 4.7223 18.0314 4.78066C18.0895 4.83878 18.5595 5.24146 18.7615 5.64287C18.9635 6.04428 19.3557 7.32428 19.445 7.53394C19.4721 7.61945 19.5305 7.70495 19.6754 7.899C19.9007 8.17881 20.2307 8.6414 20.6034 8.7182V8.7182L20.6024 8.71871Z" fill="#B58634"/>
<path fill-rule="evenodd" clip-rule="evenodd" d="M18.0861 4.7998C18.3214 5.17984 18.5327 5.57416 18.7189 5.98048C18.948 6.49683 19.084 6.92025 19.3715 7.26585C19.2161 6.81555 18.9404 5.93004 18.7773 5.61542C18.5948 5.28262 18.222 4.92422 18.0861 4.80006V4.80006V4.7998Z" fill="#A88F33"/>
<path fill-rule="evenodd" clip-rule="evenodd" d="M15.4443 11.1848C15.4443 11.1848 15.0521 11.2819 14.322 11.6664C14.0811 11.7905 13.8522 11.8952 13.6308 11.9925C13.0556 12.2526 12.4386 12.493 11.9491 12.6256C11.9881 12.6722 12.0073 12.6914 12.0073 12.6914C12.0073 12.6914 12.0073 12.8819 12.1122 12.9904C12.0541 13.0488 11.2771 13.5769 11.5065 15.3438C11.6617 15.2857 11.8442 15.2079 11.8713 15.2079C11.9182 15.2158 11.9297 15.3438 11.9878 15.3438C12.0459 15.3438 12.2364 15.267 12.4384 15.0059C12.4307 15.1108 12.3142 16.1671 12.9394 16.8778C13.0558 16.7418 13.351 16.2913 13.351 16.2913L13.3587 16.1476C13.3587 16.1476 13.3858 15.6467 13.5491 15.1884C13.7125 14.7302 14.0307 14.3923 14.0307 14.3923L15.6924 12.0194L15.4438 11.1846V11.1846L15.4443 11.1848Z" fill="#E6C367"/>
<path fill-rule="evenodd" clip-rule="evenodd" d="M13.8909 14.669C13.8148 14.7227 13.731 14.7646 13.6423 14.7931C13.6152 14.6961 13.5763 14.362 13.8054 14.0359C14.0734 13.6434 14.6597 13.1348 14.8227 12.7303C14.9277 12.4699 14.8811 11.8177 15.8132 10.9826C16.7453 10.1475 17.1101 9.86028 17.1101 9.86028L18.6169 9.10303L20.4693 9.83314L19.549 13.4402L18.8345 15.1298L15.9929 14.594L13.8906 14.669V14.669H13.8909Z" fill="#DCBA5A"/>
<path fill-rule="evenodd" clip-rule="evenodd" d="M14.9761 13.6891L15.3296 13.2465V12.9319C15.3296 12.9319 15.7218 12.8269 16.145 12.3958C16.5681 11.9647 17.1546 11.1376 17.6712 11.188C18.1879 11.2464 18.2383 12.3103 18.2577 12.6096C18.2772 12.9088 18.3432 13.588 18.448 13.9533C18.5644 14.3184 17.1897 15.7008 17.1897 15.7008L16.2561 16.4114L14.9761 13.6891V13.6891Z" fill="#E9CE77"/>
<path fill-rule="evenodd" clip-rule="evenodd" d="M16.0705 17.3746C16.0705 17.3746 16.358 16.924 16.1473 16.827C16.2714 16.5474 16.5006 16.2523 16.5006 16.2523C16.5006 16.2523 16.6636 15.8486 17.1918 15.3514C17.7199 14.8543 18.0463 14.524 18.1318 14.1902C18.1845 13.9726 18.2132 13.7499 18.2173 13.5261C18.2744 13.5728 18.3355 13.6143 18.3998 13.6503C18.4853 13.6892 18.889 14.023 18.8309 14.695C18.7728 15.367 18.5237 15.6466 18.5237 15.6466C18.5237 15.6466 18.2831 15.8872 18.1123 16.0116C17.9295 16.1358 17.8638 16.2794 17.5568 16.2912C17.5884 16.2661 17.6238 16.2464 17.6618 16.2328C17.6618 16.2328 17.3433 16.1942 17.1723 16.3493C17.0013 16.5044 16.6378 16.9824 16.4552 17.1263C16.2727 17.2427 16.0712 17.3748 16.0712 17.3748V17.3748L16.0705 17.3746Z" fill="#CDAE50"/>
<path fill-rule="evenodd" clip-rule="evenodd" d="M28.9825 9.82103C28.5237 9.65382 28.0415 9.55949 27.5535 9.54148C26.7379 9.51435 25.5457 9.56094 24.3768 9.56862C23.1186 9.5763 21.9768 9.13751 20.3924 9.05995C20.1323 8.90455 19.4708 8.22487 17.4059 9.66564C17.5301 9.65796 18.9051 9.34718 19.3825 9.94545C19.864 10.5396 19.7281 11.5493 19.6623 11.7899C19.5379 12.326 19.1339 13.1065 18.9711 13.6541C18.8083 14.2017 18.8467 14.4894 18.7302 14.8734C18.6137 15.2574 18.3575 15.4482 18.5088 15.8908C18.7108 15.7666 18.816 15.7666 19.1534 15.0094C19.4908 14.2521 19.4214 13.7122 19.9808 13.0715C20.5284 12.4269 21.44 11.5452 21.7866 11.3238C22.1332 11.1023 24.8855 9.67332 27.7673 11.0365C28.4623 10.9628 28.9828 9.82078 28.9828 9.82078V9.82078L28.9825 9.82103Z" fill="#D2A83E"/>
<path fill-rule="evenodd" clip-rule="evenodd" d="M18.5676 9.29284C18.5647 9.26366 18.5583 9.23494 18.5484 9.20734C18.5214 9.15055 18.4861 9.09816 18.4434 9.05195C18.4434 9.05195 17.7599 8.92779 17.4143 8.96644C16.8084 9.03249 16.2608 9.78206 16.0045 10.1666C15.7483 10.5511 15.4298 11.145 15.0842 11.4519C15.088 11.422 15.0811 11.3918 15.0647 11.3664C15.0647 11.3664 15.0842 11.3936 15.0455 11.4325C15.0069 11.4714 15.0066 11.4906 15.0261 11.5093L15.0845 11.5674C15.1037 11.5674 15.6397 11.3265 16.3698 10.6458C17.1465 9.93515 17.7407 9.5706 18.0515 9.44568C18.2172 9.37524 18.3905 9.32397 18.5679 9.29284V9.29284H18.5676Z" fill="#C29637"/>
<path fill-rule="evenodd" clip-rule="evenodd" d="M31.8257 6.37305C31.8257 6.37305 31.7013 6.52818 31.5459 6.69919C31.2003 7.06425 30.7497 7.47564 30.3652 7.89906C30.0004 8.30303 29.5888 8.61766 29.1264 9.14578C28.6641 9.67391 28.128 10.2602 27.9923 10.4312C27.8682 10.6022 27.7712 10.8817 27.7712 11.0253C27.7051 10.9787 27.6275 10.9283 27.6275 10.9283C27.6602 10.9893 27.6992 11.0466 27.744 11.0993C27.8411 11.2353 27.9923 11.4065 28.0702 11.511C28.1657 11.6439 28.2342 11.7943 28.2719 11.9536C28.3185 11.9613 28.6175 12.0196 28.9905 11.406C29.3635 10.7924 29.8524 10.1206 29.8524 10.1206L30.6291 8.9671L31.1186 7.98866L31.733 6.89349L31.8265 6.37305V6.37305H31.8257Z" fill="#AC8132"/>
<path fill-rule="evenodd" clip-rule="evenodd" d="M32.6215 5.58838C32.6215 5.58838 32.1515 5.97238 31.969 6.20278C31.7865 6.43318 31.3546 7.03785 31.3546 7.03785L31.51 7.01839L32.2985 6.31951L32.6057 5.77193L32.6213 5.5894L32.6215 5.58838Z" fill="#A88F33"/>
<path fill-rule="evenodd" clip-rule="evenodd" d="M32.4788 36.4508C32.4788 36.4508 32.4711 36.1323 32.6498 35.9421C32.8323 35.7516 33.2944 35.4721 33.7449 34.4235C34.1955 33.3749 34.2457 33.1381 34.2457 33.1381C34.2457 33.1381 33.438 33.8293 32.9401 33.9924C33.0566 33.7515 33.1226 33.5808 33.181 33.4563C33.1149 33.3982 32.8354 33.3322 32.8082 33.3012C32.9634 33.1458 33.0489 32.7651 33.3635 32.5127C33.7675 32.2055 34.5053 31.6777 35.0787 31.2071C35.6521 30.7366 36.7796 29.6422 36.9234 29.3237C37.0089 29.4479 37.0281 29.5255 37.0281 29.5255C37.0281 29.5255 36.4614 30.2635 36.1662 30.7333C35.9058 31.1372 35.9253 31.3664 35.9253 31.3664L36.4614 31.136C36.4614 31.136 36.6165 31.7107 35.9138 32.5847C36.221 32.4682 36.3449 32.5381 36.5195 32.4408C36.232 32.6236 35.8359 32.8721 35.4632 33.5554C35.0982 34.2389 34.601 35.0351 33.7623 35.532C32.9467 36.0563 32.4767 36.4485 32.4767 36.4485V36.4485L32.4788 36.4508Z" fill="#A67A2E"/>
<path fill-rule="evenodd" clip-rule="evenodd" d="M30.3733 10.2256C30.3733 10.2256 30.0548 10.8894 30.0082 11.406C30.0006 11.5304 29.9693 11.6274 29.9693 11.771C29.9616 12.2331 29.9965 12.7497 29.8925 12.9904C29.8536 12.8933 29.8342 12.8273 29.7952 12.7886C29.7371 12.9517 29.6322 13.4604 29.5467 13.6506C29.508 13.5264 29.4225 13.0953 29.4304 12.5866C29.4384 12.078 29.4496 11.9807 29.4496 11.876C29.4304 12.0311 29.3255 12.241 29.2866 12.3652C29.2285 12.2605 29.1624 12.1246 29.0846 12.0119C29.038 12.0887 28.9799 12.2021 28.9294 12.2605C28.9215 12.2139 28.9023 12.0895 28.8905 11.9149C28.8829 11.7129 28.8711 11.4528 28.8829 11.3983C28.9021 11.2936 29.0654 10.8819 29.411 10.5051C29.8226 10.0546 30.2461 9.18876 30.3702 8.92073C30.4944 8.6527 31.0225 7.53833 31.0225 7.53833H31.4265L30.84 8.87414C30.84 8.87414 30.4867 9.60425 30.3042 9.87254C30.1216 10.1408 29.7371 10.9096 29.5661 11.2086C29.6903 11.0455 29.7952 10.96 29.9197 10.8046C30.04 10.6958 30.3738 10.2261 30.3738 10.2261V10.2261L30.3733 10.2256Z" fill="#8C6228"/>
<path fill-rule="evenodd" clip-rule="evenodd" d="M32.6286 5.5376C32.5627 5.74069 32.4584 5.92926 32.3214 6.09312C32.0805 6.38061 31.5639 6.76486 31.3118 7.07155C31.0814 7.37056 30.6206 8.18617 30.83 9.15309C30.9068 8.94342 31.0514 8.52793 31.4359 8.05792C31.8204 7.5879 32.2321 7.04825 32.4343 6.62893C32.6361 6.2055 32.6632 5.87168 32.6632 5.87168L32.74 5.77465L32.6934 5.55321L32.6274 5.5376L32.6286 5.5376Z" fill="#CBA94C"/>
<path fill-rule="evenodd" clip-rule="evenodd" d="M40.4924 31.2967C40.4924 31.2967 40.337 30.8735 40.2904 30.489C40.2438 30.1045 40.3672 30.0282 40.2244 29.5882C40.1389 29.3201 39.9837 29.3578 39.9448 29.3201C39.9059 29.2825 39.8788 28.8775 39.8865 28.6561C39.8941 28.4346 39.8788 28.1474 39.8399 28.023C39.7818 27.9764 39.7429 27.9375 39.6573 27.6503C39.5603 27.3628 39.5137 27.2191 39.4671 27.1339C39.4205 27.0487 39.2844 26.9708 39.2844 26.8853C39.2844 26.7143 39.4397 26.6252 39.4397 26.5781C39.4321 26.4811 39.3156 26.5589 39.2844 26.5315C39.2457 26.4849 39.3816 26.2054 39.3312 26.1665C39.3117 26.1473 39.1758 26.3103 39.1407 26.2638C39.1018 26.2169 39.0552 25.7548 38.9853 25.4481C38.9196 25.1491 38.8494 24.9318 38.8417 24.8424C38.8341 24.7569 38.3057 23.2501 38.1777 22.8851C38.0745 22.5766 37.9877 22.2629 37.9176 21.9453C37.8787 21.7628 37.8515 21.3898 37.8321 21.4287C37.8126 21.4676 37.8244 21.6578 37.7932 21.6501C37.766 21.6422 37.669 20.9784 37.638 20.8734C37.6109 20.7685 37.4476 20.4126 37.4076 20.1551C37.3687 19.8947 37.2835 19.2151 37.2251 18.753C37.1667 18.2909 37.1396 18.1007 37.1396 17.985C37.1491 17.702 37.1335 17.4186 37.093 17.1384C37.0162 16.6489 36.8626 16.0547 36.7279 15.7094C36.4678 15.0568 35.7764 13.387 35.6527 12.9715C35.6527 12.8665 35.7887 12.9249 35.7887 12.9249C35.7887 12.9249 36.1263 13.7715 36.3749 14.4238C36.6158 15.0763 36.8449 15.651 36.9033 15.7094C36.9499 15.7675 37.3149 16.4083 37.478 17.4568C37.6411 18.5054 37.6992 19.4723 37.7965 20.1169C37.8431 20.4241 37.882 20.75 37.979 21.0762C38.0837 21.4297 38.2468 21.7948 38.4605 22.3539C38.6431 22.8239 38.779 23.2161 38.8527 23.554C38.9382 23.9851 38.9382 24.3112 38.9887 24.525C39.0355 24.7075 39.1052 25.0723 39.2685 25.6002C39.4318 26.1281 39.6722 26.808 39.8353 27.2312C40.154 28.0778 40.2961 28.7846 40.3442 29.1614C40.3867 29.5498 40.5306 30.8935 40.4917 31.2972V31.2972L40.4924 31.2967Z" fill="#A88F33"/>
<path fill-rule="evenodd" clip-rule="evenodd" d="M32.6482 5.49153L32.6287 5.53812C32.6287 5.53812 32.6868 5.55757 32.6753 5.6354C32.6761 5.74187 32.6696 5.84828 32.6558 5.95386C32.6366 6.0898 32.5977 6.1945 32.59 6.28001C32.59 6.46253 32.6172 6.6722 32.3596 7.19265C32.2828 7.33626 32.2355 7.46042 32.1966 7.54593C32.0995 7.75559 32.0801 7.78682 31.9946 7.88385C32.1305 7.80705 32.62 7.49985 32.8683 7.54593C32.6976 7.64295 32.4372 7.83341 32.2741 8.08199C32.313 8.08967 32.4761 8.1209 32.7349 8.08199C33.166 8.01594 33.6476 7.86055 34.0707 7.89153C34.5331 7.91866 34.3506 7.33626 34.3506 7.33626L33.817 6.16353L32.8074 5.45312L32.6482 5.49178V5.49153Z" fill="#BE9C44"/>
<path fill-rule="evenodd" clip-rule="evenodd" d="M35.2819 14.276C35.2819 14.276 34.8313 13.8254 34.6488 12.2792C34.4662 10.7258 34.5052 8.43917 34.5052 8.43917L34.1401 7.54599C34.1401 7.54599 34.0633 6.95181 33.8721 6.73063C33.6808 6.50945 33.3053 6.13645 33.1343 5.95393C32.9633 5.7714 32.7692 5.52282 32.6527 5.48391C32.7109 5.38689 32.9712 4.8393 33.9691 4.83162C34.967 4.82394 35.2747 5.37921 35.3789 5.58119C35.4831 5.78317 35.9536 6.65639 36.1282 8.32039C36.2913 9.98234 36.2992 10.1068 36.2721 10.6815C36.2526 10.9999 36.1477 11.7377 35.9649 12.526C35.798 13.1941 35.6154 13.9398 35.2813 14.2775L35.2819 14.276Z" fill="#A17C34"/>
<path fill-rule="evenodd" clip-rule="evenodd" d="M33.8688 15.6003C34.019 15.6112 34.169 15.5773 34.2999 15.503C34.4436 15.4954 34.964 15.5614 35.3639 15.0527C35.391 15.169 35.4612 15.4838 35.2784 15.7634C35.3757 15.6661 35.5193 15.6275 35.5387 15.6003C35.5464 15.7439 35.6823 16.1866 35.1076 17.2623C35.2628 17.0915 35.4453 17.0992 35.6084 17.0797C35.6163 17.2817 35.7248 17.9612 35.4376 18.3265C35.2474 18.575 34.9366 18.4972 34.9366 18.4972C34.9412 18.443 34.9412 18.3884 34.9366 18.3341C34.9289 18.2292 34.89 18.1245 34.9174 18.0546C34.7672 17.986 34.6305 17.8913 34.5134 17.7748C34.1755 17.4563 33.7367 16.9128 33.7058 16.5089C33.6669 16.0583 34.0708 15.9613 34.0708 15.9613C34.037 15.931 34.0081 15.8956 33.9853 15.8563C33.9659 15.7905 33.9464 15.6856 33.8688 15.6003V15.6003V15.6003Z" fill="#8C6228"/>
<path fill-rule="evenodd" clip-rule="evenodd" d="M30.8732 10.7146C30.8732 10.7146 30.8537 10.6875 30.749 10.8117C30.7685 10.6875 30.788 10.5708 30.7956 10.4581C30.8452 10.3539 30.9093 10.2571 30.9861 10.1709C30.9277 10.2871 30.8888 10.3921 30.8888 10.3921C30.8888 10.3921 31.0327 10.1241 31.2424 9.96098C31.386 9.8445 31.5685 9.79023 31.6461 9.68143C31.7316 9.56495 31.7121 9.5455 31.7316 9.52604C31.7316 9.52604 31.922 9.40188 32.2134 9.03657C32.252 8.98998 32.3104 8.93954 32.3493 8.89295C32.4151 8.86582 32.5705 8.79593 32.753 8.70249C32.9435 8.59778 33.157 8.45417 33.2891 8.39529C33.5492 8.27881 33.8251 8.29058 33.9531 8.1078C34.0502 8.08066 34.1549 7.78934 34.1357 7.54102C34.2793 7.59913 35.0171 8.05737 35.2697 9.05935C35.4523 9.77001 35.1259 10.8652 34.9899 11.3936C34.854 11.9219 34.8348 12.3139 34.6443 12.5545C34.4034 12.8732 33.627 13.3225 33.4365 13.545C33.2735 13.7275 32.7842 14.1896 32.8034 14.5234C32.8229 14.772 33.1296 14.9074 33.1959 14.9545C33.2622 15.0016 33.2617 15.0595 33.3861 15.0313C33.5105 15.0032 33.5568 14.9458 33.6075 14.9458C33.6656 14.9535 33.6656 14.9653 33.6928 14.9653C33.7125 14.9647 33.732 14.962 33.7512 14.9573C33.7512 14.9573 33.7317 15.3109 32.9046 15.4181C32.8462 15.4261 32.7881 15.4453 32.7141 15.457C32.8114 15.4105 32.8695 15.4105 32.9744 15.2668C32.858 15.2474 32.5239 15.2279 32.4384 15.2008C32.4655 15.1542 32.5549 15.0298 32.6286 14.9717C32.6946 14.9136 32.6209 14.8949 32.5628 14.9251C32.4627 14.9932 32.3668 15.067 32.2753 15.1463C32.1783 15.2318 32.0928 15.3482 31.9374 15.4535C31.8908 15.2981 31.8985 15.0029 32.0813 14.7894C32.0344 14.7971 31.9451 14.933 31.8598 14.9059C31.8444 14.7642 31.8536 14.621 31.887 14.4825C31.9336 14.3076 32.186 14.0009 32.186 14.0009L33.4053 11.8221L33.6654 10.1717L30.8732 10.7141V10.7141V10.7146Z" fill="#92723A"/>
<path fill-rule="evenodd" clip-rule="evenodd" d="M30.8078 10.8077C30.8078 10.8077 30.7417 10.8543 30.8738 10.9436C30.8544 10.9708 30.8078 11.0678 30.7494 11.1338C30.6836 11.2106 30.6135 11.2583 30.5863 11.3243C30.5282 11.4602 30.4816 11.5534 30.4816 11.6118C30.4816 11.6702 30.4622 12.0429 30.2991 12.2835C30.2407 12.369 30.1747 12.5127 30.1281 12.6097C30.0311 12.7804 29.9456 12.9169 29.9261 12.9937C29.8875 13.1296 29.8603 13.5023 29.8603 13.5023C29.8603 13.5023 29.9458 13.3974 29.9768 13.3587C29.93 13.4558 29.8795 13.5605 29.8058 13.6383C29.8524 13.5994 29.9883 13.5023 30.2174 13.3004C30.5359 13.0326 31.0331 12.582 31.639 12.2252C31.4562 12.2912 31.3011 12.2912 31.1769 12.3107C31.274 12.2136 32.1477 11.1884 32.6059 11.0913C32.6338 11.0561 32.6476 11.0118 32.6448 10.9669L32.2524 10.9283L31.4562 11.099L31.34 10.4846L30.8078 10.8069V10.8077Z" fill="#B18E3E"/>
<path fill-rule="evenodd" clip-rule="evenodd" d="M32.0735 14.3031C32.0735 14.3031 31.9685 14.4078 31.8715 14.6681C31.7968 14.5901 31.7328 14.5026 31.6811 14.4078C31.5374 14.1672 31.3163 13.8602 30.7997 14.0351C30.792 13.872 30.7802 13.7865 30.7997 13.67C30.8852 13.6508 31.1453 13.4411 31.4053 13.1342C31.5881 12.9245 31.7589 12.6836 31.8754 12.3769C31.9522 12.3186 32.085 12.2216 32.2594 12.1089C32.5079 11.9382 32.8069 11.7049 32.8535 11.4449C32.7371 11.4914 32.4885 11.6079 32.1155 11.5887C32.2594 11.5227 32.4805 11.4528 32.4534 11.1653C32.5118 11.1264 32.5584 11.0993 32.5584 11.0993C32.5146 11.0846 32.4685 11.0781 32.4224 11.0798C32.4145 11.0527 32.403 11.014 32.3369 11.0332C32.2709 11.0524 32.2601 11.0527 32.2514 11.0798C32.2243 11.0877 32.1349 11.0798 32.0689 11.1266C32.0029 11.1735 31.8203 11.3284 31.7504 11.3555C31.7776 11.3089 31.8162 11.2393 31.8162 11.2393C31.8162 11.2393 31.626 11.2585 31.4901 11.3161C31.2415 11.4016 30.9543 11.557 30.6629 11.7083C30.6901 11.6617 30.7019 11.6315 30.7211 11.6228C30.7403 11.6141 30.7871 11.6036 30.7871 11.5956C30.7871 11.5877 30.7679 11.5188 30.7794 11.4909C30.8665 11.3064 30.9693 11.1297 31.0866 10.9628C31.2226 10.78 31.2497 10.5199 31.2497 10.5199L31.8439 10.2209L33.5138 9.83691L34.5974 9.90296L34.4615 10.6525L33.8215 11.9612L33.2739 13.1534L32.6485 13.8838L32.0738 14.3031V14.3031H32.0735Z" fill="#543E26"/>
<path fill-rule="evenodd" clip-rule="evenodd" d="M34.7805 11.0593C34.7805 11.0593 34.128 11.867 33.9455 11.9914C34.0619 11.7428 34.7805 10.2631 35.0406 9.8515C34.9825 9.8049 34.9047 9.8049 35.0872 9.0835C34.9321 9.4483 34.8776 9.63876 34.7496 9.73578C34.6216 9.83281 34.6057 9.80183 34.5192 9.80183C34.5355 9.77228 34.5422 9.73836 34.5384 9.70481C34.5384 9.70481 33.9908 9.63876 33.6168 9.63876C33.2427 9.63876 32.5024 9.84074 32.0905 10.0038C31.7643 10.1398 31.5818 10.1398 31.4653 10.225C31.3489 10.322 31.2828 10.427 31.2244 10.4541C31.1778 10.4813 30.9567 10.5511 30.906 10.6249C30.8594 10.7017 30.7818 10.7879 30.7818 10.8074C30.7818 10.8269 30.7624 10.8542 30.8207 10.8345C30.8399 10.8269 30.9838 10.749 31.1469 10.652C31.3681 10.5278 31.6361 10.3842 31.8304 10.2987C32.3857 10.0773 32.5605 10.1162 32.8088 10.0696C33.0689 10.023 33.4419 9.91422 33.6902 9.91422C33.9388 9.90654 34.4088 9.91422 34.5176 9.93367C34.471 9.97258 34.4321 10.0192 34.4516 10.1822C34.4516 10.2288 34.4127 10.2793 34.3748 10.3919C34.2586 10.7104 34.0371 11.2385 33.914 11.5065C33.7432 11.8713 33.5492 12.1783 33.4532 12.3685C33.3572 12.5587 33.146 13.0597 32.9368 13.3277C32.7277 13.5958 32.6184 13.7588 32.5528 13.8172C32.4873 13.8756 32.0168 14.2209 32.0518 14.3453C32.1373 14.3182 32.6772 14.1149 33.0692 13.6736C33.4611 13.2322 33.5392 12.9629 33.8459 12.722C34.1526 12.4811 34.3935 12.0774 34.5371 11.7436C34.6574 11.4328 34.6303 11.3358 34.7816 11.0601V11.0601L34.7805 11.0593Z" fill="#806031"/>
<path fill-rule="evenodd" clip-rule="evenodd" d="M20.7188 17.0875C20.7188 17.0875 20.6333 17.4408 20.439 17.6156C20.2488 17.7866 19.9109 17.9341 19.8722 18.2216C19.8256 18.5088 20.2101 18.6527 20.2101 18.6527C20.2101 18.6527 20.0002 18.9983 20.0002 19.2584C20.0002 19.5264 19.9925 19.5768 20.0197 19.8331C19.9889 19.8529 19.9627 19.8791 19.9429 19.9099C19.9429 19.9099 19.9621 20.1585 20.1525 20.3136C20.343 20.4687 20.5058 20.5622 20.6028 20.5233C20.6177 20.5549 20.6306 20.5874 20.6418 20.6205C20.6418 20.6205 20.7856 20.2555 20.8826 19.937C20.9797 19.6109 21.0652 19.6572 21.1038 19.2184C21.1425 18.7796 21.5646 18.0262 21.5646 18.0262L21.8526 17.3824L21.3829 17.0173L20.7188 17.0872V17.0875Z" fill="#B6903C"/>
<path fill-rule="evenodd" clip-rule="evenodd" d="M21.5922 17.7205C21.4953 17.8199 21.4059 17.9263 21.3246 18.0389C21.2005 18.2099 21.1035 18.3651 20.9209 18.4314C20.7384 18.4977 20.6219 18.4972 20.6334 18.6799C20.645 18.8627 20.816 18.94 20.913 19.0332C21.018 19.1303 21.1035 19.2933 21.0569 19.4761C21.115 19.449 21.2199 19.4177 21.317 19.2081C21.414 18.9984 22.0926 17.7207 22.0926 17.7207H21.5922V17.7205Z" fill="#685026"/>
<path fill-rule="evenodd" clip-rule="evenodd" d="M24.2691 14.773C24.2691 14.773 24.3272 14.6179 24.2691 14.5052C24.2107 14.3888 23.8574 14.3498 23.6826 14.2178C23.5 14.0818 23.2786 13.9874 23.0961 14.047C23.1232 13.981 23.232 13.8371 23.1427 13.8061C23.0572 13.779 22.739 13.9226 22.6535 13.9886C22.568 14.0547 22.3736 14.1322 22.335 14.1791C22.2963 14.2259 22.23 14.315 22.1911 14.2761C22.1522 14.249 22.133 14.1791 22.067 14.2178C22.0009 14.2564 21.683 14.5168 21.6243 14.6683C21.5657 14.8199 21.4339 15.1578 21.0378 15.542C20.6418 15.9263 20.4708 16.1751 20.5873 16.3187C20.7038 16.4624 20.7583 16.3577 20.7777 16.4818C20.7927 16.6037 20.7861 16.7273 20.7583 16.8469C20.7117 17.0489 20.6341 17.2391 20.7388 17.278C21.0069 17.3635 21.2672 17.2012 21.3253 17.2508C21.4418 17.3555 21.2593 17.7324 21.535 17.8061C21.8148 17.8829 22.0905 17.7401 22.0905 17.7401L23.1079 17.1925L24.0865 16.6761L24.5873 15.6857L24.3187 14.8585L24.2675 14.773H24.2691Z" fill="#D4B968"/>
<path fill-rule="evenodd" clip-rule="evenodd" d="M23.309 17.1376C23.309 17.1376 23.138 16.8775 23.3479 16.6481C23.5578 16.4187 23.8566 16.322 23.973 16.1783C23.9509 16.151 23.9211 16.1308 23.8875 16.1202C23.9648 15.9819 24.0828 15.8706 24.2254 15.8015C24.1673 15.7434 24.0895 15.6968 24.0043 15.6968C23.8138 15.6968 23.6971 15.8133 23.5225 15.8133C23.3517 15.8133 23.3323 15.7278 23.3323 15.7278C23.3323 15.7278 23.6198 15.7006 23.5924 15.5724C23.5652 15.4365 23.5156 15.4365 23.5156 15.4365C23.5156 15.4365 24.0708 15.2061 24.1678 15.0832C24.2649 14.9603 24.2534 14.8151 24.2728 14.757C24.3386 14.757 24.7231 14.555 24.8785 14.6405C25.0339 14.7261 24.9251 14.959 24.9251 14.959C24.9251 14.959 25.3954 14.6055 25.635 14.2589C25.8446 14.2783 25.9422 14.1152 26.0958 14.1152C26.2862 14.1152 26.5853 14.3753 26.6434 14.9306C26.6823 15.2491 26.7404 15.4316 26.6823 15.9948C26.6551 16.3133 26.6628 16.9932 26.7591 17.3306C26.8249 17.5986 26.9803 17.5715 26.9803 17.5715C26.9564 17.6532 26.9092 17.7261 26.8443 17.7812C26.7394 17.8782 26.7278 18.1347 26.7394 18.2317C26.7548 18.3026 26.7743 18.3727 26.7977 18.4414C26.7977 18.4414 26.6736 18.585 26.6423 18.6823C26.6152 18.7793 26.4872 18.8453 26.3938 18.8453C26.3003 18.8453 26.3472 18.8374 26.223 18.8453C26.0989 18.8533 26.0599 18.8725 25.9821 18.8453C25.9043 18.8182 25.8462 18.787 25.8774 18.5381C25.9045 18.2896 24.9182 17.711 24.9182 17.711L23.3054 17.1363V17.1363L23.309 17.1376Z" fill="#CCA849"/>
<path fill-rule="evenodd" clip-rule="evenodd" d="M21.4557 19.5922C21.4557 19.5922 21.809 20.0623 23.2615 20.0623C23.9527 20.0623 24.1936 19.9962 24.3367 19.9573C24.4921 19.9184 25.0745 19.6895 25.661 18.9981C26.1891 18.3729 26.0726 18.1167 26.0726 18.1167L25.7654 18.0701L24.767 18.206L21.8128 19.4642L21.4544 19.5922H21.4557Z" fill="#585136"/>
<path fill-rule="evenodd" clip-rule="evenodd" d="M22.5405 19.7089C22.5405 19.7089 21.2822 19.9887 21.2822 19.1926C21.2822 18.4158 22.0589 17.6002 22.2532 17.4566C22.4552 17.3127 22.9367 17.1494 22.9367 17.1494H24.098L24.3191 17.7359L24.2221 19.0018L22.5405 19.7086V19.7089Z" fill="#252211"/>
<path fill-rule="evenodd" clip-rule="evenodd" d="M23.7015 17.3865C23.7015 17.3865 23.4608 17.165 22.9132 17.4633C22.3657 17.7615 21.9228 18.3849 21.8956 18.9509C21.8685 19.4516 22.3073 19.8246 22.9908 19.8441C23.4995 19.8633 23.8064 19.8051 23.9618 19.7673C23.9229 19.7207 23.7209 19.4682 23.7209 19.4682L23.7017 17.3867V17.3867L23.7015 17.3865Z" fill="#C3B378"/>
<path fill-rule="evenodd" clip-rule="evenodd" d="M23.4642 17.5102C23.4642 17.5102 23.4061 17.4636 23.2338 17.5568C23.0902 17.6336 22.8806 17.8366 22.7175 17.9802C22.6125 18.0657 22.5465 18.1044 22.4871 18.1704C22.2462 18.4579 22.0442 18.9279 22.1609 19.1609C22.2777 19.3938 22.6619 19.6619 23.6406 19.4793L23.4614 17.5104V17.5104L23.4642 17.5102Z" fill="#E6D89C"/>
<path fill-rule="evenodd" clip-rule="evenodd" d="M23.1467 17.992C23.1467 17.992 22.9913 18.2329 22.9913 18.6174C22.9913 19.0096 23.2127 19.6347 24.0283 19.6813C24.6535 19.7202 25.0728 18.7805 25.5272 18.4154C25.8728 18.1359 26.0825 18.1279 26.0825 18.1279C26.0825 18.1279 25.7292 17.7439 24.7856 17.2465C23.8535 16.7455 22.8088 16.6795 22.2417 17.4485C22.5097 17.429 23.3758 17.2076 23.3758 17.2076L23.7992 17.3435L23.1467 17.9922V17.9922V17.992Z" fill="#252211"/>
<path fill-rule="evenodd" clip-rule="evenodd" d="M24.364 18.5009C24.3369 18.4428 24.3174 18.365 24.4301 18.3458C24.5427 18.3266 24.5931 18.3378 24.6321 18.4226C24.671 18.5073 24.7089 18.578 24.6513 18.613C24.5931 18.644 24.4416 18.613 24.3638 18.5004L24.364 18.5009ZM24.1815 17.9532C24.1815 17.9532 24.1425 17.9803 24.162 17.9261C24.1697 17.8603 24.2204 17.7435 24.3445 17.7709C24.4687 17.7983 24.4418 17.934 24.4213 17.9729C24.4009 18.0118 24.2972 18.0776 24.2193 18.0497C24.1993 18.0446 24.183 18.0302 24.1753 18.0111C24.1676 17.9919 24.1695 17.9702 24.1804 17.9527L24.1815 17.9532Z" fill="#6F674D"/>
<path fill-rule="evenodd" clip-rule="evenodd" d="M13.6703 18.2017C13.6703 18.2017 13.9775 18.4321 14.3343 18.4231C14.6876 18.4152 15.142 18.0504 15.3517 17.8172C15.4758 17.6812 15.5821 17.5376 15.6973 17.425C15.7946 17.3279 15.8604 17.2813 15.907 17.2153C15.973 17.1385 16.0429 16.9941 16.078 16.9473C15.9925 17.0133 15.8683 17.13 15.74 17.2076C15.6159 17.2844 15.3478 17.4288 15.239 17.4677C15.1343 17.5066 14.0469 18.0821 14.0469 18.0821L13.6703 18.2017V18.2017Z" fill="#AC924C"/>
<path fill-rule="evenodd" clip-rule="evenodd" d="M14.139 15.3323C14.139 15.3323 14.3098 15.2158 14.64 15.1418C14.9585 15.065 15.5993 15.0059 15.5993 15.0059L16.1274 15.2363L16.337 16.0324L15.953 16.8598L15.4638 17.167L14.9083 16.2738L14.1403 15.3338V15.3338L14.139 15.3323Z" fill="#9F8E57"/>
<path fill-rule="evenodd" clip-rule="evenodd" d="M13.4494 16.043L13.2666 16.1795C13.2666 16.1795 13.3134 16.0939 13.3521 15.8339C13.3907 15.5738 13.593 14.9407 13.8881 14.5756C14.1833 14.2106 14.1756 14.23 14.1756 14.23C14.1207 14.22 14.0641 14.234 14.0202 14.2687C14.0592 14.1827 14.3077 13.8755 14.5563 13.7219C14.8049 13.5683 14.9019 13.5199 15.162 13.6451C15.4221 13.7702 15.4881 13.8353 15.6786 13.8276C15.8691 13.8199 16.0319 13.6179 16.0319 13.6179C16.0319 13.6179 16.0708 13.7421 15.9272 14.0296C15.7836 14.3171 15.2165 14.9033 15.2165 14.9033L14.0359 15.711L13.4494 16.0438V16.0438V16.043Z" fill="#EAC970"/>
<path fill-rule="evenodd" clip-rule="evenodd" d="M14.3218 15.235C14.3218 15.235 15.1763 15.3515 15.4364 15.1108C15.4441 15.138 15.4754 15.138 15.4754 15.1574C15.4733 15.1721 15.4664 15.1856 15.4559 15.1961C15.4842 15.1915 15.5128 15.189 15.5414 15.1884C15.5756 15.1986 15.6108 15.2051 15.6464 15.2078C15.675 15.2072 15.7036 15.2046 15.7319 15.1999C15.7264 15.2389 15.7053 15.274 15.6735 15.2972C15.7124 15.2972 15.7503 15.3049 15.7503 15.3358C15.7503 15.3668 15.758 15.4603 15.7114 15.4797C15.6728 15.4904 15.6317 15.4876 15.5949 15.4718C15.598 15.5453 15.618 15.6171 15.6533 15.6817C15.7301 15.8253 15.8939 15.9889 16.1141 15.9418C16.1141 15.9418 16.2303 16.2213 15.7411 16.8427C15.6753 16.9282 15.6051 17.0446 15.5199 17.1417C15.4862 17.2151 15.4605 17.2919 15.4431 17.3708C15.4431 17.3708 16.2705 17.0523 16.5073 16.326C16.7482 15.5959 16.7948 14.8776 16.7482 14.2059C16.7402 14.0154 16.7093 13.8797 16.6627 13.7824C16.5462 13.5415 16.2198 13.5804 16.088 13.7164C15.8975 13.9068 15.579 14.3804 15.1364 14.7066C14.6858 15.0327 14.6666 15.0906 14.3208 15.235V15.235H14.3218Z" fill="#D7BC6B"/>
<path fill-rule="evenodd" clip-rule="evenodd" d="M13.2972 16.2836C13.2972 16.2836 13.1342 16.3806 13.0486 16.7444C12.9631 17.1171 13.1254 17.5715 13.2194 17.7152C13.3134 17.8588 13.5266 18.2512 13.969 18.2707C14.0785 18.2701 14.1867 18.2476 14.2874 18.2046C14.4419 18.1338 14.5867 18.0438 14.7185 17.9366C14.909 17.793 15.0641 17.6688 15.0447 17.657C14.9981 17.6376 13.8719 16.7055 13.8719 16.7055L13.4485 16.2329L13.297 16.2841L13.2972 16.2836Z" fill="#585136"/>
<path fill-rule="evenodd" clip-rule="evenodd" d="M14.3606 17.8292C14.3606 17.8292 14.5898 17.81 14.7257 17.7245C14.8616 17.639 13.9295 16.7148 13.9295 16.7148L13.9956 17.7132L14.3606 17.8292Z" fill="#453A25"/>
<path fill-rule="evenodd" clip-rule="evenodd" d="M13.3706 16.2136C13.3706 16.2136 13.2542 16.435 13.2542 16.4934C13.2347 16.6836 13.2931 17.2816 13.3397 17.4718C13.3863 17.6738 13.6387 17.9805 13.9651 17.9805C14.1668 17.9805 14.4466 17.8563 14.4466 17.8254C14.4466 17.7864 14.1591 17.7486 14.0816 17.6039C14.035 17.5271 14.0155 17.3361 14.0048 17.1431C13.9971 17.019 13.9971 16.883 14.0437 16.8359C14.1486 16.7194 14.1678 16.3854 14.1678 16.3854L14.5406 15.6929H14.0503L13.4638 16.0579L13.3706 16.2136Z" fill="#84754B"/>
<path fill-rule="evenodd" clip-rule="evenodd" d="M13.2264 16.4272C13.2264 16.4272 13.6104 15.9186 13.9565 15.8018C14.3026 15.6851 14.4575 15.7552 14.4575 15.7552L14.2555 16.2718L13.968 16.5903L13.9875 16.7534C13.9875 16.7534 13.9406 17.1845 14.2281 17.4835C14.5156 17.7825 14.7291 17.771 14.8535 17.771C14.978 17.771 15.3351 17.666 15.5176 17.2349C15.6807 16.8312 15.8166 16.3133 15.4905 15.7941C15.1717 15.2775 14.6088 15.2576 14.5 15.2576C14.3912 15.2576 13.5369 15.3003 13.2264 16.4265V16.4265V16.4272Z" fill="#252211"/>
<path fill-rule="evenodd" clip-rule="evenodd" d="M23.0863 18.1554C22.9427 18.0894 23.0786 17.6856 23.2222 17.5612C23.3659 17.4368 23.5484 17.2935 23.8671 17.2737C23.9833 17.2661 24.096 17.3398 24.0768 17.4176C24.0496 17.5612 23.8477 17.7632 23.6651 17.9068C23.4127 18.105 23.2494 18.2291 23.0863 18.1554Z" fill="#F7F7E7"/>
<path fill-rule="evenodd" clip-rule="evenodd" d="M15.3194 15.9536C15.4243 15.9459 15.5603 16.0304 15.5874 16.1441C15.6145 16.2682 15.5214 16.5168 15.3194 16.5168C15.1563 16.5168 15.0708 16.3148 15.0708 16.2567C15.0726 16.2089 15.086 16.1623 15.1097 16.1208C15.1174 16.109 15.1368 15.9731 15.3194 15.9536V15.9536Z" fill="#F8F6DE"/>
<path fill-rule="evenodd" clip-rule="evenodd" d="M13.8055 16.0427C13.8055 16.0427 13.5374 16.1669 13.4133 16.4267C13.3246 16.6186 13.2977 16.8333 13.3365 17.0411C13.3559 17.1381 13.4529 17.3788 13.519 17.4643C13.585 17.5498 13.6744 17.6082 13.7404 17.6002C13.8065 17.5923 13.9422 17.4177 13.9422 17.313C13.9422 17.2083 13.9501 16.7654 14.0781 16.5245C14.1907 16.2839 13.8062 16.043 13.8062 16.043V16.043L13.8055 16.0427Z" fill="#D4C38B"/>
<path fill-rule="evenodd" clip-rule="evenodd" d="M13.8452 16.0234C13.7986 16.0505 13.721 16.0894 13.7402 16.1399C13.7597 16.1865 13.9228 16.2167 13.9811 16.3303C14.0472 16.4468 14.0472 16.571 14.0277 16.6293C14.0785 16.6052 14.1245 16.5723 14.1637 16.5321C14.2492 16.435 14.3539 16.3032 14.4432 16.3032C14.5016 16.3032 14.5597 16.3303 14.6142 16.3303C14.6997 16.3303 14.785 16.3032 14.7968 16.2138C14.816 16.0974 14.6337 15.9924 14.5287 16.0119C14.5482 15.9351 14.5753 15.8217 14.4898 15.7438C14.4043 15.666 14.1365 15.8022 14.0782 15.8411C14.0198 15.88 13.8452 16.0236 13.8452 16.0236V16.0236V16.0234Z" fill="#E2D59D"/>
<path fill-rule="evenodd" clip-rule="evenodd" d="M20.0165 24.1827L20.5912 24.0129L20.7543 24.1294C20.7543 24.1294 20.8705 24.378 21.0533 24.409C20.9949 24.5331 20.8434 24.6394 20.8513 24.7274C20.8593 24.8155 20.9368 24.8828 20.9368 24.8828C20.9368 24.8828 20.4202 25.7371 21.4378 26.598C21.1969 26.6951 20.8902 26.8284 20.7272 26.9052C20.8434 26.9324 21.092 26.982 21.1969 27.0762C21.3019 27.1704 21.3019 27.2004 21.3989 27.2588C21.4959 27.3171 21.554 27.3947 21.5348 27.4295C21.4688 27.3906 21.2473 27.2744 21.2087 27.3829C21.17 27.4915 20.2495 27.449 20.2495 27.449L18.6961 27.748C18.6961 27.748 18.7542 27.5926 18.5911 27.449C18.4009 27.2782 18.1679 27.4567 17.9193 27.2664C17.5932 27.0179 17.5814 26.7304 17.4767 26.6218C17.5814 26.5558 17.7952 26.4588 18.3039 26.3914C18.2844 26.3525 18.2184 26.236 18.2573 26.1313C18.3039 25.9954 18.4979 25.9099 18.4398 25.7473C18.5253 25.7279 18.564 25.7279 18.7777 25.4599C18.9797 25.1918 19.1039 25.1337 19.2593 25.1143C19.4146 25.0948 19.5078 25.1143 19.7953 24.8462C19.997 24.656 19.9313 24.4929 19.9313 24.4929C19.9313 24.4929 20.0631 24.4502 20.0168 24.1822V24.1822L20.0165 24.1827Z" fill="#CBAC5A"/>
<path fill-rule="evenodd" clip-rule="evenodd" d="M18.3178 24.2691C18.3255 24.2302 18.3567 24.2107 18.5664 24.2302C18.776 24.2496 20.1042 24.106 20.4654 24.0866C20.8304 24.0594 22.1158 24.0786 22.7412 24.2107C23.3666 24.3428 23.9994 24.4982 24.3061 24.5758C24.6133 24.6613 24.7101 24.692 24.6983 24.7309C24.6906 24.7698 24.6215 24.8077 24.5818 24.797C24.5432 24.7893 23.5256 24.4785 23.2112 24.413C22.8969 24.3474 21.8091 24.1721 21.2144 24.1826C20.6592 24.1905 20.4377 24.1749 19.968 24.2291C19.4979 24.2875 18.7212 24.3651 18.4883 24.3341C18.2579 24.307 18.3055 24.307 18.3173 24.2681V24.2681L18.3178 24.2691Z" fill="#D6BC6F"/>
<path fill-rule="evenodd" clip-rule="evenodd" d="M21.4444 27.3126C21.4444 27.3126 22.2406 27.7437 22.5281 28.2719C22.7377 28.664 22.4039 28.8583 22.4039 28.8583C22.4039 28.8583 22.8545 28.8583 22.7961 29.1069C22.769 29.2621 22.0194 29.6814 21.5184 29.9028C21.0097 30.1243 21.0292 30.1127 20.7806 30.1514C20.5397 30.1903 19.8795 30.0746 19.7436 30.2679C19.6076 30.4612 19.6668 30.6603 19.7046 30.6913C19.7436 30.7184 20.0582 30.7574 20.0582 30.7574C20.0582 30.7574 19.9921 30.9399 19.3398 30.9593C18.6876 30.9788 18.5242 31.0251 18.4853 31.0953C18.4464 31.1611 18.6095 31.1224 18.9087 31.1721C19.2077 31.2187 19.6271 31.2489 19.6271 31.2489C19.6271 31.2489 19.4911 31.3654 19.1379 31.4585C18.7339 31.5632 18.1008 31.6605 17.9106 31.777C18.0076 31.8431 18.1515 31.9401 18.2178 31.9478C18.0547 31.9867 17.8253 32.0722 17.7867 32.1031C17.8448 32.1421 17.9226 32.1886 17.9226 32.1886C17.9226 32.1886 17.5962 32.5808 17.406 32.6781C17.2158 32.7754 16.1206 33.2838 15.7438 33.1868C14.804 32.9382 14.6876 31.9091 14.4584 31.8315C14.1128 31.715 13.9498 31.9478 13.6428 31.7847C13.7788 31.6877 13.8527 31.6295 13.9964 31.5635C13.841 31.4867 13.0371 30.977 13.0371 30.977C12.9531 30.7938 12.8598 30.615 12.7576 30.4412C12.6022 30.1732 12.3736 29.8158 12.2021 29.5012C11.8293 28.81 11.8099 28.4915 11.4719 28.0993C11.5303 28.0225 11.732 28.0333 11.732 28.0333L14.5634 28.9654L19.5838 29.1108L20.8894 27.2468L21.4447 27.3129L21.4444 27.3126Z" fill="#DFC677"/>
<path fill-rule="evenodd" clip-rule="evenodd" d="M14.008 30.1554C14.0383 30.1892 14.0736 30.218 14.1127 30.241C14.21 30.307 14.3536 30.3848 14.4506 30.501C14.4895 30.4429 14.5865 30.338 14.7578 30.501C14.9291 30.6641 15.1418 30.5479 15.2741 30.5866C15.4101 30.6334 15.4178 30.6526 15.4178 30.6526C15.4178 30.6526 15.4946 30.5866 15.6663 30.5167C15.7713 30.4778 15.8955 30.4506 16.0314 30.412C16.1556 30.3848 16.2915 30.3459 16.3849 30.3459C16.4704 30.404 16.7771 30.7299 18.0082 30.2489C19.1694 29.7983 19.4372 29.7479 19.6315 29.8175C19.651 29.7709 19.6704 29.6816 19.9694 29.6934C19.9694 29.5692 19.7209 29.1458 19.7209 29.1458L18.35 28.676H17.6002L15.3517 29.0877L14.1058 29.7986L14.0087 30.157L14.008 30.1554Z" fill="#C4A859"/>
<path fill-rule="evenodd" clip-rule="evenodd" d="M13.258 29.3671C13.258 29.3671 13.2851 29.5768 13.5959 29.7982C13.9031 30.0194 13.9996 30.1515 13.9996 30.1515C13.9996 30.1515 14.058 30.0747 14.1046 29.9964C14.1512 29.9109 14.1901 29.8139 14.2676 29.7867C14.423 29.7207 14.7763 29.8448 14.8541 29.8254C14.9202 29.8062 14.9007 29.6702 14.9706 29.6702C15.1337 29.6623 15.2384 29.7749 15.2968 29.7749C15.3551 29.7749 15.4985 29.7673 15.5179 29.7363C15.5374 29.7053 15.5451 29.3828 15.7665 29.2274C16.0074 29.0566 16.3026 29.1303 16.3809 29.1692C16.3809 29.2274 16.3886 29.3712 16.544 29.3789C16.6994 29.3866 16.7147 29.3595 16.8512 29.406C16.9876 29.4526 17.1502 29.3984 17.2239 29.6272C17.29 29.608 17.4454 29.5886 17.4065 29.3671C17.4833 29.309 17.5503 29.2701 17.7137 29.041C17.7526 28.9829 17.8184 28.9168 17.869 28.8313C18.005 28.8313 18.1681 28.8042 18.3854 28.9944C18.3193 29.041 18.2804 29.0712 18.2612 29.1186C18.3181 29.1748 18.37 29.2359 18.4164 29.3011C18.4747 29.3779 18.5137 29.4721 18.5874 29.4916C18.7505 29.5381 19.0185 29.4721 19.3175 29.4916C19.605 29.511 19.8456 29.6157 19.9506 29.6818C19.9895 29.6626 19.9895 29.6546 20.0865 29.6741C20.1835 29.6935 20.2573 29.7012 20.1526 29.5771C20.2107 29.6042 20.2767 29.6626 20.3351 29.6042C20.3935 29.5458 20.4398 29.4606 20.6029 29.4411C20.7659 29.4217 20.8243 29.4488 20.8904 29.278C20.9759 29.0684 20.6807 29.0684 20.6807 29.0684C20.6807 29.0684 20.8166 28.944 20.9682 28.7809C21.1507 28.6101 21.3604 28.3887 21.4108 28.1168C21.4963 27.6158 21.0071 27.55 21.0071 27.55L18.6342 28.2802L15.7332 28.1363L13.2595 29.3674V29.3674L13.258 29.3671Z" fill="#927D49"/>
<path fill-rule="evenodd" clip-rule="evenodd" d="M11.1253 22.5128C11.1253 22.5128 11.0485 22.6098 11.0012 22.8389C10.9538 23.0681 10.974 23.0409 10.9351 23.204C10.8962 23.3671 10.4182 24.9904 10.5974 25.538C10.7766 26.0855 11.0869 26.2875 11.281 26.7301C11.3199 26.8272 11.3578 26.8855 11.378 26.971C11.444 27.2583 11.3859 27.4797 11.4635 27.7672C11.4906 27.8642 11.5608 27.9769 11.6655 28.0933C11.8959 28.334 12.2714 28.5631 12.4335 28.7262C12.6623 28.9671 12.9887 29.4565 13.4042 29.5029C13.6257 29.53 13.9403 29.4368 14.2004 29.2817C14.4308 29.1378 14.5731 28.9361 14.8148 28.8209C14.9855 28.7354 15.1681 28.7044 15.3311 28.6655C15.6691 28.5995 15.976 28.5887 16.1585 28.6266C16.4381 28.685 17.0983 28.8869 17.4641 28.8869C17.75 28.8823 18.0342 28.8432 18.3107 28.7705C18.866 28.6074 19.5377 28.3276 19.9806 28.2034C20.2407 28.1266 20.4504 28.1064 20.6641 28.0598C21.0292 27.9743 21.3359 27.8578 21.5107 27.6364C21.3942 27.5005 21.2506 27.2908 20.4737 27.2985C19.5923 27.3179 18.5747 27.8071 18.0737 27.885C17.5727 27.9628 17.3553 28.0286 16.796 27.8266C16.2476 27.6226 16.2294 27.4877 16.2294 27.4877C16.2294 27.4877 15.6537 27.085 15.4128 26.0584C15.1719 25.0318 15.4128 24.2838 16.0382 23.5729C16.2013 23.3904 16.1624 23.2273 16.1624 23.2273C16.1624 23.2273 16.574 22.672 16.4614 22.1521C16.3372 21.6355 15.5411 21.7405 15.5411 21.7405L11.1256 22.5128V22.5128H11.1253Z" fill="#6E6342"/>
<path fill-rule="evenodd" clip-rule="evenodd" d="M11.7898 24.2407C11.7556 24.3051 11.7395 24.3776 11.7432 24.4504C11.7509 24.5551 11.7821 24.691 12.0965 24.998C12.3645 25.2657 12.3061 25.5648 12.3061 25.5648C12.3061 25.5648 12.4411 25.5919 12.8071 25.4206C13.0946 25.2847 13.1911 25.5256 13.1911 25.5256C13.2748 25.4817 13.3655 25.4528 13.4592 25.4401C13.544 25.4323 13.6261 25.4061 13.6998 25.3633C13.6998 25.3633 14.0377 25.7089 14.3329 25.872C14.6009 26.0158 14.7563 26.1129 14.8884 26.0158C15.0126 25.9303 15.0126 25.7555 15.0046 25.6779C14.9738 25.6063 14.9348 25.5385 14.8884 25.4759C14.8029 25.3518 14.667 25.2079 14.658 25.0919C14.6386 24.8241 14.86 24.5054 14.8132 24.4279C14.7663 24.3503 14.592 24.3308 14.1609 24.4862C13.7144 24.6337 11.788 24.2415 11.788 24.2415V24.2415L11.7898 24.2407Z" fill="#39331F"/>
<path fill-rule="evenodd" clip-rule="evenodd" d="M12.8087 25.9767C12.8087 25.9767 12.5875 25.767 12.6651 24.7494C12.759 24.748 12.8528 24.7571 12.9446 24.7765C12.9446 24.7765 13.0652 25.565 12.8087 25.9767Z" fill="#292311"/>
<path fill-rule="evenodd" clip-rule="evenodd" d="M11.2306 21.7358C11.2614 21.713 11.2901 21.6872 11.3161 21.659C11.2393 21.8026 10.8847 22.3773 11.1722 23.2823C11.4597 24.1832 12.1819 24.8549 13.0712 24.8861C13.9606 24.9174 14.428 24.4822 14.9626 23.8299C15.1722 23.5698 15.4131 23.2434 15.6266 23.0222C15.9451 22.6763 16.1937 22.5793 16.1937 22.2455C16.1937 21.562 15.4945 21.255 14.4654 20.9483C13.4363 20.6417 12.508 20.6795 12.0265 20.8895C11.5567 21.1183 11.3547 21.3592 11.2303 21.7361V21.7361L11.2306 21.7358Z" fill="#252211"/>
<path fill-rule="evenodd" clip-rule="evenodd" d="M14.5358 26.2836L14.6126 26.2447C14.6126 26.2447 14.6318 25.9375 14.7563 25.9457C14.8804 25.9652 14.9388 26.1285 14.927 26.1866C14.9193 26.2447 14.8884 26.342 14.7639 26.3302C14.6009 26.3341 14.5351 26.2836 14.5351 26.2836H14.5358Z" fill="#3F3824"/>
<path fill-rule="evenodd" clip-rule="evenodd" d="M14.1897 24.9785C14.1897 24.9785 14.2665 24.9514 14.3605 25.0446C14.4373 25.0446 14.7721 25.0057 14.8771 25.0717C14.9821 25.1378 15.013 25.1959 15.013 25.1959C15.013 25.1959 14.6208 25.2814 14.4071 25.1959C14.1897 25.1221 14.1897 24.9785 14.1897 24.9785H14.1897Z" fill="#2D2815"/>
<path fill-rule="evenodd" clip-rule="evenodd" d="M15.9191 25.0365C15.9191 25.0171 15.7094 24.8735 15.488 24.8266C15.4491 24.8189 15.4411 24.8461 15.4112 24.8461C15.3917 24.8384 15.384 24.78 15.384 24.78L15.2581 24.8463C15.2581 24.8463 15.2386 24.8735 15.3047 24.9231C15.3628 24.9697 15.4601 25.0086 15.4872 25.0862C15.5143 25.1638 15.5143 25.1909 15.5261 25.2027C15.5338 25.2104 15.6697 25.2027 15.7358 25.1638C15.8018 25.1249 15.9263 25.0614 15.9183 25.0358V25.0358L15.9191 25.0365Z" fill="#82764F"/>
<path fill-rule="evenodd" clip-rule="evenodd" d="M13.9582 25.8255C13.9582 25.8255 13.9969 25.5577 14.2572 25.546C14.525 25.5265 14.5757 25.7866 14.5757 25.7866L14.4203 25.942C14.4203 25.9382 14.3038 25.7751 13.9595 25.8255H13.9582Z" fill="#2D2816"/>
<path fill-rule="evenodd" clip-rule="evenodd" d="M15.6465 24.6715C15.6465 24.6715 15.5027 24.8269 15.1844 24.8735C15.1573 24.8346 15.0989 24.757 15.1844 24.6329C15.27 24.5087 15.367 24.4698 15.464 24.5085C15.5514 24.5226 15.6226 24.5863 15.6465 24.6715Z" fill="#574F35"/>
<path fill-rule="evenodd" clip-rule="evenodd" d="M16.233 24.8618C16.2409 24.8229 16.2138 24.8152 16.233 24.7958C16.2522 24.7763 16.3574 24.7377 16.3769 24.7569C16.3845 24.7648 16.3769 24.7958 16.3769 24.8337C16.3769 24.8716 16.3769 24.9105 16.3574 24.9384C16.3303 24.9773 16.2527 24.9968 16.2138 24.9852C16.1749 24.9737 16.1672 24.9192 16.1672 24.9084C16.1864 24.9008 16.233 24.8813 16.233 24.8618ZM16.8961 24.4427C16.8961 24.4232 16.9622 24.3843 17.0011 24.3843C17.0592 24.3843 17.0592 24.4309 17.0672 24.4427C17.0864 24.4504 17.0864 24.4348 17.1058 24.4698C17.1253 24.5049 17.1527 24.5669 17.1329 24.6058C17.1132 24.6447 17.0359 24.6716 17.0167 24.6639C16.9896 24.6444 16.9041 24.4698 16.8961 24.4427V24.4427Z" fill="#82764F"/>
<path fill-rule="evenodd" clip-rule="evenodd" d="M15.5615 24.9514C15.5615 24.9514 15.6471 24.9706 15.7635 25.0679C15.7246 25.095 15.6663 25.126 15.6663 25.126C15.6663 25.126 15.6586 25.0367 15.5615 24.9512V24.9514Z" fill="#6E6342"/>
<path fill-rule="evenodd" clip-rule="evenodd" d="M15.3706 24.0969C15.3511 24.0777 15.4287 24.0311 15.4753 24.0388C15.5219 24.0464 15.5413 24.0777 15.5918 24.0854C15.6422 24.093 15.6501 24.0659 15.6686 24.0464C15.687 24.027 15.7541 24.0388 15.7656 24.0464C15.7728 24.055 15.7793 24.064 15.785 24.0736C15.7867 24.0437 15.8007 24.0159 15.8237 23.9968C15.8539 23.9746 15.8925 23.9674 15.9287 23.9773C15.9363 24.0045 15.9752 24.1015 15.9676 24.1209C15.9599 24.1404 15.8434 24.1678 15.8237 24.1481C15.8432 24.1949 15.9287 24.2919 15.9402 24.3111C15.9517 24.3303 15.8547 24.3772 15.816 24.3695C15.7617 24.3657 15.4277 24.1714 15.3696 24.0976L15.3706 24.0969ZM15.8788 23.4521C15.8716 23.4325 15.8578 23.416 15.8399 23.4055C15.8127 23.3978 15.7234 23.4055 15.7234 23.4521C15.7234 23.4987 15.8002 23.7593 15.8864 23.895C15.9837 24.0309 16.0495 24.1433 16.1156 24.1745C16.1586 24.1941 16.2094 24.1771 16.232 24.1356C16.2397 24.1161 16.2592 23.9725 16.2515 23.6346C16.2438 23.2967 16.232 22.9705 16.2126 22.9511C16.1931 22.9316 16.1156 22.9319 16.0884 22.9705C16.0613 23.0092 15.8864 23.394 15.8785 23.4521V23.4521H15.8788Z" fill="#585136"/>
<path fill-rule="evenodd" clip-rule="evenodd" d="M15.5329 25.4408C15.5329 25.4408 15.3969 25.3553 15.2649 25.4137C15.1407 25.4721 15.1484 25.7012 15.1484 25.7012C15.2051 25.7234 15.2691 25.7161 15.3194 25.6817C15.4049 25.6236 15.5134 25.5266 15.5329 25.4411V25.4408Z" fill="#574F35"/>
<path fill-rule="evenodd" clip-rule="evenodd" d="M15.7912 25.7478C15.7835 25.671 15.7144 25.671 15.7144 25.6313C15.7242 25.5923 15.7594 25.565 15.7996 25.5653C15.8385 25.5653 15.8764 25.6119 15.924 25.6421C15.9706 25.6692 16.0405 25.7189 16.0482 25.778C16.0559 25.8372 15.9714 25.9992 15.8774 25.9992C15.7835 25.9992 15.8114 25.8244 15.7919 25.7468L15.7912 25.7478ZM16.5409 25.6431C16.5409 25.6431 16.3855 25.6897 16.3971 25.6431C16.4086 25.5965 16.4439 25.585 16.4943 25.585C16.52 25.5582 16.5544 25.5415 16.5914 25.5381C16.6125 25.5371 16.6332 25.544 16.6495 25.5576C16.6495 25.5576 16.7544 25.511 16.7854 25.5381C16.8164 25.5653 16.7933 25.5653 16.8125 25.5965C16.837 25.6312 16.853 25.6711 16.8594 25.713C16.8594 25.744 16.7429 25.81 16.6495 25.7985C16.5409 25.7752 16.5601 25.6626 16.5409 25.6431V25.6431ZM17.4453 25.468C17.4453 25.468 17.4919 25.4951 17.4532 25.5264C17.4261 25.5535 17.2902 25.6032 17.1734 25.6119C17.057 25.6119 16.9523 25.6311 16.9523 25.5924C16.9523 25.5538 17.0493 25.4759 17.1074 25.4565C17.131 25.4269 17.1668 25.4098 17.2047 25.4099C17.2513 25.4099 17.4335 25.3904 17.4842 25.3828C17.5308 25.3748 17.5697 25.402 17.5423 25.4409C17.5308 25.468 17.4453 25.468 17.4453 25.468V25.468ZM17.7126 24.269C17.7126 24.269 17.6542 24.3931 17.5884 24.3931C17.5223 24.3854 17.5223 24.366 17.5223 24.3465C17.5223 24.3194 17.5884 24.2495 17.5805 24.2301C17.5613 24.2301 17.5144 24.2301 17.5223 24.1835C17.5223 24.1445 17.5884 24.098 17.6465 24.1067C17.6904 24.0706 17.7451 24.0501 17.8019 24.0485C17.8679 24.0485 17.9261 24.0677 17.9261 24.1067C17.9261 24.1456 17.8493 24.2308 17.8211 24.2505C17.7901 24.2815 17.7512 24.3017 17.7126 24.2697V24.269ZM16.8282 26.5643C16.8282 26.5643 16.7514 26.5723 16.7514 26.6109C16.7514 26.6304 16.7706 26.6304 16.7979 26.6189C16.8137 26.618 16.8294 26.6153 16.8445 26.6109C16.8522 26.6189 16.8522 26.6575 16.9106 26.6575C16.9585 26.6511 17.0047 26.6352 17.0465 26.6109C17.0931 26.5917 17.132 26.572 17.132 26.5341C17.1126 26.4681 17.0737 26.4369 17.0155 26.4369C16.9858 26.435 16.9561 26.4417 16.93 26.4563C16.93 26.4563 16.9106 26.4174 16.8445 26.4563C16.7785 26.4952 16.7862 26.4952 16.8056 26.5147C16.8404 26.5457 16.8289 26.5659 16.8289 26.5659L16.8282 26.5643ZM16.3891 26.9679C16.3891 26.9485 16.4861 26.9096 16.5133 26.9213C16.5404 26.929 16.618 27.0765 16.618 27.0921C16.618 27.1116 16.5209 27.1581 16.482 27.1581C16.4431 27.1581 16.3773 27.0921 16.3773 27.0813C16.3773 27.0737 16.4239 27.0621 16.4239 27.0542C16.4354 27.035 16.3891 26.9882 16.3891 26.9687V26.9679ZM16.0824 26.4009C16.1018 26.3933 16.1018 26.3738 16.129 26.3543C16.1462 26.3429 16.1677 26.3401 16.1873 26.3467C16.2012 26.3219 16.2254 26.3047 16.2534 26.2998C16.3 26.2921 16.3389 26.2998 16.3302 26.3193C16.3302 26.3776 16.3691 26.4163 16.3691 26.4629C16.3691 26.5095 16.3419 26.5678 16.2449 26.6068C16.1479 26.6339 16.0158 26.6339 15.9963 26.6262C15.9769 26.6185 15.9574 26.5407 15.9769 26.5018C15.9963 26.4629 16.0506 26.4204 16.0819 26.4009V26.4009H16.0824Z" fill="#82764F"/>
<path fill-rule="evenodd" clip-rule="evenodd" d="M16.2046 26.4272C16.2046 26.4272 16.1386 26.4662 16.1386 26.4856C16.1327 26.5044 16.1301 26.5241 16.1309 26.5437C16.1309 26.5552 16.2164 26.536 16.2279 26.5243C16.2317 26.5166 16.2046 26.4475 16.2046 26.4272Z" fill="#6E6342"/>
<path fill-rule="evenodd" clip-rule="evenodd" d="M15.6268 26.2449C15.6654 26.2528 15.7315 26.2449 15.7819 26.2644C15.8208 26.2838 15.848 26.3227 15.809 26.3693C15.7701 26.4159 15.7322 26.4858 15.646 26.474C15.549 26.4664 15.4558 26.4159 15.4558 26.377C15.4525 26.3273 15.4693 26.2783 15.5024 26.2411C15.5413 26.2101 15.5605 26.2296 15.6265 26.2449V26.2449H15.6268Z" fill="#585136"/>
<path fill-rule="evenodd" clip-rule="evenodd" d="M15.582 26.2834C15.582 26.2834 15.4578 26.3805 15.4266 26.4273C15.3877 26.4739 15.1974 26.7146 15.1393 26.765C15.1586 26.7309 15.1806 26.6985 15.2051 26.668C15.1283 26.7171 15.0707 26.7911 15.0421 26.8776C14.9955 27.0215 15.3024 27.0991 15.5041 27.1574C15.7059 27.2158 15.7839 27.2342 15.7839 27.2342C15.7097 27.1226 15.6459 27.0043 15.5935 26.881C15.5167 26.6984 15.477 26.679 15.5274 26.5935C15.5663 26.508 15.6247 26.4498 15.6247 26.3838C15.6014 26.3224 15.582 26.2834 15.582 26.2834Z" fill="#574F35"/>
<path fill-rule="evenodd" clip-rule="evenodd" d="M11.1529 26.5908C11.1812 26.596 11.2102 26.596 11.2384 26.5908C11.2965 26.5828 11.9025 26.3604 12.5356 26.4003C13.0095 26.4289 13.4793 26.5061 13.9374 26.6307C14.7336 26.8404 15.7238 27.2559 16.3646 27.4929C16.5353 27.5587 16.7025 27.6754 16.8254 27.7218C17.3149 27.9122 17.3341 27.9122 17.6215 27.9627C17.9595 28.0093 18.3051 27.8966 18.6663 27.8191C19.1089 27.7218 19.8661 27.6752 20.5302 27.5782C20.7449 27.5484 20.9567 27.5003 21.1633 27.4345C21.1633 27.4345 20.6352 27.9627 19.369 28.1529C18.8572 28.2306 18.3371 28.2371 17.8235 28.1723C17.4196 28.1334 17.1518 28.0751 16.9498 28.0169C16.7207 27.9509 16.2507 27.776 15.6721 27.6329C15.2681 27.528 14.8176 27.4504 14.3012 27.3534C13.0274 27.1202 11.645 26.8524 11.1524 26.5923L11.1529 26.5908Z" fill="#252211"/>
<path fill-rule="evenodd" clip-rule="evenodd" d="M9.72526 24.1904C9.41806 24.4505 9.09217 24.6991 8.77396 24.9397L7.81473 25.6768C7.48859 25.9174 7.17012 26.166 6.84372 26.4069C6.51732 26.6478 6.19143 26.8766 5.84532 27.0981C6.15252 26.838 6.47841 26.5971 6.80455 26.3603C7.1307 26.1235 7.46887 25.8913 7.7835 25.6512L8.74273 24.9131C9.07271 24.6725 9.39118 24.4239 9.72526 24.1909V24.1904ZM8.02766 26.909C8.02766 26.909 8.37326 26.6215 8.80436 26.2178C9.34017 25.717 9.99655 25.076 10.2062 24.9598L8.0274 26.9092L8.02766 26.909Z" fill="#CFB66C"/>
<path fill-rule="evenodd" clip-rule="evenodd" d="M8.02711 26.909C8.19812 26.7383 8.38064 26.5714 8.56317 26.408L8.84272 26.1674C8.92823 26.0906 9.02551 26.0043 9.11076 25.9188C9.28151 25.7481 9.44868 25.5653 9.61943 25.3907C9.70406 25.3029 9.79354 25.2199 9.88746 25.1421C9.93441 25.1006 9.98656 25.0653 10.0426 25.0372C10.0894 25.01 10.1399 24.9604 10.2057 24.9517C10.167 25.01 10.1204 25.0372 10.0815 25.0876C10.0349 25.1265 9.996 25.1731 9.95735 25.2118C9.87184 25.2973 9.77482 25.3748 9.68932 25.4527C9.50679 25.608 9.31658 25.7599 9.13405 25.9224C8.95152 26.085 8.78077 26.2603 8.59799 26.4234C8.4001 26.5906 8.21757 26.7536 8.02711 26.9098V26.909ZM10.3491 25.3555C10.3491 25.3555 9.08314 26.5946 8.82279 26.7963L10.3491 25.3555Z" fill="#CFB66C"/>
<path fill-rule="evenodd" clip-rule="evenodd" d="M10.3503 25.3552C10.2364 25.487 10.1143 25.6115 9.98469 25.728L9.60069 26.093C9.47653 26.2172 9.35979 26.3416 9.22795 26.4658C9.09201 26.5822 8.96785 26.6962 8.82398 26.8037L9.19672 26.4386C9.32113 26.3145 9.45707 26.2098 9.58917 26.0853L9.9619 25.7203C10.0899 25.5923 10.2143 25.4679 10.3503 25.3552V25.3552ZM10.409 26.0273C10.2923 26.353 10.1548 26.6709 9.99731 26.9789C9.67117 27.6314 9.18195 28.4468 8.96819 28.8625L10.409 26.0273Z" fill="#CFB66C"/>
<path fill-rule="evenodd" clip-rule="evenodd" d="M10.4082 26.0271C10.4082 26.1707 10.3693 26.2951 10.3227 26.4193C10.2773 26.5436 10.2255 26.6654 10.1676 26.7843C10.1092 26.9008 10.0432 27.0252 9.97712 27.1379C9.91107 27.2505 9.83351 27.3667 9.77514 27.4835L9.38295 28.1747C9.24701 28.4051 9.11491 28.6368 8.9713 28.8582C9.06832 28.6096 9.20042 28.3767 9.32483 28.1475C9.46077 27.9171 9.58493 27.6867 9.70883 27.4484C9.76933 27.3296 9.82376 27.2079 9.87191 27.0836C9.93002 26.9592 9.98813 26.8427 10.035 26.7301C10.0931 26.6059 10.1397 26.4892 10.1981 26.3768C10.2638 26.2562 10.3184 26.1397 10.4077 26.0271L10.4082 26.0271Z" fill="#CFB66C"/>
<path fill-rule="evenodd" clip-rule="evenodd" d="M11.7906 29.2114C11.7906 29.2114 11.4066 29.7201 11.445 30.3647C11.5497 30.027 11.6818 29.5104 11.7906 29.2114ZM12.1557 29.7214C12.1557 29.7214 12.0197 31.1038 11.9071 31.7835C12.0663 30.9978 12.0973 31.0638 12.1557 29.7214ZM14.6996 31.8653C14.6996 31.8653 14.1249 33.5549 14.1131 34.0244C14.2375 33.5416 14.4782 32.5552 14.6996 31.864V31.8653Z" fill="#DEC270"/>
<path fill-rule="evenodd" clip-rule="evenodd" d="M16.0418 29.1074C16.0418 29.1074 16.9739 30.6452 17.673 31.9577C17.4838 31.2972 17.0486 30.0859 16.0418 29.1074Z" fill="#CBAF59"/>
<path fill-rule="evenodd" clip-rule="evenodd" d="M18.5472 31.3708C19.059 32.2755 19.5205 33.2076 19.9296 34.163C19.852 33.5028 19.6421 32.3728 18.5472 31.3708Z" fill="#E3C677"/>
<path fill-rule="evenodd" clip-rule="evenodd" d="M25.911 33.6383C26.0662 33.5413 26.3731 33.0129 26.6411 32.8811C26.9089 32.7452 27.1109 32.718 27.3518 32.45C27.5924 32.1702 27.659 31.9994 28.1866 31.7782C28.9247 31.4595 28.417 31.0479 28.417 31.0479C28.4983 30.968 28.5852 30.8941 28.6771 30.8267C28.8676 30.6831 29.0887 30.5082 29.0695 30.2013C29.0424 29.6849 28.9454 28.9354 28.522 28.5004C28.9336 28.4149 29.7218 28.3568 30.2116 28.2326C30.7783 28.0888 31.0387 27.8868 31.0387 27.8868C31.0387 27.8868 30.7126 27.3315 31.2407 26.7724C31.7688 26.2133 32.1999 25.8792 32.5184 25.2538C32.1533 25.2072 31.5968 25.0132 30.1765 25.5528C30.2532 25.5889 30.3272 25.6304 30.3979 25.677C30.3979 25.677 29.5242 25.9179 29.2057 26.1859C28.6502 26.6557 28.5803 27.0402 27.9785 27.3277C27.3766 27.6152 26.7707 27.5373 26.2699 27.7703C25.7692 28.0033 25.6952 28.2014 25.5124 28.2869C25.5513 28.3335 25.5047 28.4111 25.5785 28.4771C25.5319 28.5432 25.26 28.9858 24.9843 28.9858C25.0114 29.0908 25.2444 29.1683 25.2444 29.1683C25.2444 29.1683 25.0736 29.2927 24.6387 29.3237C24.8599 29.5541 25.0698 29.8053 25.6484 30.1703C25.6018 30.2673 25.4075 30.4112 25.4853 30.5937C25.5708 30.7763 25.7925 31.0248 26.6775 31.2268C26.2269 31.246 25.6991 31.351 24.9879 31.254C24.2772 31.1685 24.1607 31.118 23.722 31.2268C23.7686 31.2734 23.8927 31.2734 24.0015 31.3976C23.885 31.4053 23.1549 31.3121 22.9064 31.6385C22.6463 31.9761 22.5336 32.5317 22.5531 32.9044C22.4171 32.9704 22.285 33.0869 22.3511 33.3278C22.4171 33.5687 22.7627 33.6463 22.9842 33.7976C23.2054 33.9606 23.2248 34.0188 23.4347 33.9801C23.6559 33.9335 23.9821 33.7123 24.1725 33.7123C24.363 33.7123 24.4987 33.8559 24.4987 33.8559C24.4987 33.8559 25.0153 33.6074 25.0657 33.654C25.1123 33.7005 25.0734 33.9996 25.1238 34.0461C25.175 34.0812 25.7569 33.7356 25.9123 33.6383H25.911Z" fill="#ECD592"/>
<path fill-rule="evenodd" clip-rule="evenodd" d="M37.2001 18.0973C34.7729 11.8294 28.7728 10.6682 28.7728 10.6682H11.6543L11.7204 17.0526H15.1295V31.309H11.6541V37.6818H28.2989C32.3105 37.6818 35.5261 33.6506 35.5261 33.6506C40.6755 26.3421 37.1998 18.0973 37.1998 18.0973H37.2001ZM28.389 29.3553C28.389 29.3553 27.0834 31.239 25.6628 31.239H22.8212L22.7539 17.0681H26.4006C26.4006 17.0681 28.0902 17.4214 29.2706 20.765C29.2706 20.765 30.8355 25.5522 28.389 29.3553V29.3553Z" fill="white" fill-opacity="0.8"/>
</svg>
