<svg width="48" height="48" viewBox="0 0 48 48" fill="none" xmlns="http://www.w3.org/2000/svg">
<g clip-path="url(#clip0_110_462)">
<circle cx="24" cy="24" r="24" fill="#EDF0F4"/>
<path fill-rule="evenodd" clip-rule="evenodd" d="M32.3527 15.5501C32.2435 15.4408 32.1779 15.3316 32.1779 15.1786C32.1779 15.0257 32.2435 14.9164 32.3527 14.8072C32.5712 14.6105 32.9208 14.6105 33.1612 14.8072C33.2704 14.9164 33.336 15.0257 33.336 15.1786C33.336 15.3316 33.2704 15.4408 33.1612 15.5501C33.0519 15.6375 32.899 15.703 32.7679 15.703C32.6149 15.7249 32.462 15.6812 32.3527 15.5501Z" fill="#0D022B"/>
<path fill-rule="evenodd" clip-rule="evenodd" d="M30.9543 17.0576C30.8669 16.9484 30.8014 16.8391 30.8014 16.6862C30.8014 16.5332 30.8669 16.424 30.9543 16.3147C31.151 16.1181 31.5006 16.1181 31.6973 16.3147C31.7847 16.424 31.8502 16.5332 31.8502 16.6862C31.8502 16.8391 31.7847 16.9484 31.6973 17.0576C31.588 17.145 31.4787 17.2106 31.3258 17.2106C31.1728 17.2106 31.0636 17.145 30.9543 17.0576Z" fill="#0D022B"/>
<path fill-rule="evenodd" clip-rule="evenodd" d="M29.4248 18.4998C29.3374 18.4124 29.2719 18.2813 29.2719 18.1283C29.2719 17.9754 29.3374 17.8661 29.4248 17.7569C29.6215 17.5602 29.9711 17.5602 30.1677 17.7569C30.2551 17.8443 30.3207 17.9754 30.3207 18.1283C30.3207 18.2813 30.2551 18.3905 30.1677 18.4998C30.0585 18.609 29.9492 18.6527 29.7963 18.6527C29.6433 18.6527 29.5122 18.5872 29.4248 18.4998Z" fill="#0D022B"/>
<path fill-rule="evenodd" clip-rule="evenodd" d="M27.9609 19.9636C27.8517 19.8762 27.7861 19.7451 27.7861 19.5922C27.7861 19.4392 27.8517 19.33 27.9609 19.2207C28.1794 19.0241 28.529 19.0241 28.7694 19.2207C28.8786 19.3081 28.9442 19.4392 28.9442 19.5922C28.9442 19.7451 28.8786 19.8762 28.7694 19.9636C28.6601 20.0729 28.5072 20.1166 28.3761 20.1166C28.2231 20.1166 28.092 20.0947 27.9609 19.9636Z" fill="#0D022B"/>
<path fill-rule="evenodd" clip-rule="evenodd" d="M26.5625 21.4278C26.4532 21.3404 26.4095 21.2092 26.4095 21.0563C26.4095 20.9033 26.4751 20.7941 26.5625 20.6848C26.7591 20.4882 27.1088 20.4882 27.3054 20.6848C27.4147 20.7722 27.4584 20.9033 27.4584 21.0563C27.4584 21.2092 27.3928 21.3404 27.3054 21.4278C27.218 21.537 27.0869 21.5807 26.934 21.5807C26.8029 21.6026 26.6499 21.5589 26.5625 21.4278Z" fill="#0D022B"/>
<path fill-rule="evenodd" clip-rule="evenodd" d="M24.8801 22.5202C24.8801 22.3672 24.9456 22.258 25.033 22.1487C25.2297 21.9521 25.5793 21.9521 25.7759 22.1487C25.8852 22.258 25.9289 22.3672 25.9289 22.5202C25.9289 22.6731 25.8633 22.7824 25.7759 22.8916C25.6885 22.979 25.5574 23.0446 25.4045 23.0446C25.2515 23.0446 25.1423 22.979 25.033 22.8916C24.9238 22.8042 24.8801 22.6731 24.8801 22.5202Z" fill="#0D022B"/>
<path fill-rule="evenodd" clip-rule="evenodd" d="M22.1487 25.7539C22.0613 25.6665 21.9957 25.5354 21.9957 25.3825C21.9957 25.2295 22.0613 25.1203 22.1487 25.011C22.3453 24.8144 22.6949 24.8144 22.8916 25.011C23.0008 25.1203 23.0445 25.2295 23.0445 25.3825C23.0445 25.5354 22.979 25.6447 22.8916 25.7539C22.8042 25.8632 22.6731 25.9069 22.5201 25.9069C22.389 25.9287 22.2579 25.885 22.1487 25.7539Z" fill="#0D022B"/>
<path fill-rule="evenodd" clip-rule="evenodd" d="M20.641 27.218C20.5317 27.1306 20.4662 26.9995 20.4662 26.8466C20.4662 26.6936 20.5317 26.5844 20.641 26.4751C20.8595 26.2785 21.2091 26.2785 21.4494 26.4751C21.5587 26.5844 21.6243 26.6936 21.6243 26.8466C21.6243 26.9995 21.5587 27.1088 21.4494 27.218C21.3402 27.3273 21.1872 27.371 21.0561 27.371C20.8813 27.3928 20.7502 27.3273 20.641 27.218Z" fill="#0D022B"/>
<path fill-rule="evenodd" clip-rule="evenodd" d="M19.2207 28.7039C19.1333 28.6165 19.0677 28.4854 19.0677 28.3324C19.0677 28.1795 19.1333 28.0484 19.2207 27.961C19.4174 27.7643 19.767 27.7643 19.9636 27.961C20.051 28.0484 20.1166 28.1795 20.1166 28.3324C20.1166 28.4854 20.051 28.5946 19.9636 28.7039C19.8544 28.8131 19.7451 28.8568 19.5922 28.8568C19.4392 28.8568 19.3518 28.7913 19.2207 28.7039Z" fill="#0D022B"/>
<path fill-rule="evenodd" clip-rule="evenodd" d="M17.7568 30.1677C17.6476 30.0803 17.6039 29.9492 17.6039 29.7963C17.6039 29.6433 17.6694 29.5341 17.7568 29.4248C17.9535 29.2282 18.3031 29.2282 18.4997 29.4248C18.5871 29.5341 18.6527 29.6433 18.6527 29.7963C18.6527 29.9492 18.5871 30.0803 18.4997 30.1677C18.3905 30.277 18.2812 30.3207 18.1283 30.3207C17.9972 30.3207 17.8442 30.277 17.7568 30.1677Z" fill="#0D022B"/>
<path fill-rule="evenodd" clip-rule="evenodd" d="M16.2492 31.6319C16.14 31.5445 16.0744 31.4134 16.0744 31.2604C16.0744 31.1074 16.14 30.9982 16.2492 30.8889C16.4677 30.6923 16.8173 30.6923 17.014 30.8889C17.1232 30.9982 17.1888 31.1074 17.1888 31.2604C17.1888 31.4134 17.1232 31.5445 17.014 31.6319C16.9047 31.7193 16.7518 31.7848 16.6207 31.7848C16.4677 31.7848 16.3366 31.7411 16.2492 31.6319Z" fill="#0D022B"/>
<path fill-rule="evenodd" clip-rule="evenodd" d="M14.8071 33.0957C14.6978 32.9865 14.6541 32.8772 14.6541 32.7243C14.6541 32.5713 14.7197 32.4621 14.8071 32.3528C15.0037 32.1562 15.3533 32.1562 15.55 32.3528C15.6592 32.4621 15.7029 32.5713 15.7029 32.7243C15.7029 32.8772 15.6374 32.9865 15.55 33.0957C15.4626 33.1831 15.3315 33.2487 15.1785 33.2487C15.0693 33.2705 14.9382 33.205 14.8071 33.0957Z" fill="#0D022B"/>
<path fill-rule="evenodd" clip-rule="evenodd" d="M15.55 15.5501C15.6374 15.4408 15.7029 15.3316 15.7029 15.1786C15.7029 15.0257 15.6374 14.9164 15.55 14.8072C15.3533 14.6105 15.0037 14.6105 14.8071 14.8072C14.6978 14.9164 14.6541 15.0257 14.6541 15.1786C14.6541 15.3316 14.7197 15.4408 14.8071 15.5501C14.8945 15.6375 15.0256 15.703 15.1785 15.703C15.3315 15.7249 15.4626 15.6812 15.55 15.5501Z" fill="#0D022B"/>
<path fill-rule="evenodd" clip-rule="evenodd" d="M17.0139 17.0576C17.1232 16.9484 17.1887 16.8391 17.1887 16.6862C17.1887 16.5332 17.1232 16.424 17.0139 16.3147C16.7954 16.1181 16.4458 16.1181 16.2054 16.3147C16.0962 16.424 16.0306 16.5332 16.0306 16.6862C16.0306 16.8391 16.0962 16.9484 16.2054 17.0576C16.3147 17.145 16.4676 17.2106 16.5987 17.2106C16.7517 17.1887 16.9046 17.145 17.0139 17.0576Z" fill="#0D022B"/>
<path fill-rule="evenodd" clip-rule="evenodd" d="M18.4997 18.4998C18.5871 18.4124 18.6527 18.2813 18.6527 18.1283C18.6527 17.9754 18.5871 17.8661 18.4997 17.7569C18.3031 17.5602 17.9535 17.5602 17.7568 17.7569C17.6694 17.8443 17.6039 17.9754 17.6039 18.1283C17.6039 18.2813 17.6694 18.3905 17.7568 18.4998C17.8661 18.609 17.9753 18.6527 18.1283 18.6527C18.2594 18.6527 18.3905 18.5872 18.4997 18.4998Z" fill="#0D022B"/>
<path fill-rule="evenodd" clip-rule="evenodd" d="M19.9636 19.9636C20.051 19.8762 20.1166 19.7451 20.1166 19.5922C20.1166 19.4392 20.051 19.33 19.9636 19.2207C19.767 19.0241 19.4174 19.0241 19.2207 19.2207C19.1333 19.3081 19.0677 19.4392 19.0677 19.5922C19.0677 19.7451 19.1333 19.8762 19.2207 19.9636C19.33 20.0729 19.4392 20.1166 19.5922 20.1166C19.7233 20.1166 19.8544 20.0947 19.9636 19.9636Z" fill="#0D022B"/>
<path fill-rule="evenodd" clip-rule="evenodd" d="M21.4057 21.4278C21.515 21.3404 21.5805 21.2092 21.5805 21.0563C21.5805 20.9033 21.515 20.7941 21.4057 20.6848C21.2091 20.4882 20.8376 20.4882 20.641 20.6848C20.5317 20.7722 20.4662 20.9033 20.4662 21.0563C20.4662 21.2092 20.5317 21.3404 20.641 21.4278C20.7502 21.537 20.9032 21.5807 21.0343 21.5807C21.1654 21.6026 21.3183 21.5589 21.4057 21.4278Z" fill="#0D022B"/>
<path fill-rule="evenodd" clip-rule="evenodd" d="M23.0445 22.5202C23.0445 22.3672 22.979 22.258 22.8916 22.1487C22.6949 21.9521 22.3453 21.9521 22.1487 22.1487C22.0394 22.258 21.9957 22.3672 21.9957 22.5202C21.9957 22.6731 22.0613 22.7824 22.1487 22.8916C22.2361 22.979 22.3672 23.0446 22.5201 23.0446C22.6731 23.0446 22.7823 22.979 22.8916 22.8916C23.0008 22.8042 23.0445 22.6731 23.0445 22.5202Z" fill="#0D022B"/>
<path fill-rule="evenodd" clip-rule="evenodd" d="M24.3556 24.3775C24.4649 24.2682 24.5086 24.159 24.5086 24.006C24.5086 23.8531 24.443 23.7438 24.3556 23.6345C24.159 23.4379 23.8094 23.4379 23.6127 23.6345C23.5035 23.7438 23.4598 23.8531 23.4598 24.006C23.4598 24.159 23.5253 24.2682 23.6127 24.3775C23.7001 24.4649 23.8312 24.5304 23.9842 24.5304C24.1371 24.5304 24.2682 24.4649 24.3556 24.3775Z" fill="#0D022B"/>
<path fill-rule="evenodd" clip-rule="evenodd" d="M25.8196 25.7539C25.9289 25.6665 25.9944 25.5354 25.9944 25.3825C25.9944 25.2295 25.9289 25.1203 25.8196 25.011C25.6011 24.8144 25.2515 24.8144 25.0549 25.011C24.9456 25.1203 24.8801 25.2295 24.8801 25.3825C24.8801 25.5354 24.9456 25.6447 25.0549 25.7539C25.1641 25.8632 25.3171 25.9069 25.4482 25.9069C25.5574 25.9287 25.7104 25.885 25.8196 25.7539Z" fill="#0D022B"/>
<path fill-rule="evenodd" clip-rule="evenodd" d="M27.3054 27.218C27.3928 27.1306 27.4584 26.9995 27.4584 26.8466C27.4584 26.6936 27.3928 26.5844 27.3054 26.4751C27.1088 26.2785 26.7591 26.2785 26.5625 26.4751C26.4751 26.5844 26.4095 26.6936 26.4095 26.8466C26.4095 26.9995 26.4751 27.1088 26.5625 27.218C26.6717 27.3273 26.781 27.371 26.934 27.371C27.0432 27.3928 27.1962 27.3273 27.3054 27.218Z" fill="#0D022B"/>
<path fill-rule="evenodd" clip-rule="evenodd" d="M28.7693 28.7039C28.8567 28.6165 28.9222 28.4854 28.9222 28.3324C28.9222 28.1795 28.8567 28.0484 28.7693 27.961C28.5726 27.7643 28.223 27.7643 28.0264 27.961C27.939 28.0484 27.8734 28.1795 27.8734 28.3324C27.8734 28.4854 27.939 28.5946 28.0264 28.7039C28.1356 28.8131 28.2449 28.8568 28.3978 28.8568C28.5508 28.8568 28.66 28.7913 28.7693 28.7039Z" fill="#0D022B"/>
<path fill-rule="evenodd" clip-rule="evenodd" d="M30.1459 30.1677C30.2551 30.0803 30.2988 29.9492 30.2988 29.7963C30.2988 29.6433 30.2333 29.5341 30.1459 29.4248C29.9492 29.2282 29.5996 29.2282 29.403 29.4248C29.3156 29.5341 29.25 29.6433 29.25 29.7963C29.25 29.9492 29.3156 30.0803 29.403 30.1677C29.5122 30.277 29.6215 30.3207 29.7744 30.3207C29.9055 30.3207 30.0585 30.277 30.1459 30.1677Z" fill="#0D022B"/>
<path fill-rule="evenodd" clip-rule="evenodd" d="M31.6973 31.6319C31.8065 31.5445 31.8502 31.4134 31.8502 31.2604C31.8502 31.1074 31.7847 30.9982 31.6973 30.8889C31.5006 30.6923 31.151 30.6923 30.9543 30.8889C30.8451 30.9982 30.8014 31.1074 30.8014 31.2604C30.8014 31.4134 30.8669 31.5445 30.9543 31.6319C31.0417 31.7193 31.1728 31.7848 31.3258 31.7848C31.4787 31.7848 31.6099 31.7411 31.6973 31.6319Z" fill="#0D022B"/>
<path fill-rule="evenodd" clip-rule="evenodd" d="M33.1612 33.0957C33.2705 32.9865 33.336 32.8772 33.336 32.7243C33.336 32.5713 33.2705 32.4621 33.1612 32.3528C32.9427 32.1562 32.5931 32.1562 32.3965 32.3528C32.2872 32.4621 32.2217 32.5713 32.2217 32.7243C32.2217 32.8772 32.2872 32.9865 32.3965 33.0957C32.5057 33.1831 32.6587 33.2487 32.7898 33.2487C32.899 33.2705 33.0301 33.205 33.1612 33.0957Z" fill="#0D022B"/>
<path fill-rule="evenodd" clip-rule="evenodd" d="M19.0242 15.9651C20.51 14.9819 22.1488 14.523 23.9623 14.5012C25.7322 14.5012 27.371 14.9819 28.9005 15.9651L32.0469 12.8187C29.5779 10.9396 26.9121 10 23.9623 10C21.0126 10 18.3031 10.9396 15.8996 12.8187L19.0242 15.9651Z" fill="#0D022B"/>
<path fill-rule="evenodd" clip-rule="evenodd" d="M15.8777 28.8786C14.8726 27.3491 14.3919 25.7322 14.3919 23.9841C14.3919 22.2143 14.8726 20.5755 15.8777 19.0897L12.7531 15.9651C10.9177 18.3686 10 21.0343 10 24.006C10 26.9339 10.9177 29.6215 12.775 32.0687L15.8777 28.8786Z" fill="#0D022B"/>
<path fill-rule="evenodd" clip-rule="evenodd" d="M28.8787 32.0032C27.3928 33.0083 25.7541 33.5327 23.9842 33.5545C22.1706 33.5545 20.51 33.0738 19.0242 32.025L15.8777 35.1496C18.3031 37.0506 21.0126 37.9901 23.9842 37.9683C26.934 37.9464 29.5997 36.985 32.0032 35.1496L28.8787 32.0032Z" fill="#0D022B"/>
<path fill-rule="evenodd" clip-rule="evenodd" d="M31.9596 19.0461C32.9647 20.5756 33.4891 22.2362 33.4454 24.028C33.4236 25.776 32.921 27.371 31.9596 28.835L35.106 31.9596C36.9633 29.5561 37.9247 26.8903 37.9247 23.9624C37.9466 20.9908 37.007 18.2813 35.106 15.856L31.9596 19.0461Z" fill="#0D022B"/>
<path fill-rule="evenodd" clip-rule="evenodd" d="M35.237 32.9866C36.4387 32.9866 37.4438 33.9698 37.4438 35.1934C37.4438 36.3952 36.4606 37.4003 35.237 37.4003C34.0352 37.4003 33.0301 36.4171 33.0301 35.1934C33.0301 33.9698 34.0134 32.9866 35.237 32.9866Z" fill="#0D022B"/>
<path fill-rule="evenodd" clip-rule="evenodd" d="M12.7313 32.9866C13.9331 32.9866 14.9163 33.9698 14.9163 35.1934C14.9163 36.3952 13.9331 37.4003 12.7313 37.4003C11.5295 37.4003 10.5463 36.4171 10.5463 35.1934C10.5463 33.9698 11.5295 32.9866 12.7313 32.9866Z" fill="#0D022B"/>
<path fill-rule="evenodd" clip-rule="evenodd" d="M35.2807 10.4807C36.4825 10.4807 37.4658 11.464 37.4658 12.6876C37.4658 13.9112 36.4825 14.8945 35.2807 14.8945C34.079 14.8945 33.0957 13.9112 33.0957 12.6876C33.0957 11.464 34.079 10.4807 35.2807 10.4807Z" fill="#0D022B"/>
<path fill-rule="evenodd" clip-rule="evenodd" d="M12.6875 10.4807C13.8893 10.4807 14.8944 11.464 14.8944 12.6657C14.8944 13.8675 13.9111 14.8508 12.6875 14.8508C11.4858 14.8508 10.4807 13.8675 10.4807 12.6657C10.4807 11.464 11.4639 10.4807 12.6875 10.4807Z" fill="#0D022B"/>
</g>
<defs>
<clipPath id="clip0_110_462">
<rect width="48" height="48" fill="white"/>
</clipPath>
</defs>
</svg>
