<svg width="48" height="48" viewBox="0 0 48 48" fill="none" xmlns="http://www.w3.org/2000/svg">
<g clip-path="url(#clip0_110_2094)">
<circle cx="24" cy="24" r="24" fill="#EDF0F4"/>
<path fill-rule="evenodd" clip-rule="evenodd" d="M15.2 22.5067L24.0538 17.8458L32.8351 22.5357L24.0152 9.6001L15.2 22.5067ZM15.5375 23.8528L24.0632 19.3034L32.4778 23.8195L24.068 28.3739L15.5375 23.8528ZM15.1998 25.1557C18.307 26.8058 21.5494 28.5331 24.0536 29.8696L32.8349 25.1557C29.6553 29.8792 27.0061 33.8116 24.0536 38.1637L22.3468 35.6581L22.3467 35.6579C19.8817 32.0395 17.3315 28.2961 15.1998 25.1557Z" fill="#3AB83A"/>
<path fill-rule="evenodd" clip-rule="evenodd" d="M24.015 9.6001L24.0536 17.8462L32.835 22.5357L24.015 9.6001ZM24.0634 19.3034L32.478 23.8195L24.0682 28.3739L24.0634 19.3034ZM24.0538 29.8696L32.8351 25.1557C29.6555 29.8792 24.0538 38.1637 24.0538 38.1637V29.8696Z" fill="#0B8311"/>
<path d="M15.5375 23.8529L24.0636 24.5526L32.4783 23.824L24.068 28.3787L15.5375 23.8529Z" fill="#0B8311"/>
<path d="M24.0631 24.5526L32.4778 23.824L24.0679 28.3787L24.0631 24.5526Z" fill="#146714"/>
</g>
<defs>
<clipPath id="clip0_110_2094">
<rect width="48" height="48" fill="white"/>
</clipPath>
</defs>
</svg>
