<svg width="48" height="48" viewBox="0 0 48 48" fill="none" xmlns="http://www.w3.org/2000/svg">
<path fill-rule="evenodd" clip-rule="evenodd" d="M24 48C10.8 48 0 37.2002 0 23.8805C0.12 10.6808 10.8 -0.119007 24.12 0.000990408C37.32 0.120988 48 10.8008 48 24.2405C47.88 37.3202 37.2 48 24 48" fill="#0090FF"/>
<path fill-rule="evenodd" clip-rule="evenodd" d="M26.0821 21.186L25.3682 25.031L32.1498 25.9922L31.6739 27.7945L25.0113 26.8333C24.5354 28.3953 24.2975 30.0775 23.7026 31.5194C23.1077 33.2016 22.5128 34.8837 21.799 36.4458C20.8472 38.4884 19.1816 39.9303 16.921 40.2908C15.6123 40.5311 14.1846 40.4109 13.1139 39.5698C12.7569 39.3295 12.4 38.8489 12.4 38.4884C12.4 38.0078 12.638 37.407 12.9949 37.1667C13.2328 37.0466 13.8277 37.1667 14.1846 37.2869C14.5416 37.6473 14.8985 38.128 15.1364 38.6086C15.8503 39.5698 16.8021 39.69 17.7539 38.969C18.8246 38.0078 19.4195 36.6861 19.7764 35.3644C20.4903 32.4806 21.2041 29.717 21.799 26.8333V26.3527L15.4934 25.3914L15.7313 23.5891L22.2749 24.5503L23.1077 20.8255L16.3262 19.7441L16.5641 17.8216L23.5836 18.7829C23.8216 18.0619 23.9405 17.4611 24.1785 16.8604C24.7734 14.6975 25.3682 12.5347 26.7959 10.6122C28.2236 8.68975 29.8893 7.48819 32.3877 7.60835C33.4585 7.60835 34.5293 7.96882 35.2431 8.80991C35.3621 8.93006 35.6 9.17037 35.6 9.41069C35.6 9.89131 35.6 10.4921 35.2431 10.8526C34.7672 11.213 34.1723 11.0929 33.6964 10.6122C33.3395 10.2518 33.1016 9.89131 32.7446 9.53084C32.0308 8.56959 30.96 8.44944 30.1272 9.29053C29.5323 9.89131 28.9375 10.7324 28.5805 11.5735C27.7477 14.0968 27.1528 16.7402 26.32 19.3836L32.8636 20.3449L32.3877 22.1472L26.0821 21.186" fill="white"/>
</svg>
