<svg width="48" height="48" viewBox="0 0 48 48" fill="none" xmlns="http://www.w3.org/2000/svg">
<circle cx="24" cy="24" r="24" fill="#00EF8B"/>
<rect x="27.744" y="20.2561" width="6.768" height="6.768" fill="white"/>
<path d="M20.976 29.5681C20.976 30.9601 19.824 32.1121 18.432 32.1121C17.04 32.1121 15.888 30.9601 15.888 29.5681C15.888 28.1761 17.04 27.0241 18.432 27.0241V27.0241H20.976V20.2561H18.432C13.296 20.2561 9.12 24.4321 9.12 29.5681C9.12 34.7041 13.296 38.8801 18.432 38.8801C23.568 38.8801 27.744 34.7041 27.744 29.5681V29.5681V27.0241H20.976V29.5681Z" fill="white"/>
<path d="M30.288 16.8481H37.92V10.0801H30.288C25.152 10.0801 20.976 14.2561 20.976 19.3921V20.2561H27.744V19.3921C27.744 18.0001 28.896 16.8481 30.288 16.8481Z" fill="white"/>
<path d="M27.744 20.2561V20.2561H20.976V27.0241H27.744V20.2561Z" fill="#16FF99"/>
</svg>
