<svg width="48" height="48" viewBox="0 0 48 48" fill="none" xmlns="http://www.w3.org/2000/svg">
<path d="M47.9942 24.001C47.9942 37.2533 37.2495 47.9981 23.9914 48C10.7428 48 -0.00191905 37.2533 1.02903e-06 23.999C-0.00383912 10.7447 10.7409 0 23.9952 0C37.2495 0 47.9942 10.7467 47.9942 24.001V24.001Z" fill="#02A6C2"/>
<path d="M18.6679 13.2013C24.645 13.1995 30.6224 13.1995 36.6001 13.2013C36.602 15.1333 36.602 17.065 36.6001 18.9963C30.6229 18.9982 24.6455 18.9982 18.6679 18.9963C18.666 17.0643 18.666 15.1327 18.6679 13.2013Z" fill="white"/>
<path d="M11.6075 21.1764C13.5358 21.1664 15.4645 21.1664 17.3935 21.1764C17.4035 23.1048 17.4035 25.0335 17.3935 26.9625C15.4646 26.9724 13.5359 26.9725 11.6075 26.963C11.5975 25.0343 11.5975 23.1054 11.6075 21.1764Z" fill="white"/>
<path d="M18.6724 21.1766C22.9865 21.1674 27.3003 21.1674 31.6139 21.1766C31.623 23.1049 31.623 25.0336 31.6139 26.9626C27.2998 26.9716 22.986 26.9716 18.6724 26.9626C18.6634 25.0341 18.6634 23.1055 18.6724 21.1766Z" fill="white"/>
<path d="M18.6778 29.1536C20.6029 29.1327 22.5276 29.1327 24.452 29.1536C24.472 31.0775 24.4723 33.0022 24.4529 34.9279C22.5278 34.9469 20.6031 34.9466 18.6788 34.9269C18.6588 33.0032 18.6584 31.0788 18.6778 29.1536Z" fill="white"/>
</svg>
