<svg width="32" height="33" viewBox="0 0 32 33" fill="none" xmlns="http://www.w3.org/2000/svg">
<path d="M30.8904 21.5487H28.6337V21.457H28.3933V21.5487H26.1366V21.457H25.8869V21.5487H23.6303V21.457H23.3805V21.5487H21.1239V21.457H20.8742V21.5487H18.6175V21.457H18.3678V21.5487H16.1112V21.457H15.8615V21.5487H13.6048V21.457H13.3551V21.5487H11.0985V21.457H10.8487V21.5487H8.5921V21.457H8.34239V21.5487H6.08574V21.457H5.83603V21.5487H3.60713V21.457H3.35742V21.5487H1.11002V21.457H0.925049C0.989789 21.6313 1.05453 21.8147 1.12852 21.989H1.8684V22.1632H1.20251C1.24875 22.2733 1.29499 22.3742 1.34123 22.4842H2.15511V21.9523H2.33083V22.9795H2.65453V21.9523H2.83025V22.9795H3.15395V21.9523H3.32967V23.1538H2.14586V22.6585H1.41522C1.46147 22.7686 1.51696 22.8694 1.5632 22.9795H1.85915V23.1538H1.64644C4.26378 28.3999 9.70193 32.0043 16.0002 32.0043C22.2985 32.0043 27.7366 28.3999 30.354 23.1538H29.6788V22.6585H28.8557V23.1904H28.6707V22.4842H29.8545V22.9795H30.4372C30.4927 22.8694 30.5389 22.7686 30.5852 22.6585H30.1412V22.4842H30.6684C30.7146 22.3742 30.7609 22.2733 30.8071 22.1632H28.643V21.989H30.8811C30.9551 21.8147 31.0198 21.6313 31.0846 21.457H30.8996V21.5487H30.8904ZM3.60713 21.989H6.86262V22.1632H3.60713V21.989ZM4.36551 23.1538H4.1158V22.9795H4.36551V23.1538ZM5.82678 23.1538H4.64297V22.6585H3.81985V23.1904H3.64412V22.4842H4.82794V22.9795H5.65106V22.6585H5.11464V22.4842H5.82678V23.1538ZM8.33314 23.1538H7.14933V22.6585H6.3262V22.9795H6.86262V23.1538H6.15048V22.4842H7.14933V21.9523H7.32505V22.9795H7.64875V21.9523H7.82447V22.9795H8.14817V21.9523H8.32389V23.1538H8.33314ZM8.61985 21.989H11.8753V22.1632H8.61985V21.989ZM9.36898 23.1538H9.11927V22.9795H9.36898V23.1538ZM10.8303 23.1538H9.64644V22.6585H8.82331V23.1904H8.64759V22.4842H9.83141V22.9795H10.6545V22.6585H10.1181V22.4842H10.8303V23.1538ZM13.3366 23.1538H12.1528V22.6585H11.3297V22.9795H11.8661V23.1538H11.154V22.4842H12.1528V21.9523H12.3285V22.9795H12.6522V21.9523H12.8279V22.9795H13.1516V21.9523H13.3274V23.1538H13.3366ZM14.3724 23.1538H14.1227V22.9795H14.3724V23.1538ZM15.843 23.1538H14.6592V22.6585H13.836V23.1904H13.6603V22.4842H14.8441V22.9795H15.6672V22.6585H15.1308V22.4842H15.843V23.1538ZM13.6233 22.1632V21.989H16.8788V22.1632H13.6233ZM18.3401 23.1538H17.1563V22.6585H16.3331V22.9795H16.8696V23.1538H16.1574V22.4842H17.1563V21.9523H17.332V22.9795H17.6557V21.9523H17.8314V22.9795H18.1551V21.9523H18.3308V23.1538H18.3401ZM18.6268 21.989H21.8823V22.1632H18.6268V21.989ZM19.3759 23.1538H19.1262V22.9795H19.3759V23.1538ZM20.8464 23.1538H19.6626V22.6585H18.8395V23.1904H18.6638V22.4842H19.8476V22.9795H20.6707V22.6585H20.1343V22.4842H20.8464V23.1538ZM23.3435 23.1538H22.1597V22.6585H21.3366V22.9795H21.873V23.1538H21.1609V22.4842H22.1597V21.9523H22.3355V22.9795H22.6592V21.9523H22.8349V22.9795H23.1586V21.9523H23.3343V23.1538H23.3435ZM23.6303 21.989H26.8857V22.1632H23.6303V21.989ZM24.3886 23.1538H24.1389V22.9795H24.3886V23.1538ZM25.8499 23.1538H24.6661V22.6585H23.843V23.1904H23.6672V22.4842H24.8511V22.9795H25.6742V22.6585H25.1378V22.4842H25.8499V23.1538ZM28.3563 23.1538H27.1724V22.6585H26.3493V22.9795H26.8857V23.1538H26.1736V22.4842H27.1724V21.9523H27.3482V22.9795H27.6719V21.9523H27.8476V22.9795H28.1713V21.9523H28.347V23.1538H28.3563ZM29.1424 22.9795H29.3921V23.1538H29.1424V22.9795Z" fill="#DA0000"/>
<path d="M30.8902 10.9081H28.6335V10.8164H28.3931V10.9081H26.1364V10.8164H25.8867V10.9081H23.6301V10.8164H23.3803V10.9081H21.1237V10.8164H20.874V10.9081H18.6173V10.8164H18.3676V10.9081H16.111V10.8164H15.8613V10.9081H13.6046V10.8164H13.3549V10.9081H11.0983V10.8164H10.8486V10.9081H8.59191V10.8164H8.3422V10.9081H6.08555V10.8164H5.83584V10.9081H3.60694V10.8164H3.35723V10.9081H1.10983V10.8164H0.924855C0.332948 12.4765 0 14.2649 0 16.1359C0 18.0069 0.323699 19.7953 0.924855 21.4554H1.10983V21.3637H3.36647V21.4554H3.61619V21.3637H5.87283V21.4554H6.12254V21.3637H8.37919V21.4554H8.6289V21.3637H10.8855V21.4554H11.1353V21.3637H13.3919V21.4554H13.6416V21.3637H15.8983V21.4554H16.148V21.3637H18.4046V21.4554H18.6543V21.3637H20.911V21.4554H21.1607V21.3637H23.4173V21.4554H23.6671V21.3637H25.9237V21.4554H26.1734V21.3637H28.3931V21.4554H28.6428V21.3637H30.8902V21.4554H31.0751C31.6671 19.7953 32 18.0069 32 16.1359C32 14.2649 31.6763 12.4765 31.0751 10.8164H30.8902V10.9081ZM14.9827 12.2747C15.0381 12.5682 15.3249 12.7608 15.6208 12.7057C15.778 12.6782 15.9168 12.5773 15.9908 12.4398C16.074 12.5773 16.2035 12.6691 16.3607 12.7057C16.6566 12.7608 16.9434 12.5682 16.9988 12.2747C17.1006 12.5223 17.0173 12.8066 16.7954 12.9625C16.5364 13.146 16.1665 13.0818 15.9908 12.825C15.8058 13.0818 15.4451 13.146 15.1861 12.9625C14.9734 12.8066 14.8902 12.5223 14.9827 12.2747ZM12.3931 14.6134C12.8092 13.898 13.5029 13.3844 14.3075 13.1827C12.5318 14.5034 12.1711 17.0072 13.5121 18.7681C13.5121 18.7681 13.5121 18.7773 13.5214 18.7773C12.0416 17.9335 11.5422 16.0717 12.3931 14.6134ZM16.6289 19.2359C17.1283 19.4193 17.6647 19.5018 18.2012 19.4743C17.5723 19.6761 16.9249 19.7036 16.3144 19.5752L16.3052 19.7036L15.9908 20.1347L15.6763 19.7036L15.6671 19.5752C15.0566 19.7036 14.4092 19.6761 13.7803 19.4743C14.3168 19.5018 14.8532 19.4193 15.3526 19.2359C14.5295 18.814 13.8728 18.0803 13.5676 17.1356C13.1145 15.7415 13.5399 14.2099 14.6682 13.256C13.4474 15.0445 13.8913 17.4566 15.6393 18.7131L15.5191 15.7323V13.3844C15.704 13.2927 15.8705 13.1551 15.9908 12.9901C16.111 13.1551 16.2775 13.2927 16.4624 13.3844V15.7323L16.3422 18.7131C18.0902 17.4566 18.5249 15.0445 17.3133 13.256C18.4324 14.2099 18.8671 15.7415 18.4139 17.1356C18.1087 18.0803 17.452 18.8048 16.6289 19.2359ZM18.4879 18.7773C18.4879 18.7681 18.4879 18.7681 18.4879 18.7773C19.8289 17.0072 19.4682 14.5034 17.6925 13.1827C18.4971 13.3844 19.1908 13.898 19.6069 14.6134C20.4578 16.0717 19.9584 17.9335 18.4879 18.7773Z" fill="white"/>
<path d="M15.9999 0.269531C9.70166 0.269531 4.2635 3.87394 1.64616 9.12006H1.85888V9.29431H1.56293C1.50743 9.40437 1.46119 9.50526 1.41495 9.61532H2.14559V9.08337H2.32131V10.1106H2.64501V9.08337H2.82073V10.1106H3.14443V9.08337H3.32015V10.2848H2.13634V9.78958H1.32246C1.32246 9.79875 1.31322 9.80792 1.31322 9.80792V10.1014H1.84963V10.2757H1.13749V10.2206C1.06351 10.4132 0.989516 10.6058 0.915527 10.8076H1.1005V10.7159H3.35715V10.8076H3.60686V10.7159H5.8635V10.8076H6.11322V10.7159H8.36986V10.8076H8.61958V10.7159H10.8762V10.8076H11.1259V10.7159H13.3826V10.8076H13.6323V10.7159H15.8889V10.8076H16.1386V10.7159H18.3953V10.8076H18.645V10.7159H20.9017V10.8076H21.1514V10.7159H23.408V10.8076H23.6577V10.7159H25.9144V10.8076H26.1641V10.7159H28.393V10.8076H28.6427V10.7159H30.8901V10.8076H31.0751C31.0011 10.615 30.9271 10.4132 30.8531 10.2206V10.2757H29.6693V9.78041H28.8554V10.3124H28.6704V9.60615H29.8543V10.1014H30.6774V9.80792C30.6774 9.79875 30.6681 9.78958 30.6681 9.78958H30.141V9.61532H30.5849C30.5387 9.50526 30.4832 9.40437 30.4369 9.29431H28.6334V9.12006H30.3444C27.7363 3.87394 22.2982 0.269531 15.9999 0.269531ZM4.36524 10.2848H4.11553V10.1106H4.36524V10.2848ZM5.82651 10.2848H4.6427V9.78958H3.81957V10.3215H3.64385V9.61532H4.82767V10.1106H5.65079V9.78958H5.11437V9.61532H5.82651V10.2848ZM3.60686 9.29431V9.12006H6.86235V9.29431H3.60686ZM8.33287 10.2848H7.14905V9.78958H6.32593V10.1106H6.86235V10.2848H6.15021V9.61532H7.14905V9.08337H7.32478V10.1106H7.64848V9.08337H7.8242V10.1106H8.1479V9.08337H8.32362V10.2848H8.33287ZM9.36871 10.2848H9.119V10.1106H9.36871V10.2848ZM10.83 10.2848H9.64616V9.78958H8.82304V10.3215H8.64732V9.61532H9.83113V10.1106H10.6543V9.78958H10.1178V9.61532H10.83V10.2848ZM8.61958 9.29431V9.12006H11.8751V9.29431H8.61958ZM13.3363 10.2848H12.1525V9.78958H11.3294V10.1106H11.8658V10.2848H11.1537V9.61532H12.1525V9.08337H12.3282V10.1106H12.6519V9.08337H12.8277V10.1106H13.1514V9.08337H13.3271V10.2848H13.3363ZM14.3722 10.2848H14.1225V10.1106H14.3722V10.2848ZM15.8427 10.2848H14.6589V9.78958H13.8358V10.3215H13.66V9.61532H14.8439V10.1106H15.667V9.78958H15.1306V9.61532H15.8427V10.2848ZM13.623 9.29431V9.12006H16.8785V9.29431H13.623ZM18.3398 10.2848H17.156V9.78958H16.3329V10.1106H16.8693V10.2848H16.1571V9.61532H17.156V9.08337H17.3317V10.1106H17.6554V9.08337H17.8311V10.1106H18.1548V9.08337H18.3306V10.2848H18.3398ZM19.3756 10.2848H19.1259V10.1106H19.3756V10.2848ZM20.8462 10.2848H19.6623V9.78958H18.8392V10.3215H18.6635V9.61532H19.8473V10.1106H20.6704V9.78958H20.134V9.61532H20.8462V10.2848ZM18.6265 9.29431V9.12006H21.882V9.29431H18.6265ZM23.3433 10.2848H22.1595V9.78958H21.3363V10.1106H21.8728V10.2848H21.1606V9.61532H22.1595V9.08337H22.3352V10.1106H22.6589V9.08337H22.8346V10.1106H23.1583V9.08337H23.334V10.2848H23.3433ZM29.1421 10.1106H29.3918V10.2848H29.1421V10.1106ZM24.3884 10.2848H24.1386V10.1106H24.3884V10.2848ZM25.8496 10.2848H24.6658V9.78958H23.8427V10.3215H23.667V9.61532H24.8508V10.1106H25.6739V9.78958H25.1375V9.61532H25.8496V10.2848ZM23.63 9.29431V9.12006H26.8855V9.29431H23.63ZM27.6716 10.1106V9.08337H27.8473V10.1106H28.171V9.08337H28.3467V10.2848H27.1629V9.78958H26.3398V10.1106H26.8762V10.2848H26.1733V9.61532H27.1722V9.08337H27.3479V10.1106H27.6716Z" fill="#239F40"/>
<path d="M1.85894 9.12109H1.64623C1.61848 9.17612 1.59073 9.24032 1.56299 9.29535H1.85894V9.12109Z" fill="white"/>
<path d="M1.85911 10.2855V10.1113H1.3227V9.80859C1.25796 9.94617 1.20246 10.0929 1.14697 10.2305V10.2855H1.85911Z" fill="white"/>
<path d="M2.14569 10.2835H3.3295V9.08203H3.14453V10.1092H2.82083V9.08203H2.64511V10.1092H2.32141V9.08203H2.14569V9.61398H1.41505C1.38731 9.66901 1.35956 9.73321 1.34106 9.78824H2.15494V10.2835H2.14569Z" fill="white"/>
<path d="M3.35702 10.91V10.8183V10.7266H1.10962V10.8183V10.91H3.35702Z" fill="white"/>
<path d="M3.35702 21.5467V21.455V21.3633H1.10962V21.455V21.5467H3.35702Z" fill="white"/>
<path d="M1.85903 21.9883H1.11914C1.14689 22.0433 1.16538 22.1075 1.19313 22.1625H1.85903V21.9883Z" fill="white"/>
<path d="M1.85894 22.9805H1.56299C1.59073 23.0355 1.61848 23.0997 1.64623 23.1547H1.85894V22.9805Z" fill="white"/>
<path d="M2.14542 23.1507H3.32923V21.9492H3.14426V22.9764H2.82056V21.9492H2.64484V22.9764H2.32114V21.9492H2.14542V22.4812H1.33154C1.35929 22.5362 1.38703 22.6004 1.40553 22.6554H2.13617V23.1507H2.14542Z" fill="white"/>
<path d="M6.86267 9.12109H3.60718V9.29535H6.86267V9.12109Z" fill="white"/>
<path d="M8.14808 10.1092H7.83363V9.08203H7.64866V10.1092H7.3342V9.08203H7.14923V9.61398H6.15039V10.2835H6.86253V10.1092H6.32611V9.78824H7.14923V10.2835H8.33305V9.08203H8.14808V10.1092Z" fill="white"/>
<path d="M5.11432 9.79145H5.65074V10.1125H4.82761V9.61719H3.6438V10.3234H3.82877V9.79145H4.65189V10.2867H5.82646V9.61719H5.11432V9.79145Z" fill="white"/>
<path d="M4.36519 10.1133H4.11548V10.2875H4.36519V10.1133Z" fill="white"/>
<path d="M5.86382 10.91V10.8183V10.7266H3.60718V10.8183V10.91H5.86382Z" fill="white"/>
<path d="M8.36993 10.91V10.8183V10.7266H6.11328V10.8183V10.91H8.36993Z" fill="white"/>
<path d="M5.86382 21.5467V21.455V21.3633H3.60718V21.455V21.5467H5.86382Z" fill="white"/>
<path d="M8.36993 21.5467V21.455V21.3633H6.11328V21.455V21.5467H8.36993Z" fill="white"/>
<path d="M4.36519 22.9805H4.11548V23.1547H4.36519V22.9805Z" fill="white"/>
<path d="M5.11432 22.6586H5.65074V22.9796H4.82761V22.4844H3.6438V23.1906H3.82877V22.6586H4.65189V23.1539H5.82646V22.4844H5.11432V22.6586Z" fill="white"/>
<path d="M8.14808 22.9764H7.83363V21.9492H7.64866V22.9764H7.3342V21.9492H7.14923V22.4812H6.15039V23.1507H6.86253V22.9764H6.32611V22.6554H7.14923V23.1507H8.33305V21.9492H8.14808V22.9764Z" fill="white"/>
<path d="M6.86267 21.9883H3.60718V22.1625H6.86267V21.9883Z" fill="white"/>
<path d="M10.118 9.79145H10.6544V10.1125H9.8313V9.61719H8.65674V10.3234H8.83246V9.79145H9.65558V10.2867H10.8301V9.61719H10.118V9.79145Z" fill="white"/>
<path d="M13.1607 10.1092H12.837V9.08203H12.6613V10.1092H12.3376V9.08203H12.1527V9.61398H11.1538V10.2835H11.8659V10.1092H11.3295V9.78824H12.1527V10.2835H13.3365V9.08203H13.1607V10.1092Z" fill="white"/>
<path d="M9.36885 10.1133H9.11914V10.2875H9.36885V10.1133Z" fill="white"/>
<path d="M11.8751 9.12109H8.61963V9.29535H11.8751V9.12109Z" fill="white"/>
<path d="M13.3733 10.91V10.8183V10.7266H11.1167V10.8183V10.91H13.3733Z" fill="white"/>
<path d="M10.867 10.91V10.8183V10.7266H8.61963V10.8183V10.91H10.867Z" fill="white"/>
<path d="M13.3733 21.5467V21.455V21.3633H11.1167V21.455V21.5467H13.3733Z" fill="white"/>
<path d="M10.867 21.5467V21.455V21.3633H8.61963V21.455V21.5467H10.867Z" fill="white"/>
<path d="M9.36885 22.9805H9.11914V23.1547H9.36885V22.9805Z" fill="white"/>
<path d="M11.8751 21.9883H8.61963V22.1625H11.8751V21.9883Z" fill="white"/>
<path d="M13.1607 22.9764H12.837V21.9492H12.6613V22.9764H12.3376V21.9492H12.1527V22.4812H11.1538V23.1507H11.8659V22.9764H11.3295V22.6554H12.1527V23.1507H13.3365V21.9492H13.1607V22.9764Z" fill="white"/>
<path d="M10.118 22.6586H10.6544V22.9796H9.8313V22.4844H8.65674V23.1906H8.83246V22.6586H9.65558V23.1539H10.8301V22.4844H10.118V22.6586Z" fill="white"/>
<path d="M16.8785 9.12109H13.623V9.29535H16.8785V9.12109Z" fill="white"/>
<path d="M15.1214 9.79145H15.6578V10.1125H14.8347V9.61719H13.6602V10.3234H13.8359V9.79145H14.659V10.2867H15.8428V9.61719H15.1214V9.79145Z" fill="white"/>
<path d="M18.1644 10.1092H17.8407V9.08203H17.665V10.1092H17.3413V9.08203H17.1656V9.61398H16.1575V10.2835H16.8789V10.1092H16.3424V9.78824H17.1656V10.2835H18.3401V9.08203H18.1644V10.1092Z" fill="white"/>
<path d="M14.3723 10.1133H14.1226V10.2875H14.3723V10.1133Z" fill="white"/>
<path d="M18.3768 10.91V10.8183V10.7266H16.1294V10.8183V10.91H18.3768Z" fill="white"/>
<path d="M15.8704 10.91V10.8183V10.7266H13.623V10.8183V10.91H15.8704Z" fill="white"/>
<path d="M18.3768 21.5467V21.455V21.3633H16.1294V21.455V21.5467H18.3768Z" fill="white"/>
<path d="M15.8704 21.5467V21.455V21.3633H13.623V21.455V21.5467H15.8704Z" fill="white"/>
<path d="M14.3723 22.9805H14.1226V23.1547H14.3723V22.9805Z" fill="white"/>
<path d="M15.1214 22.6586H15.6578V22.9796H14.8347V22.4844H13.6602V23.1906H13.8359V22.6586H14.659V23.1539H15.8428V22.4844H15.1214V22.6586Z" fill="white"/>
<path d="M18.1644 22.9764H17.8407V21.9492H17.665V22.9764H17.3413V21.9492H17.1656V22.4812H16.1575V23.1507H16.8789V22.9764H16.3424V22.6554H17.1656V23.1507H18.3401V21.9492H18.1644V22.9764Z" fill="white"/>
<path d="M16.8785 21.9883H13.623V22.1625H16.8785V21.9883Z" fill="white"/>
<path d="M19.3759 10.1133H19.1262V10.2875H19.3759V10.1133Z" fill="white"/>
<path d="M23.1676 10.1092H22.8439V9.08203H22.6682V10.1092H22.3445V9.08203H22.1688V9.61398H21.1699V10.2835H21.8821V10.1092H21.3456V9.78824H22.1688V10.2835H23.3433V9.08203H23.1676V10.1092Z" fill="white"/>
<path d="M20.1341 9.79145H20.6705V10.1125H19.8474V9.61719H18.6636V10.3234H18.8393V9.79145H19.6624V10.2867H20.8462V9.61719H20.1341V9.79145Z" fill="white"/>
<path d="M21.882 9.12109H18.6265V9.29535H21.882V9.12109Z" fill="white"/>
<path d="M23.3802 10.91V10.8183V10.7266H21.1328V10.8183V10.91H23.3802Z" fill="white"/>
<path d="M20.8831 10.91V10.8183V10.7266H18.6265V10.8183V10.91H20.8831Z" fill="white"/>
<path d="M23.3802 21.5467V21.455V21.3633H21.1328V21.455V21.5467H23.3802Z" fill="white"/>
<path d="M20.8831 21.5467V21.455V21.3633H18.6265V21.455V21.5467H20.8831Z" fill="white"/>
<path d="M20.1341 22.6586H20.6705V22.9796H19.8474V22.4844H18.6636V23.1906H18.8393V22.6586H19.6624V23.1539H20.8462V22.4844H20.1341V22.6586Z" fill="white"/>
<path d="M23.1676 22.9764H22.8439V21.9492H22.6682V22.9764H22.3445V21.9492H22.1688V22.4812H21.1699V23.1507H21.8821V22.9764H21.3456V22.6554H22.1688V23.1507H23.3433V21.9492H23.1676V22.9764Z" fill="white"/>
<path d="M19.3759 22.9805H19.1262V23.1547H19.3759V22.9805Z" fill="white"/>
<path d="M21.882 21.9883H18.6265V22.1625H21.882V21.9883Z" fill="white"/>
<path d="M26.8856 9.12109H23.6301V9.29535H26.8856V9.12109Z" fill="white"/>
<path d="M25.1378 9.79145H25.6742V10.1125H24.8511V9.61719H23.6672V10.3234H23.8522V9.79145H24.6661V10.2867H25.8499V9.61719H25.1378V9.79145Z" fill="white"/>
<path d="M27.1722 9.08203V9.61398H26.1733V10.2835H26.8855V10.1092H26.3491V9.78824H27.1722V10.2835H28.356V9.08203H28.171V10.1092H27.8566V9.08203H27.6716V10.1092H27.3479V9.08203H27.1722Z" fill="white"/>
<path d="M24.3791 10.1133H24.1294V10.2875H24.3791V10.1133Z" fill="white"/>
<path d="M28.3931 10.91V10.8183V10.7266H26.1365V10.8183V10.91H28.3931Z" fill="white"/>
<path d="M25.8868 10.91V10.8183V10.7266H23.6301V10.8183V10.91H25.8868Z" fill="white"/>
<path d="M25.8868 21.5467V21.455V21.3633H23.6301V21.455V21.5467H25.8868Z" fill="white"/>
<path d="M28.3931 21.5467V21.455V21.3633H26.1365V21.455V21.5467H28.3931Z" fill="white"/>
<path d="M24.3791 22.9805H24.1294V23.1547H24.3791V22.9805Z" fill="white"/>
<path d="M28.171 22.9764H27.8566V21.9492H27.6716V22.9764H27.3479V21.9492H27.1722V22.4812H26.1733V23.1507H26.8855V22.9764H26.3491V22.6554H27.1722V23.1507H28.356V21.9492H28.171V22.9764Z" fill="white"/>
<path d="M26.8856 21.9883H23.6301V22.1625H26.8856V21.9883Z" fill="white"/>
<path d="M25.1378 22.6586H25.6742V22.9796H24.8511V22.4844H23.6672V23.1906H23.8522V22.6586H24.6661V23.1539H25.8499V22.4844H25.1378V22.6586Z" fill="white"/>
<path d="M30.1411 9.79145H30.6683C30.6405 9.73642 30.6128 9.67222 30.5943 9.61719H30.1504V9.79145H30.1411Z" fill="white"/>
<path d="M29.8545 10.1125V9.61719H28.6707V10.3234H28.8464V9.79145H29.6695V10.2867H30.8533V10.2317C30.7978 10.0849 30.7331 9.94736 30.6776 9.80979V10.1033H29.8545V10.1125Z" fill="white"/>
<path d="M28.6431 9.29535H30.4465C30.4188 9.24032 30.391 9.17612 30.3633 9.12109H28.6523V9.29535H28.6431Z" fill="white"/>
<path d="M29.392 10.1133H29.1423V10.2875H29.392V10.1133Z" fill="white"/>
<path d="M30.8905 10.91V10.8183V10.7266H28.6431V10.8183V10.91H30.8905Z" fill="white"/>
<path d="M30.8905 21.5467V21.455V21.3633H28.6431V21.455V21.5467H30.8905Z" fill="white"/>
<path d="M29.392 22.9805H29.1423V23.1547H29.392V22.9805Z" fill="white"/>
<path d="M30.1408 22.6586H30.5848C30.6125 22.6036 30.6403 22.5394 30.6588 22.4844H30.1316V22.6586H30.1408Z" fill="white"/>
<path d="M28.6431 22.1625H30.8072C30.835 22.1075 30.8535 22.0433 30.8812 21.9883H28.6431V22.1625Z" fill="white"/>
<path d="M29.8545 22.4844H28.6707V23.1906H28.8464V22.6586H29.6695V23.1539H30.3446C30.3724 23.0989 30.4001 23.0347 30.4279 22.9796H29.8452V22.4844H29.8545Z" fill="white"/>
<path d="M15.3711 19.2344C14.8717 19.4178 14.3352 19.5003 13.7988 19.4728C14.4277 19.6746 15.0751 19.7021 15.6855 19.5737L15.6763 19.3719C15.5745 19.3353 15.4728 19.2802 15.3711 19.2344Z" fill="#DA0000"/>
<path d="M17.3224 13.2578C18.5432 15.0463 18.0992 17.4584 16.3513 18.7149L16.3328 19.1184C16.4252 19.1643 16.527 19.201 16.6287 19.2376C17.4518 18.8158 18.1085 18.082 18.4137 17.1374C18.8761 15.7433 18.4414 14.2117 17.3224 13.2578Z" fill="#DA0000"/>
<path d="M17.6926 13.1836C19.4683 14.5043 19.829 17.0081 18.488 18.7691C18.488 18.7691 18.488 18.7782 18.4788 18.7782C19.9493 17.9344 20.4487 16.0726 19.5978 14.6144C19.1909 13.899 18.5065 13.3854 17.6926 13.1836Z" fill="#DA0000"/>
<path d="M16.0555 18.9695C16.148 19.0153 16.2405 19.0704 16.3329 19.107L16.3514 18.7035L16.4717 15.7228V13.3748C16.2867 13.2831 16.1202 13.1456 16 12.9805L16.2035 16.1171L16.0555 18.9695Z" fill="#DA0000"/>
<path d="M16 20.125L16.3145 19.694L16.3237 19.5656C16.2312 19.5472 16.1295 19.5197 16.037 19.4922L16 20.125Z" fill="#DA0000"/>
<path d="M16 12.8159C16.185 13.0727 16.5457 13.1369 16.8046 12.9535C17.0266 12.7976 17.1098 12.5133 17.0081 12.2656C16.9526 12.5591 16.6659 12.7517 16.3699 12.6967C16.2127 12.6692 16.074 12.5683 16 12.4307L16.0832 12.7242L16 12.8159Z" fill="#DA0000"/>
<path d="M15.6488 18.7149C13.9009 17.4584 13.4662 15.0463 14.6777 13.2578C13.5587 14.2117 13.124 15.7433 13.5772 17.1374C13.8824 18.082 14.5483 18.8066 15.3621 19.2376C15.4639 19.2927 15.5656 19.3385 15.6673 19.3752L15.6488 18.7149Z" fill="#DA0000"/>
<path d="M16.0556 18.9688L16.0278 19.4915C16.1203 19.519 16.2221 19.5466 16.3145 19.5649C16.9249 19.6933 17.5723 19.6658 18.2012 19.464C17.6648 19.4915 17.1284 19.409 16.629 19.2256C16.5273 19.1889 16.4348 19.1522 16.333 19.1063C16.2406 19.0696 16.1481 19.0238 16.0556 18.9688Z" fill="#DA0000"/>
<path d="M14.3073 13.1836C13.5026 13.3854 12.809 13.899 12.3928 14.6144C11.5419 16.0726 12.0506 17.9344 13.5119 18.7782C13.5119 18.7782 13.5119 18.7691 13.5026 18.7691C12.1708 17.0081 12.5315 14.5043 14.3073 13.1836Z" fill="#DA0000"/>
<path d="M16.0555 18.9707L16.1942 16.1367L15.9907 13C15.8705 13.1651 15.704 13.3027 15.519 13.3944V15.7423L15.6393 18.723L15.667 19.3834L15.6763 19.5852L15.6855 19.7136L16 20.1446L16.0277 19.521L16.0555 18.9707Z" fill="#DA0000"/>
<path d="M15.1952 12.9625C15.4541 13.1459 15.8241 13.0817 15.9998 12.8249L16.083 12.7515L15.9998 12.4581C15.9166 12.5956 15.7871 12.6873 15.6299 12.724C15.3339 12.7791 15.0472 12.5865 14.9917 12.293C14.89 12.5223 14.9732 12.8066 15.1952 12.9625Z" fill="#DA0000"/>
</svg>
