<svg id="Layer_1" data-name="Layer 1" xmlns="http://www.w3.org/2000/svg" viewBox="0 0 512 512"><defs><style>.cls-1{fill:#339d59;}.cls-2{fill:#fff;}</style></defs><circle class="cls-1" cx="256" cy="255.9" r="255.9"/><path class="cls-2" d="M316.7,365c10.4-5.1,18.2-11.1,23.3-18a39,39,0,0,0,7.6-24,104.32,104.32,0,0,0-3.3-26.1,61.85,61.85,0,0,0-10-22c-4.5-5.9-9.6-9.1-15.6-9.6-4.2-.3-8.1,1.8-11.9,6.3a35.6,35.6,0,0,0-7.6,15.6c-1.4,5.9-.9,10.6,1.4,14.3,2.9,4.5,9.5,7.3,20,8.3,13.8,1.1,27.7,1.6,41.6,1.4h9.2l1.1,10.2-1.1,10.2c-5.8,0-10.3.1-13.2.2-13.5.1-24.4,0-33-.6a82.72,82.72,0,0,1-23.6-4.9c-7.2-2.7-12.3-7.2-15.3-13.4-3.9-7.8-4.7-17-2.5-27.7a61.3,61.3,0,0,1,13.4-27.7c6.6-7.8,14-11.6,22.1-11.6,8.8,0,16.7,3.9,23.4,11.6s11.9,17.6,15.5,29.2a116.44,116.44,0,0,1,5.4,34.7,62,62,0,0,1-9.6,33.7c-6.4,10-15.5,18.5-27.6,25.5s-26.5,12.1-43.3,15.4l-5.8-17.9C293,374.3,306.2,370,316.7,365Z"/><path class="cls-2" d="M348.1,311.1h9c16,0,27.3-1.5,33.9-4.6s9.9-8.1,9.9-15.2c-.1-4.7-1.7-11.8-4.6-21.2s-5.4-16.3-7.5-20.5L405,241a165.08,165.08,0,0,1,9,24.3c3,10.2,4.5,18.7,4.2,25.9-.1,13.1-5.1,23.2-14.8,29.9s-24.3,10.2-43.8,10.2H348.2Z"/><path class="cls-2" d="M268.3,266.7q-10.65-16.95-29.1-15.9a27.06,27.06,0,0,0-14.7,5.5,56.17,56.17,0,0,0-13,13.2A150,150,0,0,0,200,288.7l-2.5,4.7c-3.4,6.8-7.8,12.1-12.9,15.6a30.45,30.45,0,0,1-15.8,5.3c-6.3-.2-11-1.3-13.9-3.2a14.71,14.71,0,0,1-6.4-10.2c-.9-4.6-1.1-11.6-.9-21.2.3-13.1,0-31.3-.8-54.2s-1.8-38.7-3.1-47.3L125.8,182c1.4,8.7,2.4,23.6,3.2,45,.8,21.2,1,39.5.9,54.8-.3,12.4.8,22.5,3.2,30.1s6.6,13.4,12.7,17.1c4.5,2.7,10.3,4.5,17.5,5.3v.5h9.1v-.3a43,43,0,0,0,30.8-17.6c26.4,16.8,44.9,22.4,55.3,16.8s16.6-15.3,18.2-29.1A58.28,58.28,0,0,0,268.3,266.7Zm-7.7,33.9c-.6,7.8-3.2,12.8-8,15.2-3,1.7-8.7.8-17.1-2.6a144.38,144.38,0,0,1-23.3-12.4c5.4-10,10.3-17.7,15-23.1s9.2-8.3,13.5-8.3c6.3,0,11.3,3.3,15.1,9.9A36.65,36.65,0,0,1,260.6,300.6Z"/><path class="cls-2" d="M94.9,157.1a164,164,0,0,0-8.3,22.5,77.42,77.42,0,0,0-3.4,20.9c-.1,9.7,1.6,17.9,5.4,24.5a37,37,0,0,0,16.6,15.2c7.3,3.4,16.2,5.1,26.8,5.1,12.1,0,22.3-2.2,30.5-6.6s14.2-10,18-16.9a42.53,42.53,0,0,0,5.8-21.5,98.12,98.12,0,0,0-2.7-21.5c-1.8-8.3-4-16.9-6.7-25.7l-3-9,16.7-7.6c4.3,13.8,7.5,25.7,9.7,35.6a133.23,133.23,0,0,1,3.2,28.2A64.16,64.16,0,0,1,170.4,256c-10.7,6.3-23.6,9.5-38.4,9.5-14.5,0-26.8-3-37.1-9a56.89,56.89,0,0,1-22.6-24,66.38,66.38,0,0,1-6.6-32.2,104.23,104.23,0,0,1,4.8-27.1,171.65,171.65,0,0,1,10-25.2l15.3,7.2Zm34.1-25,7.9-7.9,8.1,8.1,7.9,7.9-8.1,8.1-7.9,7.9-8.1-8.1-7.9-7.9Z"/><rect class="cls-2" x="355.8" y="209.4" width="54.7" height="19.5"/></svg>