<svg width="48" height="48" viewBox="0 0 48 48" fill="none" xmlns="http://www.w3.org/2000/svg">
<circle cx="24.2" cy="23.7999" r="21.4" fill="white"/>
<path fill-rule="evenodd" clip-rule="evenodd" d="M0 24C0 10.7452 10.7451 0 23.9999 0H24.1394C30.486 0.0184676 36.5654 2.55741 41.0402 7.05829C45.5149 11.5592 48.0183 17.6533 47.9998 24C47.9998 37.2548 37.2547 48 23.9999 48C10.7451 48 0 37.2548 0 24ZM21.9079 33.2397L24.4067 24.8135L28.3001 23.7094L29.1137 20.9201L25.2783 22.0823L29.3461 8.25178V8.03096C29.3401 7.85214 29.2632 7.68307 29.1324 7.56099C29.0016 7.43891 28.8276 7.37384 28.6488 7.38011H23.4769C23.074 7.36769 22.7145 7.63134 22.6052 8.01933L17.782 24.4067L13.9467 25.569L13.075 28.2421L16.9103 27.0799L13.4818 38.7603H33.9369C34.3411 38.777 34.703 38.5116 34.8086 38.121L35.9708 34.1113V33.8905C35.9647 33.7117 35.8878 33.5426 35.757 33.4206C35.6262 33.2985 35.4523 33.2334 35.2735 33.2397H21.9079Z" fill="#345D9D"/>
</svg>
