<svg width="48" height="48" viewBox="0 0 48 48" fill="none" xmlns="http://www.w3.org/2000/svg">
<circle cx="24" cy="24" r="24" fill="url(#paint0_linear_110_509)"/>
<path d="M17.004 15.6001V33.6001H32.004L17.004 15.6001Z" fill="url(#paint1_linear_110_509)"/>
<path d="M2.00403 33.6001H17.004V15.6001L2.00403 33.6001Z" fill="white"/>
<path d="M4.79999 38.3999C6.16799 40.2119 7.78799 41.8319 9.59999 43.1999H38.4C40.212 41.8319 41.832 40.2119 43.2 38.3999H4.79999Z" fill="#FC9965"/>
<path d="M9.59998 43.2C13.608 46.212 18.6 48 24 48C29.4 48 34.392 46.212 38.4 43.2H9.59998Z" fill="#FF2D55"/>
<path d="M32.196 25.2V38.4H43.2L32.196 25.2Z" fill="url(#paint2_linear_110_509)"/>
<path d="M32.196 33.6001H2.00403C2.74803 35.3161 3.69603 36.9241 4.80003 38.4001H32.208V33.6001H32.196V33.6001Z" fill="#FFBC5B"/>
<path d="M21.204 38.4H32.196V25.2L21.204 38.4Z" fill="white"/>
<circle cx="32.196" cy="15.6001" r="6" fill="#FFC95B"/>
<circle cx="17.004" cy="9" r="3" fill="#FFC95B"/>
<defs>
<linearGradient id="paint0_linear_110_509" x1="24" y1="-9.9408" x2="-9.9408" y2="24" gradientUnits="userSpaceOnUse">
<stop stop-color="#FF2D55"/>
<stop offset="1" stop-color="#FFBC5B"/>
</linearGradient>
<linearGradient id="paint1_linear_110_509" x1="16.9989" y1="15.6001" x2="16.9989" y2="33.6001" gradientUnits="userSpaceOnUse">
<stop stop-color="#A524B3"/>
<stop offset="1" stop-color="#FF2D55"/>
</linearGradient>
<linearGradient id="paint2_linear_110_509" x1="32.1922" y1="25.2" x2="32.1922" y2="38.4" gradientUnits="userSpaceOnUse">
<stop stop-color="#A524B3"/>
<stop offset="1" stop-color="#FF2D55"/>
</linearGradient>
</defs>
</svg>
