<svg width="48" height="48" viewBox="0 0 48 48" fill="none" xmlns="http://www.w3.org/2000/svg">
<path fill-rule="evenodd" clip-rule="evenodd" d="M24 48C10.8 48 0 37.2002 0 23.8805C0.12 10.6808 10.8 -0.119007 24.12 0.000990408C37.32 0.120988 48 10.8008 48 24.2405C47.88 37.3202 37.2 48 24 48" fill="#E42D04"/>
<path fill-rule="evenodd" clip-rule="evenodd" d="M24.4675 41.6003C26.2095 41.6003 30.678 40.815 34.6164 37.6738C39.1451 34.0617 39.5718 32.0472 39.847 30.7483C39.8709 30.6353 39.8937 30.5276 39.9181 30.4248C39.9639 30.2301 39.9908 29.9658 40 29.6517C39.0487 29.4977 37.7154 29.4095 36.1595 29.5942C33.6147 29.8962 31.6152 31.6329 30.9336 32.4636C30.5549 30.5758 28.7069 26.8003 24.3444 26.8003C19.9819 26.8003 17.629 30.5758 16.9978 32.4636C16.5939 31.7587 15.0892 30.1983 12.3021 29.5942C10.5788 29.2207 9.07553 29.4052 8 29.7195C8.08491 31.1233 8.54632 32.6205 9.77436 34.2003C11.8874 36.9187 15.1661 38.5973 16.6289 39.3462C16.7915 39.4294 16.9316 39.5011 17.0452 39.5615C18.1813 40.1656 21.2865 41.6003 24.4675 41.6003Z" fill="white"/>
<path fill-rule="evenodd" clip-rule="evenodd" d="M39.9964 29.5962C39.0457 29.4426 37.7131 29.3547 36.1581 29.5389C33.6148 29.84 31.6165 31.5718 30.9352 32.4C30.5568 30.5177 28.7098 26.753 24.3499 26.753C19.9899 26.753 17.6383 30.5177 17.0076 32.4C16.6039 31.6973 15.1001 30.1412 12.3145 29.5389C10.5922 29.1665 9.08987 29.3505 8.01497 29.664C7.93758 28.3875 8.17308 27.1886 8.4258 26.0753C8.84969 24.208 9.91445 21.7334 10.3938 20.7295C9.96491 19.7004 8.9708 16.784 8.4258 13.3506C7.88081 9.91723 8.80427 7.60319 9.33413 6.87534C10.192 7.10123 12.2408 7.80899 13.573 8.83299C14.9052 9.85699 16.954 12.1208 17.8118 13.1248C18.922 12.8236 21.7782 12.2212 24.3216 12.2212C26.8649 12.2212 29.3173 12.8236 30.2257 13.1248C30.9826 12.2212 32.8447 10.0979 34.2374 8.83299C35.6302 7.56805 37.8959 6.95064 38.8548 6.80005C39.107 7.12632 39.642 8.08005 39.7631 9.28475C39.9145 10.7906 39.4603 13.953 38.8548 16.0612C38.3703 17.7478 37.7445 19.7255 37.4923 20.5036C37.6184 20.7797 38.0524 21.6782 38.7791 23.0636C39.5496 24.5327 40.0477 27.844 39.9964 29.5962Z" fill="#FFAA35"/>
<path d="M27.575 36.297C27.395 36.5378 27.2 36.9995 27.125 37.2002V37.1249L26.9 35.3185C26.4751 35.3687 25.37 35.4691 24.35 35.4691C23.33 35.4691 22.125 35.3687 21.65 35.3185L21.575 37.1249C21.525 37.0497 21.395 36.8389 21.275 36.5981C21.125 36.297 20.6 35.8454 20.6 35.6196C20.6 35.439 20.35 35.0426 20.225 34.8669L20 34.5659H21.35L21.65 34.7917C21.9 34.7665 22.535 34.7465 23.075 34.8669C23.615 34.9874 23.95 34.5157 24.05 34.2648V33.0605C23.825 32.91 23.27 32.5638 22.85 32.3831C22.325 32.1573 21.8 31.2541 21.95 30.3509C22.1 29.4477 22.55 29.1467 22.85 29.2219C23.15 29.2972 25.1 29.1467 25.4 29.2219C25.7 29.2972 26.225 29.4477 26.45 29.8241C26.675 30.2004 26.525 31.7057 26.075 32.2326C25.715 32.6541 25.025 32.9601 24.725 33.0605V34.2648C24.725 34.4153 25.25 34.7917 25.325 34.8669C25.4 34.9422 26.525 34.8669 26.75 34.8669C26.93 34.8669 27.0751 34.7164 27.125 34.6411H28.4V34.9422C28.4 35.0927 28.175 35.7701 28.1 35.8454C28.025 35.9207 27.8 35.9959 27.575 36.297Z" fill="black"/>
<path d="M25.1619 35.8003L24.4 36.4003L23.7905 35.8003L23.2571 36.067L22.8 35.6003H26L25.5428 36.1337L25.1619 35.8003Z" fill="black"/>
<path d="M16.9621 23.4926C16.0695 23.1234 15.1025 22.8772 14.7306 22.8003C14.6314 22.8515 14.4331 23.0157 14.4331 23.2618C14.4331 23.5695 14.3587 23.8772 14.4331 24.4926C14.5074 25.108 15.1025 25.4926 16.1439 25.9541C17.1853 26.4157 18.9705 26.8003 20.2351 26.8003C21.4996 26.8003 20.3095 25.4926 19.8631 25.1849C19.4168 24.8772 18.0779 23.9541 16.9621 23.4926Z" fill="black"/>
<path d="M18.1837 21.4512C17.5167 21.5705 16.5919 21.6003 16.2129 21.6003C15.8338 21.5506 15.0303 21.317 14.8484 20.7802C14.621 20.1092 15.2274 19.3636 15.9855 18.9908C16.7435 18.618 17.7289 18.7672 18.3353 19.6618C18.9418 20.5565 19.0176 21.3021 18.1837 21.4512Z" fill="white"/>
<path d="M31.8379 23.0925C32.7305 22.7232 33.6975 22.4771 34.0694 22.4001C34.1686 22.4514 34.3669 22.6155 34.3669 22.8617C34.3669 23.1694 34.4413 23.4771 34.3669 24.0925C34.2926 24.7078 33.6975 25.0925 32.6561 25.554C31.6147 26.0155 29.8295 26.4001 28.5649 26.4001C27.3004 26.4001 28.4905 25.0925 28.9368 24.7848C29.3832 24.4771 30.7221 23.554 31.8379 23.0925Z" fill="black"/>
<path d="M29.4163 21.4512C30.0833 21.5705 31.0081 21.6003 31.3871 21.6003C31.7661 21.5506 32.5697 21.317 32.7516 20.7802C32.979 20.1092 32.3726 19.3636 31.6145 18.9908C30.8565 18.618 29.8711 18.7672 29.2647 19.6618C28.6582 20.5565 28.5824 21.3021 29.4163 21.4512Z" fill="white"/>
<path d="M12.9717 15.8701C12.4266 16.4654 11.3819 17.8049 10.9276 18.4003C10.6248 17.7553 9.95855 16.0338 9.71629 14.3073C9.47403 12.5808 9.66582 9.91657 9.792 8.80029C10.1201 8.8251 11.079 9.09797 12.2903 9.99099C13.5017 10.884 15.2682 12.546 16 13.2654C15.2177 13.8856 13.5168 15.2747 12.9717 15.8701Z" fill="#FF8C30"/>
<path fill-rule="evenodd" clip-rule="evenodd" d="M9.60001 10.2179C10.7906 10.7147 12.3578 11.4742 13.0145 12.1606C13.6808 12.8569 14.2669 13.7787 14.6148 14.4003C15.1372 13.9672 15.6563 13.5511 16 13.2807C15.26 12.5589 13.4738 10.8911 12.249 9.99506C11.0242 9.09899 10.0546 8.82519 9.72288 8.80029C9.68328 9.148 9.63729 9.6454 9.60001 10.2179Z" fill="#FF9A32"/>
<path d="M34.6283 15.8701C35.1734 16.4654 36.2182 17.8049 36.6724 18.4003C36.9752 17.7553 37.6415 16.0338 37.8837 14.3073C38.126 12.5808 37.9342 9.91657 37.808 8.80029C37.4799 8.8251 36.521 9.09797 35.3097 9.99099C34.0984 10.884 32.3318 12.546 31.6 13.2654C32.3824 13.8856 34.0832 15.2747 34.6283 15.8701Z" fill="#FF8C30"/>
<path fill-rule="evenodd" clip-rule="evenodd" d="M38 10.2179C36.8094 10.7147 35.2422 11.4742 34.5854 12.1606C33.9192 12.8569 33.3331 13.7787 32.9852 14.4003C32.4629 13.9672 31.9437 13.5511 31.6 13.2807C32.3399 12.5589 34.1261 10.8911 35.3509 9.99506C36.5757 9.09899 37.5453 8.82519 37.8771 8.80029C37.9167 9.148 37.9627 9.6454 38 10.2179Z" fill="#FF9A32"/>
</svg>
