<svg width="48" height="48" viewBox="0 0 48 48" fill="none" xmlns="http://www.w3.org/2000/svg">
<circle cx="24" cy="24" r="24" fill="#EDF0F4"/>
<path d="M14.5069 11.6001L39.2 28.2729L33.0931 37.2001L8.40002 20.396L14.5069 11.6001Z" fill="url(#paint0_linear_110_2066)"/>
<path d="M39.4682 28.3067C37.3575 31.3878 30.2341 30.1822 23.5064 25.3595C16.6468 20.6709 12.9531 14.3746 14.9319 11.2935C17.0425 8.21236 24.166 9.41802 30.8937 14.2407C37.7533 18.7954 41.4469 25.2256 39.4682 28.3067Z" fill="url(#paint1_linear_110_2066)"/>
<path d="M33.0657 37.1178C30.9483 40.1788 23.802 38.981 17.0527 34.1899C10.3034 29.3987 6.46561 23.2766 8.58303 20.0825C10.7004 17.0215 17.8467 18.2193 24.596 23.0104C31.3453 27.8016 35.0507 34.0568 33.0657 37.1178Z" fill="url(#paint2_linear_110_2066)"/>
<path d="M39.1019 28.1678V28.1678L32.9917 37.162V37.162C30.8664 40.2042 23.6936 38.8815 16.9193 34.2521C15.591 33.3262 14.3955 32.4003 13.2 31.3422C14.1298 31.2099 15.3253 30.6809 16.5208 29.3582C18.646 27.1096 19.7087 26.5805 20.6385 26.7128C21.5683 26.7128 22.631 27.6387 24.3577 29.8872C26.0845 32.1358 28.4755 32.7971 29.9366 31.6067C30.0694 31.4745 30.2023 31.4745 30.3351 31.3422C31.5306 30.4163 31.9291 30.0195 34.1872 25.7869C34.7185 24.7288 36.5781 23.0093 39.1019 23.8029C39.766 25.5224 39.766 26.9773 39.1019 28.1678Z" fill="#0E0F23"/>
<path fill-rule="evenodd" clip-rule="evenodd" d="M37.9796 27.8354C36.1316 30.4915 29.6639 29.1634 23.4601 24.7809C17.1243 20.3985 13.4284 14.8207 15.2764 12.1647C17.1243 9.50863 23.5921 10.8367 29.7959 15.2192C35.9996 19.6016 39.6955 25.1794 37.9796 27.8354ZM32.1718 23.8513C31.2478 25.1794 28.0799 24.5153 24.912 22.3905C21.8761 20.2657 20.0282 17.4768 20.9522 16.1488C21.8761 14.8207 25.044 15.4848 28.2119 17.6096C31.2478 19.7344 33.0957 22.5233 32.1718 23.8513Z" fill="white"/>
<path d="M13.9552 14.1567C13.9552 14.0459 13.8352 13.9351 13.7152 14.0459C13.5952 14.1567 13.4752 14.1567 13.4752 14.2675C13.5952 14.6 13.7152 14.8216 13.7152 15.0433C13.7152 15.1541 13.8352 15.2649 13.9552 15.1541C14.0752 15.1541 14.1952 15.0433 14.0752 14.9325C14.0752 14.7108 14.0752 14.4892 13.9552 14.1567Z" fill="white"/>
<path d="M14.7915 16.1889C14.7915 16.0553 14.661 15.9217 14.5305 16.0553C14.4 16.1889 14.4 16.1889 14.4 16.3225C15.8353 19.6621 18.8363 23.2689 22.7506 25.9406C22.8811 26.0742 23.0116 25.9406 23.142 25.9406C23.2725 25.807 23.142 25.6735 23.142 25.5399C19.0972 22.8682 16.2267 19.395 14.7915 16.1889Z" fill="white"/>
<path d="M30.6462 29.4402C30.5231 29.4402 30.4 29.4402 30.4 29.5602C30.4 29.6802 30.4 29.8002 30.5231 29.8002C30.8923 29.9202 31.3846 30.0402 31.7539 30.1602C31.8769 30.1602 32 30.1602 32 30.0402C32 29.9202 32 29.8002 31.8769 29.8002C31.5077 29.6802 31.0154 29.5602 30.6462 29.4402Z" fill="white"/>
<path d="M33.0571 29.8752C32.9286 29.8752 32.8 29.9952 32.8 30.1152C32.8 30.2352 32.9286 30.3552 33.0571 30.3552C34.0857 30.4752 35.2428 30.5952 36.1428 30.4752C36.2714 30.4752 36.4 30.3552 36.4 30.2352C36.4 30.1152 36.2714 29.9952 36.1428 29.9952C35.1143 30.1152 34.0857 29.9952 33.0571 29.8752Z" fill="white"/>
<defs>
<linearGradient id="paint0_linear_110_2066" x1="9.34186" y1="11.2646" x2="12.785" y2="28.1888" gradientUnits="userSpaceOnUse">
<stop stop-color="#03B8FF"/>
<stop offset="1" stop-color="#FA52A0"/>
</linearGradient>
<linearGradient id="paint1_linear_110_2066" x1="13.0996" y1="9.62817" x2="16.2465" y2="26.9093" gradientUnits="userSpaceOnUse">
<stop stop-color="#03B8FF"/>
<stop offset="1" stop-color="#FA52A0"/>
</linearGradient>
<linearGradient id="paint2_linear_110_2066" x1="4.77631" y1="12.0141" x2="7.93443" y2="29.1883" gradientUnits="userSpaceOnUse">
<stop stop-color="#03B8FF"/>
<stop offset="1" stop-color="#FA52A0"/>
</linearGradient>
</defs>
</svg>
