<svg width="48" height="48" viewBox="0 0 48 48" fill="none" xmlns="http://www.w3.org/2000/svg">
<path fill-rule="evenodd" clip-rule="evenodd" d="M24 48C10.8 48 0 37.2002 0 23.8805C0.12 10.6808 10.8 -0.119007 24.12 0.000990408C37.32 0.120988 48 10.8008 48 24.2405C47.88 37.3202 37.2 48 24 48" fill="#FC070C"/>
<path fill-rule="evenodd" clip-rule="evenodd" d="M41.1007 18.9222C40.4457 18.3174 39.6863 17.5801 38.895 16.8118C37.7835 15.7326 36.609 14.5922 35.5725 13.6722L35.4675 13.5987C35.2927 13.4584 35.0958 13.3484 34.8847 13.2732L34.0847 13.124L34.0847 13.124L34.0846 13.124L34.0845 13.1239C28.5643 12.0939 10.6723 8.75549 10.3043 8.80025C10.1954 8.8155 10.0914 8.85497 9.99978 8.91575L9.90003 8.9945C9.77721 9.11924 9.68392 9.26994 9.62703 9.4355L9.60078 9.50375V9.8765V9.93425C10.8155 13.3167 13.971 20.8704 16.8846 27.8452L16.8847 27.8454L16.8847 27.8455L16.8848 27.8456L16.8848 27.8457C19.3481 33.7425 21.6385 39.2254 22.437 41.4236L22.4373 41.4245C22.5424 41.7503 22.7418 42.3687 23.1142 42.4001H23.1982C23.3977 42.4001 24.2482 41.2766 24.2482 41.2766C24.2482 41.2766 39.4522 22.8387 40.9904 20.8752C41.1895 20.6334 41.3653 20.3732 41.5154 20.0982C41.5934 19.6606 41.4359 19.2141 41.1007 18.9222ZM28.1488 21.0694L34.6378 15.6882L38.444 19.1952L28.1488 21.0694ZM14.457 11.5617L25.629 20.7177L32.5327 14.8955L14.457 11.5617ZM26.6368 23.117L38.0713 21.2742L24.9988 37.0242L26.6368 23.117ZM24.6946 22.4502L12.9398 12.4752L22.9936 37.0346L24.6946 22.4502Z" fill="white"/>
</svg>
