<svg width="48" height="48" viewBox="0 0 48 48" fill="none" xmlns="http://www.w3.org/2000/svg">
<path d="M46.5 29.6124L46.472 29.7248C43.3257 42.0863 30.7762 49.5952 18.3836 46.5052C5.95897 43.4068 -1.60487 30.8179 1.49498 18.3904L1.49503 18.3902C4.59217 5.9602 17.1803 -1.60406 29.6063 1.49439L29.6064 1.49441C42.0354 4.59288 49.5988 17.1832 46.5 29.6124Z" fill="url(#paint0_linear_110_409)" stroke="#FFD9EC" stroke-width="1.6"/>
<path d="M20.212 14.8232C19.8871 14.7768 19.8716 14.7613 20.0263 14.7458C20.3203 14.6994 21.0011 14.7613 21.4807 14.8696C22.5947 15.1326 23.6004 15.8134 24.6679 17.0047L24.9464 17.3296L25.3487 17.2677C27.0661 16.9892 28.8299 17.2058 30.2997 17.8866C30.702 18.0723 31.3363 18.4436 31.4137 18.5364C31.4446 18.5674 31.491 18.7685 31.522 18.9696C31.6303 19.6968 31.5839 20.2383 31.3518 20.6561C31.228 20.8882 31.228 20.95 31.3054 21.1512C31.3672 21.3059 31.5529 21.4142 31.7231 21.4142C32.0944 21.4142 32.4812 20.8263 32.6669 20.0063L32.7442 19.6814L32.8835 19.8361C33.6726 20.718 34.2914 21.9402 34.3843 22.8067L34.4152 23.0388L34.276 22.8376C34.0439 22.4818 33.8273 22.2497 33.5333 22.0486C33.0073 21.6927 32.4503 21.5844 30.9804 21.507C29.6499 21.4297 28.8917 21.3214 28.1491 21.0738C26.8804 20.6561 26.2306 20.1146 24.7298 18.1187C24.0645 17.2368 23.6468 16.7572 23.229 16.3549C22.3162 15.473 21.4033 15.0088 20.212 14.8232Z" fill="#FF007A"/>
<path d="M31.7388 16.7879C31.7698 16.2 31.8471 15.8132 32.0173 15.4574C32.0792 15.3181 32.1411 15.1943 32.1566 15.1943C32.1721 15.1943 32.1411 15.3026 32.0947 15.4264C31.9709 15.7668 31.9554 16.2464 32.0328 16.7879C32.1411 17.4842 32.1875 17.577 32.9302 18.3351C33.2706 18.691 33.6728 19.1397 33.8275 19.3253L34.0906 19.6657L33.8275 19.4182C33.5026 19.1087 32.76 18.5208 32.5898 18.4434C32.4815 18.3815 32.466 18.3815 32.3887 18.4589C32.3268 18.5208 32.3113 18.6136 32.3113 19.0623C32.2958 19.7585 32.203 20.1918 31.9709 20.6404C31.8471 20.8725 31.8317 20.8261 31.94 20.5631C32.0173 20.3619 32.0328 20.2691 32.0328 19.6038C32.0328 18.2578 31.8781 17.9329 30.9343 17.3913C30.7022 17.2521 30.3 17.051 30.0679 16.9427C29.8203 16.8344 29.6347 16.7415 29.6501 16.7415C29.6811 16.7106 30.5939 16.9736 30.9498 17.1283C31.4913 17.3449 31.5841 17.3604 31.646 17.3449C31.6924 17.2985 31.7234 17.1747 31.7388 16.7879Z" fill="#FF007A"/>
<path d="M20.8466 19.0933C20.1968 18.1959 19.779 16.8034 19.8719 15.7668L19.9028 15.4419L20.0575 15.4728C20.336 15.5193 20.8156 15.7049 21.0477 15.8442C21.6666 16.2155 21.9451 16.7261 22.2081 17.9948C22.2855 18.3661 22.3938 18.7993 22.4402 18.9385C22.5175 19.1706 22.8115 19.7121 23.0591 20.0525C23.2293 20.3001 23.121 20.4238 22.7342 20.3929C22.1462 20.331 21.3572 19.7895 20.8466 19.0933Z" fill="#FF007A"/>
<path d="M30.9496 25.8237C27.8862 24.5859 26.8031 23.5184 26.8031 21.7081C26.8031 21.4451 26.8186 21.2285 26.8186 21.2285C26.8341 21.2285 26.9424 21.3213 27.0816 21.4297C27.7005 21.9248 28.3967 22.1414 30.3307 22.4199C31.4602 22.59 32.11 22.7138 32.6979 22.915C34.57 23.5338 35.7304 24.8025 36.0089 26.5199C36.0863 27.015 36.0399 27.9588 35.9161 28.4539C35.8078 28.8407 35.4983 29.5524 35.421 29.5679C35.4055 29.5679 35.3746 29.4905 35.3746 29.3667C35.3436 28.7169 35.0187 28.098 34.4772 27.6184C33.8274 27.0614 32.9919 26.6437 30.9496 25.8237Z" fill="#FF007A"/>
<path d="M28.7836 26.3343C28.7527 26.1022 28.6753 25.8082 28.6289 25.6845L28.5515 25.4524L28.6908 25.6226C28.8919 25.8547 29.0466 26.1332 29.1859 26.52C29.2942 26.8139 29.2942 26.9068 29.2942 27.3864C29.2942 27.8505 29.2787 27.9588 29.1859 28.2219C29.0312 28.6396 28.8455 28.9336 28.5361 29.2585C27.9791 29.8309 27.2519 30.1404 26.2153 30.2796C26.0296 30.2951 25.5036 30.3415 25.0394 30.3725C23.879 30.4343 23.1054 30.5581 22.4092 30.8057C22.3164 30.8366 22.2235 30.8676 22.2081 30.8521C22.1771 30.8211 22.6567 30.5426 23.0435 30.357C23.5851 30.094 24.142 29.9547 25.3643 29.7381C25.9677 29.6453 26.5866 29.5215 26.7413 29.4596C28.273 28.98 29.0312 27.7886 28.7836 26.3343Z" fill="#FF007A"/>
<path d="M30.1914 28.8252C29.7892 27.9433 29.6963 27.1078 29.9129 26.3188C29.9439 26.2414 29.9748 26.1641 30.0058 26.1641C30.0367 26.1641 30.1295 26.2105 30.2224 26.2724C30.408 26.3961 30.7948 26.6127 31.785 27.1543C33.0383 27.835 33.75 28.3611 34.2451 28.9645C34.6783 29.4905 34.9413 30.0939 35.0651 30.8366C35.1424 31.2543 35.096 32.26 34.9877 32.6777C34.6473 33.9928 33.8737 35.0449 32.7443 35.6483C32.5741 35.7412 32.4349 35.8031 32.4194 35.8031C32.4039 35.8031 32.4658 35.6483 32.5586 35.4627C32.93 34.6736 32.9764 33.9155 32.6979 33.0645C32.5277 32.5385 32.1718 31.9041 31.4601 30.8366C30.6092 29.5988 30.408 29.2739 30.1914 28.8252Z" fill="#FF007A"/>
<path d="M18.6648 33.5596C19.8097 32.6003 21.2176 31.9196 22.5173 31.703C23.0742 31.6101 24.0026 31.6411 24.5131 31.7803C25.3331 31.9969 26.0758 32.4611 26.4626 33.0335C26.8339 33.5905 27.0041 34.0702 27.1743 35.1377C27.2362 35.5555 27.3135 35.9887 27.329 36.0815C27.4528 36.6385 27.7003 37.0717 28.0098 37.3038C28.4894 37.6596 29.3249 37.6751 30.1449 37.3657C30.2841 37.3193 30.4079 37.2728 30.4079 37.2883C30.4389 37.3193 30.0211 37.5978 29.7426 37.737C29.3558 37.9381 29.0464 38 28.6287 38C27.886 38 27.2517 37.6132 26.7411 36.8396C26.6328 36.6849 26.4162 36.2362 26.2305 35.8185C25.689 34.5653 25.4105 34.1939 24.7762 33.7762C24.2192 33.4203 23.5075 33.343 22.9659 33.606C22.2542 33.9464 22.0686 34.8592 22.5637 35.4162C22.7648 35.6483 23.1361 35.834 23.4456 35.8804C24.018 35.9577 24.5131 35.5091 24.5131 34.9366C24.5131 34.5653 24.3739 34.3487 24.0026 34.1785C23.5075 33.9619 22.9659 34.2094 22.9814 34.689C22.9814 34.8902 23.0742 35.014 23.2754 35.1068C23.3992 35.1687 23.3992 35.1687 23.3063 35.1532C22.8576 35.0604 22.7493 34.5034 23.1052 34.1475C23.5384 33.7143 24.4512 33.9 24.7607 34.5034C24.8845 34.7509 24.8999 35.246 24.7916 35.5555C24.5286 36.2362 23.7859 36.5921 23.0278 36.3909C22.5173 36.2517 22.3006 36.1125 21.6818 35.4781C20.5987 34.3641 20.181 34.1475 18.6338 33.9154L18.3398 33.869L18.6648 33.5596Z" fill="#FF007A"/>
<path fill-rule="evenodd" clip-rule="evenodd" d="M10.5267 8.66529C14.1317 13.0438 19.6861 19.8515 19.9646 20.2228C20.1967 20.5322 20.1038 20.8262 19.717 21.0428C19.5004 21.1666 19.0517 21.2904 18.8351 21.2904C18.5876 21.2904 18.2936 21.1666 18.0925 20.9654C17.9532 20.8262 17.3498 19.9443 15.9883 17.8247C14.9517 16.2001 14.0698 14.854 14.0543 14.8386C13.9924 14.8076 13.9924 14.8076 15.88 18.1805C17.0713 20.3002 17.4581 21.0583 17.4581 21.1511C17.4581 21.3522 17.3963 21.4605 17.1487 21.739C16.731 22.2032 16.5453 22.7292 16.4061 23.8277C16.2513 25.05 15.8336 25.9165 14.6423 27.3863C13.946 28.2527 13.8377 28.4074 13.6675 28.7633C13.4509 29.1965 13.389 29.444 13.3581 30.001C13.3271 30.589 13.389 30.9603 13.5592 31.5173C13.7139 32.0124 13.8841 32.3373 14.3019 32.9716C14.6577 33.5286 14.8743 33.9464 14.8743 34.1011C14.8743 34.2249 14.9053 34.2249 15.4623 34.1011C16.7928 33.7916 17.8914 33.2656 18.4948 32.6158C18.8661 32.2135 18.9589 31.9969 18.9589 31.4399C18.9589 31.0841 18.9434 31.0067 18.8506 30.7901C18.6959 30.4497 18.4019 30.1712 17.7676 29.738C16.9321 29.1655 16.5762 28.7014 16.4834 28.0825C16.4061 27.5565 16.4989 27.2006 16.963 26.2259C17.4427 25.2202 17.5664 24.8025 17.6438 23.7813C17.6902 23.1315 17.7676 22.8685 17.9532 22.6674C18.1544 22.4507 18.3246 22.3734 18.8042 22.3115C19.5933 22.2032 20.1038 22.0021 20.5061 21.6153C20.862 21.2904 21.0167 20.9654 21.0321 20.4858L21.0476 20.13L20.8465 19.9134C20.1193 19.0779 10.0471 8 10.0007 8C9.98522 8 10.2328 8.29397 10.5267 8.66529ZM15.2766 30.6663C15.4468 30.3724 15.3539 30.001 15.0754 29.8154C14.8124 29.6452 14.4102 29.7226 14.4102 29.9546C14.4102 30.0165 14.4411 30.0784 14.5339 30.1093C14.6732 30.1867 14.6887 30.2641 14.5803 30.4343C14.472 30.6045 14.472 30.7592 14.6113 30.8675C14.8279 31.0377 15.1219 30.9448 15.2766 30.6663Z" fill="#FF007A"/>
<path fill-rule="evenodd" clip-rule="evenodd" d="M21.5428 22.5281C21.1715 22.6364 20.8156 23.0386 20.7073 23.4409C20.6454 23.6884 20.6764 24.1371 20.7847 24.2764C20.9549 24.493 21.1096 24.5549 21.5428 24.5549C22.3938 24.5549 23.1209 24.1835 23.1983 23.7349C23.2757 23.3635 22.9507 22.853 22.5021 22.6209C22.27 22.4971 21.7904 22.4507 21.5428 22.5281ZM22.533 23.3018C22.6568 23.1161 22.6103 22.915 22.3783 22.7757C21.9605 22.5127 21.3262 22.7293 21.3262 23.1316C21.3262 23.3327 21.6511 23.5493 21.9605 23.5493C22.1617 23.5493 22.4401 23.4255 22.533 23.3018Z" fill="#FF007A"/>
<defs>
<linearGradient id="paint0_linear_110_409" x1="0" y1="0" x2="0" y2="48" gradientUnits="userSpaceOnUse">
<stop stop-color="#FEF3F9"/>
<stop offset="1" stop-color="#FDE5F2"/>
</linearGradient>
</defs>
</svg>
