<svg width="48" height="48" viewBox="0 0 48 48" fill="none" xmlns="http://www.w3.org/2000/svg">
<path d="M47.2766 29.8057C44.0712 42.663 31.0489 50.4877 18.1901 47.2815C5.33667 44.0761 -2.48802 31.053 0.718765 18.1967C3.92273 5.33806 16.9451 -2.48721 29.7999 0.718162C42.6577 3.92354 50.4819 16.9481 47.2762 29.806L47.2765 29.8057H47.2766Z" fill="#50AF95"/>
<path fill-rule="evenodd" clip-rule="evenodd" d="M27.037 26.721V26.721C26.8673 26.7337 25.9905 26.786 24.0347 26.786C22.4791 26.786 21.3746 26.7393 20.9871 26.721V26.721C14.9754 26.4565 10.4882 25.41 10.4882 24.157C10.4882 22.9041 14.9754 21.859 20.9871 21.5903V25.6787C21.3802 25.707 22.5059 25.7735 24.0615 25.7735C25.9282 25.7735 26.863 25.6957 27.0313 25.6801V21.5931C33.0303 21.8604 37.5076 22.9069 37.5076 24.157C37.5076 25.4072 33.0317 26.4537 27.0313 26.7195V26.7195L27.037 26.721ZM27.037 21.1703V17.5118H35.4089V11.9329H12.6151V17.5118H20.9857V21.1689C14.1821 21.4814 9.06554 22.8291 9.06554 24.4441C9.06554 26.0591 14.1821 27.4054 20.9857 27.7194V39.4429H27.0355V27.7151C33.8236 27.4026 38.9316 26.0563 38.9316 24.4427C38.9316 22.8291 33.8279 21.4828 27.0355 21.1689V21.1689L27.037 21.1703Z" fill="white"/>
</svg>
