<svg width="48" height="48" viewBox="0 0 48 48" fill="none" xmlns="http://www.w3.org/2000/svg">
<circle cx="24" cy="24" r="24" fill="#51CBFF"/>
<path d="M21.9512 36.7398L9.26502 10.9002C9.05887 10.4879 9.36883 10 9.82562 10H14.2214C14.4572 10 14.6782 10.1335 14.782 10.3396L24.0468 29.0856C24.8729 30.7674 27.2621 30.7674 28.0881 29.0856L37.3232 10.3545C37.427 10.1483 37.648 10.0148 37.8838 10.0148H38.4296C38.7544 10.0148 38.9605 10.3545 38.8137 10.6348L25.9941 36.7398C25.168 38.4201 22.7773 38.4201 21.9512 36.7398Z" fill="white"/>
<path opacity="0.1" d="M21.9512 36.7398L14.782 10.3545C14.6782 10.1335 14.4424 10.0149 14.2511 10.0149H9.84041C9.35397 10.0149 9.07367 10.5013 9.26498 10.9151L21.9512 36.7398Z" fill="white"/>
<path opacity="0.1" d="M24.0468 29.099L9.26507 10.9002C9.08859 10.4731 9.35406 10.0445 9.76635 10H14.2363C14.487 10.0148 14.6783 10.1765 14.7673 10.3396L24.0468 29.099Z" fill="white"/>
</svg>
