<svg width="48" height="48" viewBox="0 0 48 48" fill="none" xmlns="http://www.w3.org/2000/svg">
<circle cx="24" cy="24" r="24" fill="black"/>
<path d="M36.244 13.3447L32.1721 15.4193L12.5095 25.4344C12.443 24.9273 12.4096 24.4164 12.4094 23.905C12.4148 19.7527 14.6181 15.9137 18.2006 13.8144C21.783 11.715 26.2091 11.6691 29.8343 13.6938L32.165 12.5063L32.5126 12.3289C28.1593 9.16914 22.4016 8.71822 17.6094 11.1617C12.8172 13.6052 9.80057 18.5301 9.80112 23.9092C9.80112 24.2736 9.81495 24.6365 9.84261 24.998C9.92183 26.0448 9.36439 27.0367 8.42905 27.5133L7.20004 28.1399V31.0629L10.8184 29.2187V29.2187L11.9901 28.6207L13.1448 28.0326V28.0326L33.8733 17.4709L36.2025 16.2849L41.0169 13.8311V10.9096L36.244 13.3447Z" fill="white"/>
<path d="M41.0169 16.7554L14.3222 30.3474L11.993 31.5363L7.20004 33.9786V36.8987L11.9601 34.4736L16.032 32.399L35.7146 22.3696C35.7812 22.88 35.8146 23.3943 35.8148 23.9091C35.8122 28.0663 33.6064 31.9106 30.0186 34.0107C26.4308 36.1108 21.9988 36.1519 18.3727 34.1188L18.2296 34.1946L15.7029 35.4823C20.0552 38.6421 25.8119 39.0941 30.6041 36.6523C35.3962 34.2105 38.4141 29.2874 38.4159 23.9091C38.4159 23.5414 38.4015 23.1737 38.3744 22.8102C38.2953 21.7639 38.852 20.7723 39.7865 20.295L41.0169 19.6684V16.7554Z" fill="white"/>
</svg>
