<svg width="48" height="48" viewBox="0 0 48 48" fill="none" xmlns="http://www.w3.org/2000/svg">
<path d="M47.2766 29.8057C44.0712 42.663 31.0489 50.4877 18.1901 47.2815C5.33667 44.0761 -2.48802 31.053 0.718765 18.1967C3.92273 5.33806 16.9451 -2.48721 29.7999 0.718162C42.6577 3.92354 50.4819 16.9481 47.2762 29.806L47.2765 29.8057H47.2766Z" fill="#2C7DF7"/>
<path d="M27.58 40C25.2966 40 23.6299 39.45 22.5799 38.3499C21.6073 37.4188 21.0429 36.1405 21.0101 34.7944C20.9983 34.3855 21.093 33.9805 21.2851 33.6192C21.4642 33.3071 21.723 33.0482 22.035 32.8688C22.7701 32.5021 23.6348 32.5021 24.37 32.8688C24.6814 33.0475 24.939 33.3067 25.1156 33.6192C25.3132 33.9787 25.4116 34.3843 25.4005 34.7944C25.4209 35.2841 25.2804 35.767 25.0005 36.1694C24.7672 36.4978 24.4338 36.7418 24.0502 36.8648C24.4253 37.3425 24.9561 37.6734 25.5501 37.7999C26.2147 37.993 26.903 38.0922 27.5951 38.0948C28.5113 38.1028 29.4087 37.8345 30.1701 37.3249C30.9601 36.7668 31.5492 35.9691 31.8501 35.0499C32.2316 33.956 32.4177 32.8034 32.4001 31.645C32.4309 30.4373 32.2271 29.2351 31.8001 28.1049C31.4789 27.201 30.8692 26.4279 30.0651 25.9049C29.3177 25.4319 28.45 25.1838 27.5656 25.19C26.7948 25.2553 26.0517 25.5076 25.4005 25.925L23.7951 26.7299V25.925L31.01 16.2461H21.0101V26.29C20.9818 27.0148 21.1736 27.7312 21.5601 28.345C21.9405 28.889 22.5777 29.1943 23.24 29.1499C23.8417 29.1377 24.4235 28.9327 24.8999 28.5649C25.4399 28.1692 25.9097 27.6859 26.29 27.1349C26.3242 27.0383 26.3873 26.9545 26.4708 26.895C26.5377 26.8371 26.6233 26.8052 26.7118 26.805C26.8855 26.8209 27.0499 26.8908 27.1819 27.0049C27.349 27.1917 27.4399 27.4343 27.4368 27.6849C27.4175 27.8533 27.3874 28.0203 27.3468 28.1849C26.9916 29.0447 26.3961 29.784 25.6317 30.3142C24.9217 30.7946 24.0832 31.0493 23.226 31.045C21.0609 31.045 19.561 30.6183 18.7263 29.765C17.8596 28.8122 17.4127 27.5508 17.4863 26.2649V16.2461H12.4V14.3799H17.51V10.1249L16.3401 8.95417V8H19.7349L21.0101 8.66009V14.3799L34.2199 14.3397L35.535 15.6597L27.435 23.7991C27.9243 23.6023 28.4397 23.4777 28.9649 23.4291C30.0044 23.4746 31.0185 23.7641 31.9254 24.2742C32.9756 24.7733 33.8606 25.5631 34.4756 26.5499C35.0266 27.3853 35.4166 28.3163 35.6256 29.2949C35.7974 30.0669 35.8895 30.8544 35.9006 31.6452C35.906 33.1543 35.5638 34.6444 34.9006 36.0001C34.2717 37.3128 33.2132 38.3713 31.9005 39.0002C30.5568 39.6623 29.078 40.0045 27.58 40V40Z" fill="white"/>
</svg>
