<svg width="48" height="48" viewBox="0 0 48 48" fill="none" xmlns="http://www.w3.org/2000/svg">
<path fill-rule="evenodd" clip-rule="evenodd" d="M24 0C37.2528 0 48 10.7472 48 24C48 37.2528 37.2528 48 24 48C10.7472 48 0 37.2528 0 24C0 10.7472 10.7472 0 24 0Z" fill="#006AE3"/>
<path d="M23.0112 34.1184V14.1504H25.1856V34.1184H23.0112V34.1184Z" fill="white"/>
<path d="M34.08 20.8031L27.3648 22.5839L25.8672 15.6143L27.864 15.1631L28.6512 18.4655C28.6512 18.4655 30.4656 15.4895 28.0464 12.4079C26.6208 10.8239 25.944 10.7567 24.3456 10.5071C22.9392 10.3055 19.6704 10.7807 18.696 14.5967C18.2832 17.0543 18.7488 18.8735 21.9168 21.2543L21.7392 23.9039C21.7392 23.9039 18.2016 21.4127 17.2896 19.6655C16.584 18.2831 15.3744 15.5519 17.5584 11.7503C18.7344 9.84954 21.0528 8.02554 25.1376 8.21754C27.192 8.30394 32.208 10.8143 31.4304 16.6799C31.296 17.7791 30.7248 19.2431 30.7248 19.2431L33.48 18.6287L34.08 20.8031Z" fill="white"/>
<path d="M30.2448 36.4271C29.016 38.2943 26.6496 40.0559 22.5744 39.7583C20.52 39.6191 15.576 36.9743 16.5072 31.1327C16.6704 30.0383 17.28 28.5935 17.28 28.5935L14.5104 29.1311L13.968 26.9471L20.7312 25.3439L22.0464 32.3519L20.0352 32.7503L19.3344 29.4239C19.3344 29.4239 17.4432 32.3471 19.776 35.4959C21.1584 37.1183 21.8304 37.1999 23.4288 37.4927C24.8256 37.7327 28.1088 37.3391 29.184 33.5519C29.6592 31.1087 29.2416 29.2751 26.1408 26.8079L26.3904 24.1631C26.3904 24.1631 29.8608 26.7455 30.7248 28.5167C31.3872 29.9231 32.5248 32.6879 30.2448 36.4271V36.4271Z" fill="white"/>
</svg>
